<svg id="Capa_1" enable-background="new 0 0 512 512" height="512" viewBox="0 0 512 512" width="512" xmlns="http://www.w3.org/2000/svg"><g><path d="m419.709 408.714h-68.856v-30h68.856c10.713 0 19.43-8.717 19.43-19.431v-137.71c0-10.714-8.716-19.431-19.43-19.431h-50.638v-30h50.638c27.256 0 49.43 22.175 49.43 49.431v137.71c-.001 27.256-22.174 49.431-49.43 49.431z" fill="#8fc3d9"/><path d="m382.522 146.29-26.6 292.57-128 6.96-.701.04-127.299-7-26.6-292.57 154.6-7z" fill="#fff375"/><path d="m382.522 146.29-26.6 292.57-128 6.96v-306.53z" fill="#fdbf00"/><path d="m99.922 438.86h256v73.14h-256z" fill="#bde3ed"/><path d="m227.922 438.86h128v73.14h-128z" fill="#8fc3d9"/><path d="m389.172 73.14-6.65 73.15h-309.2l-6.65-73.15-23.81-73.14h45.24c16.56 0 32.77 3.29 47.78 9.51 15 6.21 28.8 15.35 40.51 27.06 14.52 14.53 32.25 25.1 51.53 31.03 11.8 3.64 24.18 5.54 36.76 5.54z" fill="#edf9ff"/><path d="m389.172 73.14-6.65 73.15h-154.6v-78.69c11.8 3.64 24.18 5.54 36.76 5.54z" fill="#c0e1f0"/><path d="m227.919 340.408h31.783v31.783h-31.783z" fill="#fe9100"/><path d="m285.316 285.57h31.783v31.783h-31.783z" fill="#fe9100"/><path d="m212.922 260.43h30v30h-30z" fill="#fdbf00"/><path d="m227.922 260.43h15v30h-15z" fill="#fe9100"/></g></svg>