<svg enable-background="new 0 0 64 64" viewBox="0 0 64 64" xmlns="http://www.w3.org/2000/svg" xmlns:xlink="http://www.w3.org/1999/xlink"><linearGradient id="lg1"><stop offset="0" stop-color="#fef156"/><stop offset=".4469" stop-color="#ffc242"/><stop offset="1" stop-color="#fc753f"/></linearGradient><linearGradient id="SVGID_1_" gradientUnits="userSpaceOnUse" x1="16" x2="28" xlink:href="#lg1" y1="8.001" y2="8.001"/><linearGradient id="lg2"><stop offset="0" stop-color="#4d5460"/><stop offset=".4469" stop-color="#384051"/><stop offset="1" stop-color="#212335"/></linearGradient><linearGradient id="SVGID_00000156548496192954878500000015923957434940779936_" gradientUnits="userSpaceOnUse" x1="19.995" x2="24" xlink:href="#lg2" y1="15" y2="15"/><linearGradient id="SVGID_00000078752774327145849730000005063136323802962075_" gradientUnits="userSpaceOnUse" x1="36" x2="48" xlink:href="#lg1" y1="8.001" y2="8.001"/><linearGradient id="SVGID_00000129172582135400085220000011955728943567679140_" gradientUnits="userSpaceOnUse" x1="40" x2="44" xlink:href="#lg2" y1="15" y2="15"/><linearGradient id="SVGID_00000016762133004556708110000018317504156042789779_" gradientUnits="userSpaceOnUse" x1="42" x2="42" y1="15" y2="31"><stop offset="0" stop-color="#a4eeff"/><stop offset=".6343" stop-color="#02c0fc"/><stop offset=".7301" stop-color="#27a6ff"/></linearGradient><linearGradient id="SVGID_00000090997400835020374270000015428638947944227235_" gradientUnits="userSpaceOnUse" x1="32" x2="32" y1="32" y2="61"><stop offset="0" stop-color="#f9cb8f"/><stop offset=".5304" stop-color="#fcb043"/><stop offset=".6638" stop-color="#f4a037"/><stop offset=".909" stop-color="#df781b"/></linearGradient><linearGradient id="SVGID_00000145027182134600064560000007769740950156850069_" gradientUnits="userSpaceOnUse" x1="22" x2="22" y1="15" y2="31"><stop offset="0" stop-color="#a4eeff"/><stop offset=".5824" stop-color="#02c0fc"/><stop offset=".7779" stop-color="#27a6ff"/></linearGradient><linearGradient id="SVGID_00000005229659771832407710000016761455218020786051_" gradientUnits="userSpaceOnUse" x1="8" x2="56" y1="50.812" y2="50.812"><stop offset="0" stop-color="#df781b"/><stop offset=".4048" stop-color="#ce6810"/><stop offset=".6481" stop-color="#c15c08"/><stop offset="1" stop-color="#99490d"/></linearGradient><linearGradient id="SVGID_00000072268864313548757430000012722694724014273983_" gradientUnits="userSpaceOnUse" x1="33.363" x2="31.875" y1="65.337" y2="38.22"><stop offset=".5855" stop-color="#df781b" stop-opacity="0"/><stop offset=".6428" stop-color="#e5651e" stop-opacity=".075"/><stop offset=".758" stop-color="#f63524" stop-opacity=".225"/><stop offset=".8159" stop-color="#ff1b28" stop-opacity=".3"/></linearGradient><linearGradient id="SVGID_00000135670439354799318640000005212114800919431311_" gradientUnits="userSpaceOnUse" x1="5" x2="59" y1="61" y2="61"><stop offset=".0037" stop-color="#7994d8"/><stop offset=".0369" stop-color="#728dd2"/><stop offset=".1746" stop-color="#5c75bc"/><stop offset=".3208" stop-color="#4c64ac"/><stop offset=".48" stop-color="#425aa3"/><stop offset=".6766" stop-color="#3f57a0"/><stop offset="1" stop-color="#2a428b"/></linearGradient><linearGradient id="SVGID_00000110455077536003564600000012500252642489309578_" gradientUnits="userSpaceOnUse" x1="32" x2="32" y1="27" y2="43.62"><stop offset="0" stop-color="#fd77a6"/><stop offset=".4469" stop-color="#fe3d97"/><stop offset=".7758" stop-color="#e51e82"/></linearGradient><g id="Layer_1"/><g id="Cupcake"/><g id="Calendar"/><g id="Party_Blower_00000141448311218271697630000004458961663170121609_"/><g id="Speaker"/><g id="Microphone"/><g id="Pinata"/><g id="Softdrink"/><g id="Firework"/><g id="Doughnut"/><g id="Balloons"/><g id="Gift"/><g id="Stage_00000132768289369769708220000015331954408087855251_"/><g id="Candle"/><g id="Garland"/><g id="Eye_Mask"/><g id="Cotton_Candy"/><g id="Candy"/><g id="Birthday_Cake"><g><path d="m28 9c0 3.31-2.69 6-6 6s-6-2.69-6-6c0-2.85 3.54-6.42 4.62-7.45.78-.73 1.98-.73 2.76 0 1.08 1.03 4.62 4.6 4.62 7.45z" fill="url(#SVGID_1_)"/><path d="m22 19c-1.104 0-1.999-.894-2-1.998l-.005-4c-.001-1.104.893-2.001 1.998-2.002h.002c1.104 0 1.999.894 2 1.998l.005 4c.001 1.104-.893 2.001-1.998 2.002-.001 0-.001 0-.002 0z" fill="url(#SVGID_00000156548496192954878500000015923957434940779936_)"/><path d="m48 9c0 3.31-2.69 6-6 6-3.3 0-6-2.69-6-6 0-2.85 3.54-6.42 4.63-7.45.77-.73 1.98-.73 2.75 0 1.09 1.03 4.62 4.6 4.62 7.45z" fill="url(#SVGID_00000078752774327145849730000005063136323802962075_)"/><path d="m42 19c-1.104 0-2-.896-2-2v-4c0-1.104.896-2 2-2s2 .896 2 2v4c0 1.104-.896 2-2 2z" fill="url(#SVGID_00000129172582135400085220000011955728943567679140_)"/><path d="m48 17v12c0 1.1-.9 2-2 2h-8c-1.1 0-2-.9-2-2v-12c0-1.1.9-2 2-2h8c1.1 0 2 .9 2 2z" fill="url(#SVGID_00000016762133004556708110000018317504156042789779_)"/><path d="m56 34v27h-48v-27c0-1.1.9-2 2-2h44c1.1 0 2 .9 2 2z" fill="url(#SVGID_00000090997400835020374270000015428638947944227235_)"/><path d="m28 17v12c0 1.1-.9 2-2 2h-8c-1.11 0-2-.9-2-2v-12c0-1.1.89-2 2-2h8c1.1 0 2 .9 2 2z" fill="url(#SVGID_00000145027182134600064560000007769740950156850069_)"/><path d="m56 47.04v4h-2c-.06 0-.12-.01-.19-.01-1.22-.12-2.44.14-3.51.74l-2.76 1.56c-1.51.86-3.21 1.29-4.92 1.29-1.7 0-3.4-.43-4.91-1.29l-2.76-1.56c-1.82-1.02-4.08-1.02-5.9 0l-2.76 1.56c-3.03 1.71-6.8 1.71-9.83 0l-2.76-1.56c-1.07-.6-2.29-.86-3.51-.74-.06 0-.13.01-.19.01h-2v-4h1.91c2.01-.17 4 .26 5.76 1.25l2.76 1.56c1.81 1.03 4.08 1.03 5.9 0l2.75-1.56c3.04-1.71 6.8-1.71 9.84 0l2.76 1.56c1.81 1.03 4.07 1.03 5.9 0l2.75-1.56c1.76-.99 3.75-1.42 5.76-1.25z" fill="url(#SVGID_00000005229659771832407710000016761455218020786051_)"/><path d="m8 40.491 20.074 20.074h27.926v-20.074l-13.468-7.576h-27.489z" fill="url(#SVGID_00000072268864313548757430000012722694724014273983_)"/><path d="m57 63h-50c-1.104 0-2-.896-2-2s.896-2 2-2h50c1.104 0 2 .896 2 2s-.896 2-2 2z" fill="url(#SVGID_00000135670439354799318640000005212114800919431311_)"/><path d="m58.99 37.58c-.01.95-.49 1.81-1.31 2.38-.8.55-1.81.68-2.73.35-1.57-.54-3.15-.39-4.65.46l-2.76 1.56c-1.51.86-3.21 1.29-4.92 1.29-1.7 0-3.4-.43-4.91-1.29l-2.77-1.56c-1.78-1.01-4.1-1.01-5.89 0l-2.75 1.56c-3.04 1.72-6.81 1.72-9.84 0l-2.77-1.56c-1.49-.85-3.07-1-4.68-.45-.88.32-1.9.19-2.69-.36-.83-.57-1.31-1.45-1.31-2.41-.02-.82-.02-1.98-.01-3.15v-1.4c0-3.31 2.7-6 6.02-6h41.96c3.32 0 6.02 2.69 6.02 6v1.39c.01 1.17.01 2.32-.01 3.19z" fill="url(#SVGID_00000110455077536003564600000012500252642489309578_)"/></g></g><g id="Confetti"/><g id="Stage"/><g id="Layer_22" display="none"/></svg>