<svg id="Layer_1" enable-background="new 0 0 512.55 512.55" height="512" viewBox="0 0 512.55 512.55" width="512" xmlns="http://www.w3.org/2000/svg"><g><path d="m182.32 176.277h-76.64c-5.93 0-9.776-6.22-7.19-11.52 6.575-13.315 7.119-28.636 2.4-41.771-1.864-5.211 1.996-10.71 7.53-10.71h71.16c2.6 0 5.04 1.26 6.54 3.39 4.275 6.041-2.12 9.024-2.12 25.34 0 8.243 1.878 16.366 5.51 23.75 2.591 5.31-1.271 11.521-7.19 11.521z" fill="#e48c9b"/><path d="m191.21 113.097c-5.658 13.209-3.591 8.872-4.09 9.87-1.14 3.18-4.15 5.31-7.54 5.31h-71.16c-3.42 0-6.46-2.17-7.57-5.4-2.764-8.118-22.86-43.539-10.67-92.3 2.15-8.61 7.19-16.36 14.18-21.82 7.181-5.613 16.376-8.44 22.96-8.44 1.1-.061-.83-.04 31.7-.04 18.39 0 34.34 12.46 38.8 30.3 6.704 26.765 4.83 55.86-6.61 82.52z" fill="#edebfd"/><path d="m228.88 253.057c-2.738 5.098-3.478 8.294-7.83 9.47-4 1.068-6.457-1.068-8.77-2.53-42.317-27.054-100.203-27.101-143.95 5.021-5.985 4.4-14.351-1.134-12.48-8.44 13.694-53.372 37.977-82.275 42.64-91.8 1.34-2.75 4.13-4.5 7.19-4.5h76.64c5.222 0 7.132 4.469 7.23 4.57 0 3.103 22.799 28.607 38.13 76.3 1.739 5.353 3.124 8.33 1.2 11.909z" fill="#edebfd"/><path d="m228.88 253.057c-2.738 5.098-3.478 8.294-7.83 9.47-4 1.068-6.457-1.068-8.77-2.53-42.317-27.054-100.203-27.101-143.95 5.021-2.643 1.943-6.228 2.073-8.99.31 44.996-44.251 113.509-53.433 168.34-24.18 1.739 5.353 3.124 8.33 1.2 11.909z" fill="#d2d2fc"/><path d="m189.55 164.847c-.097-.1-1.998-4.57-7.23-4.57h-28.75c-3.759-9.579-4.721-20.999-2.05-32h28.06c3.39 0 6.4-2.13 7.54-5.31-3.832 10.738-4.219 22.696-.69 34.07 1.542 4.906 3.013 7.484 3.12 7.81z" fill="#cc5b6f"/><path d="m157.21 113.097c11.416-26.603 13.329-55.695 6.61-82.52-4.3-17.17-19.23-29.35-36.74-30.25.635-.078 4.134-.05 31.94-.05 18.39 0 34.34 12.46 38.8 30.3 6.704 26.766 4.83 55.86-6.61 82.52-5.658 13.209-3.591 8.872-4.09 9.87-1.14 3.18-4.15 5.31-7.54 5.31h-28.06c1.312-5.338 2.835-8.514 5.69-15.18z" fill="#d2d2fc"/><path d="m228.88 253.057c-2.738 5.098-3.478 8.294-7.83 9.47-4 1.068-6.457-1.068-8.77-2.53-9.321-5.959-16.67-8.734-16.67-8.89.32-1.34.29-2.771-.11-4.11-7.99-26.899-20.1-52.26-36.01-75.399-2.578-3.76-4.603-7.784-5.92-11.32h28.75c5.222 0 7.132 4.469 7.23 4.57 0 3.364 24.561 30.34 39.95 82.149.6 2.02.38 4.2-.62 6.06z" fill="#d2d2fc"/><path d="m454.32 176.277h-76.64c-5.93 0-9.776-6.22-7.19-11.52 6.575-13.315 7.119-28.636 2.4-41.771-1.864-5.211 1.996-10.71 7.53-10.71h71.16c2.6 0 5.04 1.26 6.54 3.39 4.275 6.041-2.12 9.024-2.12 25.34 0 8.243 1.878 16.366 5.51 23.75 2.591 5.31-1.271 11.521-7.19 11.521z" fill="#e48c9b"/><path d="m491.67 427.126-8.26 21.7c-3.54 9.24-12.55 15.45-22.44 15.45h-100.97c-3.32 0-6.29-2.05-7.48-5.15-6.275-16.48-3.853-5.198 2.69-36.489.78-3.7 4.04-6.36 7.83-6.36h121.15c5.592 0 9.466 5.595 7.48 10.849z" fill="#e48c9b"/><path d="m463.21 113.097c-5.658 13.209-3.591 8.872-4.09 9.87-1.14 3.18-4.15 5.31-7.54 5.31h-71.16c-3.42 0-6.46-2.17-7.57-5.4-2.764-8.118-22.86-43.539-10.67-92.3 4.499-18.015 21.09-30.26 37.34-30.26.926-.057-1.343-.04 31.5-.04 18.39 0 34.34 12.46 38.8 30.3 6.704 26.765 4.83 55.86-6.61 82.52z" fill="#edebfd"/><path d="m512.55 323.107c0 32.64-5.89 64.66-17.51 95.17l-3.37 8.85c-1.19 3.101-4.16 5.15-7.48 5.15h-121.15c-5.053 0-8.87-4.655-7.83-9.64 12.246-58.392 3.068-118.551-24.1-169.601-.99-1.859-1.21-4.02-.61-6.04 14.151-47.597 35.425-72.896 39.99-82.22 1.34-2.75 4.13-4.5 7.19-4.5h76.64c5.222 0 7.132 4.469 7.23 4.57 0 4.402 51 60.49 51 158.261z" fill="#edebfd"/><path d="m461.55 164.847c-.097-.1-1.998-4.57-7.23-4.57h-30.25c-3.759-9.579-4.721-20.999-2.05-32h29.56c3.39 0 6.4-2.13 7.54-5.31-3.832 10.738-4.219 22.696-.69 34.07 1.542 4.906 3.013 7.484 3.12 7.81z" fill="#cc5b6f"/><path d="m491.67 427.126-8.26 21.7c-3.54 9.24-12.55 15.45-22.44 15.45h-35.5c9.89 0 18.9-6.21 22.44-15.45l6.3-16.55h29.98c3.32.001 6.29-2.049 7.48-5.15z" fill="#cc5b6f"/><path d="m512.55 323.107c0 32.64-5.89 64.66-17.51 95.17l-3.37 8.85c-1.19 3.101-4.16 5.15-7.48 5.15h-29.98c2.407-6.325 1.258-3.307 5.33-14 30.77-80.79 21.089-173.015-29.55-246.68-2.578-3.76-4.603-7.784-5.92-11.32h30.25c5.222 0 7.132 4.469 7.23 4.57 0 4.401 51 60.489 51 158.26z" fill="#d2d2fc"/><path d="m463.21 113.097c-5.658 13.209-3.591 8.872-4.09 9.87-1.14 3.18-4.15 5.31-7.54 5.31h-29.56c.365-1.486 1.367-4.865 1.62-5.37 0-3.153 23.747-40.162 10.68-92.33-4.24-16.93-18.83-29.02-36.03-30.2 1.578-.135 1.219-.1 32.73-.1 18.39 0 34.34 12.46 38.8 30.3 6.704 26.765 4.83 55.86-6.61 82.52z" fill="#d2d2fc"/><path d="m387.71 416.277c-2.732 16.049-7.156 32.546-12.93 48h-14.78c-3.32 0-6.29-2.05-7.48-5.15-6.286-16.508-3.838-5.273 2.69-36.489.78-3.7 4.04-6.36 7.83-6.36h24.67z" fill="#cc5b6f"/><path d="m391.55 371.107c0 20.844-2.454 41.513-7.09 61.17h-21.42c-5.053 0-8.87-4.655-7.83-9.64 12.246-58.392 3.068-118.551-24.1-169.601-.99-1.859-1.21-4.02-.61-6.04 3.19-10.729 7.03-21.22 11.5-31.41 4.516 8.155 49.55 65.049 49.55 155.521z" fill="#d2d2fc"/><path d="m355.67 475.126-8.26 21.7c-3.54 9.24-12.55 15.45-22.44 15.45h-89.94c-9.89 0-18.9-6.21-22.43-15.44l-3.96-10.39c-1.36-3.58 0-7.61 3.25-9.64 14.474-9.019 14.532-12.53 19.76-12.53h116.54c5.592.001 9.466 5.596 7.48 10.85z" fill="#e48c9b"/><path d="m318.32 224.277h-76.64c-5.93 0-9.776-6.22-7.19-11.52 6.564-13.293 7.128-28.614 2.4-41.771-1.864-5.212 1.997-10.71 7.53-10.71h71.16c2.6 0 5.04 1.26 6.54 3.39 4.274 6.041-2.12 9.029-2.12 25.341 0 8.243 1.878 16.366 5.51 23.75 2.591 5.309-1.271 11.52-7.19 11.52z" fill="#e48c9b"/><path d="m376.55 371.107c0 26.232-3.868 53.045-12.04 79.32-2.826 9.128-5.05 14.716-8.84 24.699-1.19 3.101-4.16 5.15-7.48 5.15h-116.54c-7.471 0-10.827-9.347-5.16-14.11 65.238-55.062 59.491-157.424-11.93-204.699-3.36-2.23-4.54-6.62-2.74-10.23 10.962-22.042 18.743-30.439 22.67-38.46 1.34-2.75 4.13-4.5 7.19-4.5h76.64c5.222 0 7.132 4.469 7.23 4.57 0 3.788 51 61.607 51 158.26z" fill="#edebfd"/><path d="m327.21 161.097c-5.508 12.858-3.745 9.163-4.09 9.87-1.14 3.18-4.15 5.31-7.54 5.31h-71.16c-3.42 0-6.46-2.17-7.57-5.4-2.765-8.118-22.86-43.539-10.67-92.3 4.123-16.51 18.383-28.813 35.67-30.17 2.281-.186 1.086-.13 33.17-.13 18.39 0 34.34 12.46 38.8 30.3 6.703 26.758 4.833 55.851-6.61 82.52z" fill="#edebfd"/><path d="m325.55 212.847c-.097-.1-1.998-4.57-7.23-4.57h-26.94c-3.588-9.231-4.553-20.942-1.73-32h25.93c3.39 0 6.4-2.13 7.54-5.31-3.825 10.716-4.225 22.674-.69 34.069 1.542 4.907 3.013 7.485 3.12 7.811z" fill="#cc5b6f"/><path d="m295.21 161.597c11.415-26.604 13.329-55.697 6.61-82.521-4.46-17.84-20.41-30.3-38.8-30.3-5.528 0-4.806.058-2.72-.22.244 0 2.036-.28 4.68-.28h30.04c18.39 0 34.34 12.46 38.8 30.3 7.447 29.731 4.8 60.634-10.7 92.391-1.14 3.18-4.15 5.31-7.54 5.31h-25.93c1.286-5.081 2.756-8.134 5.56-14.68z" fill="#d2d2fc"/><path d="m355.67 475.126-8.26 21.7c-3.54 9.24-12.55 15.45-22.44 15.45h-27.24c7.93-1.63 14.72-7.22 17.68-14.95l6.49-17.05h26.29c3.32.001 6.29-2.049 7.48-5.15z" fill="#cc5b6f"/><path d="m376.55 371.107c0 26.232-3.868 53.045-12.04 79.32-2.826 9.128-5.05 14.716-8.84 24.699-1.19 3.101-4.16 5.15-7.48 5.15h-26.29c7.048-18.518 12.33-31.633 16.97-53.86 12.859-61.221 3.668-125.332-25.64-180.399-12.493-23.461-17.642-26.201-21.85-37.74h26.94c5.222 0 7.132 4.469 7.23 4.57 0 3.788 51 61.607 51 158.26z" fill="#d2d2fc"/><path d="m250.52 480.277h-18.87c-7.471 0-10.827-9.347-5.16-14.11 65.238-55.062 59.491-157.424-11.93-204.699-3.36-2.23-4.54-6.62-2.74-10.23 2.366-4.758 5.082-9.751 7.63-14.15 98.359 44.628 113.684 176.657 31.07 243.189z" fill="#d2d2fc"/><circle cx="144" cy="368.277" fill="#696ead" r="144"/><path d="m223.4 248.126c-29.073-19.242-64.113-27.33-99.4-22.453 70.879 9.861 124 70.582 124 142.604 0 72.235-53.362 132.756-123.966 142.609 40.589 5.653 81.425-6.054 112.776-32.499 73.392-61.91 66.906-177.087-13.41-230.261z" fill="#505795"/><circle cx="152" cy="280.277" fill="#595965" r="24"/><path d="m160 257.654c-15.589-5.532-32 6.113-32 22.623 0 16.55 16.441 28.145 32 22.623-21.28-7.552-21.284-37.693 0-45.246z" fill="#44454e"/><circle cx="88" cy="320.277" fill="#595965" r="24"/><path d="m96 297.654c-15.589-5.532-32 6.113-32 22.623 0 16.55 16.441 28.145 32 22.623-21.28-7.552-21.284-37.693 0-45.246z" fill="#44454e"/><circle cx="152" cy="360.277" fill="#595965" r="24"/><path d="m160 337.654c-15.589-5.532-32 6.113-32 22.623 0 16.55 16.441 28.145 32 22.623-21.28-7.552-21.284-37.693 0-45.246z" fill="#44454e"/></g></svg>