<svg id="Layer_1" enable-background="new 0 0 80 80" height="512" viewBox="0 0 80 80" width="512" xmlns="http://www.w3.org/2000/svg"><g id="_x36_8"><g><path d="m71.7529373 48.4170876c-.6201324 1.08004-1.8301163 1.7300758-3.0801392 1.9900894-.6101151.1399574-1.2002182.1499672-1.8000793.1499672-2.4151993 0-1.9550095.2654266-4.0601349.4500198-3.0300865.3499832-6.1900597.0499878-9.1801033-.4300003-10.4051857-1.7048378-11.9516945-7.9074707-14.8703995-13.0802612-1.4299583-2.5500374-3.2000084-4.930088-4.3199043-7.6201401-1.1201363-2.6800423.0600586-5.5701122.079834-8.4701309.0450096-3.5073071 2.5485535-7.184495 4.0701447-7.6901464 2.0307274-.7223835 5.5281334 1.351819 3.6699944 6.4000845.5500565-.4500217 1.4302025-.4500217 1.9800148-.0100098.5500603.4500198.6902008 1.290062.320076 1.8800392 7.0522461 3.7310772 7.9982147 4.1309452 8.950119 5.4401054.7002068.9600391.9502144 2.1500645.8601227 3.3000488-.0869179.9985867-.3462105 2.1280327-.9199371 2.9600792-.0700722.1099854-.3801346.4400101-.3100662.5800285.0200195.039978.0700722.0700073.1699257.0700073h.0800781c.1398964-.0200195.2600174-.1100502.3698807-.200016.6601677-.4899979 1.3801537-.6600456 2.1201591-.9700508.8100739-.3399696 1.7099915-.5199661 2.5801239-.6699944.39991-.0800209.8398628-.1300087 1.1999741.0499878.694046.347023 1.0125542 1.418438-.1901894 2.7800827 2.8855019-1.4412842 4.4791641.170845 3.890213 1.4800072 0 .1553726-.5134811.6673164.1499023.7800446 1.7551537.2333069 3.2067223 1.1509323 4.3802071 2.4300385 1.9700088 2.130043 5.7200774 5.2001114 3.8601836 8.4001198z" fill="#f34036"/></g><g><path d="m66.8727188 50.5571442c-2.4151993 0-1.9550095.2654266-4.0601349.4500198-3.0300865.3499832-6.1900597.0499878-9.1801033-.4300003-10.4051857-1.7048378-11.9516945-7.9074707-14.8703995-13.0802612-1.4299583-2.5500374-3.2000084-4.930088-4.3199043-7.6201401-1.1201363-2.6800423.0600586-5.5701122.079834-8.4701309.0100098-.7800426.1301308-1.5500774.3400955-2.3000908 2.4776344 6.8304539 5.3635063 6.3089695 9.0502205 8.7201958 3.3599243 2.2100029 5.300148 6.4100914 4.7901268 10.4001579 1.9299698-.9099884 4.2500801-.6800041 6.2000694.1800575 4.2254486 1.8852348 9.4240532 8.3309746 11.9701958 12.1501923z" fill="#e11a17"/></g><g><path d="m23.2287922 50.8176003c-2.9570313-3.7216797-5.2011719-7.8740234-6.6689453-12.340332-.2470703-.7573242-.4970703-1.6391602-.3388672-2.5341797.1484375-.9121094.8710938-1.9008789 1.9628906-2.0146484 1.1969471-.1047325 2.3123016 1.1500778 1.7597656 2.2197266-.1269531.2460938-.4296875.340332-.6748047.2138672-.2451172-.1269531-.3408203-.4287109-.2138672-.6738281.1653252-.3185234-.3389568-.8003082-.7744141-.7641602-.5800781.0600586-.9873047.65625-1.0742188 1.1860352-.1181641.6748047.0849609 1.3852539.3037109 2.0561523 1.4306641 4.3525391 3.6181641 8.4003906 6.5019531 12.0292969.171875.2163086.1357422.5307617-.0800781.7026367-.2211607.1734389-.5332468.1330412-.7031248-.0805665z" fill="#ed9923"/></g><g><path d="m8.1838713 53.1691628c1.4750032-2.3490295 8.3909311-4.868515 14.7578115-2.2851563.2568359.1040039.3798828.3955078.2753906.6513672-.1025391.2558594-.3955078.3774414-.6503906.2753906-5.9406509-2.4092445-12.3713341.0317001-13.5361319 1.890625-.3164063.5029297-.4169922 1.2563477.0039063 1.7236328.6186399.6922379 1.9016209.3842773 2.1230469-.6313477.0585938-.2700195.3222656-.4414063.5947266-.3828125.2695313.0585938.4404297.3251953.3818359.5947266-.171875.7949219-.7880859 1.4614258-1.5683594 1.6972656-1.988349.6057549-3.6434026-1.5274772-2.3818359-3.5336913z" fill="#ed9923"/></g><g><g><path d="m58.7126541 43.416996c-5.8501091-5.5511017-8.7564545-5.4781647-13.6504059-2.7200241 2.1401787-1.3900414 2.6501961-4.5500717 1.6301575-6.9301224-1.1001167-2.570055-3.4502602-4.420126-5.7100677-6.1601486-2.1683807-1.6112328-4.933239-1.6143875-5.9402962-3.5000668-.4199295-.7600231-.4099197-1.6700134-.5398064-2.5100574-.3709183-2.4228172-1.7758904-2.1161556-2.2700615-2.6299934-.2602577-.2800331-.2700233-.7100353-.3501034-1.0800362-.1499062-.7700348-.7199841-1.4200096-1.4499779-1.7300129-2.3792973-.9797363-5.2021255 1.211668-6.3101788 3.3100586-.8601227 1.5699768-1.1799526 3.3600483-1.3899174 5.1100826-1.1731014 10.5687943 2.4297333 21.4839096 9.3600368 29.3505249 2.240036.4900017 4.3902206 1.6500587 5.690052 3.4801102 4.646019.8007317 12.2425385 1.7827911 17.9402771 2.7400398 1.8801613.3100052 3.8601799.6200066 5.6302338-.0300293 2.1799698-.8200226 3.6001625-3.010067 3.8201408-5.2601089.4471209-4.6801491-3.1643026-8.3030701-6.4600828-11.4402161zm-14.2302475-2.3899994c.1799316-.0900307.3498573-.2100258.5297928-.3000565-.1499062.1100503-.3398514.2100258-.5297928.3000565z" fill="#f56357"/></g></g><g><path d="m42.782177 66.2674637c-.7228622-.2243805-7.0394363-2.8079376-8.0499573-3.2500648-7.3424702-3.1788406-6.36236-6.1437302-8.3102131-7.2801666-.884655-.4927597-1.660284-.2742043-2.6802254-.8299713-1.7355137-1.0163422-1.8056259-3.6505508.2500038-4.6001205.9490604-.4325447 2.1352825-.2522621 2.9202213.3900223.8498688.7199821.9399586 2.0400162 1.9800167 2.5500336.9799995.4799881 2.0600986.5100212 3.1199322.5900383 1.775589.1091843 3.0228195.4064369 5.1202126 2.3899994 1.0198021.9293289 1.5207329 2.0775414 2.1399345 3.1500816.9101715 1.5900574 2.3201103 2.9100304 3.9900627 3.7400627.5038719.2457085 1.1609535.5109138 1.5300598.8800201 1.3954659 1.2876204.0804559 2.9441298-2.0100478 2.2700652z" fill="#f9da58"/></g><g><path d="m25.3450031 51.270237c.2705078-.0415039.5302734.137207.5761719.4101563.0458984.2724609-.1376953.5302734-.4101563.5761719-.3809738.0634956-.6106033.4429588-.4658203.7822266.1083984.2539063-.0097656.5478516-.2636719.65625-1.0319957.4378165-1.2263011-2.1240617.5634766-2.4248048z" fill="#ed9923"/></g><g><path d="m35.04813 58.2975807c-.2050781-.1850586-.2216797-.5009766-.0361328-.7060547.5048828-.5610352.8496094-1.2753906.9697266-2.0112305.0449219-.2729492.3046875-.4584961.5732422-.4130859.2724609.0444336.4580078.3012695.4130859.5742188-.1523438.9360352-.5722656 1.8071289-1.2138672 2.519043-.1852226.2063102-.5012588.2210082-.7060547.0371093z" fill="#ed9923"/></g><g><path d="m33.7219582 56.0334206c-.2119141-.1777344-.2392578-.4931641-.0615234-.7045898.1875-.2241211.2822266-.5166016.2597656-.8022461-.0224609-.2753906.1826172-.5166016.4580078-.5385742 1.1733131-.0680161.2297554 2.7837485-.65625 2.0454101z" fill="#ed9923"/></g><g><path d="m37.032505 59.2629128c-.2431641-.1308594-.3339844-.434082-.203125-.6772461.2783203-.5161133.4511719-1.0966797.5009766-1.6787109.0234375-.2753906.2734375-.4780273.5410156-.4555664.2744141.0234375.4785156.265625.4550781.5405273-.0615234.7172852-.2744141 1.4321289-.6162109 2.0673828-.1315536.2433014-.4326324.3340225-.6777344.2036133z" fill="#ed9923"/></g><g><path d="m40.4022484 57.827301c-.8801422-.1300087-1.7500305-.2700272-2.620163-.4199905-1.2998314-1.8300514-3.450016-2.9901085-5.690052-3.4801102-.7400017-.8399811-1.4399662-1.7200012-2.1001358-2.6300545 3.6272621.6155472 7.4391937 1.5903435 9.4801598 4.690094.3801345.570015.6701774 1.2000313.930191 1.8400612z" fill="#e11a17"/></g><g><path d="m51.0452003 36.2414284c-.0888672-.2617188.0517578-.5454102.3134766-.6333008.6484375-.21875 1.1650391-.7915039 1.3164063-1.4589844.0605469-.2685547.3271484-.4389648.5976563-.3774414.2695313.0610352.4384766.3286133.3769531.5981445-.2255859 1-1 1.8579102-1.9707031 2.1855469-.2615586.0879822-.5454026-.0512581-.6337892-.3139648z" fill="#e21b18"/></g><g><path d="m40.9670753 21.7931881c.015625-.7036133.3193359-1.3842773.8320313-1.8681641.2011719-.1889648.5175781-.1796875.7060547.0205078.1894531.2011719.1806641.5175781-.0205078.7070313-.3144531.296875-.5078125.7314453-.5175781 1.1630859-.0143052.6650524-1.0141411.6432553-1.0000001-.0224609z" fill="#e21b18"/></g><g><path d="m60.7375832 39.3703346c-.1347656-.2407227-.0488281-.5454102.1923828-.6806641.6289063-.3515625 1.1542969-.8666992 1.5214844-1.4887695.1396484-.2392578.4472656-.3164063.6845703-.1767578.2382813.1401367.3173828.4467773.1767578.6845703-.4560547.7744141-1.1113281 1.4155273-1.8945313 1.8540039-.2411117.1342926-.5453415.0487557-.680664-.1923828z" fill="#e21b18"/></g><g><path d="m39.3127785 44.8351784c-.0976563-.2587891.0332031-.546875.2919922-.644043 2.4863281-.9331055 4.7285156-2.6191406 6.3154297-4.746582.1650391-.222168.4794922-.2666016.6992188-.1020508.2216797.1650391.2666016.4785156.1015625.699707-1.6992188 2.2792969-4.1015625 4.0854492-6.7646484 5.0854492-.2582437.0962944-.5465204-.0335044-.6435548-.2924804z" fill="#e21b18"/></g><g><path d="m43.7221375 66.4174271c-.5643883.017662-1.2109146-.2180481-1.8198586-.4699783-1.1745415-.4739532-6.0133438-2.4239578-7.1700592-2.9300499-7.3424702-3.1788406-6.36236-6.1437302-8.3102131-7.2801666-1.1180611-.6227684-2.7753811-.1724892-3.6602249-1.8600197.8983383.4687195 2.0161037.3120422 3.0000572.6400261 1.5400677.5100212 2.4402313 2.0400162 3.4402485 3.3200722 3.6249657 4.5880889 9.6860237 6.5056456 14.5200501 8.5801162z" fill="#ef9f27"/></g><g><path d="m35.0285988 30.0085201c-1.1376953-.2226563-2.1767578-1.1240234-2.8505859-2.4726563-.9112072-1.8253155-1.2089233-4.7159386-3.2080097-5.4785156-1.0761719-.4106445-2.4775391.175293-2.9394531 1.2294922-.1113281.2529297-.4052734.3662109-.6591797.2568359-1.1654892-.5129967 1.3946533-3.3970222 3.9550781-2.4208984 3.5958958 1.3718529 2.6299877 7.2650204 5.8935566 7.9042969.2714844.0532227.4482422.315918.3945313.5869141-.0525476.2727871-.3183747.4472332-.5859376.3945312z" fill="#e21b18"/></g><g><path d="m57.7346535 56.5422096c1.6309853-2.6490936 1.2973061-6.07341-.8183594-8.3554688-.1875-.2026367-.1748047-.519043.0273438-.706543.203125-.1870117.5185547-.1767578.7070313.0268555 2.4190407 2.611721 2.8030663 6.5273743.9355469 9.5595703-.3426591.5546151-1.1988031.0410233-.8515626-.524414z" fill="#e21b18"/></g><g opacity=".56"><path d="m31.3407383 41.2077103c-.3963814-.864769-.4958496-1.9080925-.0688267-2.7581482s1.456707-1.4151993 2.3663673-1.1368828c1.1888237.3637238 2.3378677 2.3823395 1.8565254 3.9629364-.2793541.9173164-1.197876 1.6644402-2.1492882 1.5447807-1.2654419-.1591492-1.861927-1.4397964-2.3155899-2.5407295" fill="#fff"/></g></g></svg>