<svg id="Capa_1" enable-background="new 0 0 512 512" height="512" viewBox="0 0 512 512" width="512" xmlns="http://www.w3.org/2000/svg" xmlns:xlink="http://www.w3.org/1999/xlink"><linearGradient id="SVGID_1_" gradientUnits="userSpaceOnUse" x1="105.68" x2="447.123" y1="366.117" y2="366.117"><stop offset="0" stop-color="#a996eb"/><stop offset=".303" stop-color="#c5baeb"/><stop offset=".6926" stop-color="#fff"/><stop offset=".7749" stop-color="#fcfcfe"/><stop offset=".843" stop-color="#f4f1fb"/><stop offset=".9059" stop-color="#e5e0f6"/><stop offset=".9655" stop-color="#d1c8ef"/><stop offset=".9935" stop-color="#c5baeb"/></linearGradient><linearGradient id="SVGID_00000034057560207246621070000017214043061516125589_" gradientUnits="userSpaceOnUse" x1="50.868" x2="482.544" y1="302.073" y2="302.073"><stop offset="0" stop-color="#c5baeb"/><stop offset=".303" stop-color="#c5baeb"/><stop offset=".6926" stop-color="#fff"/><stop offset=".7749" stop-color="#fcfcfe"/><stop offset=".843" stop-color="#f4f1fb"/><stop offset=".9059" stop-color="#e5e0f6"/><stop offset=".9655" stop-color="#d1c8ef"/><stop offset=".9935" stop-color="#c5baeb"/></linearGradient><linearGradient id="SVGID_00000098193870027933751650000011522782208753946782_" gradientUnits="userSpaceOnUse" x1="-3.387" x2="502.726" y1="1.243" y2="293.447"><stop offset="0" stop-color="#f2effa"/><stop offset="1" stop-color="#fff"/></linearGradient><linearGradient id="SVGID_00000075139629837553616850000002598871996746403203_" gradientUnits="userSpaceOnUse" x1="429.518" x2="108.991" y1="58.741" y2="243.797"><stop offset="0" stop-color="#d7d1eb"/><stop offset="1" stop-color="#f2effa"/></linearGradient><linearGradient id="SVGID_00000018951530364622240790000007897018499085566850_" gradientUnits="userSpaceOnUse" x1="-87.895" x2="240.007" y1="-108.969" y2="166.7"><stop offset="0" stop-color="#f7e041"/><stop offset="1" stop-color="#fcf3b3"/></linearGradient><linearGradient id="lg1"><stop offset="0" stop-color="#efd5b3"/><stop offset="1" stop-color="#fbf5ec"/></linearGradient><linearGradient id="SVGID_00000176728128767842074020000012050183922854383801_" gradientTransform="matrix(.995 -.098 -.098 -.995 75.388 3170.418)" gradientUnits="userSpaceOnUse" x1="521.656" x2="550.888" xlink:href="#lg1" y1="2936.065" y2="2882.13"/><linearGradient id="SVGID_00000080166168826892281800000009047445560075334037_" gradientUnits="userSpaceOnUse" x1="250.072" x2="284.41" xlink:href="#lg1" y1="202.366" y2="139.01"/><linearGradient id="SVGID_00000160154806310450919920000006267053312839548822_" gradientTransform="matrix(.474 -.881 .881 .474 -533.414 2114.443)" gradientUnits="userSpaceOnUse" x1="1980.026" x2="2014.364" xlink:href="#lg1" y1="-207.587" y2="-270.944"/><linearGradient id="SVGID_00000080912265000128221310000014156899367019150744_" gradientUnits="userSpaceOnUse" x1="145.993" x2="175.226" xlink:href="#lg1" y1="200.37" y2="146.433"/><linearGradient id="SVGID_00000108270177665752517930000017494557904923604876_" gradientTransform="matrix(-.855 .518 -.518 -.855 3831.115 1937.495)" gradientUnits="userSpaceOnUse" x1="2047.267" x2="2076.501" xlink:href="#lg1" y1="3287.939" y2="3234.001"/><linearGradient id="SVGID_00000027572932065842765250000015089556187256985729_" gradientUnits="userSpaceOnUse" x1="195.637" x2="210.677" xlink:href="#lg1" y1="152.54" y2="124.791"/><linearGradient id="SVGID_00000181780412720122974000000013656523515967787148_" gradientUnits="userSpaceOnUse" x1="187.119" x2="208.919" xlink:href="#lg1" y1="218.636" y2="178.414"/><linearGradient id="SVGID_00000112618384737528405720000002072915296882580370_" gradientUnits="userSpaceOnUse" x1="334.307" x2="356.107" xlink:href="#lg1" y1="216.664" y2="176.442"/><linearGradient id="SVGID_00000106847211228118540860000000806532444853860751_" gradientUnits="userSpaceOnUse" x1="303.55" x2="325.349" xlink:href="#lg1" y1="178.068" y2="137.846"/><linearGradient id="SVGID_00000021079448909877849740000006800701562665887911_" gradientTransform="matrix(-1 0 0 1 3294.871 0)" gradientUnits="userSpaceOnUse" x1="2928.615" x2="2962.953" xlink:href="#lg1" y1="252.764" y2="189.408"/><linearGradient id="SVGID_00000164513673738425594110000018230487935303236228_" gradientTransform="matrix(.249 -.969 -.969 -.249 2594.505 3557.147)" gradientUnits="userSpaceOnUse" x1="2621.893" x2="2651.124" xlink:href="#lg1" y1="3108.277" y2="3054.344"/><linearGradient id="SVGID_00000137820227089896217150000012660619663624254622_" gradientTransform="matrix(-1 0 0 1 3294.871 0)" gradientUnits="userSpaceOnUse" x1="2888.132" x2="2917.365" xlink:href="#lg1" y1="186.899" y2="132.963"/><linearGradient id="SVGID_00000117647287541907874960000014958151839451431348_" gradientTransform="matrix(-.987 .164 .164 .987 3023.627 -278.968)" gradientUnits="userSpaceOnUse" x1="2909.271" x2="2938.505" xlink:href="#lg1" y1="60.191" y2="6.251"/><linearGradient id="SVGID_00000142148944771282358800000011022038833724453306_" gradientTransform="matrix(-1 0 0 1 3294.871 0)" gradientUnits="userSpaceOnUse" x1="3001.16" x2="3016.199" xlink:href="#lg1" y1="145.684" y2="117.935"/><linearGradient id="SVGID_00000053510639235771918730000002454386963206057354_" gradientTransform="matrix(-1 0 0 1 3294.871 0)" gradientUnits="userSpaceOnUse" x1="3045.906" x2="3060.946" xlink:href="#lg1" y1="266.646" y2="238.897"/><linearGradient id="SVGID_00000016776518870392707610000002186823088810217402_" gradientTransform="matrix(-1 0 0 1 3294.871 0)" gradientUnits="userSpaceOnUse" x1="3177.717" x2="3199.517" xlink:href="#lg1" y1="228.25" y2="188.028"/><linearGradient id="lg2"><stop offset="0" stop-color="#ff4757"/><stop offset=".0625" stop-color="#ff5554"/><stop offset=".2645" stop-color="#ff7d4a"/><stop offset=".4631" stop-color="#ff9c42"/><stop offset=".6552" stop-color="#ffb33c"/><stop offset=".8375" stop-color="#ffc039"/><stop offset="1" stop-color="#ffc538"/></linearGradient><linearGradient id="SVGID_00000140698652839769984530000000216644331763234979_" gradientTransform="matrix(.951 -.31 .31 .951 -370.47 543.935)" gradientUnits="userSpaceOnUse" x1="636.513" x2="735.69" xlink:href="#lg2" y1="-201.309" y2="-201.309"/><linearGradient id="SVGID_00000086658406984938028750000006481452755854139282_" gradientTransform="matrix(.951 -.31 .31 .951 -370.47 543.935)" gradientUnits="userSpaceOnUse" x1="648.172" x2="713.73" xlink:href="#lg2" y1="-238.468" y2="-200.618"/><linearGradient id="SVGID_00000082342693189009934810000012746840334631487623_" gradientTransform="matrix(.411 -.912 .912 .411 -388.93 2294.044)" gradientUnits="userSpaceOnUse" x1="2206.695" x2="2305.87" xlink:href="#lg2" y1="-236.1" y2="-236.1"/><linearGradient id="SVGID_00000174563381582595206480000017084747207621780355_" gradientTransform="matrix(.411 -.912 .912 .411 -388.93 2294.044)" gradientUnits="userSpaceOnUse" x1="2218.354" x2="2283.91" xlink:href="#lg2" y1="-273.258" y2="-235.409"/><linearGradient id="SVGID_00000053543692582457053300000008097912390361197471_" gradientTransform="matrix(-1 0 0 1 3074.498 0)" gradientUnits="userSpaceOnUse" x1="2600.478" x2="2736.499" xlink:href="#lg2" y1="187.689" y2="187.689"/><linearGradient id="SVGID_00000179604319115465518120000003073009559490450854_" gradientTransform="matrix(-1 0 0 1 3074.498 0)" gradientUnits="userSpaceOnUse" x1="2616.468" x2="2706.379" xlink:href="#lg2" y1="136.725" y2="188.636"/><linearGradient id="SVGID_00000144315847563001790640000010771628981432583081_" gradientTransform="matrix(-.631 -.776 -.776 .631 3691.975 1706.77)" gradientUnits="userSpaceOnUse" x1="3229.414" x2="3330.371" xlink:href="#lg2" y1="1705.467" y2="1705.467"/><linearGradient id="SVGID_00000057861411603762329290000005423646861017958545_" gradientTransform="matrix(-.631 -.776 -.776 .631 3691.975 1706.77)" gradientUnits="userSpaceOnUse" x1="3241.282" x2="3308.015" xlink:href="#lg2" y1="1667.64" y2="1706.168"/><linearGradient id="SVGID_00000034049741628655466210000017087959432859616424_" gradientTransform="matrix(-.631 -.776 -.776 .631 3691.975 1706.77)" gradientUnits="userSpaceOnUse" x1="3377.963" x2="3478.921" xlink:href="#lg2" y1="1797.446" y2="1797.446"/><linearGradient id="SVGID_00000138542402713363164160000006314920403698664349_" gradientTransform="matrix(-.631 -.776 -.776 .631 3691.975 1706.77)" gradientUnits="userSpaceOnUse" x1="3389.832" x2="3456.565" xlink:href="#lg2" y1="1759.619" y2="1798.148"/><linearGradient id="SVGID_00000078031074391021692870000005350774531264965538_" gradientTransform="matrix(-.973 -.231 -.231 .973 3379.073 404.997)" gradientUnits="userSpaceOnUse" x1="3073.795" x2="3209.824" xlink:href="#lg2" y1="569.225" y2="569.225"/><linearGradient id="SVGID_00000179635100232236697270000017181900592991252359_" gradientTransform="matrix(-.973 -.231 -.231 .973 3379.073 404.997)" gradientUnits="userSpaceOnUse" x1="3089.786" x2="3179.702" xlink:href="#lg2" y1="518.258" y2="570.171"/><linearGradient id="SVGID_00000093140960643355702780000008421395473724874382_" gradientUnits="userSpaceOnUse" x1="236.575" x2="286.873" y1="24.158" y2="333.681"><stop offset="0" stop-color="#f7e041"/><stop offset="1" stop-color="#fcf3b3" stop-opacity="0"/></linearGradient><linearGradient id="SVGID_00000036217707357954047110000006353913820272838293_" gradientTransform="matrix(.474 -.881 .881 .474 -533.414 2114.443)" gradientUnits="userSpaceOnUse" x1="2000.316" x2="2034.654" xlink:href="#lg1" y1="-185.899" y2="-249.255"/><linearGradient id="SVGID_00000129203985298752918920000011532773879110715025_" gradientUnits="userSpaceOnUse" x1="147.727" x2="162.766" xlink:href="#lg1" y1="169.344" y2="141.595"/><linearGradient id="SVGID_00000119079087129999295010000000324395408733593490_" gradientUnits="userSpaceOnUse" x1="332.493" x2="354.292" xlink:href="#lg1" y1="155.794" y2="115.572"/><linearGradient id="SVGID_00000051352065980239767240000009108089136328565181_" gradientTransform="matrix(-.917 -.398 -.398 .917 3750.747 777.353)" gradientUnits="userSpaceOnUse" x1="3299.934" x2="3334.272" xlink:href="#lg1" y1="846.378" y2="783.022"/><g><g><path d="m458.55 114.441c-3.283 0-6.475-1.703-8.235-4.751-2.622-4.543-1.065-10.352 3.477-12.974l37.054-21.393-55.409-31.989c-5.8-3.349-13.004-3.348-18.804 0l-37.149 21.448c-4.545 2.623-10.353 1.066-12.975-3.477s-1.065-10.352 3.477-12.975l37.149-21.448c11.659-6.731 26.143-6.731 37.8 0l58.647 33.859c5.271 3.044 8.418 8.495 8.418 14.581 0 6.087-3.147 11.538-8.418 14.581l-40.292 23.263c-1.496.865-3.129 1.275-4.74 1.275z" fill="#a996eb"/></g><path d="m403.515 447.324c-89.699 51.788-225.387 57.412-303.069 12.563-77.681-44.849-67.939-123.189 21.759-174.977 89.699-51.788 225.387-57.412 303.069-12.563 77.682 44.85 67.94 123.19-21.759 174.977z" fill="url(#SVGID_1_)"/><path d="m491.158 133.598-456.516 43.623v177.038c-1.407 31.483 16.864 61.727 55.644 84.117 82.541 47.655 226.718 41.679 322.027-13.349 52.234-30.158 78.946-68.788 78.839-105.392l.005-.001v-186.036z" fill="url(#SVGID_00000034057560207246621070000017214043061516125589_)"/><path d="m412.314 241.247c-95.31 55.027-239.486 61.004-322.027 13.349-82.541-47.655-72.19-130.895 23.12-185.922 95.31-55.027 239.486-61.004 322.027-13.349s72.19 130.895-23.12 185.922z" fill="url(#SVGID_00000098193870027933751650000011522782208753946782_)"/><path d="m397.392 232.632c-85.794 49.533-215.575 54.913-289.875 12.016s-64.982-117.826 20.812-167.359 215.575-54.913 289.875-12.016 64.982 117.826-20.812 167.359z" fill="url(#SVGID_00000075139629837553616850000002598871996746403203_)"/><path d="m418.204 127.177c-74.3-42.897-204.081-37.517-289.875 12.016-32.027 18.491-53.391 40.521-63.732 63.103 7.845 15.79 22.097 30.329 42.92 42.352 74.3 42.897 204.082 37.517 289.875-12.016 32.027-18.491 53.391-40.521 63.732-63.103-7.845-15.79-22.097-30.329-42.92-42.352z" fill="url(#SVGID_00000018951530364622240790000007897018499085566850_)"/><g><path d="m137.265 335.763c-5.246 0-9.498-4.252-9.498-9.498v-18.577c0-.128 0-.261-.227-.391-.222-.131-.338-.064-.45 0l-22.225 12.832c-11.659 6.731-26.143 6.731-37.8 0l-58.647-33.86c-5.271-3.043-8.418-8.494-8.418-14.581s3.147-11.538 8.418-14.581l25.367-14.646c6.087-3.515 13.359-3.515 19.449.001 6.089 3.515 9.723 9.811 9.723 16.841v18.578c0 5.246-4.252 9.498-9.498 9.498s-9.498-4.252-9.498-9.498v-18.578c0-.128 0-.26-.225-.391-.227-.13-.343-.064-.453 0l-22.128 12.776 55.408 31.99c5.8 3.349 13.004 3.348 18.804 0l22.225-12.832c6.087-3.515 13.356-3.515 19.446 0 6.089 3.515 9.725 9.812 9.725 16.842v18.577c0 5.246-4.252 9.498-9.498 9.498z" fill="#a996eb"/></g><g><g><path d="m361.979 235.37c-7.333 3.258-15.74 6.31-31.765 6.429s-29.829 4.703-29.829 4.703-4.691-4.87-5.217-6.924-.526-2.054-.526-2.054l4.879-1.452-6.896-.941-1.955-5.053s2.675-4.089 12.704-5.886 16.538.155 30.141.112 29.565-4.424 29.565-4.424l.716 7.276-3.204 2.337 4.813-.473c-.001-.001-.842 5.202-3.426 6.35z" fill="url(#SVGID_00000176728128767842074020000012050183922854383801_)"/><g><path d="m299.588 243.2c-.237 0-.468-.125-.592-.347-.183-.327-.066-.74.261-.924.278-.156 6.976-3.82 20.609-4.432 5.792-.26 11.618-.284 16.759-.305 7.028-.029 13.097-.054 16.843-.652.375-.062.717.192.778.563.058.37-.193.718-.563.777-3.851.615-9.968.64-17.052.669-5.128.021-10.94.045-16.704.304-13.314.598-19.942 4.225-20.007 4.261-.106.059-.22.086-.332.086z" fill="#efd5b3"/></g><g><path d="m344.588 234.511c-1.071 0-2.153-.039-3.236-.125-.374-.03-.653-.356-.623-.73.029-.374.379-.648.729-.623 10.656.845 21.56-3.133 21.669-3.173.354-.129.742.05.872.401.13.352-.049.742-.4.872-.411.152-9.247 3.378-19.011 3.378z" fill="#efd5b3"/></g><g><path d="m341.091 238.525c-.13 0-.261-.037-.376-.115-.099-.067-10.07-6.663-22.262-7.275-12.257-.61-22.187 2.874-22.287 2.91-.353.126-.739-.058-.867-.411-.126-.353.057-.741.411-.867.101-.036 10.275-3.617 22.812-2.986 12.579.632 22.531 7.223 22.949 7.503.311.209.395.63.186.941-.133.194-.347.3-.566.3z" fill="#efd5b3"/></g><g><path d="m291.581 233.109c-.254 0-.5-.145-.615-.391-.159-.339-.012-.743.327-.902.081-.038 8.214-3.818 17.144-5.183 6.392-.975 10.956-.593 17.866-.015 2.861.24 6.103.511 10.047.733 13.151.742 23.169-2.254 23.268-2.284.355-.11.737.093.847.451.109.358-.093.737-.452.847-.101.031-10.338 3.095-23.74 2.341-3.962-.224-7.214-.496-10.082-.736-6.817-.57-11.319-.947-17.549.004-8.729 1.334-16.693 5.032-16.772 5.069-.095.046-.193.066-.289.066z" fill="#efd5b3"/></g></g><g><path d="m234.037 119.758s9.848 18.165 26.7 33.922c16.852 15.758 31.515 22.761 42.677 29.327s22.542 15.758 22.542 15.758l-3.064 3.283-9.238-5.333 2.453 5.333-9.849 4.596-5.69-6.565.219 4.596-7.879-2.408s-6.566-15.758-24.731-24.731-31.296-25.606-38.737-38.956-4.377-26.481-4.377-26.481l2.189 5.471 1.532-7.441h4.596s-4.596 6.81-1.313 15.223 5.69 8.413 5.69 8.413-5.69-6.785-3.72-14.007z" fill="url(#SVGID_00000080166168826892281800000009047445560075334037_)"/><g><path d="m297.421 192.824c-.166 0-.331-.06-.462-.182-7.627-7.105-17.065-14.077-27.059-21.458-7.406-5.47-15.063-11.126-22.481-17.204-17.434-14.286-18.816-29.571-18.865-30.215-.029-.373.249-.699.623-.729.344-.023.7.249.729.623.013.152 1.415 15.376 18.374 29.272 7.39 6.056 15.034 11.702 22.427 17.162 10.024 7.405 19.494 14.4 27.177 21.557.274.255.289.685.034.959-.134.142-.315.215-.497.215z" fill="#efd5b3"/></g><g><path d="m310.463 205.361c-.204 0-.406-.092-.539-.267-.162-.212-16.314-21.292-32.717-32.703-16.551-11.514-29.48-25.104-29.608-25.239-.257-.272-.245-.702.026-.959.273-.258.702-.245.959.026.127.135 12.964 13.627 29.396 25.058 16.582 11.535 32.86 32.782 33.022 32.995.228.298.17.724-.129.951-.122.092-.266.138-.41.138z" fill="#efd5b3"/></g><g><path d="m284.624 182.075c-.087 0-.175-.017-.26-.052-.164-.068-16.541-6.902-27.955-14.832-11.431-7.942-20.241-18.64-20.329-18.747-.237-.29-.195-.717.095-.955.289-.237.718-.195.954.095.088.106 8.783 10.662 20.053 18.492 11.296 7.848 27.537 14.626 27.7 14.693.346.144.51.541.367.887-.107.261-.359.419-.625.419z" fill="#efd5b3"/></g><g><path d="m260.614 164.112c-.176 0-.353-.069-.486-.205-14.181-14.549-21.083-34.777-21.15-34.979-.119-.355.072-.74.427-.859.356-.12.739.072.859.427.068.2 6.877 20.142 20.838 34.464.261.268.256.698-.013.96-.133.128-.304.192-.475.192z" fill="#efd5b3"/></g><g><path d="m324.13 201.4c-.154 0-.309-.052-.436-.158-15.609-13.066-44.43-27.451-44.719-27.595-.335-.167-.472-.574-.305-.909.167-.337.576-.472.909-.306.29.144 29.254 14.602 44.987 27.77.286.24.325.668.085.956-.135.159-.327.242-.521.242z" fill="#efd5b3"/></g></g><g><path d="m141.777 247.428s20.663-.064 42.525-7.436 34.978-16.965 46.049-23.682 24.559-12.382 24.559-12.382l1.439 4.254-9.074 5.607 5.859.367-.62 10.85-8.478 1.899 4.151 1.985-5.854 5.797s-16.987-1.686-33.497 10.057-37.38 15.424-52.662 15.65-25.393-8.695-25.393-8.695l5.855.666-5.826-4.876 2.178-4.047s3.819 7.275 12.783 8.371 10.105-1.024 10.105-1.024-8.673 1.796-14.099-3.361z" fill="url(#SVGID_00000160154806310450919920000006267053312839548822_)"/><g><path d="m156.385 256.454c-8.313 0-13.333-2.146-13.68-2.299-.342-.151-.497-.551-.346-.894.15-.341.549-.499.893-.348.142.061 14.214 6.039 34.484-2.307 8.837-3.638 17.431-7.694 25.743-11.616 11.271-5.318 21.916-10.342 31.858-13.715.355-.12.739.069.861.424.121.355-.07.74-.424.86-9.87 3.349-20.481 8.356-31.716 13.657-8.327 3.929-16.938 7.993-25.805 11.644-8.589 3.538-16.039 4.594-21.868 4.594z" fill="#efd5b3"/></g><g><path d="m172.148 248.491c-.299 0-.572-.199-.655-.501-.098-.362.115-.734.477-.832.18-.048 18.144-4.958 35.996-14.01 18.016-9.134 44.44-13.4 44.705-13.442.359-.056.718.193.777.564.058.37-.193.717-.564.777-.262.042-26.48 4.275-44.302 13.312-17.982 9.118-36.076 14.061-36.256 14.11-.06.014-.119.022-.178.022z" fill="#efd5b3"/></g><g><path d="m167.874 259.236c-.318 0-.602-.225-.665-.549-.071-.368.17-.724.537-.795.134-.026 13.551-2.681 25.788-8.895 12.261-6.226 25.929-17.317 26.065-17.429.29-.235.717-.193.954.097s.193.718-.098.955c-.138.112-13.914 11.293-26.306 17.586-12.412 6.303-26.008 8.991-26.143 9.017-.045.009-.089.013-.132.013z" fill="#efd5b3"/></g><g><path d="m168.12 248.543c-9.206 0-15.811-1.1-15.927-1.119-.37-.063-.618-.414-.555-.783.064-.37.423-.617.783-.554.209.035 20.993 3.491 40.223-2.015.364-.104.737.106.839.465.103.36-.105.736-.465.839-8.643 2.474-17.59 3.167-24.898 3.167z" fill="#efd5b3"/></g><g><path d="m210.134 233.52c-.212 0-.421-.1-.554-.287-.216-.306-.144-.729.162-.946.265-.188 26.724-18.842 45.774-26.454.346-.138.742.031.881.378.139.348-.029.743-.378.882-18.9 7.552-45.229 26.115-45.493 26.302-.119.084-.256.125-.392.125z" fill="#efd5b3"/></g></g><g><path d="m196.89 157.184c-7.617-2.525-16.282-4.739-32.242-3.288s-30.146-1.759-30.146-1.759-4.191 5.306-4.514 7.402c-.322 2.096-.322 2.096-.322 2.096l4.997.967-6.771 1.612-1.451 5.221s3.063 3.807 13.219 4.613 16.443-1.773 29.985-3.063 29.856 1.508 29.856 1.508v-7.311l-3.418-2.012h4.836c.002-.002-1.345-5.097-4.029-5.986z" fill="url(#SVGID_00000080912265000128221310000014156899367019150744_)"/><g><path d="m150.591 159.304c-10.885 0-16.502-2.393-16.763-2.507-.343-.15-.499-.549-.35-.893.15-.343.549-.501.892-.351.07.03 7.053 2.989 20.329 2.282 5.761-.307 11.548-.852 16.653-1.334 7.052-.664 13.14-1.24 17.035-1.004.374.023.659.344.636.718-.022.373-.314.667-.718.636-3.783-.227-9.828.341-16.826 1-5.117.483-10.92 1.029-16.709 1.338-1.469.08-2.863.115-4.179.115z" fill="#efd5b3"/></g><g><path d="m198.745 162.577c-.057 0-.114-.007-.172-.022-.113-.03-11.354-2.921-21.875-1.036-.364.066-.722-.18-.787-.548-.066-.369.179-.721.549-.787 10.823-1.94 21.988.936 22.458 1.059.362.095.579.466.484.828-.081.304-.356.506-.657.506z" fill="#efd5b3"/></g><g><path d="m144.891 167.674c-7.934 0-13.62-1.391-13.697-1.41-.363-.091-.584-.459-.494-.822s.454-.584.823-.494c.102.025 10.338 2.525 22.466.713 12.073-1.803 21.351-9.344 21.443-9.419.286-.237.714-.198.954.092.238.289.197.716-.092.955-.388.32-9.649 7.854-22.104 9.714-3.286.49-6.44.671-9.299.671z" fill="#efd5b3"/></g><g><path d="m147.337 171.199c-.922 0-1.875-.025-2.875-.079-9.021-.483-17.485-3.449-17.57-3.478-.353-.125-.538-.513-.413-.866.127-.354.513-.538.867-.413.082.029 8.369 2.93 17.188 3.403 6.289.336 10.736-.479 17.463-1.714 2.833-.52 6.042-1.109 9.963-1.72 13.266-2.064 23.75-.016 23.856.005.367.074.605.431.531.798s-.432.605-.799.532c-.102-.02-10.372-2.021-23.379.005-3.902.607-7.104 1.195-9.927 1.713-5.765 1.059-9.877 1.814-14.905 1.814z" fill="#efd5b3"/></g></g><g><path d="m355.448 249.319c7.823-1.788 16.382-4.383 29.28-13.893 12.899-9.51 26.696-14.115 26.696-14.115s.836-6.71.026-8.669c-.81-1.96-.81-1.96-.81-1.96l-4.776 1.762 4.956-4.887-1.464-5.217s-4.592-1.669-13.697 2.903c-9.104 4.573-13.145 10.037-24.059 18.156-10.914 8.12-26.318 14.18-26.318 14.18l3.788 6.253 3.966-.05-4.137 2.506c.001 0 3.793 3.661 6.549 3.031z" fill="url(#SVGID_00000108270177665752517930000017494557904923604876_)"/><g><path d="m363.278 246.433c-.244 0-.478-.132-.6-.362-.175-.332-.048-.742.285-.916 3.356-1.766 8.229-5.383 13.869-9.572 4.129-3.065 8.809-6.54 13.603-9.804 11.278-7.681 18.836-8.762 19.151-8.804.36-.049.71.21.762.582.05.371-.211.712-.582.763-.074.01-7.586 1.102-18.568 8.581-4.77 3.248-9.438 6.714-13.557 9.772-5.687 4.222-10.598 7.868-14.048 9.683-.101.052-.208.077-.315.077z" fill="#efd5b3"/></g><g><path d="m351.42 246.926c-.293 0-.563-.191-.651-.486-.106-.359.098-.737.457-.843.111-.033 11.223-3.384 19.248-10.448.281-.248.71-.22.957.061.248.281.221.71-.061.957-8.254 7.266-19.291 10.592-19.758 10.73-.064.02-.129.029-.192.029z" fill="#efd5b3"/></g><g><path d="m373.652 239.461c-.074 0-.15-.012-.224-.038-.354-.124-.541-.511-.416-.864.166-.475 4.182-11.716 13.872-19.762 9.648-8.011 19.947-11.251 20.051-11.283.356-.111.738.09.848.448.111.358-.09.738-.448.849-.101.031-10.153 3.2-19.584 11.031-9.392 7.797-13.419 19.053-13.459 19.166-.098.278-.361.453-.64.453z" fill="#efd5b3"/></g><g><path d="m351.395 240.974c-.278 0-.538-.172-.637-.448-.128-.352.054-.741.407-.869.098-.035 9.913-3.643 19.995-12.118 3.021-2.541 5.454-4.701 7.599-6.607 5.186-4.606 8.613-7.65 14.313-10.698 7.965-4.261 16.741-6.11 16.828-6.128.362-.075.726.159.802.526.077.367-.159.726-.526.802-.086.018-8.677 1.831-16.465 5.997-5.557 2.973-8.936 5.973-14.051 10.516-2.152 1.912-4.591 4.078-7.628 6.631-10.276 8.639-20.306 12.319-20.406 12.355-.076.028-.154.041-.231.041z" fill="#efd5b3"/></g></g><g><path d="m189.909 118.952 3.293-4.168s5.382 6.586 7.634 9.73 5.879 7.133 5.879 7.133-.726-3.144-2.176-4.957c-1.451-1.814-3.703-3.869-3.703-3.869l.838-.484s4.92 1.451 7.459 5.32 1.451 6.892 6.166 11.97 12.816 6.287 12.816 6.287v2.055s-4.715.967-7.859 0-5.376-2.256-5.376-2.256 1.709 2.699 7.109 3.909c5.4 1.209 8.705 0 8.705 0l-.564 5.751s-4.433.536-9.592-.512-11.688-5.32-13.945-8.947-3.447-9.834-7.164-11.93-11.536-4.661-11.536-4.661l.484-1.787 5.562 1.33s-4.035-2.329-7.33-4.232c-3.295-1.902-7.341-8.37-7.341-8.37l5.522-2.431s2.297 3.788 3.99 5.562c1.693 1.773 5.481 3.385 5.481 3.385z" fill="url(#SVGID_00000027572932065842765250000015089556187256985729_)"/><g><path d="m216.891 148.232c-.139 0-.278-.042-.399-.129-2.143-1.554-3.366-3.225-5.586-6.26-.489-.667-1.026-1.4-1.631-2.214-3.309-4.438-7.634-8.133-12.507-10.686-5.096-2.669-10.165-7.24-10.378-7.434-.277-.251-.298-.68-.046-.958.253-.278.682-.298.958-.047.05.046 5.156 4.65 10.097 7.237 5.053 2.647 9.535 6.478 12.964 11.077.608.817 1.148 1.553 1.638 2.223 2.14 2.923 3.318 4.534 5.288 5.962.303.22.372.644.152.947-.134.185-.34.282-.55.282z" fill="#efd5b3"/></g><g><path d="m210.463 136.678c-.221 0-.44-.109-.57-.309-2.72-4.195-12.544-11.273-12.644-11.344-.303-.219-.374-.642-.155-.947.219-.306.643-.373.947-.156.412.296 10.131 7.299 12.991 11.709.203.314.114.734-.2.938-.113.074-.241.109-.369.109z" fill="#efd5b3"/></g><g><path d="m222.959 153.013c-.032 0-.064-.002-.097-.007-15.288-2.167-18.971-19.222-19.005-19.394-.076-.367.16-.725.527-.801.349-.074.724.159.8.527.035.163 3.534 16.293 17.868 18.324.371.053.629.396.576.767-.046.339-.337.584-.669.584z" fill="#efd5b3"/></g></g><g><path d="m224.01 192.296s-2.168-5.658-4.465-6.94-5.925-2.249-5.925-2.249l3.99-.664-2.702-1.56s-1.892-.677-6.85.29c-4.957.967-21.401 1.935-21.401 1.935l2.521 2.249 4.613.92-12.454 1.299-1.773 6.897s3.889.242 7.093 0 4.635-.665 4.635-.665-2.661.725-6.066 1.511-7.395.786-7.395.786l.604 3.023s10.217 1.693 16.746 0 10.458-3.809 15.96-4.897 12.869-1.935 12.869-1.935z" fill="url(#SVGID_00000181780412720122974000000013656523515967787148_)"/><g><path d="m181.873 188.974c-.447 0-.696-.006-.738-.008-.374-.011-.669-.323-.659-.697.011-.375.362-.684.698-.659.048.001 4.928.125 13.313-.864 8.41-.992 16.134-2.748 16.211-2.766.367-.089.729.145.812.51s-.144.729-.51.813c-.077.018-7.872 1.79-16.354 2.791-6.699.79-11.109.88-12.773.88z" fill="#efd5b3"/></g><g><path d="m189.297 194.867c-.319 0-.604-.227-.665-.553-.069-.368.172-.723.541-.792 9.32-1.752 32.269-6.285 32.5-6.33.358-.074.725.166.796.534.073.368-.166.725-.534.797-.23.046-23.184 4.579-32.51 6.333-.043.008-.085.011-.128.011z" fill="#efd5b3"/></g><g><path d="m179.789 194.277c-.321 0-.607-.23-.666-.558-.066-.369.179-.721.547-.788 10.616-1.919 19.884-6.876 19.977-6.925.326-.176.741-.057.92.275.178.33.054.741-.276.919-.094.051-9.543 5.108-20.379 7.066-.043.008-.082.011-.123.011z" fill="#efd5b3"/></g><g><path d="m188.421 197.858c-6.102 0-10.476-1.028-10.749-1.093-.364-.087-.588-.454-.501-.818s.443-.591.819-.501c.097.023 9.953 2.331 20.623-.003 10.522-2.302 13.649-5.93 13.68-5.966.239-.287.668-.327.954-.09.288.237.331.661.095.95-.133.163-3.372 4.011-14.44 6.431-3.735.817-7.336 1.09-10.481 1.09z" fill="#efd5b3"/></g></g><g><path d="m371.198 190.325s-2.167-5.658-4.465-6.94c-2.297-1.282-5.924-2.249-5.924-2.249l3.99-.664-2.702-1.56s-1.892-.678-6.849.29c-4.957.967-21.401 1.935-21.401 1.935l2.521 2.249 4.613.92-12.453 1.299-1.773 6.897s3.889.242 7.093 0 4.635-.665 4.635-.665-2.661.725-6.066 1.511-7.395.786-7.395.786l.605 3.023s10.217 1.693 16.746 0 10.458-3.809 15.96-4.897c5.499-1.089 12.865-1.935 12.865-1.935z" fill="url(#SVGID_00000112618384737528405720000002072915296882580370_)"/><g><path d="m329.061 187.002c-.447 0-.696-.006-.738-.008-.374-.011-.669-.323-.659-.697.011-.375.322-.685.698-.659.046.002 4.929.124 13.313-.864 8.411-.992 16.134-2.748 16.211-2.766.367-.087.729.146.812.51.083.365-.144.729-.51.813-.077.018-7.871 1.791-16.354 2.791-6.699.79-11.109.88-12.773.88z" fill="#efd5b3"/></g><g><path d="m336.485 192.895c-.319 0-.604-.227-.665-.553-.069-.368.172-.723.541-.792 9.322-1.752 32.27-6.284 32.501-6.33.359-.074.724.166.796.534.073.368-.166.725-.534.797-.23.046-23.186 4.579-32.511 6.333-.043.008-.085.011-.128.011z" fill="#efd5b3"/></g><g><path d="m326.977 192.305c-.321 0-.607-.23-.667-.558-.066-.369.179-.721.547-.788 10.616-1.919 19.884-6.876 19.977-6.925.327-.177.739-.056.92.275.178.33.054.741-.276.919-.094.051-9.543 5.108-20.379 7.066-.042.008-.081.011-.122.011z" fill="#efd5b3"/></g><g><path d="m335.611 195.886c-6.103 0-10.477-1.028-10.75-1.093-.364-.087-.588-.454-.501-.818.089-.363.44-.592.819-.501.098.024 9.953 2.332 20.624-.003 10.521-2.302 13.648-5.93 13.678-5.966.238-.287.667-.327.954-.09.288.237.331.661.095.95-.133.162-3.372 4.011-14.439 6.432-3.734.816-7.337 1.089-10.48 1.089z" fill="#efd5b3"/></g></g><g><path d="m340.44 151.729s-2.168-5.658-4.465-6.94-5.924-2.249-5.924-2.249l3.99-.664-2.702-1.56s-1.892-.677-6.85.29c-4.957.967-21.401 1.935-21.401 1.935l2.521 2.249 4.613.92-12.454 1.299-1.773 6.897s3.889.242 7.093 0 4.635-.665 4.635-.665-2.661.725-6.066 1.511-7.395.786-7.395.786l.604 3.023s10.217 1.693 16.746 0 10.458-3.808 15.96-4.897c5.501-1.089 12.868-1.935 12.868-1.935z" fill="url(#SVGID_00000106847211228118540860000000806532444853860751_)"/><g><path d="m298.304 148.406c-.447 0-.696-.006-.738-.008-.374-.011-.669-.323-.658-.697.011-.375.323-.682.698-.659.045.002 4.928.125 13.313-.864 8.407-.991 16.134-2.748 16.211-2.766.368-.088.73.146.812.51.083.365-.144.729-.51.813-.077.018-7.872 1.791-16.354 2.791-6.7.79-11.11.88-12.774.88z" fill="#efd5b3"/></g><g><path d="m305.728 154.299c-.319 0-.604-.227-.665-.553-.069-.368.172-.723.541-.792 9.32-1.752 32.269-6.285 32.5-6.33.363-.075.725.166.796.534.073.368-.166.725-.534.797-.231.046-23.184 4.579-32.51 6.333-.043.008-.085.011-.128.011z" fill="#efd5b3"/></g><g><path d="m296.218 153.709c-.321 0-.607-.23-.666-.558-.066-.369.179-.721.547-.788 10.616-1.919 19.885-6.876 19.978-6.925.325-.176.741-.057.92.275.178.33.054.741-.276.919-.094.051-9.544 5.108-20.381 7.066-.041.008-.081.011-.122.011z" fill="#efd5b3"/></g><g><path d="m304.852 157.29c-6.102 0-10.476-1.028-10.749-1.093-.364-.087-.588-.454-.501-.818s.439-.591.819-.501c.098.024 9.954 2.332 20.623-.003 10.521-2.302 13.649-5.93 13.68-5.966.24-.287.668-.327.954-.09.288.237.331.661.095.95-.133.163-3.374 4.011-14.44 6.432-3.735.816-7.336 1.089-10.481 1.089z" fill="#efd5b3"/></g></g><g><path d="m382.292 170.156s-9.849 18.165-26.7 33.923c-16.852 15.758-31.515 22.761-42.677 29.327s-22.542 15.757-22.542 15.757l3.064 3.283 9.237-5.333-2.453 5.333 9.849 4.596 5.69-6.566-.219 4.596 7.879-2.408s6.566-15.757 24.731-24.73 31.296-25.606 38.737-38.956 4.377-26.481 4.377-26.481l-2.189 5.471-1.532-7.441h-4.596s4.596 6.81 1.313 15.223-5.69 8.413-5.69 8.413 5.691-6.785 3.721-14.007z" fill="url(#SVGID_00000021079448909877849740000006800701562665887911_)"/><g><path d="m318.907 243.222c-.182 0-.363-.072-.497-.216-.254-.274-.24-.704.035-.959 7.681-7.156 17.149-14.149 27.173-21.553 7.394-5.461 15.039-11.108 22.431-17.166 16.959-13.896 18.361-29.12 18.374-29.272.029-.374.39-.651.729-.623.374.03.652.356.623.729-.049.644-1.431 15.929-18.865 30.215-7.419 6.079-15.078 11.737-22.485 17.208-9.992 7.38-19.429 14.351-27.055 21.455-.132.122-.297.182-.463.182z" fill="#efd5b3"/></g><g><path d="m305.866 255.759c-.145 0-.289-.045-.411-.139-.298-.227-.356-.653-.129-.951.162-.213 16.44-21.46 33.022-32.995 16.437-11.435 29.269-24.924 29.396-25.058.257-.271.686-.284.959-.026.272.257.284.687.027.959-.129.136-13.057 13.726-29.608 25.239-16.403 11.411-32.555 32.492-32.717 32.703-.132.175-.335.268-.539.268z" fill="#efd5b3"/></g><g><path d="m331.706 232.473c-.266 0-.518-.158-.627-.419-.143-.346.021-.743.367-.887.163-.068 16.405-6.848 27.699-14.693 11.277-7.835 19.966-18.387 20.053-18.492.237-.291.665-.332.954-.095.29.237.333.665.095.955-.087.107-8.898 10.805-20.329 18.747-11.414 7.93-27.789 14.764-27.953 14.832-.084.035-.172.052-.259.052z" fill="#efd5b3"/></g><g><path d="m355.714 214.51c-.171 0-.342-.064-.473-.193-.269-.262-.274-.691-.013-.96 13.969-14.33 20.77-34.264 20.838-34.464.121-.355.506-.546.859-.427.355.119.546.504.427.859-.068.203-6.97 20.43-21.15 34.98-.135.136-.311.205-.488.205z" fill="#efd5b3"/></g><g><path d="m292.198 251.798c-.193 0-.386-.083-.521-.243-.24-.288-.201-.715.085-.956 15.732-13.168 44.698-27.625 44.988-27.77.334-.166.742-.031.909.306.167.335.03.743-.305.909-.289.144-29.114 14.531-44.72 27.595-.127.107-.282.159-.436.159z" fill="#efd5b3"/></g></g><g><path d="m290.644 205.689c.55 8.006.539 16.949-4.836 32.046-5.376 15.097-5.796 29.636-5.796 29.636s-6.182 2.74-8.292 2.531-2.11-.209-2.11-.209l.306-5.081-3.246 6.157-5.417.107s-2.926-3.914-1.18-13.951c1.746-10.038 5.808-15.485 10.426-28.281 4.618-12.795 5.967-29.293 5.967-29.293l7.082 1.819 1.099 3.811 1.203-4.684s4.6 2.572 4.794 5.392z" fill="url(#SVGID_00000164513673738425594110000018230487935303236228_)"/><g><path d="m275.999 267.436c-.327 0-.615-.237-.668-.57-.052-.315-1.202-7.863 2.891-20.88 1.738-5.53 3.71-11.012 5.451-15.849 2.38-6.614 4.435-12.326 5.154-16.051.073-.369.432-.606.795-.537.368.071.608.427.538.795-.741 3.828-2.813 9.586-5.211 16.253-1.736 4.824-3.704 10.293-5.434 15.796-3.985 12.675-2.857 20.182-2.845 20.257.058.37-.194.718-.563.777-.035.006-.072.009-.108.009z" fill="#efd5b3"/></g><g><path d="m282.04 225.129c-.094 0-.191-.02-.282-.061-.341-.156-.49-.558-.335-.899 4.447-9.732 4.438-21.329 4.438-21.445-.001-.375.301-.68.674-.682h.004c.374 0 .677.301.678.675.003.486.009 12.015-4.559 22.016-.114.249-.361.396-.618.396z" fill="#efd5b3"/></g><g><path d="m266.185 267.744c-.001 0-.003 0-.004 0-.375-.002-.677-.308-.674-.683.001-.108.125-10.903 5.005-22.456 4.901-11.602 14.503-18.696 14.908-18.993.301-.219.725-.156.947.148.221.302.155.727-.147.948-.097.07-9.709 7.181-14.458 18.425-4.777 11.306-4.899 21.832-4.899 21.937-.003.373-.306.674-.678.674z" fill="#efd5b3"/></g><g><path d="m263.776 271.504c-.347 0-.643-.266-.674-.618-.008-.09-.774-9.025 1.002-17.883 1.271-6.338 3.195-10.498 6.106-16.796 1.204-2.604 2.569-5.556 4.128-9.183 5.198-12.101 5.816-22.539 5.821-22.643.02-.374.329-.663.713-.641.375.02.661.34.641.714-.005.106-.629 10.771-5.93 23.106-1.565 3.643-2.934 6.604-4.141 9.216-2.871 6.211-4.767 10.314-6.008 16.494-1.737 8.668-.989 17.408-.98 17.495.033.373-.243.703-.616.736-.021.002-.041.003-.062.003z" fill="#efd5b3"/></g></g><g><path d="m355.842 143.714c7.617-2.524 16.282-4.739 32.242-3.288s30.146-1.759 30.146-1.759 4.191 5.306 4.514 7.402.323 2.096.323 2.096l-4.998.967 6.771 1.612 1.451 5.22s-3.063 3.807-13.219 4.613-16.443-1.773-29.985-3.063-29.856 1.508-29.856 1.508v-7.312l3.418-2.012h-4.836c-.002 0 1.345-5.095 4.029-5.984z" fill="url(#SVGID_00000137820227089896217150000012660619663624254622_)"/><g><path d="m402.143 145.833c-1.317 0-2.71-.035-4.181-.113-5.789-.308-11.59-.855-16.709-1.337-6.996-.66-13.039-1.229-16.827-1.001-.408.027-.697-.263-.718-.636-.023-.374.262-.695.636-.718 3.886-.234 9.983.339 17.036 1.004 5.105.481 10.892 1.027 16.653 1.333 13.268.704 20.259-2.252 20.329-2.282.342-.149.742.008.892.352.15.343-.007.742-.35.892-.26.114-5.878 2.506-16.761 2.506z" fill="#efd5b3"/></g><g><path d="m353.988 149.106c-.301 0-.576-.202-.656-.507-.095-.362.122-.733.484-.828.47-.123 11.635-2.998 22.458-1.059.37.066.615.419.549.787-.065.369-.423.616-.787.548-10.526-1.886-21.763 1.007-21.875 1.036-.059.016-.116.023-.173.023z" fill="#efd5b3"/></g><g><path d="m407.842 154.204c-2.861 0-6.012-.181-9.299-.671-12.455-1.86-21.716-9.395-22.104-9.714-.289-.238-.33-.666-.091-.955.238-.29.668-.33.954-.092.093.076 9.371 7.617 21.443 9.419 12.122 1.811 22.362-.687 22.465-.713.367-.09.731.13.823.494.09.363-.131.732-.494.823-.078.018-5.765 1.409-13.697 1.409z" fill="#efd5b3"/></g><g><path d="m405.397 157.729c-5.03 0-9.141-.755-14.907-1.813-2.824-.518-6.024-1.106-9.927-1.713-13.013-2.025-23.276-.026-23.378-.005-.371.074-.725-.165-.799-.532s.164-.725.531-.798c.106-.021 10.591-2.069 23.855-.005 3.921.611 7.131 1.2 9.963 1.72 6.73 1.235 11.177 2.051 17.464 1.714 8.82-.472 17.106-3.373 17.189-3.403.353-.126.739.059.867.413.124.353-.061.741-.413.866-.085.03-8.549 2.995-17.57 3.478-1 .052-1.953.078-2.875.078z" fill="#efd5b3"/></g></g><g><path d="m106.203 222.383c7.101-3.737 15.287-7.34 31.269-8.52s29.452-6.669 29.452-6.669 5.003 4.548 5.664 6.563.661 2.015.661 2.015l-4.772 1.772 6.943.482 2.286 4.913s-2.399 4.257-12.286 6.714-16.512.942-30.082 1.885c-13.57.944-29.207 6.374-29.207 6.374l-1.197-7.213 3.043-2.545-4.771.792s.495-5.247 2.997-6.563z" fill="url(#SVGID_00000117647287541907874960000014958151839451431348_)"/><g><path d="m114.466 220.668c-.31 0-.59-.213-.661-.527-.084-.365.144-.729.51-.813 3.8-.869 9.904-1.299 16.97-1.797 5.115-.361 10.913-.77 16.648-1.41 13.205-1.475 19.617-5.537 19.681-5.578.314-.204.733-.113.937.201s.115.734-.199.938c-.268.174-6.707 4.274-20.268 5.788-5.763.643-11.576 1.053-16.704 1.415-7.011.494-13.065.921-16.763 1.767-.05.01-.102.016-.151.016z" fill="#efd5b3"/></g><g><path d="m105.146 228.015c-.258 0-.506-.15-.619-.402-.154-.342 0-.743.342-.896.436-.196 10.675-4.723 21.49-4.723.164 0 .326.001.492.003.374.005.674.312.669.687-.005.372-.307.67-.678.67-.003 0-.005 0-.009 0-.154-.002-.307-.003-.463-.003-10.539 0-20.842 4.558-20.946 4.605-.091.04-.186.059-.278.059z" fill="#efd5b3"/></g><g><path d="m149.299 225.086c-12.304 0-22.332-5.723-22.76-5.971-.323-.188-.435-.603-.246-.926.187-.324.604-.435.926-.248.102.059 10.154 5.788 22.097 5.788.2 0 .399-.002.599-.005 12.271-.198 21.949-4.338 22.045-4.379.347-.15.743.009.893.352.148.344-.009.743-.352.892-.099.043-10.025 4.289-22.564 4.491-.214.004-.427.006-.638.006z" fill="#efd5b3"/></g><g><path d="m109.002 232.549c-.274 0-.531-.167-.635-.438-.133-.35.044-.742.393-.875.101-.038 10.109-3.775 23.534-3.909 3.971-.039 7.232.016 10.11.066 6.837.118 11.354.195 17.508-1.167 8.631-1.911 16.325-6.127 16.4-6.17.329-.18.741-.063.922.266.181.328.062.741-.265.922-.08.043-7.944 4.354-16.763 6.307-6.31 1.396-10.891 1.318-17.826 1.199-2.87-.049-6.128-.105-10.073-.066-13.171.131-22.968 3.784-23.067 3.821-.077.03-.159.044-.238.044z" fill="#efd5b3"/></g></g><g><path d="m299.44 112.096-3.293-4.168s-5.382 6.586-7.634 9.73-5.879 7.134-5.879 7.134.725-3.144 2.176-4.957c1.451-1.814 3.703-3.869 3.703-3.869l-.838-.484s-4.92 1.451-7.459 5.32-1.451 6.892-6.166 11.97-12.816 6.287-12.816 6.287v2.056s4.715.967 7.859 0 5.376-2.256 5.376-2.256-1.709 2.7-7.109 3.909-8.705 0-8.705 0l.564 5.751s4.433.536 9.592-.512 11.688-5.32 13.945-8.947 3.447-9.834 7.164-11.93 11.536-4.661 11.536-4.661l-.484-1.787-5.562 1.33s4.035-2.33 7.33-4.232 7.341-8.37 7.341-8.37l-5.521-2.431s-2.297 3.788-3.99 5.562c-1.693 1.773-5.481 3.385-5.481 3.385z" fill="url(#SVGID_00000142148944771282358800000011022038833724453306_)"/><g><path d="m272.457 141.376c-.209 0-.416-.097-.55-.28-.219-.303-.151-.727.152-.947 1.97-1.429 3.15-3.04 5.291-5.965.489-.669 1.028-1.405 1.635-2.221 3.43-4.6 7.913-8.431 12.964-11.077 4.945-2.59 10.046-7.19 10.097-7.237.278-.25.706-.231.958.047s.23.707-.046.958c-.213.193-5.282 4.764-10.378 7.433-4.874 2.553-9.199 6.248-12.507 10.686-.604.812-1.141 1.545-1.628 2.211-2.222 3.036-3.446 4.708-5.59 6.262-.119.088-.258.13-.398.13z" fill="#efd5b3"/></g><g><path d="m278.885 129.823c-.127 0-.255-.035-.368-.109-.315-.204-.404-.624-.201-.938 2.858-4.409 12.579-11.413 12.991-11.709.303-.217.727-.15.947.156.219.304.148.728-.155.947-.099.071-9.925 7.149-12.644 11.344-.13.2-.349.309-.57.309z" fill="#efd5b3"/></g><g><path d="m266.39 146.157c-.333 0-.623-.244-.671-.583-.053-.371.205-.714.576-.767 14.334-2.031 17.833-18.162 17.867-18.324.076-.366.443-.604.8-.527.367.076.603.434.527.801-.034.172-3.715 17.227-19.004 19.394-.031.004-.063.006-.095.006z" fill="#efd5b3"/></g></g><g><path d="m254.694 233.058-3.293-4.168s-5.382 6.586-7.634 9.73-5.879 7.134-5.879 7.134.725-3.144 2.176-4.957c1.451-1.814 3.703-3.869 3.703-3.869l-.838-.484s-4.92 1.451-7.459 5.32-1.451 6.892-6.166 11.97-12.816 6.287-12.816 6.287v2.056s4.715.967 7.859 0c3.143-.967 5.376-2.256 5.376-2.256s-1.709 2.699-7.109 3.909c-5.401 1.209-8.705 0-8.705 0l.564 5.751s4.433.536 9.592-.512 11.688-5.32 13.945-8.947 3.447-9.834 7.164-11.93 11.536-4.661 11.536-4.661l-.484-1.787-5.562 1.33s4.035-2.33 7.33-4.232 7.34-8.37 7.34-8.37l-5.521-2.431s-2.297 3.788-3.99 5.562c-1.693 1.773-5.481 3.385-5.481 3.385z" fill="url(#SVGID_00000053510639235771918730000002454386963206057354_)"/><g><path d="m227.712 262.338c-.209 0-.416-.097-.548-.28-.22-.303-.152-.727.15-.947 1.97-1.428 3.148-3.038 5.288-5.961.49-.67 1.03-1.407 1.639-2.224 3.43-4.602 7.914-8.432 12.964-11.077 4.94-2.588 10.046-7.191 10.097-7.237.277-.25.706-.231.958.047s.231.707-.046.958c-.213.193-5.283 4.764-10.378 7.433-4.872 2.552-9.197 6.247-12.508 10.686-.605.813-1.142 1.547-1.631 2.214-2.221 3.034-3.444 4.705-5.585 6.259-.122.087-.261.129-.4.129z" fill="#efd5b3"/></g><g><path d="m234.14 250.784c-.127 0-.254-.035-.368-.109-.315-.204-.404-.624-.201-.938 2.858-4.41 12.577-11.413 12.99-11.709.303-.217.729-.15.947.156.219.305.148.728-.155.947-.099.071-9.923 7.149-12.642 11.344-.132.2-.35.309-.571.309z" fill="#efd5b3"/></g><g><path d="m221.644 267.118c-.333 0-.623-.244-.67-.583-.053-.371.205-.714.576-.767 14.334-2.031 17.833-18.161 17.867-18.324.076-.366.438-.605.8-.527.367.076.603.434.527.801-.035.172-3.716 17.227-19.004 19.394-.032.004-.064.006-.096.006z" fill="#efd5b3"/></g></g><g><path d="m80.264 201.91s2.168-5.658 4.465-6.94 5.924-2.249 5.924-2.249l-3.99-.664 2.702-1.56s1.892-.677 6.849.29 21.401 1.934 21.401 1.934l-2.521 2.249-4.613.92 12.453 1.299 1.773 6.897s-3.889.242-7.093 0-4.635-.665-4.635-.665 2.661.726 6.066 1.511c3.405.786 7.395.786 7.395.786l-.605 3.023s-10.217 1.693-16.746 0-10.458-3.809-15.96-4.897c-5.499-1.087-12.865-1.934-12.865-1.934z" fill="url(#SVGID_00000016776518870392707610000002186823088810217402_)"/><g><path d="m122.401 198.588c-1.664 0-6.074-.09-12.773-.88-8.483-1-16.277-2.773-16.354-2.791-.366-.083-.594-.447-.51-.813.082-.364.445-.597.812-.51.077.018 7.802 1.775 16.211 2.766 8.386.989 13.268.866 13.313.864.397-.014.688.284.698.659.011.374-.285.687-.659.697-.043.001-.292.008-.738.008z" fill="#efd5b3"/></g><g><path d="m114.976 204.481c-.042 0-.085-.004-.127-.012-9.326-1.754-32.281-6.287-32.512-6.333-.368-.072-.607-.429-.534-.797.072-.368.433-.609.796-.534.231.045 23.179 4.578 32.501 6.33.368.069.609.424.541.792-.06.327-.345.554-.665.554z" fill="#efd5b3"/></g><g><path d="m124.485 203.891c-.041 0-.081-.003-.122-.011-10.836-1.958-20.285-7.015-20.379-7.066-.33-.178-.453-.589-.276-.919.179-.331.594-.452.92-.275.093.05 9.36 5.006 19.977 6.925.368.066.614.419.547.788-.06.328-.346.558-.667.558z" fill="#efd5b3"/></g><g><path d="m115.851 207.472c-3.143 0-6.745-.273-10.481-1.09-11.067-2.421-14.307-6.269-14.439-6.432-.237-.291-.193-.718.098-.955.289-.235.717-.193.954.097.028.033 3.155 3.662 13.676 5.963 10.676 2.335 20.526.027 20.624.003.378-.091.73.138.819.501.087.364-.137.73-.501.818-.273.067-4.648 1.095-10.75 1.095z" fill="#efd5b3"/></g></g></g><g><path d="m246.142 120.155-56.443 11.97 4.244 13.028.003-.001c.423 1.309 1.234 2.537 2.442 3.623l3.396 3.053c3.798 3.415 10.907 4.92 18.648 3.948l6.921-.868c7.741-.971 14.938-4.272 18.881-8.657l3.525-3.922c2.676-2.977 3.572-6.146 2.686-8.944l.006-.001z" fill="url(#SVGID_00000140698652839769984530000000216644331763234979_)"/><path d="m221.675 109.603-6.921.868c-7.741.971-14.939 4.271-18.881 8.657l-3.525 3.921c-3.943 4.386-4.032 9.191-.233 12.606l3.396 3.053c3.798 3.415 10.907 4.919 18.648 3.948l6.921-.869c7.741-.971 14.939-4.272 18.881-8.658l3.525-3.921c3.943-4.386 4.032-9.191.234-12.606l-3.396-3.053c-3.799-3.412-10.907-4.918-18.649-3.946z" fill="url(#SVGID_00000086658406984938028750000006481452755854139282_)"/><g><path d="m228.803 127.152-1.938 2.156c-1.492 1.66-4.24 2.92-7.17 3.288l-3.805.477c-2.93.368-5.643-.207-7.081-1.499l-1.867-1.679c-1.438-1.293-1.404-3.127.089-4.787l1.938-2.156c1.492-1.66 4.24-2.92 7.17-3.287l3.805-.477c2.93-.368 5.644.206 7.081 1.499l1.867 1.678c1.438 1.292 1.404 3.127-.089 4.787zm-20.223-1.716c-1.166 1.297-1.192 2.729-.069 3.739l1.867 1.679c1.123 1.009 3.243 1.458 5.532 1.171l3.805-.477c2.289-.288 4.435-1.272 5.601-2.568l1.938-2.156c1.166-1.297 1.192-2.73.07-3.74l-1.868-1.678c-1.123-1.01-3.243-1.458-5.532-1.171l-3.805.477c-2.289.288-4.435 1.271-5.601 2.568z" fill="#fcf3b3"/></g><path d="m217.957 123.975c-1.324.166-2.554.73-3.228 1.48s-.689 1.572-.04 2.155c.65.584 1.865.841 3.188.675 1.324-.166 2.554-.73 3.228-1.48s.689-1.572.04-2.155c-.649-.584-1.865-.841-3.188-.675z" fill="#fcf3b3"/></g><g><path d="m326.193 106.94-29.142 49.798 12.491 5.63.002-.003c1.253.569 2.706.795 4.323.633l4.544-.456c5.082-.511 10.98-4.755 15.472-11.133l4.017-5.703c4.492-6.378 6.897-13.923 6.307-19.791l-.527-5.247c-.4-3.983-2.141-6.779-4.806-8.007l.003-.005z" fill="url(#SVGID_00000082342693189009934810000012746840334631487623_)"/><path d="m301.92 117.931-4.017 5.703c-4.492 6.379-6.897 13.923-6.307 19.791l.527 5.247c.59 5.868 4.083 9.168 9.165 8.658l4.544-.456c5.082-.511 10.98-4.755 15.472-11.133l4.017-5.703c4.492-6.378 6.896-13.923 6.307-19.791l-.527-5.247c-.589-5.868-4.083-9.168-9.165-8.658l-4.544.456c-5.081.511-10.979 4.754-15.472 11.133z" fill="url(#SVGID_00000174563381582595206480000017084747207621780355_)"/><g><path d="m319.696 124.472.29 2.885c.223 2.221-.694 5.101-2.395 7.515l-2.208 3.136c-1.7 2.414-3.952 4.034-5.875 4.227l-2.498.251c-1.924.193-3.257-1.066-3.48-3.288l-.29-2.885c-.223-2.221.694-5.101 2.395-7.515l2.208-3.135c1.7-2.415 3.952-4.035 5.875-4.228l2.498-.251c1.923-.192 3.257 1.067 3.48 3.288zm-14.882 13.802c.174 1.735 1.216 2.719 2.719 2.568l2.498-.251c1.503-.151 3.262-1.417 4.59-3.302l2.208-3.136c1.328-1.887 2.045-4.136 1.871-5.871l-.29-2.885c-.174-1.735-1.216-2.719-2.719-2.568l-2.498.251c-1.503.151-3.261 1.417-4.59 3.303l-2.208 3.135c-1.328 1.886-2.045 4.136-1.871 5.871z" fill="#fcf3b3"/></g><path d="m310.045 130.355c-.768 1.091-1.179 2.381-1.078 3.384s.698 1.568 1.567 1.48c.869-.087 1.877-.813 2.645-1.904.768-1.09 1.179-2.381 1.078-3.384s-.698-1.568-1.567-1.48c-.868.088-1.877.814-2.645 1.904z" fill="#fcf3b3"/></g><g><path d="m362.86 173.156 78.69-8.371v18.792l-.004.001c.005 1.887-.531 3.832-1.645 5.761l-3.131 5.424c-3.503 6.066-12.133 11.049-22.64 13.071l-9.395 1.808c-10.507 2.022-21.295.777-28.3-3.268l-6.263-3.616c-4.755-2.745-7.269-6.498-7.302-10.522l-.008.001v-19.081z" fill="url(#SVGID_00000053543692582457053300000008097912390361197471_)"/><path d="m390.282 149.001 9.395-1.808c10.507-2.022 21.295-.777 28.3 3.268l6.263 3.616c7.005 4.044 9.163 10.273 5.66 16.339l-3.131 5.424c-3.503 6.066-12.133 11.049-22.64 13.071l-9.395 1.808c-10.507 2.022-21.295.777-28.3-3.268l-6.263-3.616c-7.005-4.044-9.162-10.273-5.66-16.339l3.132-5.424c3.501-6.066 12.132-11.049 22.639-13.071z" fill="url(#SVGID_00000179604319115465518120000003073009559490450854_)"/><g><path d="m386.294 168.709 1.722-2.982c1.325-2.296 4.619-4.198 8.597-4.964l5.165-.994c3.977-.765 8.095-.29 10.746 1.241l3.444 1.988c2.651 1.531 3.475 3.908 2.149 6.204l-1.722 2.982c-1.326 2.296-4.62 4.198-8.597 4.963l-5.165.994c-3.977.766-8.095.29-10.746-1.241l-3.444-1.988c-2.651-1.529-3.475-3.907-2.149-6.203zm24.349-6.613c-2.071-1.196-5.288-1.567-8.395-.969l-5.165.994c-3.107.598-5.681 2.084-6.716 3.878l-1.722 2.982c-1.035 1.794-.392 3.651 1.679 4.847l3.444 1.988c2.071 1.196 5.288 1.567 8.395.969l5.165-.994c3.107-.598 5.68-2.084 6.716-3.878l1.722-2.982c1.035-1.794.392-3.651-1.679-4.847z" fill="#fcf3b3"/></g><path d="m401.238 166.162c1.797-.346 3.641-.133 4.839.559 1.198.691 1.567 1.757.968 2.794s-2.074 1.889-3.871 2.235c-1.796.346-3.641.133-4.839-.559-1.198-.691-1.566-1.756-.968-2.794.599-1.037 2.074-1.889 3.871-2.235z" fill="#fcf3b3"/></g><g><path d="m287.1 207.726 41.682 41.378-10.818 8.803-.002-.002c-1.084.887-2.455 1.489-4.088 1.752l-4.59.738c-5.133.826-12.044-1.808-18.131-6.91l-5.442-4.561c-6.086-5.102-10.423-11.895-11.376-17.823l-.853-5.3c-.647-4.023.336-7.228 2.637-9.133l-.004-.004z" fill="url(#SVGID_00000144315847563001790640000010771628981432583081_)"/><path d="m313.851 212.197 5.442 4.561c6.086 5.102 10.423 11.895 11.376 17.823l.852 5.3c.953 5.927-1.621 10.087-6.755 10.913l-4.59.738c-5.133.826-12.045-1.809-18.131-6.91l-5.442-4.561c-6.086-5.102-10.423-11.895-11.376-17.823l-.852-5.3c-.953-5.927 1.621-10.087 6.755-10.913l4.59-.738c5.134-.826 12.045 1.808 18.131 6.91z" fill="url(#SVGID_00000057861411603762329290000005423646861017958545_)"/><g><path d="m300.638 219.133 2.523-.406c1.943-.313 4.581.692 6.885 2.624l2.992 2.507c2.304 1.931 3.959 4.524 4.32 6.768l.469 2.914c.361 2.243-.622 3.831-2.565 4.144l-2.523.406c-1.943.312-4.581-.693-6.885-2.624l-2.992-2.508c-2.304-1.931-3.959-4.524-4.32-6.768l-.469-2.914c-.361-2.243.621-3.83 2.565-4.143zm15.213 10.92c-.282-1.753-1.575-3.778-3.375-5.287l-2.992-2.508c-1.8-1.508-3.861-2.294-5.379-2.05l-2.523.406c-1.518.245-2.286 1.485-2.004 3.237l.469 2.914c.282 1.753 1.575 3.778 3.375 5.287l2.992 2.508c1.8 1.508 3.861 2.294 5.379 2.05l2.523-.406c1.518-.244 2.285-1.485 2.004-3.237z" fill="#fcf3b3"/></g><path d="m309.104 226.543c1.041.872 1.782 2.034 1.945 3.047s-.277 1.725-1.155 1.866-2.059-.309-3.1-1.181-1.782-2.034-1.945-3.047.277-1.725 1.155-1.866 2.06.309 3.1 1.181z" fill="#fcf3b3"/></g><g><path d="m121.996 150.568 41.682 41.378-10.818 8.803-.002-.002c-1.084.887-2.455 1.489-4.087 1.752l-4.59.738c-5.133.826-12.045-1.809-18.131-6.91l-5.442-4.561c-6.087-5.102-10.423-11.896-11.376-17.823l-.853-5.3c-.647-4.023.336-7.229 2.637-9.133l-.004-.004z" fill="url(#SVGID_00000034049741628655466210000017087959432859616424_)"/><path d="m148.748 155.039 5.442 4.562c6.086 5.102 10.423 11.895 11.376 17.822l.852 5.3c.953 5.927-1.621 10.087-6.755 10.913l-4.59.738c-5.133.826-12.044-1.809-18.131-6.91l-5.442-4.561c-6.086-5.102-10.423-11.895-11.376-17.823l-.852-5.299c-.953-5.927 1.621-10.087 6.754-10.913l4.59-.738c5.134-.827 12.045 1.807 18.132 6.909z" fill="url(#SVGID_00000138542402713363164160000006314920403698664349_)"/><g><path d="m135.534 161.975 2.523-.406c1.943-.313 4.581.693 6.885 2.624l2.992 2.507c2.304 1.931 3.959 4.524 4.32 6.768l.469 2.914c.361 2.243-.622 3.831-2.565 4.144l-2.523.406c-1.943.312-4.581-.693-6.885-2.624l-2.992-2.508c-2.304-1.931-3.959-4.524-4.32-6.768l-.469-2.914c-.361-2.242.622-3.83 2.565-4.143zm15.213 10.92c-.282-1.753-1.575-3.778-3.375-5.287l-2.992-2.507c-1.8-1.508-3.861-2.294-5.379-2.05l-2.523.405c-1.518.245-2.285 1.485-2.003 3.237l.469 2.914c.282 1.753 1.575 3.778 3.375 5.287l2.992 2.508c1.8 1.508 3.861 2.294 5.378 2.05l2.523-.406c1.518-.245 2.285-1.485 2.004-3.237z" fill="#fcf3b3"/></g><path d="m144 169.385c1.041.872 1.782 2.034 1.945 3.047.163 1.014-.277 1.725-1.155 1.866s-2.059-.309-3.1-1.182c-1.041-.872-1.782-2.034-1.945-3.047s.277-1.725 1.155-1.866c.878-.14 2.06.31 3.1 1.182z" fill="#fcf3b3"/></g><g><path d="m152.194 210.257 78.499 10.002-4.334 18.285h-.004c-.43 1.837-1.401 3.606-2.93 5.227l-4.298 4.556c-4.807 5.095-14.354 7.953-25.044 7.497l-9.559-.407c-10.69-.456-20.9-4.156-26.784-9.707l-5.26-4.963c-3.993-3.768-5.574-7.999-4.679-11.923l-.008-.001z" fill="url(#SVGID_00000078031074391021692870000005350774531264965538_)"/><path d="m184.448 193.078 9.558.408c10.691.456 20.901 4.156 26.784 9.706l5.26 4.963c5.884 5.551 6.546 12.109 1.739 17.204l-4.298 4.556c-4.807 5.095-14.354 7.953-25.044 7.498l-9.559-.408c-10.69-.456-20.9-4.156-26.784-9.707l-5.26-4.963c-5.883-5.551-6.546-12.109-1.739-17.204l4.298-4.556c4.808-5.095 14.354-7.953 25.045-7.497z" fill="url(#SVGID_00000179635100232236697270000017181900592991252359_)"/><g><path d="m176.022 211.335 2.363-2.504c1.819-1.929 5.463-3.02 9.51-2.847l5.255.224c4.047.172 7.943 1.585 10.17 3.686l2.892 2.729c2.227 2.101 2.48 4.604.66 6.533l-2.363 2.505c-1.82 1.929-5.464 3.019-9.51 2.847l-5.255-.224c-4.047-.173-7.943-1.585-10.17-3.686l-2.892-2.729c-2.227-2.103-2.48-4.606-.66-6.534zm25.218-.819c-1.74-1.641-4.784-2.744-7.945-2.88l-5.255-.224c-3.161-.135-6.008.717-7.43 2.224l-2.363 2.504c-1.421 1.507-1.223 3.462.516 5.104l2.892 2.729c1.74 1.641 4.784 2.744 7.945 2.88l5.255.224c3.161.134 6.008-.718 7.429-2.224l2.363-2.505c1.421-1.507 1.223-3.462-.516-5.104z" fill="#fcf3b3"/></g><path d="m191.15 212.303c1.828.078 3.574.711 4.579 1.66 1.006.949 1.119 2.071.297 2.942s-2.454 1.36-4.282 1.282-3.573-.711-4.579-1.66-1.119-2.07-.297-2.941c.822-.872 2.454-1.361 4.282-1.283z" fill="#fcf3b3"/></g><path d="m418.204 127.177c-74.3-42.897-204.081-37.517-289.875 12.016-32.027 18.491-53.391 40.521-63.732 63.103 7.845 15.79 22.097 30.329 42.92 42.352 74.3 42.897 204.082 37.517 289.875-12.016 32.027-18.491 53.391-40.521 63.732-63.103-7.845-15.79-22.097-30.329-42.92-42.352zm-289.483 21.988c7.009-4.047 17.612-4.486 23.682-.982 6.07 3.505 5.309 9.626-1.7 13.673s-17.611 4.486-23.682.981c-6.07-3.504-5.308-9.625 1.7-13.672zm-23.751 85.608c-5.272-3.044-4.611-8.361 1.477-11.876s15.298-3.897 20.57-.853 4.611 8.361-1.477 11.876-15.298 3.897-20.57.853zm49.001 15.416c-7.009 4.047-17.612 4.486-23.682.982-6.07-3.505-5.309-9.626 1.701-13.673 7.009-4.047 17.612-4.486 23.682-.982 6.069 3.505 5.308 9.627-1.701 13.673zm69.557-28.946c-23.596 13.623-59.291 15.103-79.727 3.305-20.435-11.798-17.872-32.407 5.724-46.03 23.596-13.624 59.291-15.103 79.727-3.305 20.435 11.798 17.872 32.406-5.724 46.03zm6.072-51.568c-9.155-5.286-8.007-14.518 2.565-20.622 10.571-6.104 26.563-6.766 35.718-1.481 9.155 5.286 8.007 14.519-2.564 20.622-10.572 6.104-26.564 6.767-35.719 1.481zm57.392 92.417c-7.009 4.047-17.612 4.486-23.682.982-6.07-3.505-5.309-9.626 1.7-13.673s17.612-4.486 23.682-.982c6.071 3.505 5.309 9.627-1.7 13.673zm81.207-17.455c-19.109 11.033-48.015 12.231-64.564 2.676s-14.474-26.244 4.635-37.276c19.109-11.033 48.016-12.231 64.565-2.676 16.548 9.554 14.473 26.243-4.636 37.276zm22.665-74.361c-19.109 11.033-48.016 12.231-64.565 2.677-16.549-9.555-14.474-26.244 4.636-37.276 19.109-11.033 48.015-12.231 64.564-2.676 16.549 9.553 14.474 26.243-4.635 37.275zm37.588 6.589c-7.009 4.047-17.612 4.486-23.682.982-6.07-3.505-5.309-9.626 1.7-13.673 7.009-4.046 17.612-4.486 23.682-.982 6.07 3.505 5.309 9.627-1.7 13.673z" fill="url(#SVGID_00000093140960643355702780000008421395473724874382_)"/><g><g><path d="m170.491 239.839s20.663-.064 42.525-7.436 34.978-16.965 46.049-23.682 24.559-12.383 24.559-12.383l1.439 4.254-9.074 5.607 5.859.367-.62 10.851-8.478 1.899 4.151 1.985-5.854 5.797s-16.987-1.686-33.497 10.057-37.38 15.424-52.662 15.65-25.393-8.695-25.393-8.695l5.855.666-5.826-4.875 2.178-4.047s3.819 7.274 12.783 8.371c8.964 1.096 10.105-1.024 10.105-1.024s-8.673 1.795-14.099-3.362z" fill="url(#SVGID_00000036217707357954047110000006353913820272838293_)"/><g><path d="m185.099 248.865c-8.312 0-13.331-2.146-13.678-2.299-.342-.151-.497-.551-.346-.894.15-.342.546-.5.893-.347.141.061 14.209 6.041 34.483-2.307 8.835-3.638 17.43-7.693 25.742-11.615 11.271-5.319 21.918-10.342 31.862-13.716.354-.12.741.07.86.424.121.355-.07.74-.425.86-9.87 3.349-20.483 8.357-31.718 13.659-8.327 3.929-16.937 7.992-25.804 11.643-8.59 3.536-16.04 4.592-21.869 4.592z" fill="#efd5b3"/></g><g><path d="m200.862 240.902c-.299 0-.572-.199-.655-.502-.098-.362.115-.734.477-.832.18-.048 18.144-4.957 35.996-14.01 18.015-9.134 44.44-13.399 44.705-13.441.36-.058.717.193.776.564.058.37-.194.718-.565.777-.262.042-26.48 4.275-44.302 13.312-17.982 9.118-36.076 14.061-36.256 14.11-.058.014-.118.022-.176.022z" fill="#efd5b3"/></g><g><path d="m196.589 251.646c-.318 0-.602-.225-.665-.549-.072-.368.17-.724.537-.795.134-.026 13.55-2.681 25.787-8.895 12.261-6.226 25.93-17.317 26.066-17.429.289-.235.717-.194.954.098.237.29.193.717-.098.954-.138.112-13.916 11.293-26.307 17.586-12.412 6.303-26.007 8.991-26.142 9.017-.045.009-.088.013-.132.013z" fill="#efd5b3"/></g><g><path d="m196.835 240.953c-9.209 0-15.812-1.1-15.928-1.12-.37-.063-.617-.414-.555-.783.064-.37.416-.618.783-.554.209.036 20.997 3.492 40.223-2.015.363-.105.735.106.839.465.103.36-.105.736-.465.839-8.642 2.475-17.59 3.168-24.897 3.168z" fill="#efd5b3"/></g><g><path d="m238.849 225.93c-.212 0-.421-.1-.554-.286-.216-.306-.144-.729.162-.946.265-.188 26.722-18.842 45.773-26.454.346-.139.742.031.881.378.139.348-.029.743-.378.882-18.9 7.552-45.228 26.115-45.492 26.302-.119.084-.256.124-.392.124z" fill="#efd5b3"/></g></g><g><path d="m141.998 135.756 3.293-4.168s5.382 6.586 7.634 9.73c2.252 3.143 5.879 7.133 5.879 7.133s-.725-3.144-2.176-4.957-3.703-3.869-3.703-3.869l.838-.484s4.92 1.451 7.459 5.32 1.451 6.892 6.166 11.97 12.816 6.287 12.816 6.287v2.055s-4.715.967-7.859 0-5.376-2.256-5.376-2.256 1.709 2.699 7.109 3.908c5.401 1.209 8.705 0 8.705 0l-.564 5.751s-4.433.536-9.592-.512-11.688-5.32-13.945-8.947-3.447-9.834-7.164-11.929c-3.717-2.096-11.536-4.661-11.536-4.661l.484-1.787 5.562 1.33s-4.035-2.33-7.33-4.232-7.341-8.37-7.341-8.37l5.521-2.431s2.297 3.788 3.99 5.562c1.693 1.773 5.481 3.385 5.481 3.385z" fill="url(#SVGID_00000129203985298752918920000011532773879110715025_)"/><g><path d="m168.98 165.036c-.139 0-.278-.042-.399-.129-2.141-1.553-3.364-3.225-5.585-6.259-.489-.667-1.026-1.401-1.631-2.215-3.311-4.439-7.636-8.135-12.508-10.686-5.095-2.669-10.163-7.24-10.377-7.433-.277-.252-.298-.681-.046-.958.253-.278.682-.298.958-.047.05.046 5.156 4.649 10.096 7.237 5.05 2.645 9.534 6.475 12.964 11.077.609.817 1.149 1.554 1.639 2.224 2.14 2.923 3.318 4.533 5.288 5.961.302.22.37.644.15.947-.133.184-.34.281-.549.281z" fill="#efd5b3"/></g><g><path d="m162.552 153.483c-.221 0-.44-.109-.57-.309-2.719-4.197-12.543-11.274-12.642-11.344-.303-.219-.374-.642-.155-.947.219-.306.641-.373.947-.156.412.296 10.131 7.299 12.99 11.709.203.314.114.734-.201.939-.114.073-.242.108-.369.108z" fill="#efd5b3"/></g><g><path d="m175.048 169.817c-.032 0-.064-.002-.097-.007-15.288-2.167-18.969-19.222-19.004-19.394-.076-.367.16-.725.527-.801.359-.077.725.161.8.527.035.163 3.533 16.293 17.867 18.324.371.053.629.396.576.767-.047.339-.337.584-.669.584z" fill="#efd5b3"/></g></g><g><path d="m369.383 129.455s-2.167-5.658-4.465-6.94c-2.297-1.282-5.924-2.249-5.924-2.249l3.99-.664-2.702-1.56s-1.892-.677-6.85.29c-4.957.967-21.401 1.935-21.401 1.935l2.521 2.249 4.613.92-12.454 1.299-1.773 6.897s3.889.242 7.093 0 4.635-.665 4.635-.665-2.661.725-6.066 1.511-7.395.786-7.395.786l.605 3.023s10.217 1.693 16.746 0 10.458-3.809 15.96-4.897c5.501-1.089 12.867-1.935 12.867-1.935z" fill="url(#SVGID_00000119079087129999295010000000324395408733593490_)"/><g><path d="m327.247 126.132c-.447 0-.696-.006-.738-.008-.374-.011-.669-.323-.659-.697.012-.375.349-.674.698-.659.046.002 4.928.125 13.313-.864 8.41-.992 16.134-2.748 16.211-2.766.366-.087.729.146.812.51.083.365-.144.729-.51.813-.077.018-7.872 1.79-16.354 2.791-6.699.79-11.109.88-12.773.88z" fill="#efd5b3"/></g><g><path d="m334.671 132.026c-.319 0-.604-.227-.665-.553-.069-.368.172-.723.541-.792 9.32-1.752 32.269-6.285 32.5-6.33.362-.073.725.166.796.534.073.368-.166.724-.534.797-.23.046-23.184 4.579-32.51 6.333-.043.007-.085.011-.128.011z" fill="#efd5b3"/></g><g><path d="m325.161 131.436c-.321 0-.607-.23-.667-.558-.066-.369.179-.721.547-.788 10.616-1.919 19.884-6.876 19.976-6.925.325-.177.741-.056.92.275.177.33.054.741-.276.919-.094.051-9.543 5.108-20.379 7.066-.04.007-.08.011-.121.011z" fill="#efd5b3"/></g><g><path d="m333.795 135.016c-6.102 0-10.476-1.027-10.749-1.093-.364-.087-.588-.454-.501-.818.089-.363.44-.592.819-.501.098.023 9.954 2.33 20.623-.003 10.521-2.302 13.648-5.93 13.678-5.966.238-.287.668-.327.954-.09.288.237.331.661.095.95-.133.162-3.372 4.011-14.439 6.432-3.734.816-7.335 1.089-10.48 1.089z" fill="#efd5b3"/></g></g><g><path d="m434.293 170.31s-16.267 12.741-38 20.485-37.972 8.329-50.825 9.908c-12.853 1.578-26.952 5.478-26.952 5.478l1.503 4.231 10.597-1.214-4.374 3.915 7.204 8.137 7.834-3.757-2.031 4.129 8.186.929s12.297-11.84 32.533-12.838 38.904-11.027 51.046-20.31 14.56-22.549 14.56-22.549l-4.186 4.148 1.558-7.436-4.216-1.83s1.504 8.077-4.857 14.487c-6.362 6.41-8.57 5.451-8.57 5.451s7.921-3.955 8.99-11.364z" fill="url(#SVGID_00000051352065980239767240000009108089136328565181_)"/><g><path d="m347.326 212.15c-.28 0-.541-.174-.64-.452-.124-.353.061-.741.413-.866 9.897-3.506 21.366-6.151 33.509-8.951 8.956-2.065 18.218-4.201 27.41-6.814 21.09-5.994 28.44-19.401 28.511-19.535.178-.332.594-.453.917-.281.331.176.457.586.281.917-.302.57-7.656 14.042-29.338 20.204-9.225 2.622-18.503 4.762-27.476 6.831-12.104 2.791-23.538 5.428-33.361 8.907-.075.028-.151.04-.226.04z" fill="#efd5b3"/></g><g><path d="m330.371 218.457c-.237 0-.468-.125-.592-.347-.183-.327-.066-.74.261-.923.234-.131 23.626-13.139 43.429-17.117 19.625-3.943 36.773-11.208 36.944-11.281.346-.147.743.013.89.358s-.013.743-.358.89c-.172.073-17.442 7.391-37.209 11.363-19.591 3.936-42.802 16.841-43.034 16.971-.104.058-.218.086-.331.086z" fill="#efd5b3"/></g><g><path d="m364.678 207.393c-.839 0-1.316-.007-1.344-.007-.375-.006-.673-.315-.668-.689.007-.375.302-.667.689-.667.179.004 17.777.252 31.259-2.448 13.458-2.695 25.638-8.915 25.76-8.978.333-.17.741-.041.913.293.172.333.041.742-.293.914-.122.063-12.463 6.368-26.113 9.102-11.446 2.291-25.798 2.48-30.203 2.48z" fill="#efd5b3"/></g><g><path d="m392.522 200.469c-.268 0-.521-.159-.628-.422-.142-.347.024-.743.371-.885 18.508-7.579 32.696-23.161 32.838-23.317.252-.278.68-.301.958-.05s.301.68.049.958c-.143.159-14.528 15.966-33.33 23.664-.085.036-.172.052-.258.052z" fill="#efd5b3"/></g><g><path d="m319.411 209.382c-.293 0-.563-.191-.651-.487-.106-.359.099-.736.458-.843 19.673-5.815 52-7.543 52.325-7.559.396-.024.692.269.712.642.02.374-.268.693-.643.713-.322.017-32.49 1.737-52.01 7.506-.063.018-.128.028-.191.028z" fill="#efd5b3"/></g></g></g><g fill="#3c7413"><path d="m247.209 182.222-6.59-3.805-1.005 2.9-7.51-1.603 2.777 4.336-5.023.58 6.59 3.804-3.718 1.446 2.48.788c5.951 1.891 12.623 2.455 18.592 1.574 1.527-3.446.549-7.298-2.725-10.734l-1.365-1.432z"/><path d="m354.515 151.831 6.59 3.805 1.004-2.9 7.51 1.603-2.777-4.336 5.023-.58-6.59-3.805 3.718-1.446-2.48-.788c-5.95-1.891-12.623-2.455-18.592-1.574-1.527 3.446-.549 7.298 2.725 10.734l1.365 1.432z"/><path d="m304.466 154.995 5.707-3.295-5.22-1.004 1.722-4.149-7.187.994-1.74-3.014-5.707 3.295-3.067-2.378-1.021 1.333c-2.449 3.198-2.475 7.009-.07 10.618 6.251 1.388 12.851 1.374 18.391-.041l2.309-.59z"/><path d="m237.273 241.478 5.707-3.295-5.22-1.005 1.722-4.149-7.187.994-1.74-3.014-5.707 3.295-3.067-2.378-1.021 1.333c-2.45 3.198-2.475 7.009-.07 10.618 6.251 1.388 12.851 1.374 18.391-.04l2.309-.59z"/><path d="m180.456 139.71-5.707 3.295 5.219 1.004-1.722 4.149 7.187-.994 1.74 3.014 5.707-3.295 3.067 2.378 1.021-1.333c2.45-3.198 2.475-7.009.07-10.618-6.251-1.388-12.851-1.374-18.391.04l-2.309.59z"/><path d="m227.164 158.491-5.135 2.965 10.547 6.089 5.136-2.965z"/><path d="m362.258 221.191-5.136 2.965 10.547 6.09 5.136-2.965z"/><path d="m367.996 173.888-5.136 2.965 10.548 6.089 5.135-2.965z"/><path d="m179.547 195.745.562 4.518 13.917.577-.562-4.518z"/><path d="m315.828 111.514.562 4.518 13.917.577-.562-4.518z"/><path d="m106.922 211.9.561 4.518 13.917.576-.561-4.517z"/><path d="m294.563 211.9.562 4.518 13.917.576-.562-4.517z"/><path d="m217.928 119.608.561 4.517 13.917.577-.561-4.517z"/><path d="m297.298 189.598-5.93-3.423-9.135 5.274 5.93 3.423z"/><path d="m262.583 259.442-5.93-3.423-9.134 5.273 5.93 3.424z"/><path d="m285.626 128.214-7.825-.325.999 8.036 7.825.324z"/><path d="m174.438 235.809-7.825-.324.999 8.035 7.825.324z"/></g></g></svg>