<svg id="Слой_1" enable-background="new 0 0 512 512" height="512" viewBox="0 0 512 512" width="512" xmlns="http://www.w3.org/2000/svg"><g><g><path d="m342.618 280.97c8.577 34.863 22.867 55.642 51.201 80.507 13.472 15.155 33.083 28.992 32.229 51.484-.643 26.84-33.039 36.588-55.334 23.117-39.449 45.161-58.714 5.336-84.17 27.539-18.96 12.987-50.489 5.474-66.628-10.472-1.054-1.054-4.366-1.404-5.522-.562-21.982 16.011-58.339 2.2-69.69-14.272-2.543-3.69-4.825-3.827-8.736-2.832-21.23 7.746-56.012-8.19-49.162-33.979 7.087-22.223 26.544-36.266 43.514-50.842 21.707-17.822 40.838-37.348 49.912-64.907.964-2.929 5.174-4.711 7.683-7.221 32.145-32.002 79.113-25.026 120.078-21.966 12.628 1.242 26.051 8.065 31.265 20.366.578-.425 2.698 1.735 3.36 4.04z" fill="#018667"/><path d="m370.713 419.727c-39.449 45.161-58.714 5.336-84.17 27.539-18.96 12.987-50.489 5.474-66.628-10.472-1.054-1.054-4.366-1.404-5.522-.562-21.982 16.011-58.339 2.2-69.69-14.272-2.543-3.69-4.825-3.827-8.736-2.832-16.848 6.147-42.228-2.62-48.566-19.39-.207.582-.407 1.169-.596 1.762-6.85 25.788 27.932 41.725 49.162 33.979 3.91-.995 6.193-.858 8.736 2.832 11.352 16.472 47.708 30.283 69.69 14.272 1.156-.842 4.469-.492 5.522.562 16.139 15.946 47.668 23.458 66.628 10.472 25.456-22.203 44.721 17.622 84.17-27.539 22.295 13.471 54.691 3.723 55.334-23.117.128-3.371-.204-6.548-.906-9.564-5.453 21.61-34.127 28.596-54.428 16.33z" fill="#017758"/><path d="m338.51 311.55c-23.442 23.184-50.843 29.802-79.706 11.891-12.475-8.724-16.413 16.357-55.223 8.437-28.614-4.239-31.806-21.254-39.636-15.92-10.039 4.761-19.733 10.755-31.453 10.313-13.23.268-27.084-5.302-27.095-20.525.511-44.59 82.731-72.963 102.349-120.084 6.11-7.75 15.549-12.442 23.79-17.606 43.238-26.236 71.765 15.022 93.032 47.73 14.751 17.02 30.701 32.197 49.21 45.013 8.914 6.172 17.336 13.437 24.672 21.412 20.388 20.79-2.701 51.484-27.919 43.239-11.227-3.689-21.799-9.377-32.021-13.9z" fill="#018667"/><path d="m370.532 311.079c-11.228-3.688-21.8-9.375-32.021-13.898-23.442 23.184-50.843 29.802-79.706 11.891-12.475-8.724-16.413 16.357-55.223 8.437-28.614-4.239-31.806-21.254-39.636-15.92-10.039 4.761-19.733 10.755-31.453 10.313-10.942.222-22.311-3.551-25.922-13.474-.733 2.869-1.139 5.8-1.173 8.805.011 15.222 13.865 20.793 27.095 20.525 11.719.442 21.414-5.551 31.453-10.313 7.83-5.334 11.022 11.681 39.636 15.92 38.811 7.92 42.748-17.161 55.223-8.437 28.862 17.911 56.264 11.293 79.706-11.891 10.221 4.523 20.793 10.211 32.021 13.898 21.346 6.979 41.165-13.941 34.384-33.138-4.418 12.857-19.005 22.31-34.384 17.282z" fill="#017758"/><path d="m321.522 213.672c-9.446-2.664-19.275-5.603-29.211-8.122-2.516-.638-6.151-1-7.95.317-17.519 12.817-34.659 9.449-51.447-1-5.191-3.231-9.728-3.365-15.593-2.335-10.292 1.808-20.851 2.43-31.324 2.756-14.558.561-37.075-16.087-22.479-30.451 23.018-20.322 52.804-32.407 69.256-59.961 9.771-19.478 23.184-29.44 44.426-18.064 17.592 10.043 23.563 30.84 34.412 46.8 10.964 22.211 39.211 26.429 41.125 45.189 2.94 19.228-16.234 22.074-31.215 24.871z" fill="#018667"/><path d="m352.739 188.801c-.095-.935-.257-1.833-.478-2.7-3.308 11.528-18.51 13.868-30.863 16.175-9.446-2.664-19.275-5.603-29.211-8.122-2.516-.638-6.151-1-7.95.317-17.519 12.817-34.659 9.449-51.447-1-5.191-3.231-9.728-3.365-15.593-2.335-10.292 1.808-20.852 2.43-31.324 2.756-9.178.354-21.517-6.132-25.729-14.572-6.675 13.123 12.791 26.472 25.853 25.969 10.472-.326 21.032-.948 31.324-2.756 5.864-1.03 10.401-.896 15.593 2.335 16.788 10.449 33.927 13.817 51.447 1 1.8-1.317 5.434-.955 7.95-.317 9.936 2.519 19.765 5.458 29.211 8.122 14.981-2.798 34.155-5.644 31.217-24.872z" fill="#017758"/></g><g><g><path d="m206.337 247.769c-2.461 31.753-21.858 59.122-34.763 87.465-2.775 5.014-5.024 10.719-9.474 14.499-3.251 2.576-7.344.941-8.183-3.132-.815-3.959.322-7.698 1.516-11.408 5.032-21.92 48.777-85.989 29.279-100.844-5.377-4.123-13.563-2.976-17.585 2.499-3.16 4.144-5.342 9.696-10.735 11.362-3.97 1.348-7.705-1.385-7.637-5.614.768-7.349 6.653-16.29 11.884-21.463 21.382-17.79 46.668 1.157 45.698 26.636z" fill="#e2ddd5"/><g fill="#ff3213"><path d="m195.894 286.119c-.158.083-.314.173-.47.27-7.23 5.178-15.079 9.083-23.512 11.464-2.718 5.6-5.422 11.047-7.846 16.101.139.041.28.08.426.114 1.544.432 3.201.461 4.807.674 5.799.268 10.647-1.78 14.981-4.843 4.078-7.839 8.117-15.728 11.614-23.78z"/><path d="m205.742 253.231c-1.413.651-2.836 1.694-3.978 2.8-5.243 4.578-10.786 8.739-16.822 12.104-1.831 5.103-4.07 10.443-6.49 15.821 7.283-2.346 15.624-5.324 22.187-9.96 2.324-6.753 4.116-13.654 5.103-20.765z"/><path d="m160.273 325.544c-.363.011-.887.026-1.513.051-1.552 3.704-2.721 6.958-3.327 9.599-.638 1.984-1.26 3.976-1.576 6.006 1.598.369 3.332.553 5.099.544 3.696-.37 7.22-1.239 10.553-2.583.684-1.324 1.357-2.647 2.064-3.925 2.235-4.909 4.665-9.788 7.167-14.666-1.232.528-2.438 1.148-3.448 1.408-4.845 1.849-9.635 3.707-15.019 3.566z"/><path d="m197.755 223.246c-.21.274-.407.585-.586.936-.527.99-.927 2.05-1.348 3.094-1.871 4.647-4.193 9.032-6.99 13.12 1.38 4.38 1.005 10.084-.506 16.558 3.396-1.824 6.57-4.36 8.7-6.535 1.391-1.343 5.465-6.77 8.433-12.155-1.331-5.815-4.055-10.977-7.703-15.018z"/><path d="m166.186 217.359c.269.687.607 1.36.968 1.974 2.182 4.396 3.936 8.902 4.826 13.645 3.571-1.581 7.843-1.501 11.318.441.008-.049.015-.097.023-.144-.132-8.437-1.643-12.865-5.225-19.111-3.891.05-7.923 1.052-11.91 3.195z"/><path d="m149.667 238.399c1.274.389 2.697.876 4.009 1.88 2.42 1.162 3.812 4.156 5.195 6.776 2.984-1.907 4.832-5.171 6.825-8.174-2.199-4.686-6.039-8.502-10.592-11.09-2.298 3.312-4.3 7.024-5.437 10.608z"/></g></g><g><path d="m156.038 234.134c2.083-6.045 7.4-10.513 13.363-12.493.753-.25.43-1.447-.329-1.194-6.396 2.124-11.998 6.884-14.228 13.358-.261.755.935 1.079 1.194.329z" fill="#fff"/></g></g><g><g fill="#003f2e"><path d="m138.798 327.833c2.263 7.771 7.394 22.457 10.662 29.861 3.413 7.733 7.368 15.294 12.26 22.202 4.462 6.3 9.794 12.006 16.678 15.671 6.521 3.472 14.071 4.911 21.343 3.301 3.233-.715 6.282-1.967 9.047-3.646 2.078 2.507 4.375 4.834 6.792 6.935 5.454 4.741 12.127 8.731 19.454 9.43 3.556.339 7.162-.196 10.44-1.625 3.114-1.357 5.64-3.649 7.703-6.312 4.449-5.74 6.998-12.654 11.987-18.019 5.731-6.162 13.875-10.749 22.44-8.022 4.373 1.392 8.055 4.27 12.188 6.184 3.812 1.765 7.986 2.615 12.185 2.488 8.731-.262 16.742-4.342 23.656-9.402 13.634-9.979 25.815-22.174 34.657-36.641 2.194-3.589 4.29-7.679 6.038-11.505.214-.468-.48-.878-.695-.406-6.824 14.939-17.324 28.323-29.593 39.165-12.135 10.724-28.915 23.441-45.841 15.605-3.786-1.753-7.181-4.267-11.076-5.799-3.553-1.397-7.429-1.702-11.144-.804-6.979 1.687-12.902 7.111-16.885 12.894-3.841 5.576-6.301 12.297-11.428 16.908-5.523 4.967-13.414 5.54-20.232 3.257-7.124-2.386-13.281-7.343-18.259-12.858-.569-.631-1.122-1.274-1.662-1.927 9.236-5.965 15.079-16.765 13.561-28.099-.931-6.951-4.797-13.887-10.865-17.613-4.075-2.502-10.522-3.465-14.321.149-2.898 2.757-3.238 7.258-3.016 11.012.296 5.002 1.608 9.941 3.208 14.669 1.374 4.06 2.993 8.086 5 11.877 1.452 2.742 3.208 5.358 5.178 7.809-6.173 3.664-13.414 5.026-20.51 3.565-7.465-1.537-14.148-5.801-19.36-11.275-5.364-5.634-9.57-12.394-13.217-19.23-3.883-7.279-7.14-14.891-9.91-22.658-1.212-3.399-4.678-13.893-5.687-17.357-.144-.495-.922-.284-.776.216zm63.689 55.922c-1.932-4.133-3.545-8.435-4.799-12.822-1.283-4.485-2.321-9.247-2.012-13.939.244-3.698 1.657-7.533 5.463-8.805 6.875-2.299 13.585 2.616 17.224 8.103 3.893 5.87 5.022 13.208 3.461 20.04-1.642 7.187-6.064 13.28-12.164 17.36-.221.148-.445.293-.669.435-2.563-3.195-4.764-6.65-6.504-10.372z"/><path d="m323.384 388.597c-3.094.725-5.626-3.887-.049-5.395 1.572-.425 2.642.338 3.102 2.2.291 1.172-1.198 2.73-3.053 3.195z"/><path d="m276.06 377.853c-3.094.725-5.626-3.887-.049-5.395 1.572-.425 2.642.338 3.102 2.2.29 1.173-1.198 2.73-3.053 3.195z"/><path d="m246.032 414.396c-3.094.725-5.626-3.887-.049-5.395 1.572-.425 2.642.338 3.102 2.2.29 1.173-1.198 2.73-3.053 3.195z"/><path d="m172.076 396.861c-2.094-2.39.788-6.792 4.74-2.578 1.114 1.188.943 2.491-.484 3.772-.9.807-2.974.225-4.256-1.194z"/></g><g><path d="m152.698 393.226c7.984-3.657 20.149-3.707 23.55 5.957 1.465 4.118.617 7.515-3.61 11.249-9.2 7.994-22.815 6.376-33.398 2.174-11.922-5.156 8.117-17.107 13.458-19.38z" fill="#d5ad56"/><g><path d="m155.19 408.387c5.119.205 9.986-1.324 14.297-4.038.438-.276-.064-.906-.499-.632-4.112 2.589-8.81 4.068-13.694 3.872-.514-.022-.622.777-.104.798z" fill="#fff"/></g></g><g><path d="m324.691 411.606c-6.229-6.189-10.552-17.561-2.699-24.141 3.341-2.819 6.819-3.219 11.8-.574 10.718 5.804 13.987 19.119 13.772 30.504-.637 12.973-18.868-1.587-22.873-5.789z" fill="#ff3213"/><g><path d="m341.079 404.707c-1.694-4.827-4.919-8.789-9.027-11.787-.419-.306-.821.393-.406.695 3.928 2.867 7.038 6.691 8.657 11.306.17.486.948.277.776-.214z" fill="#fff"/></g></g><g><path d="m237.164 435.358c-2.895-8.291-1.807-20.407 8.133-22.89 4.237-1.074 7.54.088 10.862 4.646 7.099 9.907 4.215 23.311-.958 33.455-6.248 11.388-16.273-9.68-18.037-15.211z" fill="#00a99d"/><g><path d="m254.775 434.258c.289-5.063-1.16-9.952-3.775-14.263-.268-.443-.965-.038-.695.406 2.547 4.198 3.947 8.926 3.665 13.856-.03.519.775.517.805.001z" fill="#fff"/></g></g><g><path d="m270.77 349.947c6.997 5.306 12.793 16.002 5.885 23.568-2.936 3.238-6.331 4.097-11.619 2.138-11.394-4.327-16.405-17.089-17.706-28.402-1.094-12.943 18.911-.936 23.44 2.696z" fill="#f8e19e"/><g><path d="m273.188 362.685c-2.053-4.634-5.584-8.315-9.876-10.952-.443-.272-.848.424-.406.695 4.185 2.571 7.587 6.149 9.587 10.663.209.473.904.064.695-.406z" fill="#fff"/></g></g></g><g><path d="m258.893 240.207c-.373 20.453-32.516 27.729-36.234 5.04-2.645-29.145 33.912-33.536 36.234-5.04z" fill="#d5ad56"/><g><path d="m237.378 227.564c-4.249 5.07-6.281 11.708-5.137 18.268.137.784 1.331.452 1.194-.329-1.062-6.087.878-12.361 4.818-17.062.51-.608-.362-1.489-.875-.877z" fill="#fff"/></g></g><g><path d="m309.061 159.814c-.373 20.453-32.516 27.729-36.234 5.04-2.645-29.144 33.912-33.536 36.234-5.04z" fill="#f8e19e"/><g><path d="m287.546 147.172c-4.249 5.07-6.281 11.708-5.137 18.268.137.784 1.331.452 1.194-.329-1.062-6.087.878-12.361 4.818-17.062.51-.608-.362-1.489-.875-.877z" fill="#fff"/></g></g><g><path d="m228.42 140.738c-.373 20.453-32.516 27.729-36.234 5.04-2.644-29.145 33.913-33.536 36.234-5.04z" fill="#ff3213"/><g><path d="m206.906 128.096c-4.249 5.07-6.281 11.708-5.137 18.268.137.784 1.331.452 1.194-.329-1.062-6.087.878-12.361 4.818-17.062.51-.609-.362-1.489-.875-.877z" fill="#fff"/></g></g><g><path d="m360.947 314.525c-15.589-15.782-27.593-23.99-41.664-24.487-.547.288-.696 1.303-.877 1.805-3.029.245-9.553.995-9.943 1.031-1.332.391-2.511 1.411-3.682 2.326-8.241 6.198-21.297 29.686-21.527 47.531 2.314 1.94 7.783-11.299 10.287-9.634 1.945 1.654 1.833 17.852 4.165 19.238.423.483.887-.239 1.051-2.128 1.792-18.74 8.003-40.159 17.691-48.924 12.707 2.862 28.685 18.537 39.407 33.966 1.07 1.566 1.827 1.968 1.96 1.34 1.352-2.354-6.687-16.412-5.803-18.809 1.369-2.677 12.62 6.177 13.689 3.354.668-.87-3.211-4.901-4.754-6.609z" fill="#ff3213"/><path d="m323.633 290.261c-1.469-.223-2.997-.534-4.349-.222-.548.292-.695 1.297-.877 1.804-1.152.093-2.81.26-4.443.432-.016.026-.033.052-.049.078-.035-.02-.069-.041-.104-.062-2.607.276-5.11.561-5.347.583-7.314 3.92-11.35 10.257-16.309 19.34 9.247-1.237 17.682-4.561 24.145-12.573 8.13 4.673 18.46 2.033 26.818-.65-7.065-4.772-13.708-7.63-19.485-8.73z" fill="#dd1b07"/><g><path d="m313.438 290.538c5.86-9.041 10.789-18.287 18.069-26.141 4.467-5.475 13.899-8.583 15.405.943.23 1.608.297 3.253.683 4.822.751 3.051 1.987 3.936 5.171 4.039 14.43 1.364 1.482 18.856-6.119 21.206-9.292 4.115-21.33 7.54-30.823 2.42-9.46 11.9-32.566 18.357-44.835 8.365-3.847-2.959-4.475-7.898.133-10.471 3.23-1.943 3.897-3.666 2.67-7.224-3.081-5.645-3.616-12.597 4.489-13.019 12.922.844 24.129 8.96 35.157 15.06z" fill="#ff3213"/><g fill="#dd1b07"><path d="m300.537 290.499c3.81.306 9.303.934 12.882.044-10.995-6.115-22.242-14.225-35.138-15.066-2.162.055-3.858.737-4.998 1.863-.7 2.198-.017 4.672 2.137 6.543 6.954 5.791 16.508 5.958 25.117 6.616z"/><path d="m317.256 288.46c9.85-6.93 21.881-11.18 26.35-22.625.851-2.658.163-5.045-1.565-6.59-1.43-.312-3.07-.098-4.791.741-10.829 6.524-16.758 20.334-23.832 30.557.859-.272 3.087-1.591 3.838-2.083z"/></g></g><g fill="#ff402c"><path d="m352.765 274.201c-2.605-.084-3.906-.693-4.704-2.582-2.703 4.747-8.249 7.616-11.448 12.12-3.824 4.979.628 9.023 5.844 8.794 6.804-.281 12.165-7.219 13.156-13.553.124-1.452-.524-2.962-.173-4.376-.776-.235-1.669-.371-2.675-.403z"/><path d="m290.1 295.924c-4.942-2.348-11.081-2.108-15.741-4.864.318 3.173-3.003 4.068-5.113 6.171.969 1.061 1.15 2.671 1.961 3.861 3.968 5.035 12.044 8.452 18.111 5.362 4.651-2.357 6.564-8.063.782-10.53z"/></g></g><g><g><path d="m264.177 93.907c-18.348 15.498-28.358 26.117-21.338-7.261.211-1.322.151-2.165-.966-3.212-4.086-4.9-18.893-14.111-8.041-19.286 9.084-5.522 18.149-.807 19.673-7.623 8.022-23.426 13.339-16.18 20.102 2.34.892 2.128 13.237 2.841 16.441 3.976 3.771 1.045 9.698 4.792 5.973 9.057-2.651 3.307-5.356 6.692-8.592 9.373-2.934 2.431-3.74 4.572-2.728 8.337.579 3.493 4.886 21.462-2.499 18.693-5.681-1.011-16.669-13.619-18.025-14.394z" fill="#ff3213"/></g><path d="m297.19 68.832c-.04-.428-.162-.843-.349-1.242-11.562-.135-23.033 1.891-34.416 3.743-.02-.013-.041-.025-.062-.035-.619-9.839-.232-19.73.913-29.517-.415-.046-.833-.001-1.255.14-1.14 9.786-1.516 19.677-.887 29.513-.005.007-.01.013-.014.02-10.371-.267-20.656-2.067-30.746-4.412-.201.385-.33.78-.393 1.183 10.202 2.389 20.607 4.154 31.092 4.468-2.957 8.034-7.308 15.486-12.295 22.418-2.565 3.983-5.326 8.025-7.242 12.395.254.388.558.67.91.854.688-1.507 1.531-2.961 2.306-4.37 5.763-10.043 13.348-19.071 17.207-30.145 6.523 11.886 12.107 24.879 21.583 34.741.535.012.982-.127 1.353-.393-9.851-10.036-15.519-23.442-22.208-35.654 11.407-1.861 22.91-3.892 34.503-3.707z" fill="#fff"/></g></g></svg>