<svg xmlns="http://www.w3.org/2000/svg" version="1.1" xmlns:xlink="http://www.w3.org/1999/xlink" width="512" height="512" x="0" y="0" viewBox="0 0 682.667 682.667" style="enable-background:new 0 0 512 512" xml:space="preserve" class=""><g><defs><clipPath id="a" clipPathUnits="userSpaceOnUse"><path d="M0 512h512V0H0Z" fill="#ff4500" opacity="1" data-original="#000000" class=""></path></clipPath></defs><g clip-path="url(#a)" transform="matrix(1.33333 0 0 -1.33333 0 682.667)"><path d="M0 0c-43.553-8.051-88.326-9.497-141.895-5.783-10.355.737-18.669-11.736-15.349-21.005 39.325-109.675 60.066-272.131 201.477-270.005 8.371-.737 13.818-.17 20.684 3.826 78.197 39.885 93.263 111.631 94.285 188.621.255 18.936-.341 38.212-1.05 57.431-.88 23.528-1.958 46.943-1.844 69.478.028 2.892.056 5.755.113 8.619.17 9.836-12.456 18.481-21.847 14.116-35.58-16.527-67.756-28.772-99.505-37.333A458.747 458.747 0 0 0 0 0" style="fill-opacity:1;fill-rule:evenodd;stroke:none" transform="translate(323.233 458.04)" fill="#fece85" data-original="#fece85"></path><path d="M0 0c-51.582-37.729-106.427-46.942-164.224-30.331-5.192 1.475-8.909-5.896-7.972-10.941 8.852-47.936 57.143-79.203 107.846-69.82 50.674 9.355 84.58 55.816 75.7 103.75C10.441-2.324 4.37 3.204 0 0" style="fill-opacity:1;fill-rule:evenodd;stroke:none" transform="translate(430.2 337.423)" fill="#fbf8f8" data-original="#fbf8f8"></path><path d="M0 0c-8.029-5.867-16.144-11.055-24.315-15.563 6.894-41.556-18.216-81.723-58.336-97.201 6.015 0 12.144.538 18.301 1.672 50.674 9.355 84.58 55.816 75.7 103.75C10.441-2.324 4.37 3.204 0 0" style="fill-opacity:1;fill-rule:evenodd;stroke:none" transform="translate(430.2 337.423)" fill="#e0d2ce" data-original="#e0d2ce"></path><path d="M0 0c.17 9.836-12.456 18.481-21.847 14.116-2.98-1.36-5.93-2.72-8.853-4.053-.028-1.587-.028-3.204-.028-4.819-.142-23.641.993-48.19 1.901-72.881.766-20.126 1.39-40.337 1.106-60.209-1.078-80.731-16.882-155.936-98.852-197.748a35.008 35.008 0 0 0-3.347-1.758c5.702-.509 11.604-.708 17.732-.623 8.371-.737 13.818-.17 20.685 3.827 78.196 39.884 93.262 111.63 94.284 188.621.255 18.935-.341 38.212-1.05 57.43C.851-54.568-.227-31.153-.113-8.618-.085-5.727-.057-2.863 0 0" style="fill-opacity:1;fill-rule:evenodd;stroke:none" transform="translate(479.654 489.222)" fill="#fdb440" data-original="#fdb440"></path><path d="M0 0c-44.291 0-88.581 6.69-140.589 20.099-10.015 2.579-20.457-8.164-18.896-17.888 18.697-115.003 9.533-278.509 148.959-302.094 8.086-2.267 13.562-2.692 21.052 0 84.127 25.002 112.018 92.809 127.027 168.325 3.717 18.595 6.639 37.673 9.42 56.665 3.433 23.302 6.639 46.518 10.867 68.685a371.184 371.184 0 0 0 1.645 8.419c1.987 9.639-8.852 20.467-18.896 17.888C102.597 10.29 68.72 4.082 35.949 1.446A450.792 450.792 0 0 0 0 0" style="fill-opacity:1;fill-rule:evenodd;stroke:none" transform="translate(189.141 309.246)" fill="#99e6fc" data-original="#99e6fc"></path><path d="M0 0c-57.598-27.751-113.209-26.816-167.033 0-4.823 2.41-9.817-4.195-9.817-9.298 0-48.757 41.794-88.272 93.348-88.272 51.525 0 93.319 39.515 93.319 88.272C9.817-4.195 4.852 2.354 0 0" style="fill-opacity:1;fill-rule:evenodd;stroke:none" transform="translate(272.388 171.196)" fill="#fbf8f8" data-original="#fbf8f8"></path><path d="M0 0c-8.966-4.309-17.875-7.937-26.756-10.885-.766-42.124-32.771-77.047-75.047-84.984a99.608 99.608 0 0 1 18.301-1.701c51.525 0 93.319 39.515 93.319 88.272C9.817-4.195 4.852 2.354 0 0" style="fill-opacity:1;fill-rule:evenodd;stroke:none" transform="translate(272.388 171.196)" fill="#e0d2ce" data-original="#e0d2ce"></path><path d="M0 0c1.986 9.639-8.852 20.467-18.896 17.888a748.144 748.144 0 0 0-9.449-2.382 274.968 274.968 0 0 1-.907-4.762c-4.427-23.217-7.803-47.566-11.378-72.002-2.923-19.928-5.987-39.912-9.874-59.415-15.747-79.173-45-150.267-133.212-176.488a34.66 34.66 0 0 0-3.603-1.106c5.504-1.53 11.264-2.806 17.307-3.827 8.087-2.267 13.563-2.692 21.053 0 84.126 25.002 112.018 92.809 127.027 168.325 3.717 18.595 6.639 37.673 9.42 56.665C-9.079-53.802-5.873-30.586-1.646-8.419-1.135-5.584-.567-2.777 0 0" style="fill-opacity:1;fill-rule:evenodd;stroke:none" transform="translate(348.627 311.457)" fill="#2ed1e2" data-original="#2ed1e2"></path><path d="M0 0c-2.213 19.531-5.164 44.958-8.086 62.816C-9.647 72.54.794 83.283 10.81 80.704c52.008-13.408 96.298-20.099 140.589-20.099 44.29 0 88.609 6.691 140.589 20.099 10.044 2.579 20.883-8.249 18.896-17.888-23.578-115.031-15.491-262.435-148.959-302.093-7.49-2.693-12.966-2.268-21.052 0C38.275-221.929 16.144-128.809 4.171-35.009" style="stroke-width:15;stroke-linecap:round;stroke-linejoin:round;stroke-miterlimit:10;stroke-dasharray:none;stroke-opacity:1" transform="translate(37.742 248.64)" fill="none" stroke="#ff4500" stroke-width="15" stroke-linecap="round" stroke-linejoin="round" stroke-miterlimit="10" stroke-dasharray="none" stroke-opacity="" data-original="#000000" opacity="1"></path><path d="M0 0c0-48.757-41.793-88.272-93.319-88.272-51.554 0-93.348 39.515-93.348 88.272 0 5.103 4.994 11.708 9.817 9.298 53.824-26.817 109.435-27.751 167.033 0C-4.965 11.651 0 5.103 0 0Z" style="stroke-width:15;stroke-linecap:round;stroke-linejoin:round;stroke-miterlimit:10;stroke-dasharray:none;stroke-opacity:1" transform="translate(282.205 161.898)" fill="none" stroke="#ff4500" stroke-width="15" stroke-linecap="round" stroke-linejoin="round" stroke-miterlimit="10" stroke-dasharray="none" stroke-opacity="" data-original="#000000" opacity="1"></path><path d="M0 0c16.74 16.725 43.865 16.725 60.605 0" style="stroke-width:15;stroke-linecap:round;stroke-linejoin:round;stroke-miterlimit:10;stroke-dasharray:none;stroke-opacity:1" transform="translate(96.531 226.785)" fill="none" stroke="#ff4500" stroke-width="15" stroke-linecap="round" stroke-linejoin="round" stroke-miterlimit="10" stroke-dasharray="none" stroke-opacity="" data-original="#000000" opacity="1"></path><path d="M0 0c16.74 16.725 43.865 16.725 60.605 0" style="stroke-width:15;stroke-linecap:round;stroke-linejoin:round;stroke-miterlimit:10;stroke-dasharray:none;stroke-opacity:1" transform="translate(218.224 226.785)" fill="none" stroke="#ff4500" stroke-width="15" stroke-linecap="round" stroke-linejoin="round" stroke-miterlimit="10" stroke-dasharray="none" stroke-opacity="" data-original="#000000" opacity="1"></path><path d="M0 0c49.909 8.362 96.213 25.371 141.951 46.603 9.392 4.365 22.018-4.281 21.847-14.117-2.27-117.413 32.544-260.878-91.503-324.148-6.866-3.996-12.314-4.564-20.684-3.826-15.832-.227-30.132 1.587-43.127 5.159m-119.168 143.124c-14.555 40.989-25.791 84.417-39.183 121.722-3.32 9.269 4.994 21.742 15.35 21.004 37.595-2.607 70.905-2.665 102.455.312" style="stroke-width:15;stroke-linecap:round;stroke-linejoin:round;stroke-miterlimit:10;stroke-dasharray:none;stroke-opacity:1" transform="translate(315.856 456.735)" fill="none" stroke="#ff4500" stroke-width="15" stroke-linecap="round" stroke-linejoin="round" stroke-miterlimit="10" stroke-dasharray="none" stroke-opacity="" data-original="#000000" opacity="1"></path><path d="M0 0c28.713 4.507 56.576 16.44 83.559 36.17 4.369 3.204 10.441-2.324 11.349-7.342 8.881-47.934-25.025-94.395-75.7-103.75-10.554-1.955-21.024-2.154-31.04-.793" style="stroke-width:15;stroke-linecap:round;stroke-linejoin:round;stroke-miterlimit:10;stroke-dasharray:none;stroke-opacity:1" transform="translate(346.64 301.253)" fill="none" stroke="#ff4500" stroke-width="15" stroke-linecap="round" stroke-linejoin="round" stroke-miterlimit="10" stroke-dasharray="none" stroke-opacity="" data-original="#000000" opacity="1"></path><path d="M0 0c13.421 19.475 40.091 24.407 59.612 10.999" style="stroke-width:15;stroke-linecap:round;stroke-linejoin:round;stroke-miterlimit:10;stroke-dasharray:none;stroke-opacity:1" transform="translate(247.164 360.157)" fill="none" stroke="#ff4500" stroke-width="15" stroke-linecap="round" stroke-linejoin="round" stroke-miterlimit="10" stroke-dasharray="none" stroke-opacity="" data-original="#000000" opacity="1"></path><path d="M0 0c13.42 19.474 40.12 24.406 59.612 10.998" style="stroke-width:15;stroke-linecap:round;stroke-linejoin:round;stroke-miterlimit:10;stroke-dasharray:none;stroke-opacity:1" transform="translate(366.814 382.269)" fill="none" stroke="#ff4500" stroke-width="15" stroke-linecap="round" stroke-linejoin="round" stroke-miterlimit="10" stroke-dasharray="none" stroke-opacity="" data-original="#000000" opacity="1"></path></g></g></svg>