<svg xmlns="http://www.w3.org/2000/svg" version="1.1" xmlns:xlink="http://www.w3.org/1999/xlink" width="512" height="512" x="0" y="0" viewBox="0 0 64 64" style="enable-background:new 0 0 512 512" xml:space="preserve" class=""><g><path d="M60 24.237a19.996 19.996 0 0 1-7.948 16.036.999.999 0 0 1-1.21-1.59C64.613 28.232 57.086 6.047 39.805 6.042a18.03 18.03 0 0 0-14.476 7.178 1.003 1.003 0 0 1-1.6-1.21C35.327-3.296 59.988 5.03 60 24.237zM53.032 48.9c-.185 4.988 1.466 11.599-6.209 10.988-22.669.438-43.642-21.867-42.798-43.97.285-5.793 5.617-4.92 9.117-4.948 2.562.173 5.331-.67 7.558 1.32 2.155 2.143 1.266 5.038 1.83 7.528.298 2.853 2.362 5.744.03 8.608-1.191 1.576-2.516 3.235-3.64 4.819a28.56 28.56 0 0 0 11.827 11.827c1.667-1.192 3.215-2.417 4.84-3.66a4.747 4.747 0 0 1 3.448-1.07c1.88.23 3.658 1.003 5.469 1.16a12.342 12.342 0 0 0 2.25.22c4.836-.169 6.716 2.578 6.278 7.179z" fill="#ff0800" opacity="1" data-original="#000000"></path><path d="M43.634 17.149v3.249h3.25a2.428 2.428 0 0 1 2.419 2.42v2.829a2.421 2.421 0 0 1-2.42 2.419h-3.249v3.25a2.421 2.421 0 0 1-2.42 2.419h-2.828a2.428 2.428 0 0 1-2.42-2.42v-3.249h-3.249a2.413 2.413 0 0 1-2.41-2.42v-2.829a2.42 2.42 0 0 1 2.41-2.419h3.25v-3.25a2.42 2.42 0 0 1 2.419-2.409h2.829a2.413 2.413 0 0 1 2.42 2.41z" fill="#ff0800" opacity="1" data-original="#000000"></path></g></svg>