<?xml version="1.0" encoding="UTF-8"?>
<svg xmlns="http://www.w3.org/2000/svg" xmlns:xlink="http://www.w3.org/1999/xlink" version="1.1" id="Capa_1" x="0px" y="0px" viewBox="0 0 513.41 513.41" style="enable-background:new 0 0 513.41 513.41;" xml:space="preserve" width="512" height="512">
<g>
	<g>
		<g>
			<path style="fill:#FFCEBF;" d="M263.655,87.36v15.41c0,15.4-12.49,27.89-27.9,27.89c-15.4,0-27.89-12.49-27.89-27.89V87.36&#10;&#9;&#9;&#9;&#9;c0-7.7,3.12-14.67,8.17-19.72c5.05-5.05,12.02-8.17,19.72-8.17C251.165,59.47,263.655,71.96,263.655,87.36z"/>
			<path style="fill:#FFB09E;" d="M235.755,59.47c-4.695,0-9.116,1.165-12.998,3.216c8.857,4.675,14.896,13.969,14.896,24.674v15.41&#10;&#9;&#9;&#9;&#9;c0,10.705-6.039,20-14.896,24.674c3.882,2.05,8.303,3.216,12.998,3.216c15.41,0,27.9-12.49,27.9-27.89V87.36&#10;&#9;&#9;&#9;&#9;C263.655,71.96,251.165,59.47,235.755,59.47z"/>
			<path style="fill:#99E6FC;" d="M263.655,87.36v5.07h-55.79v-5.07c0-7.7,3.12-14.67,8.17-19.72c5.05-5.05,12.02-8.17,19.72-8.17&#10;&#9;&#9;&#9;&#9;C251.165,59.47,263.655,71.96,263.655,87.36z"/>
			<path style="fill:#62DBFB;" d="M235.755,59.47c-4.695,0-9.116,1.165-12.998,3.216c8.857,4.675,14.896,13.969,14.896,24.674v5.07&#10;&#9;&#9;&#9;&#9;h26.002v-5.07C263.655,71.96,251.165,59.47,235.755,59.47z"/>
			<polygon style="fill:#FEF48B;" points="286.188,158.471 281.188,291.345 188.331,291.345 183.331,158.471 &#9;&#9;&#9;"/>
			<polygon style="fill:#FEF056;" points="260.186,158.47 255.186,291.345 281.188,291.345 286.188,158.47 &#9;&#9;&#9;"/>
			<path style="fill:#FEF48B;" d="M286.188,158.471h19.181l-10.642-16.38c-5.265-8.104-2.595-18.971,5.827-23.711l0,0&#10;&#9;&#9;&#9;&#9;c7.321-4.121,16.562-2.179,21.604,4.541l45.215,60.251c4.933,6.574,4.803,15.651-0.317,22.08v0&#10;&#9;&#9;&#9;&#9;c-3.18,3.993-7.901,6.453-12.995,6.771l-70.053,4.379L286.188,158.471z"/>
			<path style="fill:#FEF056;" d="M367.055,205.25c-1.59,1.99-3.57,3.61-5.78,4.76c-2.21,1.15-4.67,1.85-7.21,2.01l-19.86,1.24&#10;&#9;&#9;&#9;&#9;c1.06-0.32,2.09-0.74,3.07-1.25c2.21-1.15,4.19-2.77,5.78-4.76c5.12-6.43,5.25-15.51,0.32-22.08l-45.22-60.25&#10;&#9;&#9;&#9;&#9;c-0.71-0.95-1.5-1.8-2.36-2.53c1.28-1.58,2.87-2.95,4.76-4.01c2.58-1.45,5.41-2.15,8.2-2.15c5.12,0,10.14,2.34,13.4,6.69&#10;&#9;&#9;&#9;&#9;l45.22,60.25C372.305,189.74,372.175,198.82,367.055,205.25z"/>
			<path style="fill:#FEF056;" d="M183.331,158.471l5,132.875h-38.459l-3.399-94.67&#10;&#9;&#9;&#9;&#9;C145.724,175.801,162.443,158.471,183.331,158.471L183.331,158.471z"/>
		</g>
		<path style="fill:#B98080;" d="M444.619,59.47H70.79c-7.41,0-13.417-6.007-13.417-13.417V20.917&#10;&#9;&#9;&#9;c0-7.41,6.007-13.417,13.417-13.417h373.829c7.41,0,13.417,6.007,13.417,13.417v25.137&#10;&#9;&#9;&#9;C458.036,53.463,452.029,59.47,444.619,59.47z"/>
		<path style="fill:#AE6C6C;" d="M458.035,20.92v25.13c0,7.41-6.01,13.42-13.42,13.42h-26c7.41,0,13.42-6.01,13.42-13.42V20.92&#10;&#9;&#9;&#9;c0-7.41-6.01-13.42-13.42-13.42h26C452.025,7.5,458.035,13.51,458.035,20.92z"/>
		<path style="fill:#B98080;" d="M457.036,470.52H56.374V273.374c0-7.41,6.007-13.417,13.417-13.417h373.829&#10;&#9;&#9;&#9;c7.41,0,13.417,6.007,13.417,13.417V470.52z"/>
		<path style="fill:#AE6C6C;" d="M457.035,273.37v197.15h-26V273.37c0-7.41-6.01-13.41-13.42-13.41h26&#10;&#9;&#9;&#9;C451.025,259.96,457.035,265.96,457.035,273.37z"/>
		<g>
			<g>
				<rect x="87.354" y="59.47" style="fill:#9E9797;" width="27" height="200.488"/>
			</g>
			<g>
				<rect x="399.055" y="59.47" style="fill:#8C8585;" width="27" height="200.488"/>
			</g>
		</g>
		<path style="fill:#C59191;" d="M489.962,505.91H229.387c-9.429,0-17.072-7.643-17.072-17.072V368.581h292.89v122.086&#10;&#9;&#9;&#9;C505.205,499.085,498.381,505.91,489.962,505.91z"/>
		<path style="fill:#B98080;" d="M479.203,368.581v122.086c0,8.418-6.824,15.243-15.242,15.243h26.002&#10;&#9;&#9;&#9;c8.418,0,15.243-6.824,15.243-15.243V368.581H479.203z"/>
		<path style="fill:#FCD18A;" d="M23.447,505.91h171.796c9.429,0,17.072-7.643,17.072-17.072v-55.055H8.205v56.885&#10;&#9;&#9;&#9;C8.205,499.085,15.029,505.91,23.447,505.91z"/>
		<path style="fill:#FBC56D;" d="M186.313,433.782v55.055c0,9.428-7.643,17.072-17.072,17.072h26.002&#10;&#9;&#9;&#9;c9.428,0,17.072-7.643,17.072-17.072v-55.055H186.313z"/>
		
			<rect x="8.205" y="344.495" transform="matrix(-1 -1.224647e-16 1.224647e-16 -1 220.5199 778.2772)" style="fill:#FCD18A;" width="204.11" height="89.288"/>
		<rect x="186.313" y="344.495" style="fill:#FBC56D;" width="26.002" height="89.288"/>
		<g>
			<path style="fill:#80D261;" d="M49.027,433.782H8.205v-18.786c0-10.553,4.354-20.638,12.035-27.875l8.376-7.892l8.376,7.892&#10;&#9;&#9;&#9;&#9;c7.681,7.237,12.035,17.322,12.035,27.875V433.782z"/>
			<path style="fill:#80D261;" d="M89.849,433.782H49.027v-18.786c0-10.553,4.354-20.638,12.035-27.875l8.376-7.892l8.376,7.892&#10;&#9;&#9;&#9;&#9;c7.681,7.237,12.035,17.322,12.035,27.875V433.782z"/>
			<path style="fill:#80D261;" d="M130.671,433.782H89.849v-18.786c0-10.553,4.354-20.638,12.035-27.875l8.376-7.892l8.376,7.892&#10;&#9;&#9;&#9;&#9;c7.681,7.237,12.035,17.322,12.035,27.875V433.782z"/>
			<path style="fill:#80D261;" d="M171.493,433.782h-40.822v-18.786c0-10.553,4.354-20.638,12.035-27.875l8.376-7.892l8.376,7.892&#10;&#9;&#9;&#9;&#9;c7.681,7.237,12.035,17.322,12.035,27.875V433.782z"/>
			<path style="fill:#80D261;" d="M212.315,433.782h-40.822v-18.786c0-10.553,4.354-20.638,12.035-27.875l8.376-7.892l8.376,7.892&#10;&#9;&#9;&#9;&#9;c7.681,7.237,12.035,17.322,12.035,27.875V433.782z"/>
		</g>
		<g>
			<path style="fill:#68CA44;" d="M36.992,387.122l-8.376-7.892l-8.376,7.892c-1.31,1.234-2.514,2.556-3.625,3.944&#10;&#9;&#9;&#9;&#9;c5.406,6.751,8.41,15.178,8.41,23.931v18.786h24.002v-18.786C49.027,404.444,44.672,394.359,36.992,387.122z"/>
			<path style="fill:#68CA44;" d="M77.814,387.122l-8.376-7.892l-8.376,7.892c-1.309,1.234-2.514,2.556-3.625,3.944&#10;&#9;&#9;&#9;&#9;c5.406,6.751,8.41,15.178,8.41,23.931v18.786h24.002v-18.786C89.849,404.444,85.495,394.359,77.814,387.122z"/>
			<path style="fill:#68CA44;" d="M118.636,387.122l-8.376-7.892l-8.376,7.892c-1.309,1.234-2.514,2.556-3.625,3.944&#10;&#9;&#9;&#9;&#9;c5.406,6.751,8.41,15.178,8.41,23.931v18.786h24.002v-18.786C130.671,404.444,126.317,394.359,118.636,387.122z"/>
			<path style="fill:#68CA44;" d="M159.458,387.122l-8.376-7.892l-8.376,7.892c-1.309,1.234-2.514,2.556-3.625,3.944&#10;&#9;&#9;&#9;&#9;c5.406,6.751,8.41,15.178,8.41,23.931v18.786h24.002v-18.786C171.493,404.444,167.139,394.359,159.458,387.122z"/>
			<path style="fill:#68CA44;" d="M200.28,387.122l-8.376-7.892l-8.376,7.892c-1.309,1.234-2.514,2.556-3.625,3.944&#10;&#9;&#9;&#9;&#9;c5.406,6.751,8.41,15.178,8.41,23.931v18.786h24.002v-18.786C212.315,404.444,207.961,394.359,200.28,387.122z"/>
		</g>
		<g>
			<path style="fill:#80D261;" d="M49.027,344.495H8.205v-18.786c0-10.553,4.354-20.638,12.035-27.875l8.376-7.892l8.376,7.892&#10;&#9;&#9;&#9;&#9;c7.681,7.237,12.035,17.322,12.035,27.875V344.495z"/>
			<path style="fill:#80D261;" d="M89.849,344.495H49.027v-18.786c0-10.553,4.354-20.638,12.035-27.875l8.376-7.892l8.376,7.892&#10;&#9;&#9;&#9;&#9;c7.681,7.237,12.035,17.322,12.035,27.875V344.495z"/>
			<path style="fill:#80D261;" d="M130.671,344.495H89.849v-18.786c0-10.553,4.354-20.638,12.035-27.875l8.376-7.892l8.376,7.892&#10;&#9;&#9;&#9;&#9;c7.681,7.237,12.035,17.322,12.035,27.875V344.495z"/>
			<path style="fill:#80D261;" d="M171.493,344.495h-40.822v-18.786c0-10.553,4.354-20.638,12.035-27.875l8.376-7.892l8.376,7.892&#10;&#9;&#9;&#9;&#9;c7.681,7.237,12.035,17.322,12.035,27.875V344.495z"/>
			<path style="fill:#80D261;" d="M212.315,344.495h-40.822v-18.786c0-10.553,4.354-20.638,12.035-27.875l8.376-7.892l8.376,7.892&#10;&#9;&#9;&#9;&#9;c7.681,7.237,12.035,17.322,12.035,27.875V344.495z"/>
		</g>
		<g>
			<path style="fill:#68CA44;" d="M36.992,297.834l-8.376-7.892l-8.376,7.892c-1.31,1.234-2.514,2.556-3.625,3.944&#10;&#9;&#9;&#9;&#9;c5.406,6.751,8.41,15.177,8.41,23.931v18.785h24.002v-18.785C49.027,315.156,44.672,305.071,36.992,297.834z"/>
			<path style="fill:#68CA44;" d="M77.814,297.834l-8.376-7.892l-8.376,7.892c-1.309,1.234-2.514,2.556-3.625,3.944&#10;&#9;&#9;&#9;&#9;c5.406,6.751,8.41,15.177,8.41,23.931v18.785h24.002v-18.785C89.849,315.156,85.495,305.071,77.814,297.834z"/>
			<path style="fill:#68CA44;" d="M118.636,297.834l-8.376-7.892l-8.376,7.892c-1.309,1.234-2.514,2.556-3.625,3.944&#10;&#9;&#9;&#9;&#9;c5.406,6.751,8.41,15.177,8.41,23.931v18.785h24.002v-18.785C130.671,315.156,126.317,305.071,118.636,297.834z"/>
			<path style="fill:#68CA44;" d="M159.458,297.834l-8.376-7.892l-8.376,7.892c-1.309,1.234-2.514,2.556-3.625,3.944&#10;&#9;&#9;&#9;&#9;c5.406,6.751,8.41,15.177,8.41,23.931v18.785h24.002v-18.785C171.493,315.156,167.139,305.071,159.458,297.834z"/>
			<path style="fill:#68CA44;" d="M200.28,297.834l-8.376-7.892l-8.376,7.892c-1.309,1.234-2.514,2.556-3.625,3.944&#10;&#9;&#9;&#9;&#9;c5.406,6.751,8.41,15.177,8.41,23.931v18.785h24.002v-18.785C212.315,315.156,207.961,305.071,200.28,297.834z"/>
		</g>
		<path style="fill:#D1F19E;" d="M212.315,368.581h97.63v-6.226c0-14.515-11.767-26.281-26.281-26.281h0v-3.62&#10;&#9;&#9;&#9;c0-13.256-10.746-24.001-24.001-24.001h0c-8.741,0-16.791,4.752-21.015,12.406L212.315,368.581z"/>
		<path style="fill:#D1F19E;" d="M309.945,368.581h97.63v-6.226c0-14.515-11.767-26.281-26.281-26.281h0v-3.62&#10;&#9;&#9;&#9;c0-13.256-10.746-24.001-24.001-24.001h0c-8.741,0-16.791,4.752-21.015,12.406L309.945,368.581z"/>
		<path style="fill:#D1F19E;" d="M407.575,368.581h97.63v-6.226c0-14.515-11.767-26.281-26.281-26.281h0v-3.62&#10;&#9;&#9;&#9;c0-13.256-10.746-24.001-24.001-24.001h0c-8.741,0-16.791,4.752-21.015,12.406L407.575,368.581z"/>
		<path style="fill:#BBEC6C;" d="M283.664,336.074v-3.62c0-13.256-10.746-24.001-24.001-24.001c-4.694,0-9.183,1.381-12.993,3.836&#10;&#9;&#9;&#9;c6.612,4.274,10.992,11.706,10.992,20.165v3.62c14.515,0,26.281,11.766,26.281,26.281v6.226h26.002v-6.226&#10;&#9;&#9;&#9;C309.945,347.84,298.178,336.074,283.664,336.074z"/>
		<path style="fill:#BBEC6C;" d="M381.293,336.074v-3.62c0-13.256-10.746-24.001-24.001-24.001c-4.694,0-9.183,1.381-12.993,3.836&#10;&#9;&#9;&#9;c6.612,4.274,10.992,11.706,10.992,20.165v3.62c14.515,0,26.281,11.766,26.281,26.281v6.226h26.002v-6.226&#10;&#9;&#9;&#9;C407.575,347.84,395.808,336.074,381.293,336.074z"/>
		<path style="fill:#BBEC6C;" d="M478.923,336.074v-3.62c0-13.256-10.746-24.001-24.001-24.001c-4.695,0-9.183,1.381-12.993,3.836&#10;&#9;&#9;&#9;c6.612,4.274,10.992,11.706,10.992,20.165v3.62c14.515,0,26.281,11.766,26.281,26.281v6.226h26.002v-6.226&#10;&#9;&#9;&#9;C505.205,347.84,493.438,336.074,478.923,336.074z"/>
	</g>
	<g>
		<path style="fill:none;stroke:#000000;stroke-width:15;stroke-linecap:round;stroke-linejoin:round;stroke-miterlimit:10;" d="&#10;&#9;&#9;&#9;M444.619,59.47H70.79c-7.41,0-13.417-6.007-13.417-13.417V20.917c0-7.41,6.007-13.417,13.417-13.417h373.829&#10;&#9;&#9;&#9;c7.41,0,13.417,6.007,13.417,13.417v25.137C458.036,53.463,452.029,59.47,444.619,59.47z"/>
		<path style="fill:none;stroke:#000000;stroke-width:15;stroke-linecap:round;stroke-linejoin:round;stroke-miterlimit:10;" d="&#10;&#9;&#9;&#9;M56.375,303.16v-29.79c0-7.41,6.01-13.41,13.42-13.41h373.82c7.41,0,13.42,6,13.42,13.41v35.17"/>
		<g>
			<g>
				
					<polyline style="fill:none;stroke:#000000;stroke-width:15;stroke-linecap:round;stroke-linejoin:round;stroke-miterlimit:10;" points="&#10;&#9;&#9;&#9;&#9;&#9;114.354,94.508 114.354,259.958 87.354,259.958 87.354,59.47 114.354,59.47 &#9;&#9;&#9;&#9;"/>
			</g>
			<g>
				
					<rect x="399.055" y="59.47" style="fill:none;stroke:#000000;stroke-width:15;stroke-linecap:round;stroke-linejoin:round;stroke-miterlimit:10;" width="27" height="200.488"/>
			</g>
		</g>
		<path style="fill:none;stroke:#000000;stroke-width:15;stroke-linecap:round;stroke-linejoin:round;stroke-miterlimit:10;" d="&#10;&#9;&#9;&#9;M489.962,505.91H229.387c-9.429,0-17.072-7.643-17.072-17.072V368.581h292.89v122.086&#10;&#9;&#9;&#9;C505.205,499.085,498.381,505.91,489.962,505.91z"/>
		<path style="fill:none;stroke:#000000;stroke-width:15;stroke-linecap:round;stroke-linejoin:round;stroke-miterlimit:10;" d="&#10;&#9;&#9;&#9;M23.447,505.91h171.796c9.429,0,17.072-7.643,17.072-17.072v-55.055H8.205v56.885C8.205,499.085,15.029,505.91,23.447,505.91z"/>
		
			<rect x="8.205" y="344.495" transform="matrix(-1 -1.224647e-16 1.224647e-16 -1 220.5199 778.2772)" style="fill:none;stroke:#000000;stroke-width:15;stroke-linecap:round;stroke-linejoin:round;stroke-miterlimit:10;" width="204.11" height="89.288"/>
		<g>
			<path style="fill:none;stroke:#000000;stroke-width:15;stroke-linecap:round;stroke-linejoin:round;stroke-miterlimit:10;" d="&#10;&#9;&#9;&#9;&#9;M49.027,433.782H8.205v-18.786c0-10.553,4.354-20.638,12.035-27.875l8.376-7.892l8.376,7.892&#10;&#9;&#9;&#9;&#9;c7.681,7.237,12.035,17.322,12.035,27.875V433.782z"/>
			<path style="fill:none;stroke:#000000;stroke-width:15;stroke-linecap:round;stroke-linejoin:round;stroke-miterlimit:10;" d="&#10;&#9;&#9;&#9;&#9;M89.849,433.782H49.027v-18.786c0-10.553,4.354-20.638,12.035-27.875l8.376-7.892l8.376,7.892&#10;&#9;&#9;&#9;&#9;c7.681,7.237,12.035,17.322,12.035,27.875V433.782z"/>
			<path style="fill:none;stroke:#000000;stroke-width:15;stroke-linecap:round;stroke-linejoin:round;stroke-miterlimit:10;" d="&#10;&#9;&#9;&#9;&#9;M130.671,433.782H89.849v-18.786c0-10.553,4.354-20.638,12.035-27.875l8.376-7.892l8.376,7.892&#10;&#9;&#9;&#9;&#9;c7.681,7.237,12.035,17.322,12.035,27.875V433.782z"/>
			<path style="fill:none;stroke:#000000;stroke-width:15;stroke-linecap:round;stroke-linejoin:round;stroke-miterlimit:10;" d="&#10;&#9;&#9;&#9;&#9;M171.493,433.782h-40.822v-18.786c0-10.553,4.354-20.638,12.035-27.875l8.376-7.892l8.376,7.892&#10;&#9;&#9;&#9;&#9;c7.681,7.237,12.035,17.322,12.035,27.875V433.782z"/>
			<path style="fill:none;stroke:#000000;stroke-width:15;stroke-linecap:round;stroke-linejoin:round;stroke-miterlimit:10;" d="&#10;&#9;&#9;&#9;&#9;M212.315,433.782h-40.822v-18.786c0-10.553,4.354-20.638,12.035-27.875l8.376-7.892l8.376,7.892&#10;&#9;&#9;&#9;&#9;c7.681,7.237,12.035,17.322,12.035,27.875V433.782z"/>
		</g>
		<g>
			<path style="fill:none;stroke:#000000;stroke-width:15;stroke-linecap:round;stroke-linejoin:round;stroke-miterlimit:10;" d="&#10;&#9;&#9;&#9;&#9;M49.027,344.495H8.205v-18.786c0-10.553,4.354-20.638,12.035-27.875l8.376-7.892l8.376,7.892&#10;&#9;&#9;&#9;&#9;c7.681,7.237,12.035,17.322,12.035,27.875V344.495z"/>
			<path style="fill:none;stroke:#000000;stroke-width:15;stroke-linecap:round;stroke-linejoin:round;stroke-miterlimit:10;" d="&#10;&#9;&#9;&#9;&#9;M89.849,344.495H49.027v-18.786c0-10.553,4.354-20.638,12.035-27.875l8.376-7.892l8.376,7.892&#10;&#9;&#9;&#9;&#9;c7.681,7.237,12.035,17.322,12.035,27.875V344.495z"/>
			<path style="fill:none;stroke:#000000;stroke-width:15;stroke-linecap:round;stroke-linejoin:round;stroke-miterlimit:10;" d="&#10;&#9;&#9;&#9;&#9;M130.671,344.495H89.849v-18.786c0-10.553,4.354-20.638,12.035-27.875l8.376-7.892l8.376,7.892&#10;&#9;&#9;&#9;&#9;c7.681,7.237,12.035,17.322,12.035,27.875V344.495z"/>
			<path style="fill:none;stroke:#000000;stroke-width:15;stroke-linecap:round;stroke-linejoin:round;stroke-miterlimit:10;" d="&#10;&#9;&#9;&#9;&#9;M171.493,344.495h-40.822v-18.786c0-10.553,4.354-20.638,12.035-27.875l8.376-7.892l8.376,7.892&#10;&#9;&#9;&#9;&#9;c7.681,7.237,12.035,17.322,12.035,27.875V344.495z"/>
			<path style="fill:none;stroke:#000000;stroke-width:15;stroke-linecap:round;stroke-linejoin:round;stroke-miterlimit:10;" d="&#10;&#9;&#9;&#9;&#9;M212.315,344.495h-40.822v-18.786c0-10.553,4.354-20.638,12.035-27.875l8.376-7.892l8.376,7.892&#10;&#9;&#9;&#9;&#9;c7.681,7.237,12.035,17.322,12.035,27.875V344.495z"/>
		</g>
		<path style="fill:none;stroke:#000000;stroke-width:15;stroke-linecap:round;stroke-linejoin:round;stroke-miterlimit:10;" d="&#10;&#9;&#9;&#9;M212.315,368.581h97.63v-6.226c0-14.515-11.767-26.281-26.281-26.281h0v-3.62c0-13.256-10.746-24.001-24.001-24.001h0&#10;&#9;&#9;&#9;c-8.741,0-16.791,4.752-21.015,12.406L212.315,368.581z"/>
		<path style="fill:none;stroke:#000000;stroke-width:15;stroke-linecap:round;stroke-linejoin:round;stroke-miterlimit:10;" d="&#10;&#9;&#9;&#9;M309.945,368.581h97.63v-6.226c0-14.515-11.767-26.281-26.281-26.281h0v-3.62c0-13.256-10.746-24.001-24.001-24.001h0&#10;&#9;&#9;&#9;c-8.741,0-16.791,4.752-21.015,12.406L309.945,368.581z"/>
		<path style="fill:none;stroke:#000000;stroke-width:15;stroke-linecap:round;stroke-linejoin:round;stroke-miterlimit:10;" d="&#10;&#9;&#9;&#9;M407.575,368.581h97.63v-6.226c0-14.515-11.767-26.281-26.281-26.281h0v-3.62c0-13.256-10.746-24.001-24.001-24.001h0&#10;&#9;&#9;&#9;c-8.741,0-16.791,4.752-21.015,12.406L407.575,368.581z"/>
		
			<line style="fill:none;stroke:#000000;stroke-width:15;stroke-linecap:round;stroke-linejoin:round;stroke-miterlimit:10;" x1="212.315" y1="402.561" x2="505.205" y2="402.561"/>
		
			<line style="fill:none;stroke:#000000;stroke-width:15;stroke-linecap:round;stroke-linejoin:round;stroke-miterlimit:10;" x1="212.315" y1="436.541" x2="505.205" y2="436.541"/>
		
			<line style="fill:none;stroke:#000000;stroke-width:15;stroke-linecap:round;stroke-linejoin:round;stroke-miterlimit:10;" x1="449.615" y1="470.52" x2="505.205" y2="470.52"/>
		
			<line style="fill:none;stroke:#000000;stroke-width:15;stroke-linecap:round;stroke-linejoin:round;stroke-miterlimit:10;" x1="212.315" y1="470.52" x2="414.243" y2="470.52"/>
		<g>
			<path style="fill:none;stroke:#000000;stroke-width:15;stroke-linecap:round;stroke-linejoin:round;stroke-miterlimit:10;" d="&#10;&#9;&#9;&#9;&#9;M235.759,130.659L235.759,130.659c15.406,0,27.894-12.489,27.894-27.894V87.364c0-15.406-12.489-27.894-27.894-27.894h0&#10;&#9;&#9;&#9;&#9;c-15.406,0-27.894,12.489-27.894,27.894v15.401C207.865,118.171,220.354,130.659,235.759,130.659z"/>
			
				<line style="fill:none;stroke:#000000;stroke-width:15;stroke-linecap:round;stroke-linejoin:round;stroke-miterlimit:10;" x1="284.006" y1="92.428" x2="187.117" y2="92.428"/>
			
				<polyline style="fill:none;stroke:#000000;stroke-width:15;stroke-linecap:round;stroke-linejoin:round;stroke-miterlimit:10;" points="&#10;&#9;&#9;&#9;&#9;282.365,259.96 286.185,158.47 183.335,158.47 187.155,259.96 &#9;&#9;&#9;"/>
			<path style="fill:none;stroke:#000000;stroke-width:15;stroke-linecap:round;stroke-linejoin:round;stroke-miterlimit:10;" d="&#10;&#9;&#9;&#9;&#9;M286.188,158.471h19.181l-10.642-16.38c-5.265-8.104-2.595-18.971,5.827-23.711l0,0c7.321-4.121,16.562-2.179,21.604,4.541&#10;&#9;&#9;&#9;&#9;l45.215,60.251c4.933,6.574,4.803,15.651-0.317,22.08v0c-3.18,3.993-7.901,6.453-12.995,6.771l-70.053,4.379L286.188,158.471z"/>
			
				<line style="fill:none;stroke:#000000;stroke-width:15;stroke-linecap:round;stroke-linejoin:round;stroke-miterlimit:10;" x1="235.759" y1="158.471" x2="235.759" y2="184.377"/>
			
				<line style="fill:none;stroke:#000000;stroke-width:15;stroke-linecap:round;stroke-linejoin:round;stroke-miterlimit:10;" x1="305.369" y1="158.471" x2="319.728" y2="178.511"/>
			<path style="fill:none;stroke:#000000;stroke-width:15;stroke-linecap:round;stroke-linejoin:round;stroke-miterlimit:10;" d="&#10;&#9;&#9;&#9;&#9;M187.155,259.96l-3.82-101.49c-20.89,0-37.61,17.33-36.86,38.21l2.27,63.28"/>
		</g>
	</g>
</g>















</svg>
