<svg id="svg4690" height="512" viewBox="0 0 16.933333 16.933334" width="512" xmlns="http://www.w3.org/2000/svg" xmlns:svg="http://www.w3.org/2000/svg"><g id="layer1" transform="translate(0 -280.067)"><path id="path3821" d="m8.9958225 285.0937-1.05833 9.52501c-.0324.29137-.236.52918-.52916.52918h-4.2333401c-.2931502 0-.4949101-.23803-.5291601-.52917l-1.05834-9.525z" fill="#fc6067"/><path id="path22142-4" d="m7.4083125 290.12079a2.1166534 2.1166534 0 0 1 -2.1166503 2.11666 2.1166534 2.1166534 0 0 1 -2.1166598-2.11666 2.1166534 2.1166534 0 0 1 2.1166598-2.11665 2.1166534 2.1166534 0 0 1 2.1166503 2.11665z" fill="#e7ebef"/><path id="path3819" d="m.79375234 283.50622h8.99583016v1.5875h-8.99583016z" fill="#e7ebef"/><path id="rect3827" d="m4.7625022 281.91872h1.0583303v1.5875h-1.0583303z" fill="#fc6067"/><path id="path11968-6" d="m8.2005325 285.12318-1.05833 9.52552c-.0205.1847-.10134.36138-.22376.49919h.48989c.29316 0 .49677-.23779.52917-.52916l1.05523-9.49555z" fill="#fb4f56" font-variant-ligatures="normal" font-variant-position="normal" font-variant-caps="normal" font-variant-numeric="normal" font-variant-alternates="normal" font-feature-settings="normal" text-indent="0" text-align="start" text-decoration-line="none" text-decoration-style="solid" text-decoration-color="#000000" text-transform="none" text-orientation="mixed" white-space="normal" shape-padding="0" isolation="auto" mix-blend-mode="normal" solid-color="#000000" solid-opacity="1" vector-effect="none"/><path id="path12350-5" d="m8.9958325 283.50622v1.5875h.79375v-1.5875z" fill="#dbe1e7" font-variant-ligatures="normal" font-variant-position="normal" font-variant-caps="normal" font-variant-numeric="normal" font-variant-alternates="normal" font-feature-settings="normal" text-indent="0" text-align="start" text-decoration-line="none" text-decoration-style="solid" text-decoration-color="#000000" text-transform="none" text-orientation="mixed" white-space="normal" shape-padding="0" isolation="auto" mix-blend-mode="normal" solid-color="#000000" solid-opacity="1" vector-effect="none"/><path id="rect8988-3" d="m7.1437525 293.29581v.74896c0 .61113.49199 1.10312 1.10312 1.10312h6.2604295c.61113 0 1.10312-.49199 1.10312-1.10312v-.74896z" fill="#fcb860"/><path id="path12318-3" d="m14.817182 293.29581v.74931c0 .45347-.2257.85378-.56792 1.10277h.25787c.61112 0 1.10329-.49217 1.10329-1.10329v-.74879z" fill="#fbb04f" font-variant-ligatures="normal" font-variant-position="normal" font-variant-caps="normal" font-variant-numeric="normal" font-variant-alternates="normal" font-feature-settings="normal" text-indent="0" text-align="start" text-decoration-line="none" text-decoration-style="solid" text-decoration-color="#000000" text-transform="none" text-orientation="mixed" white-space="normal" shape-padding="0" isolation="auto" mix-blend-mode="normal" solid-color="#000000" solid-opacity="1" vector-effect="none"/><path id="path3930-9" d="m7.1437525 289.85623h8.4666695s0-3.66545-4.23335-3.70417c-4.2333495-.0387-4.2333195 3.70417-4.2333195 3.70417z" fill="#fcb860"/><path id="rect8980-3" d="m7.4083325 289.85623h7.9374995c.43974 0 .79375.35401.79375.79375 0 .43973-.35401.79375-.79375.79375h-7.9374995c-.43974 0-.79375-.35402-.79375-.79375 0-.43974.35401-.79375.79375-.79375z" fill="#b38051"/><path id="rect8982-6" d="m7.4024925 291.44372h7.9491895c.28992 0 .52332.23341.52332.52333v.0117c0 .28992-.2334.52333-.52332.52333h-7.9491895c-.28992 0-.52332-.23341-.52332-.52333v-.0117c0-.28992.2334-.52333.52332-.52333z" fill="#fc6067"/><path id="path3938-5" d="m8.2020825 289.85623 3.1749995 2.11666 3.175-2.11666z" fill="#f7f065"/><path id="path1419-4-2" d="m8.7312525 293.5598c.52917-.00079.79375.5292 1.3229195.5292.52917 0 .79375-.52996 1.32292-.52882.52916-.00026.79375.52958 1.32291.52958.52917 0 .79375-.52996 1.32292-.52958.52917-.00026.79375.52958 1.32291.52948.43974-.0001.79375-.35411.79375-.79385s-.35401-.79375-.79375-.79375h-7.9374995c-.43973 0-.79375.35401-.79375.79375s.35402.79375.79375.79347c.52917-.002.79376-.53024 1.32292-.52948z" fill="#59e78b"/><path id="path12322-6" d="m14.979972 292.50206c.22204.194.36535.47573.36535.79375 0 .28538-.11527.54158-.29973.7307.0923.0366.18966.0631.30024.063.43974-.0001.79375-.35401.79375-.79375 0-.43973-.35401-.79375-.79375-.79375z" fill="#41e37a" font-variant-ligatures="normal" font-variant-position="normal" font-variant-caps="normal" font-variant-numeric="normal" font-variant-alternates="normal" font-feature-settings="normal" text-indent="0" text-align="start" text-decoration-line="none" text-decoration-style="solid" text-decoration-color="#000000" text-transform="none" text-orientation="mixed" white-space="normal" shape-padding="0" isolation="auto" mix-blend-mode="normal" solid-color="#000000" solid-opacity="1" vector-effect="none"/><path id="path12334-3" d="m12.243182 286.21872c1.00585.37625 1.63823 1.0224 2.00918 1.66812.56693.98691.56482 1.96887.56482 1.96887v.00051h.79324s-.003-3.14316-3.36724-3.6375z" fill="#fbb04f" font-variant-ligatures="normal" font-variant-position="normal" font-variant-caps="normal" font-variant-numeric="normal" font-variant-alternates="normal" font-feature-settings="normal" text-indent="0" text-align="start" text-decoration-line="none" text-decoration-style="solid" text-decoration-color="#000000" text-transform="none" text-orientation="mixed" white-space="normal" shape-padding="0" isolation="auto" mix-blend-mode="normal" solid-color="#000000" solid-opacity="1" vector-effect="none"/><path id="path12338-4" d="m14.552082 289.85622c.43973 0 .79375.35402.79375.79375 0 .43974-.35402.79375-.79375.79375h.79375c.43974 0 .79375-.35401.79375-.79375 0-.43973-.35401-.79375-.79375-.79375z" fill="#a77649"/><path id="path12344-5" d="m14.558292 291.44372c.28992 0 .52296.23341.52296.52917 0 .29577-.23304.52917-.52296.52917h.79323c.28992 0 .52348-.23357.52348-.52349v-.0114c0-.28991-.23356-.52348-.52348-.52348z" fill="#fb4f56"/><path id="path12346-3" d="m13.441042 289.85622-2.61896 1.74667.555.37 3.175-2.11667z" fill="#f4ec42" font-variant-ligatures="normal" font-variant-position="normal" font-variant-caps="normal" font-variant-numeric="normal" font-variant-alternates="normal" font-feature-settings="normal" text-indent="0" text-align="start" text-decoration-line="none" text-decoration-style="solid" text-decoration-color="#000000" text-transform="none" text-orientation="mixed" white-space="normal" shape-padding="0" isolation="auto" mix-blend-mode="normal" solid-color="#000000" solid-opacity="1" vector-effect="none"/><path id="path26486-9" d="m4.7495823 281.65466c-.1490401.0136-.2523101.12753-.2521799.26355v1.32446h-3.71657006c-.14904.0136-.25231.12753-.25218.26355v1.58802c.0005292.14612.1195.26411.26562.26355h.55499996l1.03302 9.29091c.0464.39427.35634.76377.7927101.76377h4.2323001c.1274 0 .24747-.0348.35347-.0899.15096.0577.31431.0899.48524.0899h6.2595695c.69672 0 1.27517-.52597 1.35805-1.20096.32035-.18264.54054-.52338.54054-.91622 0-.34613-.1712-.65242-.43047-.84594.1016-.13332.16485-.29742.16485-.47646s-.0632-.34314-.16485-.47646c.25927-.19351.43047-.49981.43047-.84594 0-.39078-.21776-.73027-.53537-.91364-.0138-.25969-.0914-1.03664-.55862-1.85001-.56692-.98692-1.73851-1.97983-3.93154-1.99988-.92141-.008-1.6610595.16366-2.2536095.43821l.10748-.96738h.55811c.14531-.00058.2629695-.11824.2635495-.26355v-1.58802c-.000529-.14531-.1182395-.26296-.2635495-.26355h-3.7052v-1.32446c-.000529-.14532-.11824-.26297-.26355-.26355zm.2769899.52916h.5296803v1.05885h-.5296803zm-3.9687499 1.58802h8.4671802v1.05627h-1.58801c-.35313 0-.35313.52968 0 .52968h.76429l-.14366 1.28778c-.67628.40319-1.16956 1.17608-1.43919 1.95233-.44578-.53365-1.11007-.85731-1.8262501-.85731-1.3119701 0-2.3828002 1.06875-2.3828002 2.38073 0 1.31199 1.0708301 2.38074 2.3828002 2.38074.4810001 0 .9417101-.14761 1.3296401-.40876.0185.12442.0667.24196.14831.35605-.2873.2254-.42064.52919-.42064.84594 0 .39305.21989.73418.54053.91674.0308.25084.12995.48098.27802.67128h-3.9930401c-.14938 0-.2430502-.10626-.2656202-.29404l-1.0257699-9.23148h3.6726402c.35312 0 .35312-.52968 0-.52968h-4.4984302zm5.5567602 1.05627c-.35312 0-.35312.52968 0 .52968h.26355c.35312 0 .35312-.52968 0-.52968zm4.7578495 1.58801c2.04034.0187 2.98692.87878 3.47835 1.73427.33117.57654.43371 1.12883.46973 1.44177h-7.8889195c.0354-.31842.13673-.88492.46974-1.47071.49152-.86466 1.4324-1.72397 3.4710995-1.70533zm-1.05523.79427c-.14612 0-.26458.11846-.26458.26458 0 .14613.11846.26459.26458.26459.14613 0 .26458-.11846.26458-.26459 0-.14612-.11845-.26458-.26458-.26458zm2.11667 0c-.14612 0-.26459.11846-.26459.26458 0 .14613.11847.26459.26459.26459s.26458-.11846.26458-.26459c0-.14612-.11846-.26458-.26458-.26458zm-7.1416896 1.0573c.6983501 0 1.3293401.39527 1.6448701 1.01286-.0268.15505-.0455.30646-.0506.44907-.31761.18337-.53691.53009-.53691.92087 0 .2825.11486.53732.29765.72709-.34726.37485-.83507.59531-1.3549601.59531-1.0259901 0-1.8536301-.82556-1.8536301-1.85157 0-1.026.82764-1.85363 1.8536301-1.85363zm3.9666901.001c-.14612 0-.26459.11846-.26459.26458 0 .14613.11847.26459.26459.26459s.26458-.11846.26458-.26459c0-.14612-.11846-.26458-.26458-.26458zm2.1166595 0c-.14613 0-.26458.11846-.26458.26458 0 .14613.11845.26459.26458.26459s.26459-.11846.26459-.26459c0-.14612-.11846-.26458-.26459-.26458zm2.11667 0c-.14612 0-.26458.11846-.26458.26458 0 .14613.11846.26459.26458.26459.14613 0 .26458-.11846.26458-.26459 0-.14612-.11845-.26458-.26458-.26458zm-6.0848995 1.8526h.71417l1.58802 1.05885h-2.30219c-.29773 0-.52917-.23194-.52917-.52968s.23144-.52917.52917-.52917zm1.66657 0h4.6033295l-2.30115 1.53324zm5.5552095 0h.71572c.29774 0 .52969.23143.52969.52917s-.23195.52968-.52969.52968h-2.30322zm-7.2217795 1.58802h3.0959395l.72657.48421c.0359.0238.077.0386.11988.0429h-3.9423895c-.15115 0-.26562-.1124-.26562-.26355 0-.15116.11447-.26355.26562-.26355zm4.8410495 0h3.09645c.15116 0 .26355.11239.26355.26355s-.11239.26355-.26355.26355h-3.9455c.0441-.004.0866-.0185.12351-.0429zm-4.8410495 1.05627h7.9374995c.29774 0 .52969.23195.52969.52968 0 .29774-.23191.5291-.53021.52969-.40705.00053-.70083-.52199-1.32395-.52814-.62275.006-.91598.52814-1.3224.52814-.40655 0-.70031-.52199-1.32343-.52814-.62275.006-.91597.52814-1.3224.52814-.4064195 0-.7001795-.5222-1.3229195-.52814-.6226.006-.91587.5275-1.32188.52814-.29764-.00008-.52917-.23195-.52917-.52969 0-.29773.23144-.52968.52917-.52968zm1.3224 1.05937c.40593-.00026.69106.52916 1.3229195.52916.63186 0 .91699-.52942 1.32291-.52916.40591.00025.69108.52968 1.32292.52968.63186 0 .91701-.52994 1.32292-.52968.3929.00025.6755.4922 1.26607.52399-.12033.31451-.42133.53382-.78238.53382h-6.2595695c-.36123 0-.66115-.21957-.78083-.53433.58981-.0323.87238-.52324 1.26504-.52348z" font-variant-ligatures="normal" font-variant-position="normal" font-variant-caps="normal" font-variant-numeric="normal" font-variant-alternates="normal" font-feature-settings="normal" text-indent="0" text-align="start" text-decoration-line="none" text-decoration-style="solid" text-decoration-color="#000000" text-transform="none" text-orientation="mixed" white-space="normal" shape-padding="0" isolation="auto" mix-blend-mode="normal" solid-color="#000000" solid-opacity="1" vector-effect="none"/></g></svg>