<svg xmlns="http://www.w3.org/2000/svg" version="1.1" xmlns:xlink="http://www.w3.org/1999/xlink" width="512" height="512" x="0" y="0" viewBox="0 0 682.667 682.667" style="enable-background:new 0 0 512 512" xml:space="preserve" class=""><g><defs><clipPath id="a" clipPathUnits="userSpaceOnUse"><path d="M0 512h512V0H0Z" fill="#008080" opacity="1" data-original="#000000"></path></clipPath></defs><g clip-path="url(#a)" transform="matrix(1.33333 0 0 -1.33333 0 682.667)"><path d="m0 0 22.966-24.105c30.307-31.375 8.073-83.766-35.549-83.766h-362.501v-58m-30 58h-30v-60h397.023c21.812 0 38.276 13.098 45.499 30.117l.003-.002 25.471 60.003m-10.554 53.06-41.939-40.511m4.497-95.164v50.497m-60-56v56m-60-56v56m-60-56v56m-60-56v56m-60-56v56m323.76 7.936c-2.258 6.32-5.934 12.39-11.187 17.83l-49.495 51.476m-297.259-22.809c35.905-26.086 76.182-31.857 89.962-12.889 13.782 18.968 6.658 86.513-21.57 107.021-28.228 20.51-94.668 6.411-108.449-12.556-13.781-18.968 4.154-55.491 40.057-81.576zm236.409 282.44c-22.298-7.245-56.238-66.077-45.456-99.262 10.783-33.183 72.821-60.831 95.119-53.586 22.297 7.245 29.255 47.334 15.542 89.542-13.714 42.207-42.908 70.551-65.205 63.306zM-336.062 96.19c12.43 8.999 22.483 19.936 26.256 31.55 10.783 33.185-23.157 92.017-45.455 99.262-22.298 7.245-51.491-21.099-65.205-63.306-13.714-42.208-6.756-82.297 15.542-89.542 9.438-3.066 25.993.117 42.769 7.326m283.36-55.342c-13.781 18.967-80.222 33.066-108.449 12.556-28.229-20.508-35.352-88.053-21.57-107.021 13.78-18.968 54.057-13.197 89.961 12.889C-82.949-29.353-65.015 7.17-78.795 26.138zm-155.264 272.991c-44.379 0-80.356-19.006-80.356-42.451 0-23.446 45.465-73.905 80.356-73.905 34.892 0 80.357 50.459 80.357 73.905 0 23.445-35.977 42.451-80.357 42.451zM-70.534 73.922c4.71 26.085 3.223 53.678-5.541 80.652-8.726 26.855-23.647 49.965-42.668 68.261M-211.196-61.27c26.263 3.582 52.047 13.523 74.993 30.194 22.844 16.597 40.211 37.93 51.735 61.674m-298.769.134c11.522-23.871 28.943-45.321 51.889-61.992 22.844-16.596 48.499-26.522 74.642-30.144m-92.196 284.187c-19.143-18.335-34.16-41.531-42.924-68.506-8.726-26.854-10.237-54.321-5.604-80.303m163.371 44.155c-8.284 0-15-6.716-15-15 0-8.284 6.716-15 15-15 8.285 0 15 6.716 15 15 0 8.284-6.715 15-15 15zm78.418 131.347c-23.353 12.54-50.054 19.653-78.418 19.653-28.236 0-54.826-7.05-78.105-19.485m156.523-.168c-23.353 12.54-50.054 19.653-78.418 19.653-28.236 0-54.826-7.05-78.105-19.485m-3.867-357.19C-400.323-74.725-460.059 7.227-460.059 103.129c0 124.816 101.184 226 226 226 44.589 0 86.163-12.913 121.184-35.203m24.171-17.736c49.308-41.457 80.645-103.599 80.645-173.061 0-96.222-60.133-178.4-144.87-211.001" style="stroke-width:15;stroke-linecap:round;stroke-linejoin:round;stroke-miterlimit:10;stroke-dasharray:none;stroke-opacity:1" transform="translate(467.559 175.371)" fill="none" stroke="#008080" stroke-width="15" stroke-linecap="round" stroke-linejoin="round" stroke-miterlimit="10" stroke-dasharray="none" stroke-opacity="" data-original="#000000" opacity="1" class=""></path></g></g></svg>