<svg height="512" viewBox="0 0 64 64" width="512" xmlns="http://www.w3.org/2000/svg"><g id="_02-american_football_helmet" data-name="02-american football helmet"><g fill="#e9edf5"><path d="m41 41v3.09l-5.56 3.79a1.823 1.823 0 0 1 -1.65-.17 1.677 1.677 0 0 1 .13-2.92z"/><circle cx="32" cy="29" r="2"/><path d="m62.5 43.29a1.219 1.219 0 0 1 -.07.41l-1.43 4.3v1.33a2 2 0 0 1 -1.64 1.97l-9.36 1.7v-3l2-5 8.8-2.93a.653.653 0 0 1 .2-.05.749.749 0 0 1 .21-.02 1.293 1.293 0 0 1 1.29 1.29z"/><path d="m13.21 19.23-1.11-1.12a30.284 30.284 0 0 0 -3.1 4.89v6l3 .92v-4.44a3.873 3.873 0 0 1 1.21-2.71 2.378 2.378 0 0 0 0-3.54z"/></g><path d="m25 30-6.06-1.6-6.94-1.82v3.34l6.4 1.97 1.36.42a6.641 6.641 0 0 1 3.4 2.44 4.843 4.843 0 0 1 2.61-.75h1.23l.25-.15z" fill="#9a1c20"/><path d="m27.25 33.85 4.75 8.15-3 2-9 1.64v-1.45a4.03 4.03 0 0 1 1.84-3.37l.93-.59a4.184 4.184 0 0 0 .53-5.28c-.05-.07-.09-.14-.14-.2a4.843 4.843 0 0 1 2.61-.75h1.23z" fill="#9a1c20"/><path d="m33.52 50.5-4.52-2.54c-1.3-.76-1.28-2.7 0-3.96l13-8h15c4.37 0 5.69-2.3 5.95-2.87a23.768 23.768 0 0 1 -.87 5.1l-1.08 3.77v.02a.653.653 0 0 0 -.2.05l-8.8 2.93-15.24 5.77a3.912 3.912 0 0 1 -3.24-.27zm.27-2.79a1.823 1.823 0 0 0 1.65.17l5.56-3.79v-3.09l-7.08 3.79a1.677 1.677 0 0 0 -.13 2.92z" fill="#85181c"/><path d="m52 45-2 5v2c-4.16 0-8.32 2.89-10.48 4.65a5.958 5.958 0 0 1 -3.79 1.35h-1.73c-8.29 0-14-5.58-14-10v-2.36l9-1.64c-1.28 1.26-1.3 3.2 0 3.96l4.52 2.54a3.912 3.912 0 0 0 3.24.27z" fill="#9a1c20"/><path d="m18.94 28.4-6.94-1.82v-1.1a3.873 3.873 0 0 1 1.21-2.71 2.378 2.378 0 0 0 0-3.54l-1.11-1.12c3.82-5.02 11.28-12.11 22.9-12.11 15.48 0 28 11.18 28 25v.64c0 .5-.02.99-.05 1.49-.26.57-1.58 2.87-5.95 2.87h-15l-13 8 3-2-4.75-8.15-2.25-3.85zm15.06.6a2 2 0 1 0 -2 2 2.006 2.006 0 0 0 2-2z" fill="#9a1c20"/><path d="m41 41v3.09l-5.56 3.79a1.823 1.823 0 0 1 -1.65-.17 1.677 1.677 0 0 1 .13-2.92z" fill="#cdd2e1"/><path d="m40 27a20.513 20.513 0 0 0 -10.363.536 4.35 4.35 0 0 0 -2.387 6.314l4.75 8.15-3 2 13-8h15c4.37 0 5.69-2.3 5.95-2.87.03-.5.05-.99.05-1.49v-.64c0-.648-.036-1.288-.09-1.923-5.738 2.253-13.138-.3-22.91-2.077zm-8 4a2 2 0 1 1 2-2 2.006 2.006 0 0 1 -2 2z" fill="#85181c"/><path d="m13.21 19.23-.21-.214a2.5 2.5 0 0 1 -.788 1.754 3.873 3.873 0 0 0 -1.212 2.71v2.348a1.547 1.547 0 0 1 -2 1.479v1.693l3 .92v-4.44a3.873 3.873 0 0 1 1.21-2.71 2.378 2.378 0 0 0 0-3.54z" fill="#cdd2e1"/><path d="m43 39h15a7.979 7.979 0 0 0 4.132-.973 23.7 23.7 0 0 0 .818-4.9c-.26.573-1.58 2.873-5.95 2.873h-15l-13 8c-1.28 1.26-1.3 3.2 0 3.96l.257.145a3.328 3.328 0 0 1 .743-1.105z" fill="#741213"/><path d="m34.92 45.79 6.08-3.255v-1.535l-7.08 3.79a1.677 1.677 0 0 0 -.13 2.92 1.781 1.781 0 0 0 .328.161 1.65 1.65 0 0 1 -.118-.581 1.683 1.683 0 0 1 .92-1.5z" fill="#333940"/><path d="m55.944 48.528-1.417.708a1.056 1.056 0 0 1 -1.377-1.487l2.35-3.914-3.5 1.165-2 5v3l9.36-1.7a2 2 0 0 0 1.64-1.97v-1.33h-2.82a5 5 0 0 0 -2.236.528z" fill="#cdd2e1"/><path d="m20.839 30.526-8.839-2.526v1.92l6.4 1.97 1.36.42a6.641 6.641 0 0 1 3.4 2.44 4.823 4.823 0 0 1 2.291-.728 7.993 7.993 0 0 0 -4.612-3.496z" fill="#741213"/><path d="m24.916 41.521a2.458 2.458 0 0 0 1.847-2.656l-.17-1.531a8 8 0 0 0 -1.142-3.312 4.823 4.823 0 0 0 -2.291.728c.05.06.09.13.14.2a4.184 4.184 0 0 1 -.53 5.28l-.93.59a4.03 4.03 0 0 0 -1.84 3.37v1.45l3-.547v-1.118a2.53 2.53 0 0 1 1.916-2.454z" fill="#741213"/><path d="m48.3 46.4-.9 1.8a5.592 5.592 0 0 0 -.433 1.468 2.03 2.03 0 0 1 -.205.573 20.961 20.961 0 0 0 -5.7 2.855l-1.01.722a10.342 10.342 0 0 1 -7.652 1.84c-8.65-1.405-9.4-6.658-9.4-6.658v-3.907l-3 .547v2.36c0 4.42 5.71 10 14 10h1.73a5.958 5.958 0 0 0 3.79-1.35c2.16-1.76 6.32-4.65 10.48-4.65v-2l2-5z" fill="#741213"/><path d="m32 10c13.51 0 24.752 8.506 27.4 19.842a12.885 12.885 0 0 0 3.513-.8c-1.102-12.9-13.159-23.042-27.913-23.042-11.62 0-19.08 7.078-22.9 12.09l.276.278a27.5 27.5 0 0 1 19.624-8.368z" fill="#b82126"/><path d="m59.08 42.23-.131.456 1.851-.616a.653.653 0 0 1 .2-.05v-.02l1.08-3.77c.019-.067.033-.136.052-.2a7.036 7.036 0 0 1 -2.354.811 24.123 24.123 0 0 1 -.698 3.389z" fill="#9a1c20"/><path d="m60 35.541v.1c0 .5-.02.99-.05 1.49-.033.572-.1 1.141-.172 1.708a7.036 7.036 0 0 0 2.354-.811c.217-.8.4-1.6.535-2.414.01-.064.017-.128.027-.191.055-.344.107-.689.146-1.035q.072-.626.109-1.254a4.87 4.87 0 0 1 -2.949 2.407z" fill="#85181c"/><path d="m62.91 29.077a12.825 12.825 0 0 1 -3.5.8 22.592 22.592 0 0 1 .59 5.123v.541a4.87 4.87 0 0 0 2.95-2.411c.03-.5.05-.99.05-1.49v-.64c0-.648-.036-1.288-.09-1.923z" fill="#9a1c20"/><path d="m32 26a3 3 0 1 0 3 3 3 3 0 0 0 -3-3zm0 5a2 2 0 1 1 2-2 2.006 2.006 0 0 1 -2 2z" fill="#741213"/><path d="m20.213 24.268-5.213-1.955a15.214 15.214 0 0 1 12.721-10.3 1.754 1.754 0 0 1 1.746.828l.829 1.381a1.729 1.729 0 0 1 -.9 2.526 11.042 11.042 0 0 0 -6.959 6.508 1.733 1.733 0 0 1 -2.224 1.012z" fill="#b82126"/><circle cx="32" cy="29" fill="#333940" r="1"/><circle cx="26" cy="48" fill="#e9edf5" r="1"/><circle cx="28" cy="51" fill="#e9edf5" r="1"/><circle cx="32" cy="53" fill="#e9edf5" r="1"/><circle cx="41" cy="51" fill="#e9edf5" r="1"/><path d="m32.864 41.5-7-12a1 1 0 0 0 -.608-.463l-13.256-3.493-3-.789-1.9-.5a.129.129 0 0 1 .03-.255h1.87v-1s.181-.378.53-1h-2.4a2.129 2.129 0 0 0 -.545 4.187l2.415.636 3 .789 12.345 3.249 6.317 10.829-2.045 1.363-10.706 1.947h-1.932c-5.384.009-12.694.017-14.131-.53a1 1 0 0 0 -1.848.53 1.639 1.639 0 0 0 .075.416.862.862 0 0 0 .045.109c.594 1.228 2.827 1.475 14.605 1.475h3.275a.948.948 0 0 0 .177-.016l11-2a1.011 1.011 0 0 0 .376-.152l3-2a1 1 0 0 0 .311-1.332z" fill="#cdd2e1"/><path d="m1 44a1 1 0 0 1 .848.47c.041.016.1.029.152.044v-1.854a1.058 1.058 0 0 1 .054-.331 1.014 1.014 0 0 1 .76-.656l13.458-2.519.323-2.1-14.156 2.654a3.029 3.029 0 0 0 -2.278 1.977 3.075 3.075 0 0 0 -.161.975v2.34a1 1 0 0 1 1-1z" fill="#afb4c8"/><path d="m15.065 47-.945 6.143-8.5 1.542a.967.967 0 0 1 -.921-.329.92.92 0 0 1 -.215-.391l-2.006-7.335c-1.529-.223-2.099-.571-2.358-1.106a.862.862 0 0 1 -.045-.109c-.006-.016-.01-.043-.016-.063l2.5 9.126a2.865 2.865 0 0 0 .651 1.2 2.963 2.963 0 0 0 2.234 1.022 2.932 2.932 0 0 0 .535-.048l9.2-1.67a1 1 0 0 0 .809-.832l1.101-7.15z" fill="#bec3d2"/><path d="m17.813 29.141-1.213 7.917-.323 2.095-.904 5.847h2.027l2.361-15.346z" fill="#bec3d2"/><path d="m11.553 50.105-7.147 3.573.078.287a.916.916 0 0 0 .215.39.965.965 0 0 0 .921.329l1.956-.355 4.869-2.429a7.354 7.354 0 0 0 2.17-1.97l.45-2.93h-.822a9.991 9.991 0 0 1 -2.69 3.105z" fill="#9da3b5"/><path d="m25.593 33h-.269a6.094 6.094 0 0 0 -5.087 2.819l-2 3.194a4.215 4.215 0 0 1 -3.583 1.987h-13.99a.948.948 0 0 0 -.176.036 2.992 2.992 0 0 0 -.327.649 3.075 3.075 0 0 0 -.161.975v.076a.988.988 0 0 0 .664.264h13.99a6.212 6.212 0 0 0 5.277-2.929l2-3.193a3.894 3.894 0 0 1 1.317-1.284 3.845 3.845 0 0 1 2.076-.594h1.436z" fill="#cdd2e1"/><ellipse cx="52.684" cy="15.695" fill="#f6fafd" rx="1.642" ry="2.286" transform="matrix(.707 -.707 .707 .707 4.342 41.867)"/><ellipse cx="43.682" cy="18.708" fill="#f6fafd" rx=".825" ry="1.148" transform="matrix(.707 -.707 .707 .707 -.428 36.382)"/><ellipse cx="41.427" cy="16.208" fill="#f6fafd" rx=".413" ry=".574" transform="matrix(.707 -.707 .707 .707 .679 34.055)"/></g></svg>