<svg fill="none" height="512" viewBox="0 0 512 512" width="512" xmlns="http://www.w3.org/2000/svg"><path d="m464 297.258c0 20.805-91.892 37.67-208 37.67s-208-16.865-208-37.67c0-20.804 91.892-37.669 208-37.669s208 16.865 208 37.669z" fill="#fff"/><path d="m464 297.258c0 20.805-91.892 37.67-208 37.67s-208-16.865-208-37.67c0-20.804 91.892-37.669 208-37.669s208 16.865 208 37.669z" fill="#fff"/><path d="m256 334.928c116.108 0 208-16.865 208-37.67 0 15.831-20.4 29.492-28 33.673-29.845 18.043-98.385 30.658-179.5 30.658-81.571 0-150.426-12.757-180-30.963-7.6-4.181-28.5-17.537-28.5-33.368 0 20.805 91.892 37.67 208 37.67z" fill="#fff"/><path d="m78.5 331.626c-7.6-4.181-28.5-17.537-28.5-33.368 0 14.488 44.5651 27.066 110.839 33.368 8.887 8.61 34.961 26.743 68.161 30.397-68.43-2.658-124.567-14.433-150.5-30.397z" fill="#e3d8d9"/><path d="m256.5 361.589c45.402 0 86.864-3.952 119.807-10.596-11.722 16.915-60.379 29.596-119.807 29.596-59.429 0-108.085-12.681-119.807-29.596 32.943 6.644 74.405 10.596 119.807 10.596z" fill="#fff"/><path d="m138.693 351.993c11.722 16.915 60.378 29.596 119.807 29.596 4.912 0 9.75-.087 14.5-.255-24.8-.204-33.333-12.754-34.5-19.004-37.558-.977-71.768-4.682-99.807-10.337z" fill="#e3d8d9"/><path clip-rule="evenodd" d="m125.513 343.637 12.169 2.455c32.557 6.566 73.681 10.497 118.818 10.497s86.261-3.931 118.818-10.497l12.169-2.455-7.071 10.204c-3.619 5.222-9.711 9.651-17.182 13.385-7.557 3.777-16.962 7.057-27.724 9.758-21.533 5.404-48.974 8.605-79.01 8.605-30.037 0-57.477-3.201-79.01-8.605-10.763-2.701-20.167-5.981-27.724-9.758-7.471-3.734-13.563-8.163-17.182-13.385zm31.622 16.02c6.251 2.82 13.917 5.401 22.789 7.628 20.582 5.165 47.184 8.304 76.576 8.304s55.994-3.139 76.576-8.304c8.872-2.227 16.538-4.808 22.788-7.628-29.124 4.415-63.02 6.932-99.364 6.932s-70.24-2.517-99.365-6.932z" fill="#292929" fill-rule="evenodd"/><path d="m464 297.258c0 20.805-91.892 37.67-208 37.67s-208-16.865-208-37.67c0-20.804 91.892-37.669 208-37.669s208 16.865 208 37.669z" fill="#fff"/><path d="m232 336.088 119-6.999 31.6-11.132c8.098-2.852 15.211-7.96 20.502-14.721 5.936-7.585 6.466-18.082 1.322-26.225l-3.424-5.422-13.5-2.5-290.5-1.5-13.8688 2.6c-3.9977.75-5.288 5.835-2.1312 8.4l8.0761 13.124c5.1671 8.396 12.7009 15.078 21.6549 19.204l38.538 17.761c3.458 1.594 7.18 2.537 10.979 2.782z" fill="#e3d8d9"/><path clip-rule="evenodd" d="m55.5101 293.392c-2.1888 1.959-2.5101 3.252-2.5101 3.866 0 .615.3213 1.907 2.5101 3.867 2.1725 1.944 5.6678 4.055 10.6456 6.206 9.918 4.286 24.6031 8.263 43.1983 11.644 37.108 6.748 88.793 10.953 146.646 10.953s109.538-4.205 146.646-10.953c18.595-3.381 33.28-7.358 43.198-11.644 4.978-2.151 8.473-4.262 10.646-6.206 2.189-1.96 2.51-3.252 2.51-3.867 0-.614-.321-1.907-2.51-3.866-2.173-1.945-5.668-4.055-10.646-6.206-9.918-4.286-24.603-8.263-43.198-11.645-37.108-6.748-88.793-10.952-146.646-10.952s-109.538 4.204-146.646 10.952c-18.5952 3.382-33.2803 7.359-43.1983 11.645-4.9778 2.151-8.4731 4.261-10.6456 6.206zm390.2179 24.775c-10.59 4.043-24.641 7.619-41.293 10.647-37.865 6.886-90.179 11.114-148.435 11.114s-110.57-4.228-148.435-11.114c-16.0859-2.925-29.7452-6.361-40.2015-10.236 4.4525 3.516 8.865 6.192 11.5465 7.667l.1071.059.104.064c13.9697 8.6 37.8239 16.21 68.7449 21.642 30.78 5.408 68.092 8.579 108.634 8.579 40.314 0 77.437-3.136 108.117-8.488 30.815-5.376 54.677-12.913 68.796-21.449l.088-.053.089-.049c2.798-1.539 7.506-4.492 12.138-8.383zm23.272-20.909c0 9.997-6.341 18.606-12.654 24.78-6.421 6.28-13.766 10.971-17.846 13.224-15.732 9.484-41.027 17.258-72.164 22.69-31.33 5.466-69.036 8.637-109.836 8.637-41.03 0-78.93-3.207-110.364-8.73-31.223-5.485-56.5398-13.334-72.153-22.911-4.0247-2.223-11.4766-6.817-18.0188-13.005-6.4288-6.08-12.9642-14.628-12.9642-24.685 0-4.586 2.5503-8.372 5.8404-11.317 3.3064-2.959 7.8972-5.579 13.3485-7.935 10.9401-4.728 26.4847-8.868 45.3761-12.303 37.865-6.886 90.179-11.114 148.435-11.114s110.57 4.228 148.435 11.114c18.891 3.435 34.436 7.575 45.376 12.303 5.451 2.356 10.042 4.976 13.349 7.935 3.29 2.945 5.84 6.731 5.84 11.317z" fill="#292929" fill-rule="evenodd"/><path d="m245.69 168.973c11.547-3.355 31.292-10.841 49.161-18.614 4.477-1.948 9.666.608 8.722 5.398-3.012 15.278-21.884 34.759-54.781 53.85-1.871 1.086-3.047 3.083-3.047 5.247v1.84c0 4.505 2.946 8.762 3.879 13.17.244 1.155.328 2.376.26 3.598-.306 5.476 1.51 14.676.821 20.117-.696 5.491-3.361 10.088-2.977 15.609 1.198 17.23-10.722 26.74-28.654 26.32-8.269 15.847-29.644 16.46-39.728 12.63-2.02-.766-4.242-1.068-6.365-.668-9.9 1.867-22.131-1.309-27.056-5.759-6.544 0-26.042-2.738-27.857-17.171-.147-1.175-1.164-2.106-2.347-2.049-13.619.659-22.3163-5.923-19.2071-17.189.2959-1.072.0668-2.23-.5036-3.184-3.3797-5.658-3.6938-17.362 2.6607-22.654 1.384-1.152 2.704-2.442 3.431-4.09 3.843-8.719 14.371-27.393 30.393-19.339 1.435.722 3.185.637 4.782.458 9.569-1.074 29.963 16.072 53.087 6.99 1.95-.766 3.219-2.644 3.329-4.736.857-16.343-2.106-31.317 8.797-34.925 5.97-1.975 11.989-4.396 16.795-8.451 4.235-3.574 10.588-6.591 20.068-5.905 2.132.154 4.284.103 6.337-.493z" fill="#f4741b"/><path d="m245.69 168.973c13.41-3.896 37.88-13.365 57.624-22.384-16.406 21.231-48.901 30.779-66.678 32.271-3.076.258-6.355.15-8.926 1.857-6.947 4.613-5.112 16.085-18.137 16.004-3.245-.02-6.219 2.386-6.201 5.631.168 29.558-7.538 33.495-23.118 33.495-33.723 1.786-40.437-10.026-51.769-12.116-4.464-.824-9.039 1.139-11.654 4.85-4.995 7.09-7.676 17.011-22.6857 18.885.6974-3.132 2.1428-6.018 4.5263-8.003 1.3844-1.152 2.7034-2.441 3.4294-4.089 4.026-9.132 15.383-29.181 32.703-18.013 8.437-5.74 32.002 17.878 58.654 4.754 1.562-17.61-2.617-34.438 9.032-38.293 5.97-1.975 11.989-4.396 16.795-8.451 4.235-3.574 10.588-6.591 20.068-5.905 2.132.154 4.284.103 6.337-.493z" fill="#ffc29b"/><path d="m115.721 282.491c-13.619.659-22.3163-5.923-19.2071-17.19.2958-1.072.0648-2.232-.5053-3.187-.9872-1.653-1.7126-3.823-2.0864-6.198.0885.634 12.9188 13.059 22.1618 15.052 9.644 2.081 15.362-.443 20.934.186 4.878.551 8.156 4.921 12.092 7.856 7.803 5.82 19.434 8.833 31.433 7.147 4.922-.692 8.489-4.581 11.56-8.489 9.011-11.47 22.901-8.275 30.492-11.634 5.5-2.433 3.904-9.985 4.453-15.974.272-2.977 1.143-6.5 3.148-10.777 2.093-4.467 3.925-10.256-.576-12.277-3.985-1.788-9.622-2.166-11.595-4.817-3.007-4.04 3.444-8.388 7.869-10.793 17.627-9.584 61.511-35.164 77.926-57.149-2.078 15.948-22.174 36.826-58.075 57.104v5.343c0 4.505 2.946 8.762 3.879 13.169.244 1.155.328 2.376.26 3.599-.306 5.475 1.51 14.676.821 20.117-.696 5.49-3.361 10.087-2.977 15.608 1.198 17.231-10.722 26.741-28.654 26.321-8.554 16.392-31.129 16.483-40.727 12.22-1.391-.618-2.874-1.053-4.395-1.011-8.091.22-22.102-.517-28.027-5.007-6.544 0-26.042-2.738-27.857-17.17-.147-1.175-1.164-2.107-2.347-2.049z" fill="#cc551b"/><path clip-rule="evenodd" d="m298.661 154.823c-.321-.13-1.002-.233-1.816.121-17.957 7.812-37.922 15.391-49.76 18.83-2.86.832-5.68.853-8.093.679-8.098-.586-13.181 1.953-16.483 4.739-5.575 4.705-12.367 7.365-18.448 9.377-1.545.511-2.441 1.318-3.11 2.461-.765 1.306-1.331 3.239-1.661 6.059-.327 2.801-.381 6.052-.394 9.831-.002.505-.003 1.019-.004 1.541-.007 3.29-.014 6.888-.206 10.547-.205 3.915-2.595 7.597-6.494 9.129-13.151 5.165-25.382 2.768-35.015-.396-3.037-.997-6.087-2.173-8.74-3.197-1.391-.536-2.673-1.03-3.787-1.435-3.741-1.359-5.75-1.767-6.815-1.647-1.566.176-4.692.496-7.586-.959-3.042-1.529-5.52-1.673-7.608-1.196-2.191.501-4.371 1.787-6.507 3.771-4.356 4.047-7.617 10.139-9.457 14.313-1.217 2.759-3.304 4.664-4.806 5.915-1.751 1.458-2.9522 4.172-3.1923 7.688-.2403 3.518.5679 6.791 1.6243 8.559 1.144 1.917 1.75 4.472 1.031 7.079-1.113 4.03-.054 6.391 1.753 7.93 2.157 1.839 6.281 3.231 12.392 2.935 4.029-.195 7.107 2.893 7.55 6.42.586 4.66 3.974 7.843 9.132 10.011 5.147 2.165 10.961 2.783 13.764 2.783h1.924l1.427 1.289c1.566 1.415 4.916 3.059 9.42 4.084 4.392.999 9.218 1.254 13.358.473 3.186-.601 6.349-.125 9.067.907 4.028 1.53 10.791 2.298 17.477.901 6.598-1.379 12.474-4.711 15.804-10.725 1.058-1.911 3.1-3.145 5.352-3.121 7.944.084 13.887-2.025 17.647-5.421 3.64-3.288 5.842-8.327 5.339-15.563-.254-3.652.518-6.866 1.256-9.508.169-.605.332-1.171.487-1.709.573-1.981 1.035-3.583 1.261-5.367.264-2.081.056-5.171-.286-8.97-.032-.356-.065-.72-.099-1.09-.294-3.208-.627-6.838-.467-9.708.045-.815-.014-1.592-.16-2.284-.28-1.322-.785-2.582-1.468-4.287-.183-.456-.378-.944-.585-1.474-.871-2.222-1.934-5.175-1.934-8.444v-1.84c0-3.988 2.16-7.611 5.538-9.571 16.196-9.4 28.761-18.795 37.579-27.574 8.892-8.854 13.563-16.671 14.799-22.886zm-42.996 99.384c.426-3.36.071-7.59-.247-11.121-.029-.328-.059-.651-.087-.969-.313-3.443-.571-6.294-.455-8.376.091-1.63-.018-3.294-.361-4.913-.478-2.26-1.398-4.536-2.111-6.301-.149-.369-.289-.715-.414-1.035-.835-2.133-1.245-3.562-1.245-4.798v-1.84c0-.341.191-.71.557-.922 16.7-9.692 30.019-19.583 39.615-29.137 9.506-9.464 15.776-19.013 17.561-28.071.917-4.652-1.286-8.552-4.751-10.533-3.222-1.842-7.309-1.967-10.871-.417-17.78 7.735-37.306 15.128-48.561 18.397-1.245.362-2.729.442-4.581.308-10.862-.786-18.484 2.708-23.654 7.07-4.036 3.407-9.282 5.588-15.141 7.526-3.907 1.293-6.729 3.711-8.597 6.901-1.773 3.027-2.565 6.535-2.964 9.952-.402 3.437-.449 7.219-.462 10.957-.002.529-.003 1.058-.004 1.587-.007 3.303-.015 6.625-.192 10.013-.007.12-.046.214-.087.273-.037.054-.065.066-.077.071-9.972 3.917-19.5 2.282-28.238-.588-2.855-.938-5.366-1.91-7.827-2.861-1.466-.568-2.915-1.128-4.407-1.67-3.498-1.271-7.626-2.603-11.345-2.186-.716.081-1.219.108-1.609.086-.249-.014-.365-.045-.393-.053-4.961-2.488-9.798-3.028-14.304-1.998-4.409 1.008-8.105 3.425-11.084 6.192-5.874 5.456-9.7987 13.06-11.8026 17.606-.2364.536-.7894 1.211-2.0549 2.265-4.6045 3.834-6.4231 9.617-6.7696 14.691-.339 4.964.649 10.25 2.8698 14.119-1.7992 7.054-.0294 13.432 5.03 17.743 4.2963 3.659 10.3543 5.304 16.9393 5.359 2.011 8.291 8.624 13.04 14.744 15.613 5.731 2.409 11.84 3.306 15.826 3.513 3.307 2.392 7.805 4.137 12.367 5.175 5.43 1.235 11.67 1.635 17.429.549 1.06-.2 2.342-.073 3.664.429 5.937 2.254 14.652 3.101 23.073 1.34 7.87-1.645 16.039-5.704 21.291-13.661 8.717-.296 16.505-2.857 22.169-7.973 6.272-5.666 9.293-13.886 8.612-23.678-.13-1.87.238-3.715.911-6.124.112-.403.238-.833.37-1.287.596-2.049 1.334-4.585 1.668-7.223z" fill="#292929" fill-rule="evenodd"/><path d="m124.769 254.833c.188 1.105-1.751 2.357-4.331 2.796-2.58.438-4.824-.102-5.012-1.208s1.751-2.357 4.331-2.796 4.824.102 5.012 1.208z" fill="#ca5319"/><path d="m149.595 245.838c.487.442-.306 2.108-1.772 3.719-1.465 1.612-3.048 2.56-3.534 2.117-.487-.442.306-2.108 1.772-3.719 1.465-1.612 3.048-2.56 3.534-2.117z" fill="#ffc292"/><path d="m133.336 261.817c.058.343-.544.732-1.345.868s-1.498-.032-1.556-.375c-.059-.343.544-.732 1.345-.868s1.498.032 1.556.375z" fill="#ca5319"/><path d="m210.422 242.445c.432.077.636.958.455 1.966-.181 1.009-.678 1.764-1.11 1.686-.432-.077-.636-.958-.455-1.966.181-1.009.678-1.764 1.11-1.686z" fill="#ca5319"/><path d="m222.491 243.081c.295.495-.467 1.492-1.701 2.226-1.233.734-2.473.928-2.767.433-.295-.495.466-1.492 1.7-2.226s2.473-.928 2.768-.433z" fill="#ca5319"/><path d="m162.337 259.398c-12.637 11.827 7.484 8.997 9.6 18.71.195.899-.937 1.286-1.581.628-1.643-1.68-3.625-3.151-4.89-3.278-12.326-2.093-17.074-8.897-8.472-17.886 2.351-2.456 3.484-6.091 4.36-9.375.798-2.992 2.87-6.41 7.511-8.688.558-.274 1.147.09.911.666-.904 2.208-4.45 5.825-4.62 12.43-.066 2.541-.963 5.056-2.819 6.793z" fill="#502e13"/><path d="m224.665 272.335c-13.388 4.079-9.053-8.769-13.704-13.127-.659-.618-.634-1.58.267-1.514.874.064 1.834.249 2.752.499 2.286.622 3.276 2.88 3.743 5.203.51 2.538 2.026 5.485 6.413 6.322 1.15.219 1.648 2.276.529 2.617z" fill="#502e13"/><path d="m207.731 289.293c4.792 1.376 9.315 2.022 13.47 2.483 2.72.302 3.611 3.705 1.379 5.289l-.736.523c-.732.519-1.657.689-2.515.423-3.5-1.086-11.162-3.882-12.649-7.78-.241-.631.402-1.124 1.051-.938z" fill="#292929"/><path d="m135.684 232.725c-.735-4.171-.689-10.481 1.799-14.836l-5.809-2.112c-.461 4.222-1.725 12.929 2.514 17.89.621.728 1.662 0 1.496-.942z" fill="#292929"/><path d="m185.392 240.417c2.557-4.786 5.984-14.352 5.984-19.644h5.281c-.237 1.425-2.182 16.941-10.059 21.207-.85.461-1.661-.711-1.206-1.563z" fill="#292929"/><path d="m145.335 290.043c.571 4.084 2.551 11.641 10.838 15.784-14.619-3.79-14.667-11.512-12.395-16.152.394-.805 1.433-.52 1.557.368z" fill="#292929"/><path d="m445.248 266.472c-19.892-8.312-43.287-11.41-55.446 2.723-4.995 6.75-13.336 13.864-20.688 14.975-3.1.469-6.444 1.782-8.331 4.285-6.116 8.11-16.095 11.793-23.228 12.518-2.617.266-5.043 1.76-6.564 3.906-3.883 5.48-9.793 7.948-14.609 8.222-3.609.205-8.011 1.484-10.769 3.821-6.779 5.745-16.226 3.951-24.158-1.058-4.234-2.673-9.716-2.937-14.4-1.168-5.861 2.213-11.998 2.064-17.304-1.48-3.461-2.312-7.23-4.301-11.166-5.653-12.585-4.322-10.058-18.165-11.562-25.32-.262-1.248-.96-2.344-1.604-3.444-5.031-8.585 1.166-14.144 1.858-20.781.432-4.132-1.44-8.249-1.265-12.4.935-22.136 15.778-32.003 30.732-29.081 3.453.675 7.145-.512 9.382-3.228 8.787-10.671 20.931-12.942 29.914-8.602 12.751 6.16 21.781-9.094 39.764 2.708 10.424 2.561 22.546 1.478 34.45 13.82 3.04 3.152 6.021 6.654 10.288 7.641 8.033 1.858 19.493.144 29.418-2.553 6.517-1.772 12.075-5.915 18.145-8.874 16.723-8.152 34.416.695 30.687 15.38-1.042 4.103-.203 8.646 2.23 12.111 3.846 5.478 3.478 12.086-4.417 19.897-2.966 2.933-7.508 3.243-11.357 1.635z" fill="#f4741b"/><path d="m318.585 256.678c4.146 3.17 10.736 6.821 11.842 13.475.171 1.029 1.66 1.515 2.079.559 3.233-7.373-4.471-9.834-9.441-15.948-2.194-2.7-3.185-6.524-5.939-8.65-1.838-1.419-4.23-2.899-6.568-4.056-.871-.431-1.574.47-.95 1.215 1.49 1.78 3.182 3.649 4.353 5.595 1.6 2.661 2.158 5.924 4.624 7.81z" fill="#502e13"/><path clip-rule="evenodd" d="m332.801 299.64-2.487 4.605-.396-.13c-1.719-.56-4.485-1.551-7.001-3.009-2.494-1.446-4.858-3.416-5.601-5.984-.114-.391-.052-.819.262-1.103.31-.281.738-.306 1.114-.172 2.679.958 10.376 4.122 13.618 5.573zm-1.392.474c-3.457-1.523-10.533-4.424-13.054-5.326-.042-.015-.073-.019-.092-.02 0 .017.003.042.013.076.63 2.177 2.696 3.979 5.143 5.396 2.243 1.301 4.711 2.224 6.413 2.794z" fill="#292929" fill-rule="evenodd"/><path d="m380.542 228.876c8.033 1.858 19.493.144 29.418-2.553 6.517-1.772 12.071-5.912 18.141-8.872 12.338-6.017 25.206-2.78 29.609 5.23-23.995-5.323-42.059 18.609-74.002 16.286-4.18-.304-8.052-2.146-11.581-4.408-25.029-16.048-52.83-17.4-72.415-17.868-11.073-.264-21.615 4.726-31.24 10.208-18.061 10.286-27.095-2.945-41.485 10.997 3.671-16.681 16.672-23.916 29.759-21.358 3.453.675 7.143-.513 9.38-3.229 8.787-10.671 20.931-12.942 29.914-8.602 12.751 6.16 21.781-9.094 39.764 2.708 10.424 2.561 22.546 1.478 34.45 13.82 3.04 3.152 6.021 6.654 10.288 7.641z" fill="#ffc29b"/><path d="m445.248 266.472c-19.892-8.312-43.287-11.41-55.446 2.723-4.995 6.75-13.336 13.864-20.688 14.975-3.1.469-6.444 1.782-8.331 4.285-6.116 8.11-16.095 11.793-23.228 12.518-2.617.266-5.043 1.76-6.564 3.906-3.883 5.48-9.792 7.948-14.609 8.222-3.609.205-8.011 1.484-10.769 3.821-6.779 5.745-16.226 3.951-24.158-1.058-4.234-2.674-9.716-2.937-14.4-1.168-5.861 2.213-11.998 2.064-17.304-1.48-3.461-2.312-7.23-4.301-11.166-5.653-12.585-4.322-10.058-18.165-11.562-25.32-.262-1.248-.959-2.344-1.604-3.445-5.031-8.584 1.166-14.143 1.859-20.78.431-4.132-1.441-8.237-1.267-12.388.117-2.77.451-5.349.976-7.734.534-2.425 1.265-4.651 2.165-6.676 3.262 16.991 8.737 29.857 24.877 35.403 2.814.967 5.714 1.821 8.155 3.524 9.951 6.942 16.247 19.061 38.262 17.947 3.044-.153 5.461-2.405 7.406-4.752 5.983-7.22 19.7-10.229 34.754-7.593 3.316.581 6.936-1.382 9.405-3.671 2.462-2.282 6.119-4.4 10.675-5.192 2.508-.436 4.803-1.954 5.831-4.282 18.425-41.753 49.531 12.432 90.777-33.799.014 1.287-.148 2.637-.506 4.039-1.045 4.103-.199 8.631 2.234 12.096 3.846 5.477 3.478 12.086-4.417 19.897-2.966 2.933-7.508 3.243-11.357 1.635z" fill="#cc551b"/><path clip-rule="evenodd" d="m462.386 220.832c1.976 3.917 2.461 8.469 1.252 13.227-.682 2.688-.121 5.733 1.476 8.008 2.555 3.639 3.897 7.993 3.023 12.835-.845 4.68-3.645 9.164-8.016 13.489-4.779 4.728-11.637 4.852-16.801 2.695-9.577-4.002-19.731-6.627-28.719-6.67-8.889-.042-16.091 2.414-20.898 7.913-2.749 3.682-6.365 7.428-10.333 10.447-3.958 3.012-8.666 5.606-13.509 6.338-2.52.381-4.334 1.353-5.086 2.351-7.195 9.541-18.653 13.663-26.714 14.482-1.087.11-2.247.775-2.99 1.823-4.868 6.87-12.261 9.974-18.405 10.323-2.947.167-6.165 1.241-7.82 2.644-9.314 7.893-21.472 4.778-30.061-.646-2.729-1.723-6.537-2.011-9.964-.717-7.044 2.66-14.934 2.617-21.847-2-3.181-2.124-6.564-3.897-10.013-5.082-8.436-2.897-11.807-9.23-13.184-15.202-.661-2.863-.898-5.743-1.07-8.12-.019-.258-.036-.509-.054-.751-.154-2.169-.265-3.718-.523-4.948-.01-.046-.052-.203-.226-.546-.154-.304-.319-.584-.569-1.008-.07-.118-.146-.247-.23-.391-3.407-5.814-2.979-10.877-1.684-15.11.417-1.365.982-2.802 1.446-3.984.163-.416.315-.801.443-1.14.562-1.49.89-2.593.994-3.593.13-1.238-.072-2.617-.475-4.741-.028-.143-.056-.291-.085-.443-.356-1.852-.836-4.345-.728-6.908.514-12.164 4.901-21.583 11.856-27.527 6.95-5.939 15.98-7.979 24.831-6.25 1.797.351 3.585-.311 4.563-1.499 10.048-12.203 24.613-15.403 35.949-9.926 3.712 1.793 6.585 1.019 11.765-.377.845-.228 1.752-.472 2.735-.725 3.252-.836 7.117-1.606 11.536-1.203 4.251.387 8.715 1.827 13.526 4.841 1.634.36 3.445.645 5.393.952 8.721 1.373 20.175 3.177 30.682 14.071.347.359.674.702.987 1.031 1.206 1.264 2.207 2.314 3.314 3.243 1.315 1.104 2.425 1.714 3.516 1.966 6.757 1.563 17.193.154 26.98-2.507 2.679-.728 5.285-1.978 8.145-3.548.833-.458 1.724-.965 2.652-1.493 2.054-1.168 4.288-2.438 6.468-3.501 9.573-4.667 19.825-4.666 27.443-.851 3.83 1.918 7.077 4.858 9.029 8.728zm-13.507.214c-4.477-2.243-11.432-2.589-18.583.897-1.9.927-3.643 1.92-5.531 2.995-.998.568-2.035 1.159-3.158 1.776-3.066 1.684-6.498 3.391-10.335 4.433-10.064 2.736-22.547 4.754-31.857 2.6-3.175-.735-5.689-2.369-7.692-4.05-1.577-1.324-3.06-2.883-4.294-4.18-.271-.285-.529-.557-.774-.811-7.969-8.261-15.331-9.464-23.598-10.813-2.701-.442-5.499-.898-8.447-1.623l-.833-.204-.717-.471c-3.885-2.55-7.045-3.493-9.717-3.736-2.73-.249-5.292.197-8.138.929-.674.173-1.39.377-2.144.592-5.065 1.442-11.856 3.376-19.196-.171-6.631-3.204-16.354-1.861-23.879 7.279-3.495 4.244-9.092 5.955-14.201 4.957-6.103-1.193-11.972.239-16.416 4.037-4.438 3.793-7.94 10.375-8.362 20.347-.057 1.363.214 2.789.633 4.994l.013.069c.381 2.005.9 4.75.597 7.645-.242 2.318-.948 4.399-1.585 6.087-.231.613-.444 1.154-.641 1.654-.405 1.03-.743 1.889-1.041 2.862-.719 2.351-.874 4.36.75 7.131.048.081.104.175.166.279.549.914 1.595 2.658 2.017 4.664.41 1.952.57 4.249.71 6.256.019.265.037.526.055.78.171 2.366.37 4.558.84 6.592.881 3.818 2.539 6.567 6.688 7.992 4.423 1.519 8.577 3.725 12.319 6.224 3.699 2.471 8.084 2.726 12.761.96 5.941-2.243 13.097-2.005 18.835 1.618 7.276 4.595 14.012 5.069 18.257 1.472 3.859-3.271 9.446-4.756 13.717-4.999 3.489-.198 7.915-2.031 10.813-6.12 2.299-3.245 5.99-5.569 10.138-5.991 6.205-.63 14.705-3.875 19.742-10.554 3.022-4.008 7.896-5.662 11.576-6.218 2.509-.379 5.648-1.898 8.947-4.408 3.232-2.459 6.237-5.581 8.468-8.597l.11-.147.119-.139c7.352-8.546 17.885-11.57 28.638-11.518 10.722.051 22.212 3.131 32.527 7.442 2.533 1.058 4.761.562 5.912-.577 3.524-3.486 4.856-6.211 5.208-8.157.322-1.785-.076-3.474-1.366-5.312-3.268-4.654-4.385-10.695-2.984-16.215.656-2.584.327-4.645-.488-6.262-.839-1.664-2.362-3.18-4.579-4.29z" fill="#292929" fill-rule="evenodd"/><g fill="#cc551b"><path d="m279.211 249.825c-.894 1.208-2.599 1.463-3.807.569-1.209-.895-1.464-2.599-.569-3.808.894-1.208 2.599-1.463 3.807-.569 1.209.894 1.464 2.599.569 3.808z"/><path d="m339.559 245.563c-.895 1.209-2.599 1.464-3.808.569-1.208-.894-1.463-2.599-.569-3.807.894-1.209 2.599-1.463 3.808-.569 1.208.894 1.463 2.599.569 3.807z"/><path d="m288.383 264.89c-.497.671-1.444.813-2.115.316-.672-.497-.813-1.444-.316-2.116.496-.671 1.444-.813 2.115-.316s.813 1.444.316 2.116z"/><path d="m348.73 260.628c-.496.671-1.444.813-2.115.316s-.813-1.444-.316-2.115c.497-.672 1.444-.813 2.115-.316.672.497.813 1.444.316 2.115z"/><path d="m288.937 257.021c-.695.94-2.021 1.139-2.961.443s-1.138-2.021-.443-2.961c.696-.94 2.022-1.139 2.962-.443s1.138 2.021.442 2.961z"/><path d="m349.285 252.76c-.696.94-2.022 1.138-2.962.443-.94-.696-1.138-2.022-.443-2.962.696-.94 2.022-1.138 2.962-.442.94.695 1.138 2.021.443 2.961z"/></g></svg>