<svg enable-background="new 0 0 32 32" height="512" viewBox="0 0 32 32" width="512" xmlns="http://www.w3.org/2000/svg" xmlns:xlink="http://www.w3.org/1999/xlink"><linearGradient id="SVGID_1_" gradientUnits="userSpaceOnUse" x1="16" x2="16" y1="31" y2="1"><stop offset="0" stop-color="#9ccc65"/><stop offset=".6353" stop-color="#53cc6d"/><stop offset="1" stop-color="#2ecc71"/></linearGradient><g id="_x31_7_green_fuel"><path d="m16.809 22.266c.361-.464.59-.988.629-1.556.082-1.192-.595-2.448-1.906-3.538-1.361-1.13-4.246-4.312-4.275-4.343-.218-.241-.537-.362-.861-.322-.322.039-.606.232-.76.518-.139.257-3.354 6.325.573 9.587 1.076.894 2.116 1.328 3.18 1.328.705 0 1.3-.2 1.785-.431l.916.761c.187.155.414.23.639.23.287 0 .572-.123.77-.361.353-.425.295-1.055-.13-1.408zm-5.322-1.194c-1.79-1.486-1.23-4.152-.66-5.761 1.005 1.074 2.499 2.628 3.427 3.399.78.647 1.225 1.344 1.189 1.861-.009.133-.061.259-.137.382-.954-.967-1.62-2.016-1.628-2.028-.292-.469-.909-.612-1.377-.318-.468.292-.612.907-.32 1.376.033.053.61.966 1.497 1.948-.029.001-.059.008-.088.008-.579 0-1.202-.284-1.903-.867zm5.513-16.072h-8c-.552 0-1 .447-1 1v4c0 .553.448 1 1 1h8c.552 0 1-.447 1-1v-4c0-.553-.448-1-1-1zm-1 4h-6v-2h6zm12.555-3.832-3-2c-.46-.307-1.081-.183-1.387.277s-.182 1.08.277 1.387l2.555 1.703v1.516c-.162-.033-.329-.051-.5-.051-1.378 0-2.5 1.121-2.5 2.5 0 1.022.619 1.901 1.5 2.288v6.212c0 1.654-1.346 3-3 3h-.5v-18c0-1.654-1.346-3-3-3h-12c-1.654 0-3 1.346-3 3v22c-.552 0-1 .447-1 1v3c0 .553.448 1 1 1h18c.552 0 1-.447 1-1v-3c0-.553-.448-1-1-1v-2h.5c2.757 0 5-2.243 5-5v-6.212c.881-.387 1.5-1.266 1.5-2.288v-4.5c0-.334-.167-.646-.445-.832zm-7.555 23.832h-16v-1h16zm-15-3v-22c0-.552.449-1 1-1h12c.551 0 1 .448 1 1v22zm20.5-16c.276 0 .5.225.5.5s-.224.5-.5.5-.5-.225-.5-.5.224-.5.5-.5z" fill="url(#SVGID_1_)"/></g></svg>