<svg xmlns="http://www.w3.org/2000/svg" version="1.1" xmlns:xlink="http://www.w3.org/1999/xlink" width="512" height="512" x="0" y="0" viewBox="0 0 682.665 682.667" style="enable-background:new 0 0 512 512" xml:space="preserve" class=""><g><defs><clipPath id="a" clipPathUnits="userSpaceOnUse"><path d="M0 512h511.999V0H0Z" fill="#d50a0a" opacity="1" data-original="#000000"></path></clipPath></defs><g clip-path="url(#a)" transform="matrix(1.33333 0 0 -1.33333 0 682.667)"><path d="M0 0c-28.663 3.005-35.131-18.09-36.581-28.624-.32-2.333 2.087-4.02 4.225-3.032 17.562 8.107 40.471-2.703 40.471-2.703C16.999-14.295 0 0 0 0Z" style="stroke-width:15;stroke-linecap:round;stroke-linejoin:round;stroke-miterlimit:10;stroke-dasharray:none;stroke-opacity:1" transform="translate(66.317 449.425)" fill="none" stroke="#d50a0a" stroke-width="15" stroke-linecap="round" stroke-linejoin="round" stroke-miterlimit="10" stroke-dasharray="none" stroke-opacity="" data-original="#000000" opacity="1"></path><path d="M0 0c-.584 5.367-5.527 9.215-10.845 8.286-5.452-.953-13.701-1.055-25.436 1.944-16.42 4.197-25.776-2.622-30.268-7.806-2.316-2.673-5.701-4.204-9.226-3.92-6.464.52-16.717-.694-22.502-11.904-8.897-17.237 4.037-30.14 4.037-30.14s4.581 15.127 34.884 15.127c11.925 0 20.713-4.859 27.697-14.837h.022C.006-43.126 1.745-16.035 0 0Z" style="stroke-width:15;stroke-linecap:round;stroke-linejoin:round;stroke-miterlimit:10;stroke-dasharray:none;stroke-opacity:1" transform="translate(160.557 492.965)" fill="none" stroke="#d50a0a" stroke-width="15" stroke-linecap="round" stroke-linejoin="round" stroke-miterlimit="10" stroke-dasharray="none" stroke-opacity="" data-original="#000000" opacity="1"></path><path d="M0 0s-.573-16.556-14.316-30.73c-11.613-11.979-4.392-32.157 12.219-33.71 2.803-.263 5.924-.195 9.401.291C17.927-38.015 20.708-12.361 0 0Z" style="stroke-width:15;stroke-linecap:round;stroke-linejoin:round;stroke-miterlimit:10;stroke-dasharray:none;stroke-opacity:1" transform="translate(74.432 415.065)" fill="none" stroke="#d50a0a" stroke-width="15" stroke-linecap="round" stroke-linejoin="round" stroke-miterlimit="10" stroke-dasharray="none" stroke-opacity="" data-original="#000000" opacity="1"></path><path d="m0 0 17.353 13.036S47.911 0 66.815 0c18.905 0 38.367 6.518 38.367 6.518l8.339-9.329" style="stroke-width:15;stroke-linecap:round;stroke-linejoin:round;stroke-miterlimit:10;stroke-dasharray:none;stroke-opacity:1" transform="translate(141.976 10.31)" fill="none" stroke="#d50a0a" stroke-width="15" stroke-linecap="round" stroke-linejoin="round" stroke-miterlimit="10" stroke-dasharray="none" stroke-opacity="" data-original="#000000" opacity="1"></path><path d="M0 0c4.398-.841 8.67-1.373 12.47-1.373 3.857 0 7.734.274 11.467.706C35.73 22.3 47.5 62.004 44.754 85.723c-.861-2.117-1.81-4.186-2.792-6.235-1.616-3.376-5.523-4.978-9.04-3.754-1.962.683-4.092.697-5.96-.212-4.871-1.849-10.094-.763-13.816 2.338C14.352 69.836 10.011 24.672 0 0Z" style="stroke-width:15;stroke-linecap:round;stroke-linejoin:round;stroke-miterlimit:10;stroke-dasharray:none;stroke-opacity:1" transform="translate(196.322 11.684)" fill="none" stroke="#d50a0a" stroke-width="15" stroke-linecap="round" stroke-linejoin="round" stroke-miterlimit="10" stroke-dasharray="none" stroke-opacity="" data-original="#000000" opacity="1"></path><path d="M0 0c-2.962 12.785-13.412 45.77-44.985 64.076-2.605 1.51-2.178 5.405.685 6.331 3.042.984 6.869 1.949 11.131 2.413 3.482.379 4.386 5.016 1.259 6.596-14.5 7.327-40.524 16.867-69.645 10.679-41.391-8.796-34.638-26.98-79.196.494-13.246 8.166-28.407 12.912-43.965 13.162-18.348.296-40.31-5.038-54.767-27.557-28.913-45.038 48.575-96.749 124.372-109.537 54.424-9.182 66.618-27.538 69.167-37.16.712-2.689 4.095-3.494 5.974-1.442 4.161 4.542 9.256 12.451 9.717 24.231.106 2.689 3.117 4.222 5.381 2.768 7.366-4.733 19.913-14.293 23.911-26.58.787-2.421 3.851-3.151 5.706-1.408 8.541 8.025 25.015 28.829 13.299 62.413a3.49 3.49 0 0 0 1.895 4.341c3.126 1.377 8.67 2.999 16.139 1.954C-1.489-4.566.555-2.394 0 0Z" style="stroke-width:15;stroke-linecap:round;stroke-linejoin:round;stroke-miterlimit:10;stroke-dasharray:none;stroke-opacity:1" transform="translate(374.012 207.928)" fill="none" stroke="#d50a0a" stroke-width="15" stroke-linecap="round" stroke-linejoin="round" stroke-miterlimit="10" stroke-dasharray="none" stroke-opacity="" data-original="#000000" opacity="1"></path><path d="M0 0s49.164-24.091 72.447-76.227" style="stroke-width:15;stroke-linecap:round;stroke-linejoin:round;stroke-miterlimit:10;stroke-dasharray:none;stroke-opacity:1" transform="translate(222.622 284.544)" fill="none" stroke="#d50a0a" stroke-width="15" stroke-linecap="round" stroke-linejoin="round" stroke-miterlimit="10" stroke-dasharray="none" stroke-opacity="" data-original="#000000" opacity="1"></path><path d="M0 0s-28.858-34.993-11.544-94.8" style="stroke-width:15;stroke-linecap:round;stroke-linejoin:round;stroke-miterlimit:10;stroke-dasharray:none;stroke-opacity:1" transform="translate(315.005 394.861)" fill="none" stroke="#d50a0a" stroke-width="15" stroke-linecap="round" stroke-linejoin="round" stroke-miterlimit="10" stroke-dasharray="none" stroke-opacity="" data-original="#000000" opacity="1"></path><path d="M0 0h3.333" style="stroke-width:15;stroke-linecap:round;stroke-linejoin:round;stroke-miterlimit:10;stroke-dasharray:none;stroke-opacity:1" transform="translate(101.211 434.808)" fill="none" stroke="#d50a0a" stroke-width="15" stroke-linecap="round" stroke-linejoin="round" stroke-miterlimit="10" stroke-dasharray="none" stroke-opacity="" data-original="#000000" opacity="1"></path><path d="M0 0c-28.263-4.466-55.367-19.484-74.6-45.902-18.584-25.529-29.43-62.665-16.405-116.068a124 124 0 0 0 12.89 3.447c29.121 6.188 55.144-3.352 69.644-10.679 3.127-1.58 2.224-6.217-1.258-6.596-4.262-.464-8.089-1.43-11.131-2.413-2.864-.926-3.29-4.821-.686-6.331a85.526 85.526 0 0 0 13.301-9.52c36.182 6.227 58.866-16.247 69.017-29.887 2.059-2.768 6.46-1.179 6.288 2.265-1.474 29.41-14.702 48.383-25.344 59.023-3.326 3.325-.094 8.948 4.448 7.724 24.155-6.505 41.26-20.905 49.202-28.775 2.085-2.065 5.67-.765 5.919 2.159 3.995 46.876-26.384 70.282-42.86 79.428-3.658 2.031-2.929 7.525 1.138 8.513 31.007 7.526 55.465-9.294 66.348-18.852 2.338-2.053 5.988-.267 5.801 2.838C127.806-44.935 83.818-6.911 35 .203" style="stroke-width:15;stroke-linecap:round;stroke-linejoin:round;stroke-miterlimit:10;stroke-dasharray:none;stroke-opacity:1" transform="translate(350.572 456.546)" fill="none" stroke="#d50a0a" stroke-width="15" stroke-linecap="round" stroke-linejoin="round" stroke-miterlimit="10" stroke-dasharray="none" stroke-opacity="" data-original="#000000" opacity="1"></path><path d="M0 0c-9.42 42.242-20.737 62.121-44.898 62.121-30.303 0-34.884-15.126-34.884-15.127 0 0 16.998-14.295 8.115-34.359C-39.036-6.844-64.721-59.326-87.526-94.69c-27.995-43.413-15.653-101.526 28.135-128.929 30.561-19.125 65.882-26.257 81.196-32.77 19.793-8.417 31.634-34.198 37.317-50.392 2.594-7.394 10.737-11.226 18.063-8.444 1.868.909 3.998.895 5.96.212 3.518-1.224 7.424.378 9.041 3.754 6.555 13.687 11.766 28.272-2.155 51.905-8.669 14.717 3.604 20.661 16.604 23.023-8.911 3.225-20.003 6.152-33.834 8.485C-2.996-215.058-80.483-163.347-51.57-118.309-37.113-95.79-15.151-90.456 3.197-90.752c12.202-.196 24.155-3.169 35.136-8.377C20.602-80.977 10.982-59.811 6.726-35" style="stroke-width:15;stroke-linecap:round;stroke-linejoin:round;stroke-miterlimit:10;stroke-dasharray:none;stroke-opacity:1" transform="translate(146.1 402.43)" fill="none" stroke="#d50a0a" stroke-width="15" stroke-linecap="round" stroke-linejoin="round" stroke-miterlimit="10" stroke-dasharray="none" stroke-opacity="" data-original="#000000" opacity="1"></path></g></g></svg>