<svg height="512pt" viewBox="-33 0 512 512" width="512pt" xmlns="http://www.w3.org/2000/svg"><path d="m309.003906 343.402344h.097656c17.132813 5.320312 33.402344 13.09375 48.304688 23.078125 25.667969-31.089844 39.679688-70.164063 39.621094-110.480469h-74.441406c.171874 29.671875-4.414063 59.183594-13.582032 87.402344zm0 0" fill="#5aaae7"/><path d="m309.003906 168.597656c9.167969 28.222656 13.753906 57.730469 13.582032 87.402344h74.441406c.0625-40.324219-13.949219-79.40625-39.621094-110.507812-14.902344 9.984374-31.171875 17.757812-48.304688 23.078124zm0 0" fill="#78b9eb"/><path d="m137.554688 343.429688h.097656c-9.171875-28.230469-13.757813-57.746094-13.582032-87.429688h-74.441406c-.0625 40.324219 13.949219 79.40625 39.621094 110.507812 14.902344-9.984374 31.171875-17.757812 48.304688-23.078124zm0 0" fill="#3d9ae2"/><path d="m137.652344 168.597656h-.097656c-17.132813-5.320312-33.402344-13.09375-48.304688-23.078125-25.667969 31.089844-39.679688 70.164063-39.621094 110.480469h74.441406c-.171874-29.671875 4.414063-59.183594 13.582032-87.402344zm0 0" fill="#5aaae7"/><path d="m322.585938 256c.171874-29.671875-4.414063-59.183594-13.582032-87.402344-27.707031 8.765625-56.617187 13.140625-85.675781 12.960938v74.441406zm0 0" fill="#5aaae7"/><path d="m223.328125 181.558594c-29.058594.179687-57.96875-4.195313-85.675781-12.960938-9.167969 28.222656-13.753906 57.730469-13.582032 87.402344h99.257813zm0 0" fill="#3d9ae2"/><path d="m223.328125 256h-99.257813c-.171874 29.671875 4.414063 59.183594 13.582032 87.40625 27.707031-8.769531 56.617187-13.144531 85.675781-12.964844zm0 0" fill="#1e81ce"/><path d="m223.328125 330.441406c29.058594-.179687 57.96875 4.195313 85.675781 12.960938 9.167969-28.222656 13.753906-57.730469 13.582032-87.402344h-99.257813zm0 0" fill="#3d9ae2"/><path d="m309.003906 343.402344c-17.214844 51.554687-49.09375 86.296875-85.675781 86.296875 51.894531.046875 101.085937-23.136719 134.078125-63.195313-14.902344-9.984375-31.171875-17.757812-48.304688-23.074218zm0 0" fill="#3d9ae2"/><path d="m137.652344 343.402344h-.097656c-17.132813 5.320312-33.402344 13.09375-48.304688 23.078125 32.988281 40.066406 82.179688 63.261719 134.078125 63.21875-36.585937 0-68.460937-34.738281-85.675781-86.296875zm0 0" fill="#1e81ce"/><path d="m137.652344 343.402344c17.214844 51.554687 49.089844 86.296875 85.675781 86.296875v-99.257813c-29.058594-.179687-57.96875 4.195313-85.675781 12.960938zm0 0" fill="#1a6fb0"/><path d="m309.003906 343.402344c-27.707031-8.765625-56.617187-13.140625-85.675781-12.960938v99.257813c36.582031 0 68.460937-34.738281 85.675781-86.296875zm0 0" fill="#1e81ce"/><path d="m309.003906 168.597656h.097656c17.132813-5.320312 33.402344-13.09375 48.304688-23.078125-32.988281-40.066406-82.179688-63.261719-134.078125-63.21875 36.582031 0 68.460937 34.738281 85.675781 86.296875zm0 0" fill="#96c8ef"/><path d="m137.652344 168.597656c17.214844-51.554687 49.089844-86.296875 85.675781-86.296875-51.894531-.046875-101.085937 23.136719-134.078125 63.195313 14.902344 9.984375 31.171875 17.757812 48.304688 23.074218zm0 0" fill="#78b9eb"/><path d="m137.652344 168.597656c27.707031 8.765625 56.617187 13.140625 85.675781 12.960938v-99.257813c-36.585937 0-68.460937 34.738281-85.675781 86.296875zm0 0" fill="#5aaae7"/><path d="m309.003906 168.597656c-17.214844-51.554687-49.09375-86.296875-85.675781-86.296875v99.257813c29.058594.179687 57.96875-4.195313 85.675781-12.960938zm0 0" fill="#78b9eb"/><g fill="#d1d3d4"><path d="m223.328125 479.328125v-16.542969c114.152344-.128906 206.65625-92.632812 206.785156-206.785156h16.542969c-.136719 123.285156-100.042969 223.191406-223.328125 223.328125zm0 0"/><path d="m16.542969 256h-16.542969c.136719-123.285156 100.042969-223.191406 223.328125-223.328125v16.542969c-114.152344.128906-206.65625 92.632812-206.785156 206.785156zm0 0"/><path d="m223.328125 32.671875h115.800781v16.542969h-115.800781zm0 0"/><path d="m90.984375 462.785156h132.34375v16.542969h-132.34375zm0 0"/><path d="m120.222656 512-40.933594-40.945312 40.933594-40.941407 11.699219 11.695313-29.242187 29.246094 29.242187 29.25zm0 0"/><path d="m309.886719 81.886719-11.695313-11.695313 29.238282-29.246094-29.238282-29.25 11.695313-11.695312 40.9375 40.945312zm0 0"/></g></svg>