<svg id="Layer_1" height="512" viewBox="0 0 24 24" width="512" xmlns="http://www.w3.org/2000/svg" xmlns:xlink="http://www.w3.org/1999/xlink" data-name="Layer 1"><linearGradient id="linear-gradient" gradientUnits="userSpaceOnUse" x1="1.173" x2="25.173" y1="10.618" y2="13.682"><stop offset="0" stop-color="#cc2fa9"/><stop offset="1" stop-color="#823cde"/></linearGradient><path d="m21 0h-18a3 3 0 0 0 -3 3v18a3 3 0 0 0 3 3h18a3 3 0 0 0 3-3v-18a3 3 0 0 0 -3-3zm-8.1 21.182a9.09 9.09 0 0 1 -7.448-3.906 1 1 0 1 1 1.64-1.144 7.085 7.085 0 0 0 12.908-4.132 7.089 7.089 0 0 0 -13.892-2.086l.833-.562a1 1 0 1 1 1.118 1.659l-2.7 1.819a1.026 1.026 0 0 1 -1.393-.279l-1.8-2.727a1 1 0 1 1 1.668-1.1l.372.564a9.115 9.115 0 1 1 8.694 11.9zm3.083-7.406a1 1 0 0 1 -.006 1.414 1.024 1.024 0 0 1 -1.414-.007l-2.455-2.483a1.039 1.039 0 0 1 -.29-.7v-4.132a1 1 0 0 1 2 0v3.721z" fill="url(#linear-gradient)"/></svg>