<svg xmlns="http://www.w3.org/2000/svg" version="1.1" xmlns:xlink="http://www.w3.org/1999/xlink" width="512" height="512" x="0" y="0" viewBox="0 0 512 512" style="enable-background:new 0 0 512 512" xml:space="preserve" class=""><g><path d="M431.8 206.89c-13.97-35.64-34.35-70.84-60.56-104.62a8.001 8.001 0 0 0-14.29 5.62c1.57 17.56.81 32.92-2.26 45.67-.63 2.64-2.78 4.38-5.45 4.44-2.75.03-4.99-1.6-5.74-4.2-10.24-35.59-24.47-64.38-43.51-88-24.85-30.83-58.33-52.85-99.5-65.46a7.982 7.982 0 0 0-8.08 2.08 8.01 8.01 0 0 0-1.84 8.14c16.49 48.64 1.54 71.17-19.15 102.35-10.43 15.72-21.96 33.1-31.3 56.21-9.33-14.18-24.32-26.06-40.67-31.2a7.998 7.998 0 0 0-9.97 10.21c7.5 22.04-.82 61.48-9.84 78.95-.02.03-.03.06-.05.09-12.5 24.98-19.42 51.92-20.55 80.06-2.13 52.55 16.37 102.77 52.09 141.42 35.71 38.65 84.35 61.09 136.95 63.19 2.69.11 5.36.16 8.03.16 105.04-.01 192.56-83.19 196.83-188.98 1.5-37.45-5.61-76.52-21.14-116.13zm5.15 115.49c-4.02 99.67-88.47 177.48-188.23 173.47-48.34-1.93-93.03-22.55-125.84-58.06s-49.8-81.64-47.86-129.92c1.04-25.85 7.38-50.58 18.85-73.5 8.42-16.34 16.47-48.68 14.07-74.91 12.46 7.95 22.44 20.53 25.27 32.98.8 3.54 3.89 6.1 7.52 6.23 3.64.14 6.89-2.2 7.94-5.68 9.36-30.96 23.56-52.35 36.09-71.23 19.44-29.29 36.47-54.96 25.36-101.23 59.93 22.7 97.62 66.82 118.01 137.7 2.77 9.61 11.36 15.96 21.44 15.76 10.04-.23 18.36-6.94 20.69-16.7 1.82-7.55 2.93-15.84 3.32-24.79 43.41 62.79 65.79 129.44 63.37 189.88zM255.98 168.52c-80.92 0-146.75 65.77-146.75 146.6 0 80.82 65.83 146.57 146.75 146.57 80.93 0 146.78-65.75 146.78-146.57 0-80.83-65.84-146.6-146.78-146.6zm110.69 154.21h19.86c-1.74 30.12-13.75 57.53-32.58 78.79l-14.1-14.08a7.898 7.898 0 0 0-11.17.01c-3.08 3.09-3.08 8.09.01 11.17l14.1 14.08c-21.24 18.86-48.66 30.93-78.81 32.75V427.1c0-4.42-3.58-8-8-8s-8 3.58-8 8v18.35c-30.14-1.83-57.55-13.89-78.79-32.75l14.11-14.09c3.09-3.08 3.09-8.08.01-11.17s-8.08-3.09-11.17-.01l-14.11 14.09c-18.83-21.26-30.84-48.67-32.58-78.79h19.86c4.36 0 7.9-3.54 7.9-7.9s-3.54-7.9-7.9-7.9H125.5c1.87-30.03 13.94-57.34 32.79-78.51l13.85 13.84c1.54 1.54 3.56 2.31 5.58 2.31s4.05-.77 5.59-2.32c3.08-3.09 3.08-8.09-.01-11.17l-13.82-13.81c21.22-18.74 48.56-30.72 78.61-32.51v19.55c0 4.36 3.54 7.9 7.9 7.9s7.9-3.54 7.9-7.9v-19.55c30.05 1.8 57.4 13.77 78.63 32.52l-13.82 13.8c-3.09 3.08-3.09 8.08-.01 11.17a7.883 7.883 0 0 0 5.59 2.32c2.02 0 4.04-.77 5.58-2.31l13.85-13.83c18.85 21.17 30.93 48.48 32.8 78.51h-19.83c-4.36 0-7.9 3.54-7.9 7.9s3.53 7.89 7.89 7.89zm-102.69-34.37v-61.1c0-4.42-3.58-8-8-8s-8 3.58-8 8v61.1c-8.97 2.69-16.06 9.77-18.75 18.74h-31.97c-4.42 0-8 3.58-8 8s3.58 8 8 8h31.96c3.44 11.52 14.14 19.94 26.77 19.94 15.42 0 27.96-12.52 27.96-27.91 0-12.63-8.43-23.32-19.97-26.77zm-8 38.68c-6.58 0-11.94-5.34-11.94-11.91 0-6.58 5.35-11.94 11.94-11.94 6.6 0 11.96 5.36 11.96 11.94.01 6.56-5.36 11.91-11.96 11.91z" fill="#ff0800" opacity="1" data-original="#000000"></path></g></svg>