<svg id="Capa_1" enable-background="new 0 0 512 512" height="512" viewBox="0 0 512 512" width="512" xmlns="http://www.w3.org/2000/svg"><g><g><path d="m362.619 447.414v11.33c0 16.1-9.426 30.681-24.078 37.353-17.259 7.86-44.27 15.903-82.541 15.903s-65.282-8.043-82.54-15.903c-14.652-6.673-24.078-21.253-24.078-37.353v-11.33z" fill="#8db9c2"/><path d="m481.54 249.554c0 124.562-100.978 225.54-225.54 225.54s-225.54-100.978-225.54-225.54z" fill="#eff3f5"/><path d="m417.978 249.554c0 113.773-84.248 207.853-193.759 223.3 10.385 1.465 20.992 2.24 31.781 2.24 124.562 0 225.54-100.978 225.54-225.54z" fill="#c9e2e7"/><ellipse cx="256" cy="249.554" fill="#8db9c2" rx="225.54" ry="112.77"/><path d="m256 331.568c-54.757 0-107.872-10.855-145.726-29.782-30.718-15.36-49.058-34.885-49.058-52.232s18.34-36.872 49.058-52.232c37.855-18.927 90.97-29.782 145.726-29.782s107.872 10.855 145.726 29.782c30.718 15.36 49.058 34.885 49.058 52.232s-18.34 36.872-49.058 52.232c-37.854 18.927-90.969 29.782-145.726 29.782z" fill="#c9e2e7"/><path d="m77.074 279.288c8.249 7.953 19.487 15.641 33.2 22.498 37.855 18.927 90.97 29.782 145.726 29.782s107.872-10.855 145.726-29.782c13.714-6.857 24.951-14.545 33.2-22.498-2.921-15.987-19.166-33.245-44.705-47.11-34.866-18.927-83.788-29.782-134.222-29.782s-99.355 10.855-134.222 29.782c-25.538 13.865-41.782 31.123-44.703 47.11z" fill="#fdcb82"/><path d="m426.376 261.209c-8.922 7.525-20.125 14.763-33.287 21.344-44.195 22.097-106.207 34.771-170.135 34.771-36.576 0-72.519-4.156-104.862-11.844 37.169 16.637 86.822 26.089 137.908 26.089 54.757 0 107.872-10.855 145.726-29.782 13.714-6.857 24.951-14.545 33.2-22.498-1.083-5.932-4.004-12.038-8.55-18.08z" fill="#fcb143"/></g><g><g><path d="m233.249 260.222c-2.916 0-5.699-1.686-6.959-4.522-1.704-3.834.016-8.323 3.843-10.038 1.959-.891 7.527-4.075 9.831-8.106 2.085-3.649 6.736-4.918 10.385-2.833 3.65 2.085 4.918 6.734 2.833 10.385-5.188 9.08-15.667 13.933-16.844 14.456-1.006.447-2.057.658-3.089.658z" fill="#7fd061"/></g><path d="m236.522 259.806c-3.05 17.285-23.975 25.629-52.284 25.629s-56.535-9.247-50.234-25.629c5.126-13.327 27.392-10.787 54.335-19.478 31.78-10.252 51.258 2.05 48.183 19.478z" fill="#fc8086"/><path d="m226.219 240.054c.328 2.033.311 4.185-.084 6.424-3.05 17.285-23.975 25.63-52.284 25.63-15.487 0-30.934-2.773-40.732-7.962-.214 13.665 25.415 21.29 51.118 21.29 28.31 0 49.234-8.345 52.284-25.629 1.493-8.46-2.34-15.702-10.302-19.753z" fill="#fb636f"/></g><g><ellipse cx="305.209" cy="248.529" fill="#7fd061" rx="20.504" ry="13.327"/></g><g><ellipse cx="369.795" cy="268.007" fill="#7fd061" rx="20.504" ry="13.327"/></g><g><ellipse cx="273.428" cy="292.612" fill="#7fd061" rx="20.504" ry="13.327"/></g><g><path d="m260.101 117.741c-4.204 0-7.611-3.407-7.611-7.611 0-4.18-1.092-5.887-2.9-8.713-2.237-3.497-5.301-8.284-5.301-16.92 0-8.634 3.064-13.422 5.301-16.919 1.809-2.826 2.9-4.532 2.9-8.713 0-4.179-1.092-5.885-2.9-8.711-2.237-3.496-5.301-8.283-5.301-16.918 0-8.633 3.064-13.42 5.301-16.916 1.808-2.826 2.9-4.531 2.9-8.711 0-4.204 3.408-7.611 7.611-7.611 4.204 0 7.612 3.407 7.612 7.611 0 8.634-3.064 13.421-5.301 16.917-1.808 2.826-2.9 4.53-2.9 8.71s1.092 5.886 2.9 8.712c2.237 3.496 5.301 8.282 5.301 16.917s-3.064 13.422-5.301 16.919c-1.809 2.826-2.9 4.531-2.9 8.713s1.092 5.888 2.9 8.715c2.237 3.496 5.301 8.283 5.301 16.918-.001 4.204-3.409 7.611-7.612 7.611z" fill="#fdcb82"/></g><g><path d="m316.486 117.741c-4.204 0-7.611-3.407-7.611-7.611 0-4.18-1.092-5.887-2.9-8.713-2.237-3.497-5.301-8.284-5.301-16.92s3.064-13.422 5.301-16.919c1.809-2.826 2.9-4.532 2.9-8.713 0-4.179-1.092-5.885-2.9-8.711-2.237-3.496-5.302-8.283-5.302-16.918 0-4.204 3.408-7.611 7.611-7.611 4.204 0 7.612 3.407 7.612 7.611 0 4.18 1.092 5.886 2.9 8.712 2.237 3.496 5.301 8.282 5.301 16.917s-3.064 13.422-5.301 16.919c-1.809 2.826-2.9 4.532-2.9 8.713s1.092 5.887 2.9 8.714c2.237 3.497 5.301 8.284 5.301 16.919 0 4.204-3.408 7.611-7.611 7.611z" fill="#fdcb82"/></g><g><path d="m202.691 117.741c-4.204 0-7.611-3.407-7.611-7.611 0-4.18-1.092-5.887-2.9-8.713-2.237-3.497-5.301-8.284-5.301-16.92s3.064-13.422 5.301-16.919c1.809-2.826 2.9-4.532 2.9-8.713 0-4.179-1.092-5.885-2.9-8.711-2.237-3.496-5.302-8.283-5.302-16.918 0-4.204 3.408-7.611 7.612-7.611s7.611 3.407 7.611 7.611c0 4.18 1.092 5.886 2.9 8.712 2.237 3.496 5.301 8.282 5.301 16.917s-3.064 13.422-5.301 16.919c-1.809 2.826-2.9 4.532-2.9 8.713s1.092 5.887 2.9 8.714c2.237 3.497 5.301 8.284 5.301 16.919 0 4.204-3.408 7.611-7.611 7.611z" fill="#fdcb82"/></g></g></svg>