<svg fill="none" height="24" viewBox="0 0 24 24" width="24" xmlns="http://www.w3.org/2000/svg"><path d="m12 1c-6.07513 0-11 4.92487-11 11 0 6.0751 4.92487 11 11 11 6.0751 0 11-4.9249 11-11 0-6.07513-4.9249-11-11-11z" fill="#f5eefd"/><g clip-rule="evenodd" fill-rule="evenodd"><path d="m1 12c0-6.07513 4.92487-11 11-11 .86 0 1.6969.09868 2.5.28533-4.8707 1.13197-8.5 5.49949-8.5 10.71467 0 5.2152 3.6293 9.5827 8.5 10.7147-.8031.1866-1.64.2853-2.5.2853-6.07513 0-11-4.9249-11-11z" fill="#e5d1fa"/><path d="m12 3c-4.97056 0-9 4.02944-9 9 0 4.9706 4.02944 9 9 9 4.9706 0 9-4.0294 9-9 0-4.97056-4.0294-9-9-9zm-11 9c0-6.07513 4.92487-11 11-11 6.0751 0 11 4.92487 11 11 0 6.0751-4.9249 11-11 11-6.07513 0-11-4.9249-11-11z" fill="#9545ed"/><path d="m11 8.14087v-3.14087h2v7c0 .4557-.3081.8537-.7492.968s-.9037-.084-1.125-.4824l-2.49996-4.49996 1.74836-.97128z" fill="#9545ed"/></g></svg>