<svg xmlns="http://www.w3.org/2000/svg" version="1.1" xmlns:xlink="http://www.w3.org/1999/xlink" width="512" height="512" x="0" y="0" viewBox="0 0 453.54 453.54" style="enable-background:new 0 0 512 512" xml:space="preserve" class=""><g><path d="M362.42 77.047C334.061 29.522 282.027-.001 226.627-.001c-28.373 0-56.316 7.724-80.807 22.335-74.797 44.63-99.341 141.794-54.711 216.595l124.158 208.084a13.388 13.388 0 0 0 22.994 0l124.172-208.111c29.706-50.038 29.698-112.057-.013-161.855zm-22.994 148.161-112.66 188.815-112.662-188.815c-37.066-62.121-16.682-142.814 45.438-179.88 20.342-12.137 43.539-18.554 67.086-18.554 46.023 0 89.246 24.521 112.799 63.992 24.675 41.358 24.669 92.882-.001 134.442z" fill="#ff0800" opacity="1" data-original="#000000" class=""></path><path d="M226.732 78.694c-43.053 0-78.08 35.028-78.08 78.083 0 43.054 35.027 78.081 78.08 78.081 43.055 0 78.082-35.027 78.082-78.081 0-43.055-35.027-78.083-78.082-78.083zm0 129.388c-28.289 0-51.303-23.015-51.303-51.304 0-28.291 23.014-51.307 51.303-51.307 28.291 0 51.307 23.016 51.307 51.307 0 28.288-23.016 51.304-51.307 51.304z" fill="#ff0800" opacity="1" data-original="#000000" class=""></path></g></svg>