<svg fill="none" height="64" viewBox="0 0 64 64" width="64" xmlns="http://www.w3.org/2000/svg" xmlns:xlink="http://www.w3.org/1999/xlink"><linearGradient id="paint0_linear_1798_3803" gradientUnits="userSpaceOnUse" x1="69.315" x2="15.557" y1="74.123" y2="23.811"><stop offset=".00265844" stop-color="#ff37df"/><stop offset="1" stop-color="#6e00ff"/></linearGradient><path clip-rule="evenodd" d="m29.7851 60.7878c-.6209-.5101-1.5022-1.2539-2.5571-2.1989-2.107-1.8875-4.9208-4.5903-7.7404-7.8489-5.5549-6.4197-11.4876-15.3979-11.4876-24.74 0-13.2548 10.7452-24 24-24s24 10.7452 24 24c0 9.3421-5.9327 18.3203-11.4876 24.74-2.8196 3.2586-5.6334 5.9614-7.7404 7.8489-1.0549.945-1.9362 1.6888-2.5571 2.1989-.6194.5089-1.2838 1.1751-2.1302 1.2104-.0282.0012-.0564.0018-.0847.0018-.8846 0-1.573-.6847-2.2149-1.2122zm2.2149-42.7878c-4.9706 0-9 4.0294-9 9s4.0294 9 9 9 9-4.0294 9-9-4.0294-9-9-9z" fill="url(#paint0_linear_1798_3803)" fill-rule="evenodd"/></svg>