<svg enable-background="new 0 0 3873 3873" height="512" viewBox="0 0 3873 3873" width="512" xmlns="http://www.w3.org/2000/svg"><g id="Layer_1" clip-rule="evenodd" fill-rule="evenodd"><path d="m557.9 53.1h2761.2c279.8 0 508.7 228.9 508.7 508.7v2761.2c0 279.8-228.9 508.7-508.7 508.7h-2761.2c-279.8 0-508.7-228.9-508.7-508.7v-2761.3c.1-279.7 229-508.6 508.7-508.6z" fill="#ec407a"/><g fill="#fff"><path d="m1839.7 2227.2c-13 0-25.2-5.8-33.4-15.8l-749.6-916c-10.6-12.9-12.8-30.8-5.6-45.8 7.1-15.1 22.3-24.7 39-24.7h1499.3c16.7 0 31.9 9.6 39 24.7s5 32.9-5.6 45.8l-749.6 916c-8.2 10-20.5 15.8-33.5 15.8zm-658.5-916 658.5 804.6 658.5-804.6z"/><path d="m2208.4 3200h-737.3c-18.4 0-34.8-11.7-40.8-29.1s-.3-36.7 14.2-48.1l368.6-288.9c15.6-12.3 37.6-12.3 53.3 0l368.6 288.9c14.5 11.4 20.2 30.7 14.2 48.1s-22.4 29.1-40.8 29.1zm-612.2-86.3h487l-243.5-190.8z"/><path d="m2420.7 1517.3h-1162c-23.8 0-43.2-19.3-43.2-43.2 0-23.8 19.3-43.2 43.2-43.2h1162c23.8 0 43.2 19.3 43.2 43.2s-19.3 43.2-43.2 43.2z"/><path d="m1839.7 2911.1c-23.8 0-43.2-19.3-43.2-43.2v-684c0-23.8 19.3-43.2 43.2-43.2 23.8 0 43.2 19.3 43.2 43.2v684c0 23.9-19.3 43.2-43.2 43.2z"/><path d="m1551.1 1517.3c-17.3 0-33.5-10.4-40.2-27.4l-229.6-586.3c-31.6-80.6-107.9-132.6-194.4-132.6h-163.6c-23.8 0-43.2-19.3-43.2-43.2s19.3-43.2 43.2-43.2h163.7c59.6 0 117.1 17.7 166.3 51.3s86.7 80.6 108.4 136.1l229.6 586.3c8.7 22.2-2.3 47.3-24.5 56-5.2 2-10.5 3-15.7 3z"/><path d="m2589.3 1675.7c-47.9 0-94.8-8.2-139.4-24.5-43.1-15.7-83.1-38.5-118.7-67.7-18.4-15.1-21.2-42.3-6-60.8 15.1-18.5 42.3-21.2 60.8-6 57.2 46.8 129.4 72.6 203.4 72.6 85.8 0 166.5-33.4 227.2-94.1s94.1-141.4 94.1-227.2-33.4-166.5-94.1-227.2-141.4-94.1-227.2-94.1-166.5 33.4-227.2 94.1-94.1 141.4-94.1 227.2c0 23.8-19.3 43.2-43.2 43.2-23.8 0-43.2-19.3-43.2-43.2 0-55 10.8-108.4 32.1-158.7 20.5-48.6 49.9-92.1 87.4-129.6 37.4-37.4 81-66.8 129.6-87.4 50.3-21.3 103.7-32.1 158.7-32.1s108.4 10.8 158.7 32.1c48.6 20.5 92.1 49.9 129.6 87.4 37.4 37.4 66.8 81 87.4 129.6 21.3 50.3 32.1 103.7 32.1 158.7s-10.8 108.4-32.1 158.7c-20.5 48.6-49.9 92.1-87.4 129.6-37.4 37.4-81 66.8-129.6 87.3-50.5 21.3-103.9 32.1-158.9 32.1z"/><path d="m2589.3 1675.7c-23.8 0-43.2-19.3-43.2-43.2v-729c0-23.8 19.3-43.2 43.2-43.2 23.8 0 43.2 19.3 43.2 43.2v729c0 23.8-19.3 43.2-43.2 43.2z"/><path d="m2953.8 1311.2h-729c-23.8 0-43.2-19.3-43.2-43.2 0-23.8 19.3-43.2 43.2-43.2h729c23.8 0 43.2 19.3 43.2 43.2 0 23.8-19.3 43.2-43.2 43.2z"/><path d="m2589.3 1311.2c-11 0-22-4.2-30.4-12.5-16.9-16.8-17.1-44.1-.3-61 0 0 .1-.1.2-.2l257.7-257.7c16.9-16.9 44.2-16.9 61.1 0s16.9 44.2 0 61.1l-257.7 257.7c-8.4 8.3-19.5 12.6-30.6 12.6z"/><path d="m2847 1568.9c-11.1 0-22.1-4.2-30.5-12.6l-515.5-515.5c-16.9-16.9-16.9-44.2 0-61.1s44.2-16.9 61.1 0l515.5 515.5c16.9 16.9 16.9 44.2 0 61.1-8.4 8.4-19.5 12.6-30.6 12.6z"/></g></g></svg>