<svg id="Layer_1" height="512" viewBox="0 0 256 256" width="512" xmlns="http://www.w3.org/2000/svg"><g><path d="m182.097 242.742h-108.194c-26.456 0-49.192-18.77-54.202-44.748l-1.37-7.105h219.339l-1.37 7.105c-5.011 25.978-27.747 44.748-54.203 44.748z" fill="#cecece"/><g><path d="m34.701 197.994-1.37-7.105h-15l1.37 7.105c5.01 25.977 27.746 44.748 54.202 44.748h15c-26.456 0-49.192-18.771-54.202-44.748z" fill="#afafaf"/></g><g><path d="m221.299 197.994 1.37-7.105h15l-1.37 7.105c-5.01 25.977-27.746 44.748-54.202 44.748h-15c26.456 0 49.193-18.771 54.202-44.748z" fill="#e2e2e2"/></g><path d="m236.796 199.277h-217.592c-9.662 0-17.495-7.833-17.495-17.495v-12.33h252.582v12.33c0 9.662-7.833 17.495-17.495 17.495z" fill="#cecece"/><g><path d="m16.709 181.782v-12.33h-15v12.33c0 9.662 7.833 17.495 17.495 17.495h15c-9.662 0-17.495-7.833-17.495-17.495z" fill="#afafaf"/></g><g><path d="m239.291 181.782v-12.33h15v12.33c0 9.662-7.833 17.495-17.495 17.495h-15c9.662 0 17.495-7.833 17.495-17.495z" fill="#e2e2e2"/></g><path d="m166.075 88.156h-76.15c-37.388 0-67.697 30.309-67.697 67.696v13.6h211.542v-13.6c.001-37.387-30.308-67.696-67.695-67.696z" fill="#f8af23"/><g><path d="m104.925 88.156h-15c-37.388 0-67.696 30.309-67.696 67.697v13.599h15v-13.599c0-37.389 30.309-67.697 67.696-67.697z" fill="#f87023"/></g><g><path d="m151.075 88.156h15c37.388 0 67.696 30.309 67.696 67.697v13.599h-15v-13.599c0-37.389-30.309-67.697-67.696-67.697z" fill="#f8d323"/></g><g fill="#3f3679"><path d="m20.748 252.932h-19.18c-.829 0-1.5.671-1.5 1.5s.671 1.5 1.5 1.5h19.179c.829 0 1.5-.671 1.5-1.5s-.671-1.5-1.499-1.5z"/><path d="m254.432 252.932h-19.179c-.829 0-1.5.671-1.5 1.5s.671 1.5 1.5 1.5h19.179c.829 0 1.5-.671 1.5-1.5s-.672-1.5-1.5-1.5z"/><path d="m224.389 252.932h-192.778c-.829 0-1.5.671-1.5 1.5s.671 1.5 1.5 1.5h192.778c.829 0 1.5-.671 1.5-1.5s-.671-1.5-1.5-1.5z"/><path d="m.068 242.742c0 .829.671 1.5 1.5 1.5h72.334 108.194 72.334c.829 0 1.5-.671 1.5-1.5s-.671-1.5-1.5-1.5h-54.009c18.068-6.099 32.159-21.05 36.804-40.487 10.274-.232 18.565-8.645 18.565-18.973v-12.33c0-.829-.671-1.5-1.5-1.5h-19.02v-12.1c0-38.155-31.042-69.196-69.197-69.196h-76.148c-38.155 0-69.197 31.042-69.197 69.196v12.1h-19.019c-.829 0-1.5.671-1.5 1.5v12.33c0 10.328 8.289 18.74 18.562 18.973 4.645 19.431 18.756 34.387 36.822 40.487h-54.025c-.828 0-1.5.672-1.5 1.5zm176.847-152.184-19.664 19.664-12.504-12.505 8.062-8.063h13.266c3.692.002 7.311.32 10.84.904zm-61.419 7.16 8.063-8.063h8.884l8.063 8.063-12.506 12.505zm10.383 14.626-12.504 12.505-12.505-12.505 12.504-12.505zm-12.505-16.747-5.941-5.941h11.883zm23.31-5.941h11.883l-5.941 5.941zm5.942 10.183 12.504 12.505-12.505 12.505-12.504-12.505zm-39.435-10.183 8.062 8.063-12.504 12.505-19.664-19.666c3.53-.584 7.148-.903 10.841-.903h13.265zm-79.462 66.196c0-31.558 22.205-58.012 51.807-64.602.001.001.002.003.003.004l21.09 21.09-22.84 22.84c-.586.585-.586 1.536 0 2.121.293.293.677.439 1.061.439s.768-.146 1.061-.439l22.84-22.84 12.505 12.505-8.214 8.214c-.586.585-.586 1.536 0 2.121.293.293.677.439 1.061.439s.768-.146 1.061-.439l8.214-8.214 8.214 8.214c.293.293.677.439 1.061.439s.768-.146 1.061-.439c.586-.585.586-1.536 0-2.121l-8.214-8.214 12.5-12.505 12.504 12.505-8.214 8.214c-.586.585-.586 1.536 0 2.121.293.293.677.439 1.061.439s.768-.146 1.061-.439l8.214-8.214 8.214 8.214c.293.293.677.439 1.061.439s.768-.146 1.061-.439c.586-.585.586-1.536 0-2.121l-8.214-8.214 12.505-12.505 22.84 22.84c.293.293.677.439 1.061.439s.768-.146 1.061-.439c.586-.585.586-1.536 0-2.121l-22.84-22.84 21.094-21.094c29.602 6.591 51.806 33.044 51.806 64.602v12.1h-208.546zm-20.52 25.93v-10.83h19.02 211.543 19.02v10.83c0 8.82-7.175 15.995-15.995 15.995h-217.593c-8.82 0-15.995-7.175-15.995-15.995zm18.661 18.995h212.261c-6.05 23.895-27.241 40.465-52.033 40.465h-108.195c-24.766 0-45.982-16.58-52.033-40.465z"/><path d="m127.258 35.461c2.462 1.402 4.191 3.69 4.867 6.442s.205 5.581-1.328 7.964l-9.148 14.231c-.448.697-.246 1.625.451 2.073.251.162.532.238.81.238.493 0 .977-.243 1.263-.689l9.148-14.231c1.982-3.083 2.592-6.743 1.718-10.302-.875-3.56-3.111-6.52-6.296-8.333-2.402-1.368-4.114-3.592-4.822-6.265s-.32-5.453 1.09-7.831l9.747-16.425c.423-.712.188-1.633-.524-2.056-.712-.422-1.633-.188-2.056.524l-9.747 16.425c-1.825 3.076-2.326 6.673-1.411 10.13.916 3.458 3.13 6.336 6.238 8.105z"/><path d="m82.301 50.837c1.05.599 1.788 1.575 2.076 2.749.289 1.174.087 2.381-.566 3.398l-4.574 7.115c-.448.697-.246 1.625.451 2.073.251.162.532.238.81.238.493 0 .977-.243 1.263-.689l4.574-7.115c1.104-1.717 1.443-3.753.957-5.735s-1.732-3.63-3.505-4.64c-1.025-.583-1.755-1.532-2.057-2.672s-.137-2.327.465-3.341l4.873-8.213c.423-.713.188-1.633-.524-2.056-.713-.423-1.632-.188-2.056.524l-4.873 8.213c-1.016 1.712-1.295 3.715-.785 5.64.508 1.924 1.741 3.526 3.471 4.511z"/><path d="m172.214 50.837c1.05.598 1.788 1.574 2.077 2.748.288 1.174.087 2.381-.566 3.398l-4.574 7.115c-.448.697-.246 1.625.451 2.073.251.162.532.238.81.238.493 0 .977-.243 1.263-.689l4.574-7.115c1.104-1.717 1.443-3.754.956-5.736-.487-1.981-1.732-3.629-3.505-4.639-1.024-.583-1.755-1.532-2.057-2.672s-.136-2.326.465-3.34l4.874-8.213c.423-.712.188-1.633-.524-2.056s-1.633-.188-2.056.524l-4.874 8.213c-1.016 1.712-1.295 3.715-.785 5.639.508 1.925 1.741 3.527 3.471 4.512z"/></g></g></svg>