<svg id="Layer_1" enable-background="new 0 0 510 510" height="512" viewBox="0 0 510 510" width="512" xmlns="http://www.w3.org/2000/svg"><g><g><path d="m255 0c-98.131 0-158.58 55.352-158.747 55.445 0 0-2.513 3.137-2.983 5.222-3.818 16.948-7.385 39.663-7.385 56.238 0 140.833 118.763 254.972 259.596 254.972 54.231 0 114.568-25.992 154.949-57.243.903-.699 3.769-5.396 3.769-5.396.178-1.087 5.8-23.477 5.8-54.239.001-140.832-114.166-254.999-254.999-254.999z" fill="#dd4fb1"/><path d="m345.459 364.679c-140.833 0-255-114.167-255-255 0-18.615 2.008-36.753 5.795-54.234-58.645 46.72-96.254 118.747-96.254 199.555 0 131.855 100.076 240.337 228.416 253.631l19.643-10.828 23.528 11.663c113.882-7.344 208.682-89.768 232.613-200.228-43.56 34.696-98.725 55.441-158.741 55.441z" fill="#da2ea2"/></g><g><path d="m255 510c5.57 0 11.1-.183 16.587-.537v-105.826c-7.163-6.671-14.018-14.809-20.502-24.262h-22.668v129.25c8.738.905 17.605 1.375 26.583 1.375z" fill="#5fd2d0"/><path d="m381.319 118.727h-190.921v231.334c0 60.083 40.299 112.697 98.307 128.35 54.803-37.074 94.958-157.565 94.958-300.483 0-20.241-.806-40.033-2.344-59.201z" fill="#b6fff6"/><path d="m193.743 177.929c0-20.242.806-40.033 2.344-59.202h-71.236c-1.539 19.169-2.344 38.96-2.344 59.202 0 172.446 58.462 312.241 130.578 312.241 12.348 0 24.295-4.102 35.618-11.761-54.804-37.073-94.96-157.562-94.96-300.48z" fill="#78e9e1"/><path d="m204.129 206.45c-27.823 24.889-7.587 191.823 49.289 210.766 38.418 12.795 64.97-13.211 79.847-36.116 17.789-45.962 28.753-107.248 29.043-174.65z" fill="#ffd23c"/><path d="m308.188 388.025c-48.716 0-89.978-76.258-104.059-181.575h-60.266c.615 142.999 49.276 258.472 109.223 258.472 31.69 0 60.223-32.277 80.175-83.824-8.052 4.522-16.445 6.927-25.073 6.927z" fill="#ecc32e"/><circle cx="257.831" cy="262.771" fill="#ffe65a" r="15.566"/><circle cx="305.111" cy="314.576" fill="#ffe65a" r="13.276"/><circle cx="197.428" cy="324.136" fill="#ffd23c" r="14.313"/><circle cx="252.1" cy="410.714" fill="#ffd23c" r="19.298"/><path d="m365.977 93.567h-133.271c4.5 5.636 7.252 12.788 7.596 20.458.443 9.897-4.536 18.967-12.012 25.002h137.687c12.553 0 22.73-10.177 22.73-22.73 0-12.554-10.176-22.73-22.73-22.73z" fill="#fff"/><path d="m258.761 116.296c0-12.553-10.176-22.73-22.73-22.73h-97.101c-12.553 0-22.73 10.176-22.73 22.73 0 12.553 10.177 22.73 22.73 22.73h97.102c12.553 0 22.729-10.176 22.729-22.73z" fill="#e9f9ff"/><g><path d="m257.831 208.292c1.22.866 2.453 1.721 3.713 2.55 57.431 37.78 134.615 21.85 172.395-35.582s21.85-134.615-35.582-172.395c-1.26-.829-2.533-1.623-3.812-2.4l-10.031 15.249-.851 126.934-115.801 50.395z" fill="#fa870a"/><path d="m267.862 193.043c1.214.873 2.446 1.731 3.707 2.56 49.015 32.243 114.888 18.647 147.131-30.367 32.243-49.015 18.648-114.888-30.367-147.131-1.261-.83-2.536-1.621-3.818-2.39z" fill="#ffe65a"/><g fill="#ffa50a"><path d="m339.183 108.935 33.344 66.407c2.915 5.805 10.455 7.457 15.506 3.373 7.237-5.851 13.706-12.903 19.094-21.093 6.643-10.099 11.045-21.02 13.332-32.181 1.254-6.121-3.141-11.948-9.379-12.312z"/><path d="m331.268 112.909-42.067 63.948c-3.512 5.339-1.283 12.509 4.594 15.017 21.125 9.013 44.38 9.584 65.321 2.631 5.923-1.966 8.755-8.697 5.955-14.274z"/><path d="m339.698 100.093 70.826 4.131c6.508.38 11.685-5.361 10.665-11.8-3.117-19.679-12.553-38.3-27.634-52.581-4.577-4.335-11.99-3.395-15.454 1.872z"/></g></g></g></g></svg>