<svg height="512" viewBox="0 0 64 64" width="512" xmlns="http://www.w3.org/2000/svg"><g id="Partly_Cloudy" data-name="Partly Cloudy"><path d="m48.31267 32a16.52054 16.52054 0 1 1 -6.04-12.75c.1.07.2.16.3.24a16.44392 16.44392 0 0 1 5.74 12.51z" fill="#ffb433"/><path d="m45.31267 29a16.50348 16.50348 0 0 1 -16.5 16.5q-.615 0-1.2-.03c-3.55-.16-6.31-1.05-8.31-2.71a16.44827 16.44827 0 0 1 -3.95-9.73c-.03-.34-.04-.68-.04-1.03a16.501 16.501 0 0 1 27.26-12.51c1.83997 2.22 2.74 5.38 2.74 9.51z" fill="#fddb3a"/><path d="m17.96366 27.80168a13.81547 13.81547 0 0 1 6.72158-8.68162 1.00016 1.00016 0 0 1 .96336 1.753 11.80756 11.80756 0 0 0 -5.7464 7.41929.99984.99984 0 0 1 -1.93854-.49067z" fill="#fff"/><path d="m30.81267 11v-6a1 1 0 0 1 2 0v6a1 1 0 0 1 -2 0zm-8.63379 2.31348-2-3.46436a1.00019 1.00019 0 0 0 -1.73242 1l2 3.46436a1.00017 1.00017 0 0 0 1.73242-1zm-11.36621 17.68652h-4a1 1 0 0 0 0 2h4a1 1 0 0 0 0-2zm9.36621 23.15088 2-3.46436a1.0002 1.0002 0 0 0 -1.73242-1l-2 3.46436a1.00021 1.00021 0 0 0 1.73242 1zm25-1-2-3.46436a1.00019 1.00019 0 0 0 -1.73242 1l2 3.46436a1.00017 1.00017 0 0 0 1.73242-1zm11.63379-22.15088h-4a1 1 0 0 0 0 2h4a1 1 0 0 0 0-2zm-13.63379-16.68652 2-3.46436a1.0002 1.0002 0 0 0 -1.73242-1l-2 3.46436a1.00023 1.00023 0 0 0 1.73242 1zm-29.05274 6.32031-5.19629-3a1.0002 1.0002 0 0 0 -1 1.73242l5.19629 3a1.00018 1.00018 0 0 0 1-1.73242zm18.68653 38.36621v-6a1 1 0 0 0 -2 0v6a1 1 0 0 0 2 0zm22.88281-14.36621-5.19629-3a1.00019 1.00019 0 0 0 -1 1.73242l5.19629 3a1.00018 1.00018 0 0 0 1-1.73242z" fill="#ffb433"/><path d="m28.69921 18.93457a1 1 0 1 1 -1.0173-.9824 1 1 0 0 1 1.0173.9824z" fill="#fff"/><path d="m48.19267 29.99h-7.96a4.08762 4.08762 0 0 1 -.31-8.16 3.78209 3.78209 0 0 1 1.12.07.478.478 0 0 0 .58-.42 6.62337 6.62337 0 0 1 .65-2.23c.1.07.2.16.3.24a16.53634 16.53634 0 0 1 5.62 10.5z" fill="#ffb433"/><path d="m41.2669 28.99686h13.824a4.91606 4.91606 0 0 0 4.91292-4.01441 4.82166 4.82166 0 0 0 -5.20029-5.57221.4887.4887 0 0 1 -.50055-.30262 6.60009 6.60009 0 0 0 -6.116-4.08131c-3.38783 0-5.18482 2.83751-5.562 6.09869a.46848.46848 0 0 1 -.56719.398 4.02232 4.02232 0 0 0 -1.0968-.06875 3.68567 3.68567 0 0 0 -3.61954 3.08657 3.94163 3.94163 0 0 0 3.92545 4.45604z" fill="#00c4d4"/><path d="m40.2669 28.99686h13.824a4.91606 4.91606 0 0 0 4.91292-4.01441c.50485-3.15176-1.51219-5.15675-4.62865-4.8887a.48868.48868 0 0 1 -.50055-.30262c-.98146-2.39468-2.9215-4.76482-5.68765-4.76482a6.58275 6.58275 0 0 0 -6.55664 5.79385.46849.46849 0 0 1 -.56719.398 4.02143 4.02143 0 0 0 -1.09679-.06875 3.92836 3.92836 0 0 0 .30055 7.84745z" fill="#a1e2de"/><path d="m28.40269 43.52a4.73067 4.73067 0 0 1 -.79 1.95c-3.55-.16-6.31-1.05-8.31-2.71a16.44827 16.44827 0 0 1 -3.95-9.73 5.12542 5.12542 0 0 1 .56-.03 6.9541 6.9541 0 0 1 6.46 4.31.52514.52514 0 0 0 .53.32 5.09985 5.09985 0 0 1 5.5 5.89z" fill="#ffb433"/><path d="m7.89293 47.98527h14.824a4.91606 4.91606 0 0 0 4.91292-4.01442 4.82166 4.82166 0 0 0 -5.20029-5.57221.48868.48868 0 0 1 -.50056-.30264 6.61389 6.61389 0 0 0 -12.67264 1.71258.46848.46848 0 0 1 -.56719.398 4.02229 4.02229 0 0 0 -1.0968-.06875 3.92836 3.92836 0 0 0 .30056 7.84745z" fill="#00c4d4"/><path d="m7.89293 47.98527h13.824a4.91606 4.91606 0 0 0 4.91292-4.01442c.50485-3.15175-1.51219-5.15674-4.62865-4.8887a.48868.48868 0 0 1 -.50055-.30261c-.98146-2.39469-2.9215-4.76483-5.68765-4.76483a6.58275 6.58275 0 0 0 -6.55664 5.79386.46848.46848 0 0 1 -.56719.398 4.02229 4.02229 0 0 0 -1.0968-.06875 3.92836 3.92836 0 0 0 .30056 7.84745z" fill="#a1e2de"/></g></svg>