<svg id="Layer_1" enable-background="new 0 0 100 100" viewBox="0 0 100 100" xmlns="http://www.w3.org/2000/svg"><path d="m57.8175163 94.9685822c4.3765984 1.2658691 8.9057655 1.9272385 13.4615974 1.9657059 7.4053192.2734909 14.6522903-2.1879807 20.3591232-6.9150848 5.0897903-4.4754944 7.0203934-10.3550797 5.1775436-16.1117935-1.1759109-3.8261185-6.6167221-5.7216187-9.7583466-6.5114136-11.4081345-2.8608093-13.9003677-3.5101929-19.5868912-5.1599846-3.5101929-1.0004044-5.6338577 2.2465248-7.1432419 4.5983543-.8248978 1.2636719-2.5097923 3.8787689-3.2995872 3.6857071-10.4428251-2.7379609-23.4305456-19.5166894-27.4848192-26.6072846 1.7909031-1.9924965 3.8528118-3.7235527 6.1252918-5.142437 2.0183601-1.421627 3.7559052-2.6501961 3.1416206-5.1073341-.6142845-2.4571342-5.7216187-22.8162689-5.9848824-23.8868752-2.0359116-7.6873293-5.5461082-7.318759-12.1979275-5.9673338l-1.4742813.2983668c-6.844883 1.386528-12.2856827 6.6869226-14.9358807 14.5673122-3.808562 11.2852783-2.246525 31.2582874 14.6726151 50.4239502 11.3028279 12.8648727 25.1329995 22.0089233 38.9280663 25.8701447z" fill="#ac00ce"/></svg>