<svg viewBox="0 0 64 64" xmlns="http://www.w3.org/2000/svg"><g id="Layer_16" data-name="Layer 16"><path d="m18.82 30.16a9.56 9.56 0 0 0 -13.52 0 9.55 9.55 0 0 0 0 13.51c1.18 1.19 17.7 14.62 24.9 14.62a3.27 3.27 0 0 0 2.4-.84c1.4-1.35 2.08-4.21-4.32-14.45a96.15 96.15 0 0 0 -9.46-12.84zm-6.76 10.45a3.69 3.69 0 1 1 3.69-3.69 3.69 3.69 0 0 1 -3.69 3.69z" fill="#78b9eb"/><path d="m58.7 12.66a9.56 9.56 0 0 0 -13.52 0 96.15 96.15 0 0 0 -9.46 12.85c-6.4 10.23-5.67 13.09-4.32 14.49a3.26 3.26 0 0 0 2.4.84c7.23 0 23.72-13.43 24.9-14.62a9.55 9.55 0 0 0 0-13.51zm-6.76 10.45a3.69 3.69 0 1 1 3.69-3.69 3.69 3.69 0 0 1 -3.69 3.69z" fill="#78b9eb"/><g fill="#006df0"><path d="m8.64 33.5a4.84 4.84 0 0 0 0 6.83 4.83 4.83 0 0 0 6.84 0 4.83 4.83 0 0 0 -6.84-6.83zm4.72 4.71a1.87 1.87 0 0 1 -2.6 0 1.83 1.83 0 1 1 3.13-1.29 1.81 1.81 0 0 1 -.53 1.29z"/><path d="m18.82 30.16a9.56 9.56 0 0 0 -13.52 0 9.55 9.55 0 0 0 0 13.51c1.18 1.19 17.7 14.62 24.9 14.62a3.27 3.27 0 0 0 2.4-.84c1.4-1.35 2.08-4.21-4.32-14.45a96.15 96.15 0 0 0 -9.46-12.84zm11.69 25.15c-2.51 1.33-18.77-9.44-23.09-13.76a6.56 6.56 0 0 1 9.28-9.27c4.3 4.31 15.08 20.59 13.81 23.03z"/><path d="m48.52 16a4.84 4.84 0 0 0 0 6.83 4.83 4.83 0 1 0 0-6.83zm4.72 4.71a1.87 1.87 0 0 1 -2.6 0 1.81 1.81 0 0 1 -.53-1.29 1.86 1.86 0 0 1 .53-1.3 1.83 1.83 0 0 1 2.6 2.59z"/><path d="m58.7 12.66a9.56 9.56 0 0 0 -13.52 0 96.15 96.15 0 0 0 -9.46 12.85c-6.4 10.23-5.67 13.09-4.32 14.49a3.26 3.26 0 0 0 2.4.84c7.23 0 23.72-13.43 24.9-14.62a9.55 9.55 0 0 0 0-13.51zm-2.12 11.39c-4.32 4.32-20.6 15.08-23 13.81-1.36-2.49 9.42-18.77 13.72-23.08a6.56 6.56 0 1 1 9.28 9.27z"/><path d="m29 18.07a6.19 6.19 0 0 0 4.39-1.82 6.2 6.2 0 1 0 -4.39 1.82zm-2.27-8.49a3.21 3.21 0 1 1 0 4.55 3.22 3.22 0 0 1 0-4.55z"/></g></g></svg>