<?xml version="1.0" encoding="iso-8859-1"?>
<!-- Generator: Adobe Illustrator 19.0.0, SVG Export Plug-In . SVG Version: 6.00 Build 0)  -->
<svg version="1.1" id="Capa_1" xmlns="http://www.w3.org/2000/svg" xmlns:xlink="http://www.w3.org/1999/xlink" x="0px" y="0px"
	 viewBox="0 0 512 512" style="enable-background:new 0 0 512 512;" xml:space="preserve">
<polygon style="fill:#FACF2A;" points="504.151,7.489 504.151,202.215 414.278,262.849 474.193,7.489 "/>
<rect x="414.277" y="7.489" style="fill:#FDE855;" width="59.916" height="224.683"/>
<polygon style="fill:#A8A8A8;" points="504.151,202.215 504.151,232.173 414.278,293.526 474.193,202.215 "/>
<polygon style="fill:#C8C8C8;" points="414.278,202.215 142.661,262.13 142.661,292.807 474.193,293.526 474.193,202.215 "/>
<polygon style="fill:#3A3A3A;" points="504.151,232.173 504.151,375.69 474.193,375.69 444.236,304.291 474.193,232.173 "/>
<polygon style="fill:#555555;" points="474.193,232.173 474.193,375.69 142.661,375.69 142.661,292.807 417.543,232.173 "/>
<polygon style="fill:#737373;" points="414.278,285.817 393.307,315.775 414.278,345.732 444.236,345.732 444.236,285.817 "/>
<rect x="357.357" y="285.817" style="fill:#8A8A8A;" width="56.92" height="59.916"/>
<circle cx="474.192" cy="345.732" r="7.489"/>
<circle cx="172.618" cy="345.732" r="7.489"/>
<circle cx="474.192" cy="262.849" r="7.489"/>
<path style="fill:#1CB9FD;" d="M52.788,262.849v74.894c24.818,0,44.937-20.119,44.937-44.937L52.788,262.849z"/>
<path style="fill:#60CEFD;" d="M67.766,292.807l-14.979-29.958L7.851,292.807c0,24.818,20.119,44.937,44.937,44.937
	C61.06,337.744,67.766,317.625,67.766,292.807z"/>
<path style="fill:#FDF3A9;" d="M77.752,172.976H47.795l19.972,119.831h29.958v-99.859C97.724,181.917,88.782,172.976,77.752,172.976
	z"/>
<path style="fill:#FFFFFF;" d="M47.795,172.976H27.823c-11.03,0-19.972,8.941-19.972,19.972v99.859h59.916v-99.859
	C67.766,181.917,58.824,172.976,47.795,172.976z"/>
<path style="fill:#FDA181;" d="M52.788,53.145v89.873c24.818,0,44.937-20.119,44.937-44.937S77.606,53.145,52.788,53.145z"/>
<path style="fill:#FDC0AB;" d="M67.766,98.082c0-24.818-6.707-44.937-14.979-44.937c-24.818,0-44.937,20.119-44.937,44.937
	s20.119,44.937,44.937,44.937C61.06,143.018,67.766,122.9,67.766,98.082z"/>
<circle cx="474.192" cy="345.732" r="7.489"/>
<circle cx="172.618" cy="345.732" r="7.489"/>
<circle cx="474.192" cy="262.849" r="7.489"/>
<path d="M504.151,0h-89.873c-4.137,0-7.489,3.353-7.489,7.489v188.708l-265.741,58.619c-3.432,0.757-5.876,3.799-5.876,7.314v23.187
	h-29.958v-47.393c26.717-0.257,51.799-10.774,70.719-29.695c2.925-2.925,2.925-7.667,0-10.591c-2.925-2.925-7.667-2.925-10.591,0
	c-16.091,16.091-37.412,25.039-60.128,25.295v-29.986c0-15.143-12.319-27.461-27.461-27.461h-49.93
	c-15.143,0-27.461,12.319-27.461,27.461v99.859c0,14.249,5.722,27.182,14.979,36.64v165.075c0,3.223,2.063,6.085,5.121,7.105
	l29.958,9.986c0.786,0.262,1.584,0.386,2.37,0.386c3.136,0,6.057-1.985,7.104-5.123c1.308-3.924-0.813-8.165-4.737-9.474
	l-24.837-8.279v-148.96c6.814,3.245,14.432,5.069,22.468,5.069s15.654-1.822,22.468-5.069v154.358c0,3.223,2.063,6.085,5.121,7.105
	l29.958,9.986c0.786,0.262,1.584,0.386,2.37,0.386c3.136,0,6.057-1.985,7.104-5.123c1.308-3.924-0.813-8.165-4.737-9.474
	l-24.837-8.279V329.447c7.605-7.771,12.817-17.886,14.436-29.151h30.501v204.212c0,4.136,3.353,7.489,7.489,7.489
	s7.489-3.353,7.489-7.489V383.18H496.66v121.329c0,4.136,3.352,7.489,7.489,7.489s7.489-3.353,7.489-7.489V7.489
	C511.641,3.353,508.287,0,504.151,0z M496.662,14.979v179.747h-74.894V14.979H496.662z M27.823,180.466h49.93
	c6.883,0,12.482,5.599,12.482,12.482v28.871c-17.776-2.875-34.165-11.199-47.148-24.181c-2.925-2.926-7.667-2.925-10.591,0
	c-2.925,2.925-2.925,7.667,0,10.591c15.821,15.821,35.948,25.765,57.739,28.75v48.338H15.34v-92.37
	C15.34,186.065,20.939,180.466,27.823,180.466z M52.788,330.254c-18.084,0-33.214-12.886-36.693-29.958h73.388
	C86.002,317.368,70.872,330.254,52.788,330.254z M150.15,368.201v-69.375l268.209-59.164h55.834c4.137,0,7.489-3.353,7.489-7.489
	c0-4.136-3.352-7.489-7.489-7.489h-56.65c-0.542,0-1.083,0.059-1.613,0.176l-265.779,58.627v-15.339l264.941-58.443h81.569v158.496
	H150.15z"/>
<path d="M444.236,278.328h-86.877c-4.137,0-7.489,3.353-7.489,7.489v59.916c0,4.136,3.352,7.489,7.489,7.489h86.877
	c4.137,0,7.489-3.353,7.489-7.489v-59.916C451.725,281.681,448.372,278.328,444.236,278.328z M436.746,338.243h-71.899v-44.937
	h71.899V338.243z"/>
<path d="M52.788,150.508c28.908,0,52.426-23.518,52.426-52.426S81.696,45.656,52.788,45.656S0.361,69.173,0.361,98.082
	S23.879,150.508,52.788,150.508z M52.788,60.634c20.649,0,37.447,16.798,37.447,37.447s-16.798,37.447-37.447,37.447
	S15.34,118.731,15.34,98.082S32.139,60.634,52.788,60.634z"/>
<g>
</g>
<g>
</g>
<g>
</g>
<g>
</g>
<g>
</g>
<g>
</g>
<g>
</g>
<g>
</g>
<g>
</g>
<g>
</g>
<g>
</g>
<g>
</g>
<g>
</g>
<g>
</g>
<g>
</g>
</svg>
