<svg id="Layer_1" enable-background="new 0 0 512 512" height="512" viewBox="0 0 512 512" width="512" xmlns="http://www.w3.org/2000/svg"><g id="Layer_2_00000170253512012824828330000005647836609685565593_"><g id="_31.PumpkinEmoji"><g id="_Group_"><g id="Pumkin"><g id="Head"><path d="m357.4 13.9c-5.2-7.6-15.6-12.1-31-13.3-5.2-.4-10.2-.6-14.8-.6-43.1 0-64.2 17.6-82.6 44-8.7 12.5-15.4 34.1-20.3 56.3-4.4-5.7-9.6-10.6-15.5-14.7-6.9-4.7-14.6-8.1-22.8-9.9-10.8-2.2-21.9-1.8-32.5 1.1-5.9-5.6-14.5-7.8-23.4-8.8-18.6-1.9-42 8.9-42 8.9s43 10.9 42.3 16.7c-5.6 9.5-6.2 21.5-4.1 28.2 1.9 6.2 8.5 16.4 19.1 18.6 4.3.9 12.6 1.2 20.6-7.4 8.7-9.5 9.5-21.8 7.4-30.5 2.8.1 5.7.5 8.4 1.1 3.8.8 7.6 2.1 11 4 17.8 9.9 22.3 36.9 22.3 47.4 0 3.6-2.5 22.4-2.6 23.7l-.9 10.7h121.7l-5.3-13.5c-5.4-13.8-16.4-89.4-14.1-112.9 1.8-18.5 25.5-23.7 30-24 1.6-.1 3.4-.1 4.9-.1h4.2c8.2 0 19.5 0 22.5-9.5 1.6-5.2.7-10.9-2.5-15.5z" fill="#2f3603"/><path d="m325.6 10.5c-46.2-3.6-67.8 9.4-88.5 39.2-12 17.2-19.9 54.2-24.6 84.3-2.9-10.2-10.2-29.8-25.3-39.5-25.8-16.7-52-5.5-52-5.5-12.6-15.2-44.8-12-44.8-12 28.3 1.8 41.1 15.1 41.1 15.1-11.4 5.1-12.2 21.7-10.6 26.8 1.8 6 11.6 18 21.7 7 6.3-6.9 6.5-16.3 4.5-22.3-1.3-3.9-3.9-7.4-7.2-9.8 0 0 22.1-6.2 42.5 4.5 17.7 9.4 26.2 42.2 28.1 50.6-2.4 17.9-3.5 30.7-3.5 30.7h96.4c-5.9-15.2-17.2-92.3-14.8-117.4 2.4-25.2 31.1-32.5 39.3-32.9s21.5.9 22.7-2.6c1.4-5-1.6-14.4-25-16.2zm-183.4 101.7c-.9 7-5.4 12.1-10.1 11.5s-7.7-6.7-6.8-13.7 5.4-12.1 10.1-11.5 7.7 6.7 6.8 13.7z" fill="#7a9826"/><path d="m303.3 179.6h-6.3c-32.6-124.2-1.8-146-1.1-146.4-.5.5-7.9 8.7-6.8 25.8-.2 1.1-.4 2.1-.5 3.2-2.5 25.1 8.7 102.2 14.7 117.4z" fill="#9ab52b"/><path d="m259.9 76.1c-1.5 1.7-26.5 30.9-25.9 103.4h-7.2c.5-74.9 32.1-102.5 33.1-103.4z" fill="#5b7517"/><g fill="#2f3603"><path d="m246.7 181.6h-12.7c-1-75.2 25.1-104.6 26-105.5-14.3 20.4-15.1 70.3-13.3 105.5z"/><path d="m295.8 33.2c-2 5.5-3 11.2-3 17.1-1.9 3.1-3.2 6.5-3.8 10-1.5-18.1 6.3-26.7 6.8-27.1z"/></g></g><g id="Body"><path d="m256 512c-20.3 0-37.7-7.8-52.8-23.9-7.5 4-15.9 6.1-24.4 6.1-11.1 0-21.6-3.6-31.5-10.9-5.9 1.4-11.9 2-17.9 2-27.4 0-77.4-13.9-104.7-106.6-27.6-93.6-4.4-144.2 12-166 15.3-20.4 37.1-32.7 58.1-32.7 1.5 0 2.9.1 4.4.2 7.8-10.7 27-32.1 56.6-32.1 10 0 20.3 2.5 30.5 7.5 10.8-9.9 36.1-29.2 69.6-29.2s58.9 19.3 69.7 29.2c10.3-5 20.5-7.5 30.5-7.5 29.6 0 48.8 21.4 56.6 32.1 1.5-.1 2.9-.2 4.4-.2 21.1 0 42.8 12.3 58.2 32.8 16.3 21.8 39.5 72.3 12 166-27.3 92.8-77.3 106.6-104.7 106.6-6 0-12-.6-17.9-2-9.9 7.2-20.5 10.9-31.5 10.9-8.5-.1-16.8-2.1-24.3-6.1-15.2 16-32.6 23.8-52.9 23.8z" fill="#751b00"/><path d="m477.8 376c-37.1 126.1-115.2 96.5-115.2 96.5-29.4 25-55.6 2.7-55.6 2.7-17.2 21.5-35 26.9-50.9 26.9s-33.7-5.4-50.9-26.9c0 0-26.2 22.3-55.6-2.7 0 0-78.1 29.6-115.3-96.5-41.1-139.6 30-194.5 69.8-185 0 0 30.9-54.6 84.2-23.1 0 0 27.7-31.5 67.9-31.5s67.9 31.4 67.9 31.4c53.3-31.5 84.2 23.1 84.2 23.1 39.5-9.4 110.6 45.5 69.5 185.1z" fill="#ff7000"/><path d="m479.6 369.8c-159.5 40.7-366.6-24.1-455.2-101.9 10.7-59.9 52.4-83.4 79.5-76.9 0 0 30.9-54.6 84.2-23.1 0 0 27.7-31.4 67.9-31.4s68 31.4 68 31.4c53.1-31.5 84 23.1 84 23.1 39.2-9.4 108.8 43.8 71.6 178.8z" fill="#ff8d0a"/><path d="m490.1 292.7c-25.3-92.7-75.5-84.9-75.5-84.9-35.5-53.1-82.8-44-82.8-44 48.5-22 76.3 27.2 76.3 27.2 30.6-7.4 79.7 23.5 82 101.7z" fill="#fcb117"/><path d="m21.9 292.7c25.3-92.7 75.5-84.9 75.5-84.9 35.5-53.1 82.8-44 82.8-44-48.4-22.1-76.4 27.2-76.4 27.2-30.5-7.4-79.6 23.5-81.9 101.7z" fill="#fcb117"/><path d="m466.7 406.7c-39.6 90.3-104.2 65.8-104.2 65.8-29.4 25-55.6 2.7-55.6 2.7-17.2 21.5-35 26.9-50.9 26.9s-33.7-5.4-50.9-26.9c0 0-26.2 22.3-55.6-2.7 0 0-64.5 24.5-104.2-65.8 38.9 61.4 94.6 53.1 94.6 53.1 36.3 22.6 65.2-4.4 65.2-4.4 7.6 23.8 39.8 33.6 50.9 33.6s43.4-9.7 50.9-33.5c0 0 28.8 27 65.2 4.4 0-.1 55.7 8.2 94.6-53.2z" fill="#e03f00"/><g fill="#751b00"><path d="m323.9 167.8 13.2 34.6s3.4-25.7-5.4-38.7l-3.2-5.3-6.8 1.1z"/><path d="m188.1 167.8-13.2 34.6s-3.4-25.7 5.4-38.7l3.2-5.3 6.8 1.1z"/><path d="m408 190.9s45 121.3-16.4 236.1c0 0 91.3-118 16.4-236.1z"/><path d="m103.9 190.9s-45 121.3 16.5 236.1c0 0-91.3-118-16.5-236.1z"/></g><path d="m408 190.9s45.5 156.6-45.5 281.5c0 .1 108.5-112.7 45.5-281.5z" fill="#e03f00"/><path d="m103.9 190.9s-45.5 156.6 45.5 281.5c.1.1-108.4-112.7-45.5-281.5z" fill="#e03f00"/><path d="m337.1 202.4c-.9-1.8-23.6-51.7-81.1-51.7s-80.2 49.9-81.1 51.7c.3-1.6 4.9-21.9 13.2-34.6 0 0 0-.1.1-.1 1.7-1.8 28.9-31.4 67.8-31.4s66.1 29.5 67.8 31.4c0 0 .1.1.1.1 8.3 12.8 12.9 33 13.2 34.6z" fill="#fcb117"/><path d="m304.8 477.8c3.1-10.2 2.2-22.4 2.2-22.4s3.3 11.6 1.8 21.1l-.7 5.2-3.2.2v-4.1z" fill="#751b00"/><path d="m207.2 477.8c-3.1-10.2-2.2-22.4-2.2-22.4s-3.3 11.6-1.8 21.1l.7 5.2 3.2.2z" fill="#751b00"/></g></g></g><path d="m222.5 439.4c1.7-7.8 3.4-15.3 5.2-23.1l-31-7-4.4 19.3c-76.2-45-85.4-125.5-85.3-125.5 17.3 16.7 37.4 30.2 59.5 39.7-1.9 9.3-3.7 18.5-5.6 28l31 7.1 4.9-24.6c13.4 3.5 27.2 5.8 41 6.9v28c1.3.4 29.4.5 31.7.1v-27.8c13.9-.8 27.7-2.9 41.2-6.2l4.8 23.6 31-7.1c-1.8-8.9-3.5-17.5-5.3-26.3 23.9-9.9 45.3-23.4 63.8-41.7-8.2 49.3-41.7 106.5-89.5 127.6-1.6-7-3.1-13.9-4.8-21l-31 7c1.8 8.1 3.5 15.9 5.3 24.1-20.5 4.1-41.9 3.7-62.5-1.1z" fill="#c41400"/><path d="m222.5 429.7c1.7-7.8 3.4-15.3 5.2-23.1l-31-7-4.4 19.3c-76.2-45-85.4-115.8-85.3-115.8 17.3 16.7 37.4 30.2 59.5 39.7-1.9 9.3-3.7 18.5-5.6 28l31 7.1 4.9-24.6c13.4 3.5 27.2 5.8 41 6.9v28c1.3.4 29.4.5 31.7.1v-27.8c13.9-.8 27.7-2.9 41.2-6.2l4.8 23.6 31-7.1c-1.8-8.9-3.5-17.5-5.3-26.3 23.9-9.9 45.3-23.4 63.8-41.7-8.2 49.3-41.7 96.8-89.5 117.9-1.6-7-3.1-13.9-4.8-21l-31 7c1.8 8.1 3.5 15.9 5.3 24.1-20.5 4.1-41.9 3.7-62.5-1.1z" fill="#5b1500"/><path d="m209.9 283.6c-29.9 12.3-51.6 18.8-97.2-6.9 15.9-20.9 44.5-43.6 60.5-64.6z" fill="#c41400"/><path d="m209.9 283.6c-29.9 12.3-57.1 4.8-84.2-9.2 15.9-20.9 31.5-41.4 47.5-62.4z" fill="#751100"/><path d="m302.2 283.6c29.9 12.3 51.6 18.8 97.2-6.9-15.9-20.9-44.5-43.6-60.5-64.6-12.4 24.1-24.5 47.7-36.7 71.5z" fill="#c41400"/><path d="m302.2 283.6c29.9 12.3 57.2 4.8 84.2-9.2l-47.5-62.4c-12.4 24.2-24.5 47.8-36.7 71.6z" fill="#751100"/><path d="m288.4 329.2h-66.8l33.4-63.2z" fill="#c41400"/><path d="m278.1 321h-46.3l23.2-55z" fill="#751100"/></g></g></svg>