<?xml version="1.0" encoding="UTF-8" standalone="no"?>
<!-- Created with Inkscape (http://www.inkscape.org/) -->

<svg
   version="1.1"
   id="svg10200"
   xml:space="preserve"
   width="682.66669"
   height="682.66669"
   viewBox="0 0 682.66669 682.66669"
   xmlns="http://www.w3.org/2000/svg"
   xmlns:svg="http://www.w3.org/2000/svg"><defs
     id="defs10204"><clipPath
       clipPathUnits="userSpaceOnUse"
       id="clipPath10214"><path
         d="M 0,512 H 512 V 0 H 0 Z"
         id="path10212" /></clipPath></defs><g
     id="g10206"
     transform="matrix(1.3333333,0,0,-1.3333333,0,682.66667)"><g
       id="g10208"><g
         id="g10210"
         clip-path="url(#clipPath10214)"><g
           id="g10216"
           transform="translate(422.25,429.5439)"><path
             d="M 0,0 H 29.903 L 0.488,-60.211 c -2.725,-5.579 4.616,-10.564 8.796,-5.974 l 65.863,72.32 c 6.239,6.849 1.633,17.867 -7.625,18.238 l -32.954,1.324 18.597,38.875 c 2.603,5.444 -4.364,10.382 -8.637,6.121 L -7.699,18.628 C -14.585,11.763 -9.724,0 0,0"
             style="fill:#ffd15c;fill-opacity:1;fill-rule:nonzero;stroke:none"
             id="path10218" /></g><g
           id="g10220"
           transform="translate(489.7725,453.918)"><path
             d="m 0,0 -32.954,1.323 18.596,38.875 c 2.604,5.444 -4.363,10.381 -8.637,6.121 L -34.106,35.242 -48.298,5.573 c -0.962,-2.01 0.447,-4.349 2.674,-4.439 L -17.377,0 c 9.257,-0.372 13.863,-11.39 7.625,-18.239 l -53.648,-58.907 -3.635,-7.439 c -2.725,-5.579 4.616,-10.563 8.797,-5.974 l 65.863,72.32 C 13.863,-11.39 9.258,-0.372 0,0"
             style="fill:#ffc344;fill-opacity:1;fill-rule:nonzero;stroke:none"
             id="path10222" /></g><g
           id="g10224"
           transform="translate(89.75,429.5439)"><path
             d="m 0,0 h -29.903 l 29.415,-60.211 c 2.725,-5.579 -4.616,-10.564 -8.796,-5.974 l -65.863,72.32 c -6.239,6.849 -1.633,17.867 7.625,18.238 l 32.954,1.324 -18.597,38.875 c -2.603,5.444 4.364,10.382 8.637,6.121 L 7.699,18.628 C 14.585,11.763 9.724,0 0,0"
             style="fill:#ffd15c;fill-opacity:1;fill-rule:nonzero;stroke:none"
             id="path10226" /></g><g
           id="g10228"
           transform="translate(59.8472,429.5439)"><path
             d="m 0,0 h -12.408 c -2.294,0 -3.795,-2.403 -2.788,-4.465 L 8.403,-52.772 20.619,-66.185 c 4.18,-4.589 11.521,0.395 8.796,5.974 z"
             style="fill:#ffc344;fill-opacity:1;fill-rule:nonzero;stroke:none"
             id="path10230" /></g><g
           id="g10232"
           transform="translate(97.4492,448.1719)"><path
             d="m 0,0 -52.227,52.065 c -4.273,4.261 -11.24,-0.676 -8.637,-6.12 L -58.493,40.988 -17.377,0 c 6.886,-6.865 2.024,-18.628 -7.699,-18.628 H -7.699 C 2.024,-18.628 6.886,-6.865 0,0"
             style="fill:#ffc344;fill-opacity:1;fill-rule:nonzero;stroke:none"
             id="path10234" /></g><g
           id="g10236"
           transform="translate(422.25,110.5664)"><path
             d="M 0,0 H 29.903 L 0.488,60.211 c -2.725,5.578 4.616,10.563 8.796,5.974 l 65.863,-72.32 c 6.239,-6.849 1.633,-17.867 -7.625,-18.238 l -32.954,-1.324 18.597,-38.876 c 2.603,-5.443 -4.364,-10.381 -8.637,-6.12 L -7.699,-18.628 C -14.585,-11.763 -9.724,0 0,0"
             style="fill:#ffd15c;fill-opacity:1;fill-rule:nonzero;stroke:none"
             id="path10238" /></g><g
           id="g10240"
           transform="translate(497.397,104.4316)"><path
             d="m 0,0 -65.863,72.319 c -4.18,4.59 -11.521,-0.395 -8.796,-5.973 l 3.634,-7.44 L -17.377,0 c 6.238,-6.85 1.633,-17.867 -7.624,-18.239 l -28.247,-1.134 c -2.228,-0.09 -3.636,-2.429 -2.675,-4.439 l 14.193,-29.669 11.111,-11.078 c 4.273,-4.26 11.24,0.677 8.637,6.121 l -18.597,38.876 32.954,1.324 C 1.633,-17.867 6.239,-6.85 0,0"
             style="fill:#ffc344;fill-opacity:1;fill-rule:nonzero;stroke:none"
             id="path10242" /></g><g
           id="g10244"
           transform="translate(89.75,110.5664)"><path
             d="m 0,0 h -29.903 l 29.415,60.211 c 2.725,5.578 -4.616,10.563 -8.796,5.974 l -65.863,-72.32 c -6.239,-6.849 -1.633,-17.867 7.625,-18.238 l 32.954,-1.324 -18.597,-38.876 c -2.603,-5.443 4.364,-10.381 8.637,-6.12 L 7.699,-18.628 C 14.585,-11.763 9.724,0 0,0"
             style="fill:#ffd15c;fill-opacity:1;fill-rule:nonzero;stroke:none"
             id="path10246" /></g><g
           id="g10248"
           transform="translate(47.439,110.5664)"><path
             d="m 0,0 h 12.408 l 29.415,60.211 c 2.725,5.578 -4.615,10.563 -8.796,5.974 L 20.812,52.771 -2.788,4.465 C -3.794,2.403 -2.294,0 0,0"
             style="fill:#ffc344;fill-opacity:1;fill-rule:nonzero;stroke:none"
             id="path10250" /></g><g
           id="g10252"
           transform="translate(89.75,110.5664)"><path
             d="m 0,0 h -17.377 c 9.723,0 14.585,-11.763 7.699,-18.628 l -41.115,-40.988 -2.372,-4.956 c -2.603,-5.444 4.364,-10.381 8.637,-6.121 L 7.699,-18.628 C 14.585,-11.763 9.724,0 0,0"
             style="fill:#ffc344;fill-opacity:1;fill-rule:nonzero;stroke:none"
             id="path10254" /></g><g
           id="g10256"
           transform="translate(147.9102,322.1738)"><path
             d="m 0,0 v -98.403 c 0,-17.919 4.469,-35.555 13.003,-51.312 l 9.125,-16.847 c 3.905,-7.21 5.95,-15.281 5.95,-23.48 v -115.363 c 0,-5.119 4.149,-9.269 9.268,-9.269 H 182.86 c 5.119,0 9.269,4.15 9.269,9.269 l 0,305.405 z"
             style="fill:#ffeee6;fill-opacity:1;fill-rule:nonzero;stroke:none"
             id="path10258" /></g><g
           id="g10260"
           transform="translate(195.9424,322.1738)"><path
             d="m 0,0 h -48.032 v 136.312 c 0,13.263 10.752,24.016 24.016,24.016 C -10.752,160.328 0,149.575 0,136.312 Z"
             style="fill:#ffeee6;fill-opacity:1;fill-rule:nonzero;stroke:none"
             id="path10262" /></g><g
           id="g10264"
           transform="translate(173.2671,482.4648)"><path
             d="M 0,0 C -4.083,0.224 -7.954,-0.581 -11.391,-2.168 -3.148,-5.973 2.575,-14.305 2.575,-23.979 v -122.789 c 0,-7.468 6.055,-13.523 13.524,-13.523 h 6.576 V -24.509 C 22.675,-11.673 12.817,-0.702 0,0"
             style="fill:#ffdfcf;fill-opacity:1;fill-rule:nonzero;stroke:none"
             id="path10266" /></g><g
           id="g10268"
           transform="translate(219.9585,290.373)"><path
             d="m 0,0 v 0 c -13.264,0 -24.016,10.752 -24.016,24.016 v 59.13 c 0,13.263 10.752,24.015 24.016,24.015 13.264,0 24.016,-10.752 24.016,-24.015 V 24.016 C 24.016,10.752 13.264,0 0,0"
             style="fill:#ffeee6;fill-opacity:1;fill-rule:nonzero;stroke:none"
             id="path10270" /></g><g
           id="g10272"
           transform="translate(219.9585,397.5342)"><path
             d="M 0,0 C -3.589,0 -6.992,-0.793 -10.05,-2.204 -1.808,-6.009 3.916,-14.342 3.916,-24.016 v -59.13 c 0,-9.673 -5.724,-18.006 -13.966,-21.811 3.058,-1.411 6.461,-2.204 10.05,-2.204 13.264,0 24.016,10.752 24.016,24.015 v 59.13 C 24.016,-10.752 13.264,0 0,0"
             style="fill:#ffdfcf;fill-opacity:1;fill-rule:nonzero;stroke:none"
             id="path10274" /></g><g
           id="g10276"
           transform="translate(267.9907,290.373)"><path
             d="m 0,0 v 0 c -13.264,0 -24.016,10.752 -24.016,24.016 v 59.13 c 0,13.263 10.752,24.015 24.016,24.015 13.264,0 24.016,-10.752 24.016,-24.015 V 24.016 C 24.016,10.752 13.264,0 0,0"
             style="fill:#ffeee6;fill-opacity:1;fill-rule:nonzero;stroke:none"
             id="path10278" /></g><g
           id="g10280"
           transform="translate(267.9907,397.5342)"><path
             d="M 0,0 C -3.589,0 -6.992,-0.793 -10.05,-2.204 -1.808,-6.009 3.916,-14.342 3.916,-24.016 v -59.13 c 0,-9.673 -5.724,-18.006 -13.966,-21.811 3.058,-1.411 6.461,-2.204 10.05,-2.204 13.264,0 24.016,10.752 24.016,24.015 v 59.13 C 24.016,-10.752 13.264,0 0,0"
             style="fill:#ffdfcf;fill-opacity:1;fill-rule:nonzero;stroke:none"
             id="path10282" /></g><g
           id="g10284"
           transform="translate(340.0391,322.1738)"><path
             d="m 0,0 h -48.032 v 158.311 c 0,13.263 10.752,24.015 24.016,24.015 C -10.752,182.326 0,171.574 0,158.311 Z"
             style="fill:#ffeee6;fill-opacity:1;fill-rule:nonzero;stroke:none"
             id="path10286" /></g><g
           id="g10288"
           transform="translate(316.0229,504.5)"><path
             d="M 0,0 V 0 C -3.59,0 -6.992,-0.793 -10.05,-2.205 -1.808,-6.009 3.916,-14.342 3.916,-24.016 v -158.31 h 20.1 v 158.31 C 24.016,-10.752 13.264,0 0,0"
             style="fill:#ffdfcf;fill-opacity:1;fill-rule:nonzero;stroke:none"
             id="path10290" /></g><g
           id="g10292"
           transform="translate(319.939,322.1738)"><path
             d="m 0,0 v -305.405 c 0,-5.119 -4.15,-9.269 -9.269,-9.269 h 20.101 c 5.118,0 9.268,4.15 9.268,9.269 V 0 Z"
             style="fill:#ffdfcf;fill-opacity:1;fill-rule:nonzero;stroke:none"
             id="path10294" /></g><g
           id="g10296"
           transform="translate(340.0391,108.4072)"><path
             d="m 0,0 v 26.559 c 0,12.163 4.496,23.897 12.624,32.945 l 28.884,32.154 c 10.42,11.6 14.8,27.413 11.834,42.721 l -13.129,67.764 c -2.425,12.517 -13.386,21.558 -26.137,21.558 h -86.079 c -12.151,0 -22.002,-9.85 -22.002,-22.002 0,-11.298 8.557,-20.76 19.798,-21.891 l 57.775,-5.819 -15.112,-14.299 C -55.058,137.442 -72.131,109.261 -80.962,78.118 V 0 Z"
             style="fill:#ffeee6;fill-opacity:1;fill-rule:nonzero;stroke:none"
             id="path10298" /></g><g
           id="g10300"
           transform="translate(393.3813,242.7852)"><path
             d="m 0,0 -13.129,67.764 c -2.426,12.518 -13.386,21.559 -26.137,21.559 h -20.1 c 12.75,0 23.711,-9.041 26.137,-21.559 L -20.101,0 c 2.967,-15.307 -1.414,-31.119 -11.834,-42.719 l -28.883,-32.155 c -8.128,-9.048 -12.624,-20.782 -12.624,-32.945 v -26.559 h 20.1 v 26.559 c 0,12.163 4.496,23.897 12.624,32.945 l 28.884,32.155 C -1.415,-31.119 2.966,-15.307 0,0"
             style="fill:#ffdfcf;fill-opacity:1;fill-rule:nonzero;stroke:none"
             id="path10302" /></g><g
           id="g10304"
           transform="translate(347.6099,43.2002)"><path
             d="m 0,0 h -179.638 c -3.976,0 -7.199,3.223 -7.199,7.198 v 50.81 c 0,3.976 3.223,7.199 7.199,7.199 L 0,65.207 c 3.976,0 7.199,-3.223 7.199,-7.199 V 7.198 C 7.199,3.223 3.976,0 0,0"
             style="fill:#8ebac5;fill-opacity:1;fill-rule:nonzero;stroke:none"
             id="path10306" /></g><g
           id="g10308"
           transform="translate(347.6099,108.4072)"><path
             d="m 0,0 h -20.1 c 3.975,0 7.199,-3.224 7.199,-7.198 v -50.811 c 0,-3.975 -3.224,-7.198 -7.199,-7.198 H 0 c 3.976,0 7.199,3.223 7.199,7.198 V -7.198 C 7.199,-3.224 3.976,0 0,0"
             style="fill:#7ca1b1;fill-opacity:1;fill-rule:nonzero;stroke:none"
             id="path10310" /></g><g
           id="g10312"
           transform="translate(422.25,429.5439)"><path
             d="M 0,0 H 29.903 L 0.488,-60.211 c -2.725,-5.579 4.616,-10.564 8.796,-5.974 l 65.863,72.32 c 6.239,6.849 1.633,17.867 -7.625,18.238 l -32.954,1.324 18.597,38.875 c 2.603,5.444 -4.364,10.382 -8.637,6.121 L -7.699,18.628 C -14.585,11.763 -9.724,0 0,0 Z"
             style="fill:none;stroke:#000000;stroke-width:15;stroke-linecap:round;stroke-linejoin:round;stroke-miterlimit:10;stroke-dasharray:none;stroke-opacity:1"
             id="path10314" /></g><g
           id="g10316"
           transform="translate(89.75,429.5439)"><path
             d="m 0,0 h -29.903 l 29.415,-60.211 c 2.725,-5.579 -4.616,-10.564 -8.796,-5.974 l -65.863,72.32 c -6.239,6.849 -1.633,17.867 7.625,18.238 l 32.954,1.324 -18.597,38.875 c -2.603,5.444 4.364,10.382 8.637,6.121 L 7.699,18.628 C 14.585,11.763 9.724,0 0,0 Z"
             style="fill:none;stroke:#000000;stroke-width:15;stroke-linecap:round;stroke-linejoin:round;stroke-miterlimit:10;stroke-dasharray:none;stroke-opacity:1"
             id="path10318" /></g><g
           id="g10320"
           transform="translate(422.25,110.5664)"><path
             d="M 0,0 H 29.903 L 0.488,60.211 c -2.725,5.578 4.616,10.563 8.796,5.974 l 65.863,-72.32 c 6.239,-6.849 1.633,-17.867 -7.625,-18.238 l -32.954,-1.324 18.597,-38.876 c 2.603,-5.443 -4.364,-10.381 -8.637,-6.12 L -7.699,-18.628 C -14.585,-11.763 -9.724,0 0,0 Z"
             style="fill:none;stroke:#000000;stroke-width:15;stroke-linecap:round;stroke-linejoin:round;stroke-miterlimit:10;stroke-dasharray:none;stroke-opacity:1"
             id="path10322" /></g><g
           id="g10324"
           transform="translate(89.75,110.5664)"><path
             d="m 0,0 h -29.903 l 29.415,60.211 c 2.725,5.578 -4.616,10.563 -8.796,5.974 l -65.863,-72.32 c -6.239,-6.849 -1.633,-17.867 7.625,-18.238 l 32.954,-1.324 -18.597,-38.876 c -2.603,-5.443 4.364,-10.381 8.637,-6.12 L 7.699,-18.628 C 14.585,-11.763 9.724,0 0,0 Z"
             style="fill:none;stroke:#000000;stroke-width:15;stroke-linecap:round;stroke-linejoin:round;stroke-miterlimit:10;stroke-dasharray:none;stroke-opacity:1"
             id="path10326" /></g><g
           id="g10328"
           transform="translate(87.2397,258.3174)"><path
             d="M 0,0 -23.475,23.476"
             style="fill:none;stroke:#000000;stroke-width:15;stroke-linecap:round;stroke-linejoin:round;stroke-miterlimit:10;stroke-dasharray:none;stroke-opacity:1"
             id="path10330" /></g><g
           id="g10332"
           transform="translate(63.7646,258.3174)"><path
             d="M 0,0 23.475,23.476"
             style="fill:none;stroke:#000000;stroke-width:15;stroke-linecap:round;stroke-linejoin:round;stroke-miterlimit:10;stroke-dasharray:none;stroke-opacity:1"
             id="path10334" /></g><g
           id="g10336"
           transform="translate(147.9102,322.1738)"><path
             d="m 0,0 v 136.312 c 0,13.263 10.752,24.016 24.016,24.016 13.264,0 24.016,-10.753 24.016,-24.016 V 0"
             style="fill:none;stroke:#000000;stroke-width:15;stroke-linecap:round;stroke-linejoin:round;stroke-miterlimit:10;stroke-dasharray:none;stroke-opacity:1"
             id="path10338" /></g><g
           id="g10340"
           transform="translate(219.9585,290.373)"><path
             d="m 0,0 v 0 c -13.264,0 -24.016,10.752 -24.016,24.016 v 59.13 c 0,13.263 10.752,24.015 24.016,24.015 13.264,0 24.016,-10.752 24.016,-24.015 V 24.016 C 24.016,10.752 13.264,0 0,0 Z"
             style="fill:none;stroke:#000000;stroke-width:15;stroke-linecap:round;stroke-linejoin:round;stroke-miterlimit:10;stroke-dasharray:none;stroke-opacity:1"
             id="path10342" /></g><g
           id="g10344"
           transform="translate(247.8901,301.25)"><path
             d="m 0,0 c -2.48,3.78 -3.92,8.29 -3.92,13.14 v 59.13 c 0,13.26 10.76,24.01 24.02,24.01 6.63,0 12.63,-2.69 16.98,-7.03 4.35,-4.35 7.04,-10.35 7.04,-16.98 V 30.86"
             style="fill:none;stroke:#000000;stroke-width:15;stroke-linecap:round;stroke-linejoin:round;stroke-miterlimit:10;stroke-dasharray:none;stroke-opacity:1"
             id="path10346" /></g><g
           id="g10348"
           transform="translate(292.0098,332.1104)"><path
             d="m 0,0 -0.003,148.374 c 0,13.264 10.753,24.016 24.016,24.016 13.264,0 24.016,-10.752 24.016,-24.016 V 34.998"
             style="fill:none;stroke:#000000;stroke-width:15;stroke-linecap:round;stroke-linejoin:round;stroke-miterlimit:10;stroke-dasharray:none;stroke-opacity:1"
             id="path10350" /></g><g
           id="g10352"
           transform="translate(340.04,43.2002)"><path
             d="M 0,0 V -26.432 C 0,-31.551 -4.149,-35.7 -9.269,-35.7 h -145.513 c -5.118,0 -9.268,4.149 -9.268,9.268 V 0"
             style="fill:none;stroke:#000000;stroke-width:15;stroke-linecap:round;stroke-linejoin:round;stroke-miterlimit:10;stroke-dasharray:none;stroke-opacity:1"
             id="path10354" /></g><g
           id="g10356"
           transform="translate(147.9102,322.1699)"><path
             d="m 0,0 v -98.4 c 0,-17.92 4.47,-35.55 13,-51.31 l 9.13,-16.85 c 3.9,-7.21 5.95,-15.28 5.95,-23.48 v -23.72"
             style="fill:none;stroke:#000000;stroke-width:15;stroke-linecap:round;stroke-linejoin:round;stroke-miterlimit:10;stroke-dasharray:none;stroke-opacity:1"
             id="path10358" /></g><g
           id="g10360"
           transform="translate(340.04,108.4102)"><path
             d="M 0,0 V 26.56"
             style="fill:none;stroke:#000000;stroke-width:15;stroke-linecap:round;stroke-linejoin:round;stroke-miterlimit:10;stroke-dasharray:none;stroke-opacity:1"
             id="path10362" /></g><g
           id="g10364"
           transform="translate(340.0391,108.4072)"><path
             d="m 0,0 v 26.559 c 0,12.163 4.496,23.897 12.624,32.945 l 28.884,32.154 c 10.42,11.6 14.8,27.413 11.834,42.721 l -13.129,67.764 c -2.425,12.517 -13.386,21.558 -26.137,21.558 h -86.079 c -12.151,0 -22.002,-9.85 -22.002,-22.002 0,-11.298 8.557,-20.76 19.798,-21.891 l 57.775,-5.819 -15.112,-14.299 C -55.058,137.442 -72.131,109.261 -80.962,78.118"
             style="fill:none;stroke:#000000;stroke-width:15;stroke-linecap:round;stroke-linejoin:round;stroke-miterlimit:10;stroke-dasharray:none;stroke-opacity:1"
             id="path10366" /></g><g
           id="g10368"
           transform="translate(236.9204,108.4072)"><path
             d="m 0,0 h 110.689 c 3.976,0 7.199,-3.223 7.199,-7.199 v -50.81 c 0,-3.975 -3.223,-7.198 -7.199,-7.198 H -68.949 c -3.976,0 -7.198,3.223 -7.198,7.198 v 50.81 c 0,3.976 3.222,7.199 7.198,7.199 h 33.765"
             style="fill:none;stroke:#000000;stroke-width:15;stroke-linecap:round;stroke-linejoin:round;stroke-miterlimit:10;stroke-dasharray:none;stroke-opacity:1"
             id="path10370" /></g><g
           id="g10372"
           transform="translate(133.2324,75.8037)"><path
             d="M 0,0 H 27.541"
             style="fill:none;stroke:#000000;stroke-width:15;stroke-linecap:round;stroke-linejoin:round;stroke-miterlimit:10;stroke-dasharray:none;stroke-opacity:1"
             id="path10374" /></g><g
           id="g10376"
           transform="translate(354.8086,75.8037)"><path
             d="M 0,0 H 27.54"
             style="fill:none;stroke:#000000;stroke-width:15;stroke-linecap:round;stroke-linejoin:round;stroke-miterlimit:10;stroke-dasharray:none;stroke-opacity:1"
             id="path10378" /></g><g
           id="g10380"
           transform="translate(193.1318,75.8037)"><path
             d="m 0,0 c 0,-3.952 3.204,-7.155 7.155,-7.155 3.952,0 7.156,3.203 7.156,7.155 0,3.951 -3.204,7.155 -7.156,7.155 C 3.204,7.155 0,3.951 0,0"
             style="fill:#000000;fill-opacity:1;fill-rule:nonzero;stroke:none"
             id="path10382" /></g><g
           id="g10384"
           transform="translate(231.4678,75.8037)"><path
             d="m 0,0 c 0,-3.952 3.203,-7.155 7.155,-7.155 3.952,0 7.156,3.203 7.156,7.155 0,3.951 -3.204,7.155 -7.156,7.155 C 3.203,7.155 0,3.951 0,0"
             style="fill:#000000;fill-opacity:1;fill-rule:nonzero;stroke:none"
             id="path10386" /></g><g
           id="g10388"
           transform="translate(269.8032,75.8037)"><path
             d="m 0,0 c 0,-3.952 3.204,-7.155 7.155,-7.155 3.952,0 7.156,3.203 7.156,7.155 0,3.951 -3.204,7.155 -7.156,7.155 C 3.204,7.155 0,3.951 0,0"
             style="fill:#000000;fill-opacity:1;fill-rule:nonzero;stroke:none"
             id="path10390" /></g><g
           id="g10392"
           transform="translate(308.1387,75.8037)"><path
             d="m 0,0 c 0,-3.952 3.204,-7.155 7.155,-7.155 3.952,0 7.156,3.203 7.156,7.155 0,3.951 -3.204,7.155 -7.156,7.155 C 3.204,7.155 0,3.951 0,0"
             style="fill:#000000;fill-opacity:1;fill-rule:nonzero;stroke:none"
             id="path10394" /></g><g
           id="g10396"
           transform="translate(442.4229,270.0547)"><path
             d="m 0,0 c 0,-3.951 3.204,-7.155 7.155,-7.155 3.952,0 7.156,3.204 7.156,7.155 0,3.952 -3.204,7.155 -7.156,7.155 C 3.204,7.155 0,3.952 0,0"
             style="fill:#000000;fill-opacity:1;fill-rule:nonzero;stroke:none"
             id="path10398" /></g></g></g></g></svg>
