<svg xmlns="http://www.w3.org/2000/svg" version="1.1" xmlns:xlink="http://www.w3.org/1999/xlink" width="512" height="512" x="0" y="0" viewBox="0 0 512 512" style="enable-background:new 0 0 512 512" xml:space="preserve" class=""><g><path d="M508.688 225.267a171.35 171.35 0 0 0-25.605-61.722 30.416 30.416 0 0 0 9.146-4.048c7.079-4.681 11.193-12.541 11.006-21.024-.185-8.482-4.639-16.151-11.906-20.513l-21.223-12.753 24.259-11.969a8.844 8.844 0 0 0 .772-15.43c-24.319-15.2-51.181-14.946-62.122-14.049a57.329 57.329 0 0 0-2.159-2.14 35.474 35.474 0 0 0 4.456-17.276c0-19.669-15.996-35.67-35.659-35.67-12.826 0-24.23 6.702-30.53 17.178a35.681 35.681 0 0 0-12.121-2.132c-19.662 0-35.657 15.996-35.657 35.659 0 1.682.116 3.345.343 4.987-11.528 6.033-19.023 18.005-19.023 31.568 0 19.662 16.002 35.658 35.67 35.658 1.007 0 2.009-.052 3.007-.136 5.624 17.604 12.56 48.813 1.178 72.371-6.35 13.141-17.428 22.153-33.864 27.55a8.844 8.844 0 0 0 5.518 16.805c20.946-6.877 35.841-19.212 44.271-36.663 6.665-13.793 15.141-44.264-2.959-93.325l-.419-1.121c-5.997-15.934-1.59-33.693 10.971-44.192 5.803-4.856 12.905-7.939 20.537-8.917 9.487-1.211 19.143 1.118 27.195 6.562a39.836 39.836 0 0 1 8.796 8.08 38.898 38.898 0 0 1 7.302 14.274c1.462 5.37 1.805 10.828 1.016 16.242a39.152 39.152 0 0 1-4.224 12.916 8.844 8.844 0 0 0 2.698 11.387 153.913 153.913 0 0 1 19.882 16.728 152.348 152.348 0 0 1 6.619 6.996c17.894 20.197 30.162 44.95 35.48 71.581a155.096 155.096 0 0 1 2.97 27.195 8.842 8.842 0 0 0 8.838 8.669l.178-.001a8.845 8.845 0 0 0 8.668-9.017 172.151 172.151 0 0 0-3.305-30.308zm-92.577-173.71c-9.877-4.705-20.889-6.528-31.775-5.139-10.994 1.408-21.245 5.868-29.642 12.894-15.796 13.206-22.795 34.147-18.881 54.391-8.721-1.233-15.457-8.722-15.457-17.773 0-8.418 5.725-15.621 13.924-17.513a8.84 8.84 0 0 0 6.156-12.058 17.848 17.848 0 0 1-1.401-6.982c0-9.909 8.061-17.971 17.97-17.971 4.059 0 7.888 1.321 11.073 3.821a8.844 8.844 0 0 0 14.078-4.966c1.891-8.185 9.089-13.901 17.501-13.901 9.909 0 17.971 8.067 17.971 17.983a17.95 17.95 0 0 1-1.517 7.214zM470.077 85.5l-21.572 10.642a58.8 58.8 0 0 0-1.568-7.909 56.98 56.98 0 0 0-2.461-7.094c7.045.203 16.144 1.23 25.601 4.361zm5.434 61.338c-2.534 0-5.021-.775-7.116-2.202a167.407 167.407 0 0 0-6.681-7.029 171.083 171.083 0 0 0-16.277-14.292 56.628 56.628 0 0 0 2.058-6.951l3.755-1.852 30.975 18.613c2.929 1.758 3.304 4.596 3.329 5.737.025 1.14-.224 3.994-3.068 5.875a12.666 12.666 0 0 1-6.975 2.101z" fill="#ff4500" opacity="1" data-original="#000000" class=""></path><path d="M502.934 271.594a8.843 8.843 0 0 0-9.942 7.59c-8.752 65.274-58.098 117.614-122.791 130.244-21.323 4.164-42.823 3.768-63.905-1.182-57.834-13.523-103.197-59.552-115.565-117.264a154.333 154.333 0 0 1-3.39-35.577c10.211 2.683 26.797 5.833 48.407 5.833 14.759 0 31.863-1.47 50.868-5.562a8.844 8.844 0 1 0-3.724-17.292c-31.478 6.778-57.071 5.602-72.999 3.421-8.051-1.103-14.49-2.562-19.106-3.815a97.447 97.447 0 0 0 4.927-28.224c1.423-53.951-41.307-99.002-95.253-100.426-26.14-.67-50.971 8.839-69.94 26.83C11.55 154.162.723 178.463.034 204.594c-.342 12.991 1.843 25.7 6.496 37.774a8.845 8.845 0 0 0 8.017 5.661c3.572.061 6.846-1.968 8.306-5.227a80.309 80.309 0 0 1 40.355-40.437 8.843 8.843 0 0 0 4.43-11.695 8.843 8.843 0 0 0-11.696-4.43 98.011 98.011 0 0 0-37.752 29.996 80.68 80.68 0 0 1-.475-11.176c.565-21.408 9.436-41.316 24.977-56.057 15.542-14.74 35.916-22.566 57.3-21.982 44.197 1.166 79.206 38.076 78.041 82.277a80.865 80.865 0 0 1-1.058 11.097c-17.45-25.677-46.318-41.866-78.319-42.711a98.952 98.952 0 0 0-15.12.761c-4.844.62-8.27 5.052-7.648 9.896.62 4.845 5.047 8.267 9.897 7.649a80.998 80.998 0 0 1 12.405-.623c19.133.506 36.898 7.712 50.659 19.743-23.239-7.857-48.213-6.758-70.799 3.221-23.914 10.567-42.28 29.814-51.714 54.193-9.442 24.377-8.823 50.973 1.743 74.885s29.812 42.28 54.194 51.714c11.344 4.394 23.205 6.615 35.298 6.615a91.3 91.3 0 0 0 2.453-.031 8.845 8.845 0 0 0 5.899-15.228c-23.48-22.491-31.068-56.596-19.334-86.888l.002-.004c10.547-27.26 34.73-46.259 63.138-50.394a171.952 171.952 0 0 0 3.711 41.486c13.078 61.03 59.22 110.317 118.903 128.119-2.104 8.911-1.033 20.459 8.325 34.235 2.746 4.043 5.773 7.602 8.51 10.49a59.04 59.04 0 0 0-1.946 1.699c-8.445 7.699-12.909 16.433-12.909 25.255 0 4.884 3.958 8.844 8.844 8.844s8.844-3.96 8.844-8.844c0-3.765 2.487-7.492 5.534-10.623 6.511 14.019 21.715 19.467 32.79 19.467 4.885 0 8.844-3.96 8.844-8.844s-3.959-8.844-8.844-8.844c-1.871 0-18.277-.48-18.277-17.098 0-7.606 7.349-17.472 20.693-27.783 9.53-7.363 19.223-12.69 22.189-14.262 71.476-14.545 125.887-72.621 135.587-144.963.646-4.833-2.753-9.283-7.593-9.933zM90.092 297.207c-11.563 29.846-7.758 62.724 9.209 88.729a80.727 80.727 0 0 1-10.647-3.303c-19.975-7.731-35.745-22.777-44.4-42.368-8.655-19.591-9.163-41.379-1.427-61.352 7.731-19.974 22.777-35.743 42.369-44.401 10.378-4.586 21.372-6.885 32.385-6.885 9.778 0 19.573 1.814 28.964 5.448a81.016 81.016 0 0 1 10.103 4.733c-30.05 7.797-55.003 29.545-66.556 59.399zm228.836 154.639c-5.583-6.703-11.142-15.966-9.303-24.836a168.575 168.575 0 0 0 28.379 2.919c-8.824 7.352-15.19 14.676-19.076 21.917z" fill="#ff4500" opacity="1" data-original="#000000" class=""></path><path d="M462.281 285.738c-4.627-24.731-22.693-46.797-47.15-57.587-4.467-1.972-9.689.052-11.662 4.521a8.843 8.843 0 0 0 4.522 11.661c19.194 8.468 33.335 25.579 36.904 44.657 2.237 11.959 1.278 29.844-16.004 47.125-15.448 15.448-49.653 22.598-76.701 22.829-33.359.284-65.363-8.415-91.976-24.779 25.598-5.646 68.156-17.552 88.03-37.427a8.841 8.841 0 0 0 .001-12.506 8.844 8.844 0 0 0-12.508 0c-9.996 9.996-30.055 19.441-58.009 27.315-21.8 6.14-40.663 9.082-40.852 9.112a8.844 8.844 0 0 0-4.233 15.603c32.079 26.074 73.902 40.38 117.951 40.379.58 0 1.166-.002 1.746-.007 37.406-.321 72.362-11.315 89.057-28.009 17.737-17.738 25.153-40.069 20.884-62.887z" fill="#ff4500" opacity="1" data-original="#000000" class=""></path><circle cx="408.115" cy="96.504" r="8.844" fill="#ff4500" opacity="1" data-original="#000000" class=""></circle></g></svg>