<svg xmlns="http://www.w3.org/2000/svg" version="1.1" xmlns:xlink="http://www.w3.org/1999/xlink" width="512" height="512" x="0" y="0" viewBox="0 0 512 512" style="enable-background:new 0 0 512 512" xml:space="preserve" class=""><g><path d="M167.19 84.4c.12-8.71-13.56-8.71-13.44 0-.12 8.71 13.56 8.71 13.44 0z" fill="#ff4500" opacity="1" data-original="#000000"></path><path d="M450.42 157.84c3-10.05-34.67-91.82-99.68-80.56-41.17 1.81-97 35.24-106.94 79.28-8.77 24.89-17.27 70.5-27 84.22-8.58-3.67-12.76-21.14-15.3-36.85 5.29 1.73 11-3 9.83-8.59-.05-.25-4.82-25.38-3.88-44.21.67-13.42-3.73-29.6-7.25-40.14 5.26 1.55 7.69 5.57 10.77 13.48 2.31 6.51 12.3 6.16 14.15-.47 4.61-14.7 3.31-26.11-4.56-35.63 8.88 1 15.12 3.85 20.18 8.76 5.14 5.33 14.61-.23 12.47-7.32-3.64-13.58-12.43-28.56-33.12-33.48 5.75-3 18.82-.92 19.37-10.31a7.52 7.52 0 0 0-5.69-7.55c-40.55-10.07-71.47-1.74-94.36 25.46l-44-15.26A7.5 7.5 0 0 0 87 60.23l23.27 31.28c-22.16 10.79-33.06 36.21-16.9 56.93C79.47 157.58 45 192.34 71 210c-14.82 57 28.88 110.44 85.51 137.51 45.31 22.86 59.1 44.87 54.37 89.76-16.42-5.1-32.92-2.61-49.19 7.45-6.42 3.68-3.29 14.16 4 13.88 4-.12 7.31-3.61 10.87-4.81-12 9.84-18.76 20.61-5 23.87 11.93-2.18 9.37-20.86 45.06-22.41 2.8.93 11 7.22 17.82 13.72 6.93 6.81 17.5-4.26 10.34-10.86-5.72-5.44-12.86-11.58-19.18-15.05 22.34-111 60.49-66.37 88.56-156.93 4-12.08 10.79-20.41 20.12-24.76 18.64-8.7 42.13.39 42.35.47 5.86 2.59 12.35-3.92 9.74-9.77-6.06-15.54-19.07-25.55-35.12-28.79 27-6.54 32.22 12.51 42.28 8.12a7.51 7.51 0 0 0 4-7.3c-2-23.42-17.82-36-37.16-43 30.93 1.28 53.27 18.62 68.87 52.79a7.5 7.5 0 0 0 14.32-3c.6-38.33-13.4-68.14-41.71-89a91.52 91.52 0 0 1 36 22.27c4.62 4.93 13.63.49 12.57-6.32zM81.55 181.28c29-38 37.87-14.9 72.65-54.5 6.62-7.11-4.7-17.38-11.13-10-12 13.29-24 21.86-35.62 25.58C89.05 122 112.24 105 123.88 102A7.55 7.55 0 0 0 128 90.28l-14.48-19.46 26 9c12.31 3.39 18.77-29.82 60.1-30.42a58.64 58.64 0 0 0-10 8.06c-5 4.72-.62 13.74 6.19 12.72 13-1.49 22 .19 28.35 3.5-7.46-.31-31.34-4.2-32.9 5.93a7.5 7.5 0 0 0 3.88 8.1c7.2 3.77 11.73 7.35 14.41 10.93-4.75-2.3-21.1-7.17-26.74.26-4 9.25 10.86 26 9.65 51.46-.63 12.68 1 27.37 2.38 37.09-27-4-22.59-32.56-37.35-22.52-11.68 11-19.08 22.2-22.12 33.59-8.86-6-13.47-13.16-14.64-22.4a7.52 7.52 0 0 0-3.4-5.37c-13.4-4.31-30.83 13.27-39 25.77-3.72-4.29-1.33-8.61 3.22-15.24zm281-59c-7.91.19-9.73 12-2.23 14.52 34.24 12.8 55.35 32.79 63.84 60.68-25.78-30.67-62.77-38.88-110.4-24.38-7.76 2.12-6.48 14.22 1.57 14.65 32 2.62 51.75 9.39 61 21.35-18.09-5.25-39.67-.14-64.45 15.31-6.87 4-2.67 15.26 5.15 13.77 8.22-1.31 29-4.62 43.45 4.82-25.58-3.57-52.72 10.41-60.65 38.4-19.36 68.95-56 54.07-76.35 114.63-14.29-62.4-108.19-66-130.59-125.09-20.43-52.71-5.8-67.06 15.16-83.39 4.38 12.51 14.29 22.27 30 29.68a7.51 7.51 0 0 0 10.7-6.79c0-8.94 4.12-18.2 12.27-27.61A46.46 46.46 0 0 0 186 200.7c2.33 21.4 11.5 61.57 36.36 54.07 16.69-6 25.53-66.15 35.78-93.83 13.73-54.59 88.63-76.82 120.93-67.27 27.35 11.44 41.6 29.55 48.93 43.91-18.89-11.48-40.8-16.58-65.42-15.32z" fill="#ff4500" opacity="1" data-original="#000000"></path><path d="M257.64 305.2c9.12-3.34 3.7-17.63-5.36-14-20.36 7.79-58.8 15.41-87.36-21a7.5 7.5 0 0 0-13 7.05c13.27 39.14 41.81 58.51 81.91 58.37 7.71-1.2 26.94 2.78 26.35-9.86-1.16-15.38-40.93 6.64-71.28-18.81 20.37 8.1 43.99 7.71 68.74-1.75z" fill="#ff4500" opacity="1" data-original="#000000"></path></g></svg>