<?xml version="1.0" encoding="iso-8859-1"?>
<!-- Generator: Adobe Illustrator 19.0.0, SVG Export Plug-In . SVG Version: 6.00 Build 0)  -->
<svg version="1.1" id="Capa_1" xmlns="http://www.w3.org/2000/svg" xmlns:xlink="http://www.w3.org/1999/xlink" x="0px" y="0px"
	 viewBox="0 0 512 512" style="enable-background:new 0 0 512 512;" xml:space="preserve">
<path style="fill:#EF5A50;" d="M391.196,45.267c-19.507-13.802-39.414-19.205-44.466-12.065
	c-0.007,0.009-26.81,26.549-47.521,47.057c14.441,2.421,33.054,10.623,51.261,23.509c17.061,12.07,30.355,25.843,37.794,38.071
	c12.836-25.871,29.096-58.645,29.102-58.654C422.419,76.045,410.701,59.07,391.196,45.267z"/>
<path style="opacity:0.1;fill:#231F20;enable-background:new    ;" d="M391.196,45.267c-19.507-13.802-39.414-19.205-44.466-12.065
	c-0.001,0.001-0.543,0.538-1.512,1.498c5.849,2.563,12.162,6.128,18.436,10.567c19.505,13.803,31.223,30.778,26.171,37.917
	c-0.004,0.006-8.893,17.92-18.712,37.713c7.244,7.089,13.079,14.246,17.152,20.941c12.836-25.871,29.096-58.645,29.102-58.654
	C422.419,76.045,410.701,59.07,391.196,45.267z"/>
<path style="fill:#C73627;" d="M269.446,103.905c53.905,0,99.164,37.004,111.771,86.994c6.869-13.412,11.356-22.17,11.359-22.176
	c9.157-12.941-9.693-42.025-42.105-64.956c-32.41-22.938-66.108-31.038-75.266-18.099c-0.004,0.006-7.399,7.543-18.598,18.954
	C260.823,104.153,265.105,103.905,269.446,103.905z"/>
<g style="opacity:0.1;">
	<path style="fill:#231F20;" d="M381.217,190.899c6.869-13.412,11.356-22.17,11.359-22.176c6.838-9.664-1.947-28.331-20.332-46.716
		c-0.376,1.122-0.882,2.174-1.557,3.128c-0.003,0.006-4.45,8.684-11.265,21.993C369.583,159.801,377.123,174.664,381.217,190.899z"
		/>
</g>
<g>
	<path style="fill:#B1E8FF;" d="M106.753,471.904c-4.605-2.302-9.587-3.564-14.786-3.564c-17.945,0-33.285,14.978-39.546,36.16
		h99.593c-13.514-19.893-22.105-43.398-24.024-68.768C117.611,443.174,109.785,456.23,106.753,471.904z"/>
	<path style="fill:#B1E8FF;" d="M411.048,468.34c-2.308,0-4.57,0.262-6.778,0.74c-4.157,12.686-10.034,24.592-17.389,35.419h63.713
		C444.333,483.318,428.992,468.34,411.048,468.34z"/>
</g>
<g>
	<path style="fill:#FFFFFF;" d="M269.446,103.905c-63.66,0-115.268,51.607-115.268,115.268c0,1.354,0.032,2.7,0.078,4.042
		c31.887-5.868,81.268-9.814,88.543-9.814c10.873,0,19.688,8.814,19.688,19.687c0,10.874-8.814,19.688-19.688,19.688
		c-7.089,0-54.153-3.747-86.06-9.368c4.421,20.628,14.364,39.204,28.204,54.119H353.95c19.083-20.564,30.765-48.087,30.765-78.352
		C384.716,155.513,333.107,103.905,269.446,103.905z"/>
	<path style="fill:#FFFFFF;" d="M387.449,346.175c-0.565,0.477-1.381,0.757-2.399,0.757H150.94
		c-14.757,22.366-23.362,49.146-23.362,77.951c0,29.511,9.014,56.916,24.436,79.617h234.867
		c15.421-22.701,24.435-50.106,24.435-79.617C411.315,395.752,402.514,368.693,387.449,346.175z"/>
</g>
<g style="opacity:0.1;">
	<path style="fill:#231F20;" d="M352.138,219.173c0,30.266-11.683,57.788-30.765,78.352h32.578
		c19.083-20.564,30.765-48.087,30.765-78.352c0-63.66-51.608-115.268-115.27-115.268c-5.53,0-10.967,0.398-16.289,1.151
		C309.104,112.971,352.138,161.043,352.138,219.173z"/>
	<path style="fill:#231F20;" d="M387.449,346.175c-0.565,0.477-1.381,0.757-2.399,0.757h-29.675
		c14.757,22.366,23.362,49.146,23.362,77.951c0,29.511-9.014,56.916-24.435,79.617h32.578
		c15.421-22.701,24.435-50.106,24.435-79.617C411.315,395.752,402.514,368.693,387.449,346.175z"/>
</g>
<path style="fill:#289E48;" d="M387.899,342.418c1.183,2.482-0.099,4.514-2.849,4.514H150.687c-2.75,0-4.155-2.085-3.122-4.634
	l16.273-40.139c1.033-2.549,4.128-4.634,6.878-4.634h190.791c2.75,0,5.968,2.031,7.151,4.514L387.899,342.418z"/>
<path style="fill:#89C947;" d="M247.645,341.955l3.758-39.452c0.261-2.738,2.724-4.978,5.474-4.978H209.33
	c-2.75,0-5.583,2.173-6.295,4.83l-10.654,39.747c-0.712,2.656,0.956,4.83,3.706,4.83h56.084
	C249.421,346.932,247.384,344.692,247.645,341.955z"/>
<path style="fill:#289E48;" d="M295.324,297.569c-0.147-0.013-0.291-0.044-0.44-0.044h-38.007c-2.75,0-5.213,2.24-5.474,4.978
	l-3.758,39.452c-0.261,2.738,1.776,4.978,4.526,4.978h43.153L295.324,297.569L295.324,297.569z"/>
<path style="fill:#FF9F3D;" d="M262.487,233.087c0,10.874-8.814,19.688-19.688,19.688c-10.873,0-115.809-8.814-115.809-19.688
	c0-10.873,104.936-19.687,115.809-19.687C253.673,213.4,262.487,222.214,262.487,233.087z"/>
<g style="opacity:0.1;">
	<path style="fill:#231F20;" d="M242.8,213.4c-2.53,0-10.159,0.478-20.37,1.348c7.351,2.855,12.57,9.979,12.57,18.339
		s-5.219,15.485-12.57,18.34c10.211,0.869,17.839,1.347,20.37,1.347c10.873,0,19.688-8.814,19.688-19.688
		C262.487,222.214,253.673,213.4,242.8,213.4z"/>
</g>
<g>
	<circle style="fill:#B1E8FF;" cx="165.05" cy="24.19" r="16.691"/>
	<circle style="fill:#B1E8FF;" cx="430.73" cy="289.62" r="16.691"/>
</g>
<path style="fill:#289E48;" d="M351.408,391.339c0,2.75-2.25,5-5,5h-46.084c-2.75,0-5-2.25-5-5v-96.825c0-2.75,2.25-5,5-5h46.084
	c2.75,0,5,2.25,5,5L351.408,391.339L351.408,391.339z"/>
<rect x="295.32" y="323.9" style="fill:#89C947;" width="56.08" height="38.05"/>
<g style="opacity:0.1;">
	<path style="fill:#231F20;" d="M346.408,289.514H325c2.75,0,5,2.25,5,5v96.825c0,2.75-2.25,5-5,5h21.408c2.75,0,5-2.25,5-5v-96.825
		C351.408,291.764,349.158,289.514,346.408,289.514z"/>
</g>
<path d="M212.45,179.19c-1.97,0-3.9,0.8-5.3,2.2c-1.4,1.4-2.2,3.33-2.2,5.3c0,1.98,0.8,3.91,2.2,5.31c1.39,1.39,3.33,2.19,5.3,2.19
	c1.98,0,3.91-0.8,5.31-2.19c1.39-1.4,2.19-3.33,2.19-5.31c0-1.97-0.8-3.9-2.19-5.3C216.36,179.99,214.42,179.19,212.45,179.19z"/>
<path d="M297.91,179.2c-1.97,0-3.91,0.8-5.3,2.19c-1.4,1.4-2.2,3.33-2.2,5.3c0,1.98,0.8,3.91,2.2,5.31c1.4,1.39,3.33,2.19,5.3,2.19
	c1.98,0,3.91-0.8,5.31-2.19c1.39-1.4,2.19-3.33,2.19-5.31c0-1.97-0.8-3.9-2.19-5.3C301.82,180,299.89,179.2,297.91,179.2z"/>
<path d="M320.537,153.921l-19.348-5.184c-3.997-1.071-8.113,1.303-9.186,5.304c-1.072,4.001,1.303,8.113,5.304,9.186l19.348,5.183
	c0.65,0.174,1.303,0.257,1.946,0.257c3.311,0,6.342-2.21,7.24-5.561C326.912,159.106,324.538,154.994,320.537,153.921z"/>
<path d="M215.171,148.738l-19.349,5.184c-4.001,1.072-6.376,5.185-5.304,9.186c0.898,3.351,3.928,5.561,7.24,5.561
	c0.643,0,1.295-0.083,1.946-0.257l19.349-5.183c4.001-1.072,6.375-5.185,5.304-9.186
	C223.284,150.04,219.173,147.669,215.171,148.738z"/>
<path d="M236.45,379.02c-1.4-1.4-3.33-2.2-5.3-2.2c-1.98,0-3.91,0.8-5.31,2.2c-1.39,1.39-2.19,3.33-2.19,5.3
	c0,1.98,0.8,3.91,2.19,5.3c1.4,1.4,3.33,2.2,5.31,2.2c1.97,0,3.91-0.8,5.3-2.2c1.4-1.39,2.2-3.32,2.2-5.3
	C238.65,382.35,237.85,380.41,236.45,379.02z"/>
<path d="M217.83,415.07c-1.39,1.4-2.2,3.33-2.2,5.3c0,1.98,0.81,3.91,2.2,5.31c1.4,1.39,3.33,2.19,5.3,2.19
	c1.98,0,3.91-0.8,5.31-2.19c1.39-1.4,2.19-3.33,2.19-5.31c0-1.97-0.8-3.9-2.19-5.3c-1.4-1.39-3.33-2.2-5.31-2.2
	C221.16,412.87,219.23,413.68,217.83,415.07z"/>
<path d="M231.15,448.93c-1.98,0-3.91,0.8-5.31,2.19c-1.39,1.4-2.19,3.33-2.19,5.31c0,1.97,0.8,3.91,2.19,5.3
	c1.4,1.4,3.33,2.2,5.31,2.2c1.97,0,3.9-0.8,5.3-2.2c1.4-1.39,2.2-3.33,2.2-5.3c0-1.98-0.8-3.91-2.2-5.31
	C235.05,449.73,233.12,448.93,231.15,448.93z"/>
<path d="M165.049,48.383c13.339,0,24.191-10.853,24.191-24.192C189.239,10.852,178.388,0,165.049,0
	c-13.34,0-24.192,10.852-24.192,24.191C140.856,37.53,151.709,48.383,165.049,48.383z M165.049,15c5.067,0,9.191,4.123,9.191,9.191
	s-4.123,9.192-9.191,9.192c-5.069,0-9.192-4.124-9.192-9.192C155.856,19.123,159.98,15,165.049,15z"/>
<path d="M406.541,289.624c0,13.34,10.852,24.192,24.191,24.192c13.339,0,24.191-10.853,24.191-24.192s-10.852-24.19-24.191-24.19
	C417.393,265.434,406.541,276.285,406.541,289.624z M430.732,280.434c5.068,0,9.191,4.123,9.191,9.19
	c0,5.069-4.123,9.192-9.191,9.192c-5.068,0-9.191-4.124-9.191-9.192C421.541,284.557,425.664,280.434,430.732,280.434z"/>
<path d="M53.549,171.232c13.34,0,24.192-10.853,24.192-24.192s-10.853-24.191-24.192-24.191s-24.19,10.852-24.19,24.191
	C29.358,160.379,40.21,171.232,53.549,171.232z M53.549,137.849c5.069,0,9.192,4.123,9.192,9.191s-4.124,9.192-9.192,9.192
	c-5.067,0-9.19-4.124-9.19-9.192C44.358,141.972,48.481,137.849,53.549,137.849z"/>
<path d="M472.801,171.372c13.34,0,24.192-10.853,24.192-24.192s-10.853-24.191-24.192-24.191s-24.19,10.852-24.19,24.191
	C448.61,160.52,459.462,171.372,472.801,171.372z M472.801,137.989c5.069,0,9.192,4.123,9.192,9.191s-4.124,9.192-9.192,9.192
	c-5.067,0-9.19-4.124-9.19-9.192C463.61,142.112,467.733,137.989,472.801,137.989z"/>
<path d="M484.507,497H455.98c-7.862-20.862-23.565-34.5-41.584-36.011c2.907-11.715,4.419-23.818,4.419-36.106
	c0-16.034-2.543-31.66-7.353-46.415h10.199l12.491,12.492c1.465,1.464,3.384,2.197,5.304,2.197c1.919,0,3.839-0.732,5.303-2.196
	c2.929-2.929,2.929-7.678,0-10.607l-1.886-1.886h33.971c4.142,0,7.5-3.358,7.5-7.5s-3.358-7.5-7.5-7.5h-17.946l9.897-9.896
	c2.929-2.929,2.929-7.678,0-10.607c-2.93-2.929-7.678-2.928-10.607,0l-20.505,20.503h-32.021
	c-2.858-6.338-6.158-12.466-9.877-18.342c0.174-1.944-0.183-3.974-1.117-5.934l-19.241-40.38c-1.417-2.972-4.004-5.461-7.032-7.024
	c15.333-20.897,23.819-46.31,23.819-72.615c0-9.384-1.063-18.524-3.066-27.31c5.323-10.393,8.996-17.564,9.886-19.3
	c5.14-7.756,4.304-18.583-2.279-30.966c11.646-23.472,25.284-50.961,27.115-54.649c8.382-13.124-8.671-33.881-28.344-47.804
	c-19.633-13.892-44.826-23.06-54.454-10.894l-6.349,6.287c-2.943,2.915-2.967,7.663-0.053,10.607
	c2.915,2.944,7.664,2.965,10.607,0.052c4.177-4.135,6.754-6.689,6.757-6.691c0.218-0.218,0.423-0.45,0.613-0.694
	c2.785-1.209,16.395,0.968,34.217,13.578c17.836,12.623,24.415,24.742,24.187,27.758c-0.357,0.629-2.389,4.708-23.941,48.145
	c-8.308-10.285-19.469-20.565-32.306-29.647c-13.772-9.747-27.984-17.09-40.912-21.37l7.386-7.313
	c2.943-2.915,2.967-7.663,0.053-10.606c-2.915-2.944-7.664-2.966-10.606-0.053l-14.178,14.039c-1.949-0.206-3.851-0.335-5.665-0.335
	c-12.03,0-18.249,4.655-21.399,8.788c-1.49,1.52-7.605,7.753-16.393,16.705c-59.301,7.932-105.338,58.357-106.382,119.551
	c-1.712,0.357-3.342,0.715-4.867,1.074c-11.308,2.662-22.348,6.009-22.348,14.964c0,9.169,11.835,12.603,23.957,15.335
	c2.208,0.497,4.605,0.993,7.167,1.485c3.736,14.407,10.074,28.035,18.691,40.203c-5.331,0.567-10.408,4.27-12.42,9.231
	l-16.272,40.14c-1.285,3.17-1.168,6.481,0.278,9.263c-2.817,4.753-5.38,9.663-7.658,14.724h-36.52l-20.505-20.503
	c-2.93-2.929-7.677-2.928-10.607,0c-2.929,2.929-2.928,7.678,0.001,10.607l9.896,9.896H57.556c-4.142,0-7.5,3.358-7.5,7.5
	s3.358,7.5,7.5,7.5h33.97l-1.886,1.886c-2.929,2.929-2.929,7.678,0,10.607c1.464,1.465,3.384,2.197,5.303,2.197
	s3.839-0.732,5.303-2.197l12.492-12.492h14.702c-1.15,3.529-2.178,7.111-3.07,10.746c-0.987,4.022,1.475,8.084,5.497,9.071
	c4.025,0.986,8.084-1.474,9.071-5.498c1.197-4.88,2.665-9.656,4.376-14.319h13.054c4.142,0,7.5-3.358,7.5-7.5s-3.358-7.5-7.5-7.5
	h-6.483c1.582-3.08,3.281-6.094,5.095-9.036h132.843v36.907c0,5.692,3.828,10.498,9.042,12.003V411c0,4.142,3.358,7.5,7.5,7.5
	s7.5-3.358,7.5-7.5v-7.161h4V411c0,4.142,3.358,7.5,7.5,7.5s7.5-3.358,7.5-7.5v-7.161h4V411c0,4.142,3.358,7.5,7.5,7.5
	s7.5-3.358,7.5-7.5v-7.658c5.214-1.505,9.042-6.311,9.042-12.003v-36.907h24.979c1.817,2.946,3.52,5.959,5.102,9.036h-10.956
	c-4.142,0-7.5,3.358-7.5,7.5s3.358,7.5,7.5,7.5h17.554c5.374,14.625,8.229,30.292,8.229,46.415c0,25.726-7.241,50.575-20.976,72.117
	H156.055c-13.736-21.542-20.977-46.391-20.977-72.117c0-4.142-3.358-7.5-7.5-7.5c-4.142,0-7.5,3.358-7.5,7.5
	c0,2.48,0.083,4.95,0.204,7.414c-8.306,7.107-14.933,17.367-18.769,29.71c-3.126-0.776-6.316-1.167-9.546-1.167
	c-19.407,0-36.582,14.016-44.927,36.16H22.507c-4.142,0-7.5,3.358-7.5,7.5s3.358,7.5,7.5,7.5h29.914h99.593h36.326h126.335h72.206
	h63.713c0.006,0,0.013,0,0.02,0h33.893c4.142,0,7.5-3.358,7.5-7.5S488.649,497,484.507,497z M281.315,89.992L281.327,90
	c1.366-1.931,4.759-2.994,9.552-2.994c14.141,0,35.315,8.768,55.26,22.883c14.916,10.553,27.232,22.692,34.679,34.182
	c7.063,10.896,7.45,17.756,5.636,20.32c-0.094,0.132-0.183,0.268-0.268,0.406c-0.107,0.175-0.15,0.246-3.54,6.861
	c-17.923-42.539-59.153-72.937-107.606-75.12C279.642,91.833,280.872,90.541,281.315,89.992z M185.333,339.432H156.82l13.876-34.229
	c0.073-0.064,0.177-0.134,0.264-0.178h23.595L185.333,339.432z M240.351,339.432h-39.489l9.223-34.407h33.544L240.351,339.432z
	 M287.824,339.432H255.42l3.277-34.407h29.127L287.824,339.432L287.824,339.432z M343.908,388.839h-41.084V369.45h41.084
	L343.908,388.839L343.908,388.839z M343.908,354.45h-41.084v-23.047h41.084L343.908,354.45L343.908,354.45z M343.908,316.403
	h-41.084v-19.389h41.084L343.908,316.403L343.908,316.403z M354.629,285.127c-2.197-1.933-5.07-3.113-8.221-3.113h-46.084
	c-5.309,0-9.844,3.333-11.653,8.012H188.309c-9.559-10.953-16.769-23.672-21.255-37.352c5.238,0.781,10.915,1.552,17.025,2.308
	c4.112,0.509,7.855-2.412,8.364-6.523c0.508-4.111-2.412-7.855-6.523-8.364c-21.653-2.679-34.542-5.126-42.167-7.007
	c7.799-1.923,21.101-4.438,43.651-7.188c26.632-3.247,51.218-4.998,55.396-4.998c6.72,0,12.188,5.467,12.188,12.187
	s-5.467,12.188-12.186,12.188c-2.605-0.001-12.296-0.629-25.124-1.794c-4.124-0.38-7.773,2.665-8.147,6.791
	c-0.374,4.125,2.665,7.773,6.791,8.147c12.025,1.092,22.914,1.855,26.479,1.856c14.991,0,27.188-12.196,27.188-27.188
	S257.791,205.9,242.8,205.9c-6.113,0-35.383,2.27-62.942,5.828c-6.568,0.848-12.591,1.712-18.064,2.588
	c2.549-57.178,49.857-102.911,107.653-102.911c59.424,0,107.77,48.344,107.77,107.768
	C377.216,243.201,369.145,266.377,354.629,285.127z M358.908,339.432v-34.407h2.429c0.193,0.067,0.48,0.249,0.624,0.394
	l16.208,34.013H358.908z M63.401,497c6.533-12.97,17.249-21.16,28.565-21.16c3.905,0,7.752,0.933,11.433,2.773
	c2.099,1.049,4.567,1.055,6.67,0.018c2.104-1.037,3.601-3,4.046-5.302c1.578-8.154,4.537-15.375,8.447-21.218
	c2.895,15.725,8.315,30.847,16.079,44.89h-75.24V497z M400.252,497c3.763-6.807,6.974-13.867,9.611-21.129
	c0.394-0.019,0.789-0.031,1.185-0.031c11.316,0,22.032,8.19,28.565,21.16H400.252z"/>
<g>
</g>
<g>
</g>
<g>
</g>
<g>
</g>
<g>
</g>
<g>
</g>
<g>
</g>
<g>
</g>
<g>
</g>
<g>
</g>
<g>
</g>
<g>
</g>
<g>
</g>
<g>
</g>
<g>
</g>
</svg>
