<?xml version="1.0" encoding="iso-8859-1"?>
<!-- Generator: Adobe Illustrator 19.0.0, SVG Export Plug-In . SVG Version: 6.00 Build 0)  -->
<svg version="1.1" id="Capa_1" xmlns="http://www.w3.org/2000/svg" xmlns:xlink="http://www.w3.org/1999/xlink" x="0px" y="0px"
	 viewBox="0 0 511.998 511.998" style="enable-background:new 0 0 511.998 511.998;" xml:space="preserve">
<path style="fill:#EB3840;" d="M49.353,239.776c20.342-3.784,45.193-1.556,65.903-0.539c42.961,2.111,86.429-0.681,129.48-0.84
	c52.457-0.194,104.893,0.083,157.328,2.013c8.392,0.309,17.883-1.36,24.162,3.586c6.975,5.494,12.121,16.693,17.096,23.915
	c5.359,7.778,10.89,15.451,16.226,23.172c4.735,6.852,11.056,13.075,14.565,20.729c7.767,16.942,4.747,39.088,3.463,57.155
	c-0.792,11.154-0.621,22.157-0.866,33.321c-0.078,3.533,0.981,14.405-2.07,17.198c-4.987,4.565-22.278,2.553-29.074,3.119
	c-6.624,0.552-13.35,2.682-18.739,0.362c-6.32-2.721-11.291-9.416-17.49-12.702c-6.338-3.359-13.745-5.393-20.868-6.2
	c-23.184-2.626-42.161,16.864-50.154,37.274c-3.66,9.346-0.915,19.63-12.288,20.762c-20.639,2.054-41.821-0.896-62.621,0.773
	c-31.694,2.543-64.623,1.565-96.204-0.183c-1.637-24.95-13.411-57.324-41.495-60.887c-10.142-1.287-19.894,1.818-28.675,6.913
	c-10.673,6.193-9.711,14.585-15.446,23.903c-5.448,8.852-18.094,2.899-27.082,1.746c-4.714-0.605-14.361,1.558-18.333-1.053
	c-4.761-3.13-2.656-11.884-2.858-17.805c-0.511-15.04-1.968-30.039-1.968-45.097c0-13.419,0.667-26.628,1.326-39.93
	c0.65-13.117,0.838-27.031-0.097-40.128c-1.094-15.324-7.659-33.951-1.073-48.933C34.316,235.016,39.805,238.756,49.353,239.776z"/>
<g>
	<path style="fill:#E4EDF1;" d="M432.02,424.876c8.374-2.516,20.467,0.136,29.042,0.564c7.717,0.385,25.717,0.315,31.516,6.997
		c4.682,5.396,5.126,16.333-0.148,21.021c-6.662,5.922-17.29,7.382-25.736,8.31c-7.825,0.859-15.782,0.509-23.643,0.509
		c-3.514,0-7.322,0.973-9.89-1.662c-3.248-3.332-3.102-14.652-3.839-18.961C428.651,437.728,424.38,425.614,432.02,424.876z"/>
	<path style="fill:#E4EDF1;" d="M35.155,428.512c6.149-0.337,12.965,1.225,18.96,2.339c2.983,0.554,16.907,1.433,18.867,4.012
		c1.983,2.61-4.476,21.404-5.609,25.321c-2.588,8.955-12.766,5.762-21.011,5.729c-10.906-0.044-27.075,0.083-31.072-12.078
		C10.173,438.27,23.947,430.092,35.155,428.512z"/>
</g>
<g>
	<path style="fill:#7C8B96;" d="M406.567,406.176c7.561-0.676,18.216,14.079,21.842,19.726c5.651,8.802,7.253,20.65,7.247,30.864
		c-0.012,19.852-8.242,37.728-27.935,45.015c-11.315,4.187-28.053,4.581-39.724,1.027c-9.562-2.911-17.311-9.755-22.481-18.186
		c-7.659-12.491-10.203-28.44-6.441-42.637c1.894-7.149,5.696-11.773,9.617-17.668c4.336-6.519,7.177-12.297,14.473-16.179
		c5.861-3.118,11.307-4.845,17.844-5.582C391.107,401.418,395.88,402.489,406.567,406.176z"/>
	<path style="fill:#7C8B96;" d="M136.968,408.773c11.198,1.078,20.603,16.713,24.219,26.015c3.927,10.104,6.299,26.335,3.703,36.905
		c-5.111,20.805-21.665,30.096-42.041,30.063c-19.335-0.031-33.482-6.33-45.403-22.161c-10.894-14.466-9.838-33.781-1.463-49.336
		c4.751-8.824,11.298-19.337,20.996-23.025C112.095,401.486,126.288,406.637,136.968,408.773z"/>
</g>
<g>
	<path style="fill:#637079;" d="M376.958,491.294c19.059-0.93,33.9-7.703,39.535-27.4c4.059-14.191,0.659-35.775-13.986-42.749
		c-3.157-1.504-0.781-5.838,2.233-5.296c21.668,3.898,29.893,34.629,25.656,53.309c-5.442,23.995-31.984,46.346-56.621,33.888
		C367.871,500.061,371.106,491.579,376.958,491.294z"/>
	<path style="fill:#637079;" d="M389.511,434.141c0.655,0.726,0.627,1.998-0.323,2.499c-3.341,1.761-6.449,1.828-9.984,2.837
		c-3.569,1.019-6.66,3.397-9.038,6.204c-4.525,5.341-3.518,11.6-3.687,18.155c-0.153,5.936-7.284,7.18-10.482,2.839
		C341.507,447.003,371.701,414.425,389.511,434.141z"/>
	<path style="fill:#637079;" d="M123.632,491.301c12.205-8.43,23.614-14.496,25.444-30.623c0.847-7.457-0.37-15.276-3.071-22.265
		c-3.082-7.975-9.487-13.917-11.419-22.373c-0.456-1.994,1.757-3.057,3.228-1.88c17.209,13.77,30.165,29.732,27.343,53.32
		c-2.233,18.659-17.384,34.135-35.44,38.255C120.786,507.773,116.293,496.369,123.632,491.301z"/>
	<path style="fill:#637079;" d="M91.891,440.157c6.677-9.709,17.714-11.655,28.525-9.625c2.014,0.379,1.976,3.077,0.529,4.05
		c-5.923,3.981-15.579,5.553-18.344,12.939c-2.281,6.09,0.361,12.317-2.871,18.319c-1.422,2.642-5.819,3.471-7.853,1.012
		C85.93,459.658,86.687,447.726,91.891,440.157z"/>
</g>
<g>
	<path style="fill:#E4EDF1;" d="M369.16,450.012c2.418-6.892,9.133-12.79,16.726-12.603c17.903,0.441,21.766,32.143,3.599,35.833
		c-7.201,1.462-14.91-1.794-18.803-8.06c-1.585-2.55-2.327-5.465-2.356-8.408C368.13,454.539,368.38,452.235,369.16,450.012z"/>
	<path style="fill:#E4EDF1;" d="M101.684,451.242c0.439-2.179,1.284-4.253,2.535-6.083c1.594-2.951,4.107-5.317,7.619-6.456
		c6.026-1.953,11.65,0.658,15.53,5.068c0.031,0.035,0.059,0.073,0.089,0.109c2.869,3.307,4.771,7.593,5.124,11.742
		c0.028,0.338,0.006,0.66,0.014,0.991c0.434,9.456-6.005,18.825-16.772,17.168C105.06,472.124,99.344,460.845,101.684,451.242z"/>
</g>
<g>
	<path style="fill:#CAD6DD;" d="M384.765,455.676c0.938-1.744,1.3-3.464,1.158-5.448c-0.067-0.939-0.27-1.85-0.491-2.765
		c-0.137-0.569-1.427-2.439-0.337-1.114c-1.423-1.73-1.727-5.041,0.793-6.157c8.875-3.932,13.677,5.749,14.263,13.267
		c0.69,8.862-6.498,20.058-15.921,20.628c-2.246,0.136-4.252-1.674-4.876-3.712C377.445,464.135,382.129,460.574,384.765,455.676z"
		/>
	<path style="fill:#CAD6DD;" d="M115.113,464.328c0.973-3.895,3.636-5.886,3.35-9.525c-0.16-2.047-0.792-4.256-1.364-6.222
		c-0.211-0.727-0.424-1.41-0.683-2.12c-0.335-0.919-1.958-2.838-0.16-0.873c-0.987-1.079-1.506-3.033-0.559-4.337
		c6.338-8.737,14.008,3.475,16.473,9.057c2.142,4.85,3.027,10.046,0.497,14.96c-2.563,4.977-7.974,7.555-13.387,6.398
		C116.073,470.981,114.368,467.31,115.113,464.328z"/>
</g>
<path style="fill:#E4EDF1;" d="M445.526,201.509c11.228,0.393,18.09,20.768,12.306,28.986c-5.147,7.313-15.643,8.441-23.819,8.831
	c-17.247,0.823-34.406,2.455-51.676,3.107c-46.343,1.749-91.908,1.826-138.256-0.924c-39.133-2.322-78.634-3.65-117.843-3.637
	c-31.764,0.01-63.88,3.787-95.602,0.531c-6.005-0.616-11.96-1.576-14.649-7.849c-2.272-5.299-1.749-17.524,0.572-23.166
	c2.763-6.715,8.99-5.991,15.281-7.006c18.368-2.964,36.712-3.966,55.33-4.471c19.505-0.529,39.002-1.167,58.518-1.155
	c23.915,0.015,47.428,2.208,71.289,3.259c22.183,0.977,43.455-1.411,65.59-0.98c24.354,0.475,48.713,0.708,73.072,0.796
	c15.115,0.055,29.547,1.131,44.602,0.327c8.018-0.428,16.07-0.654,24.09-0.145C431.398,198.462,438.642,201.268,445.526,201.509z"/>
<g>
	<path style="fill:#CAD6DD;" d="M438.413,447.527c8.254-1.854,17.667-0.956,26.237-2.127c8.903-1.217,17.939-3.725,26.833-1.286
		c4.979,1.366,4.161,7.631,0,9.314c-9.676,3.914-20.267,6.617-30.529,8.436c-8.771,1.555-18.504,4.084-25.724-2.276
		C431.222,456.057,433.286,448.68,438.413,447.527z"/>
	<path style="fill:#CAD6DD;" d="M24.254,446.98c13.291,4.017,29.017-1.362,41.822,5.041c2.79,1.396,2.86,5.252,0.942,7.317
		c-6.684,7.199-17.906,5.539-26.808,5.714c-7.391,0.145-15.776,1.151-22.495-2.565C9.356,457.864,14.989,444.179,24.254,446.98z"/>
	<path style="fill:#CAD6DD;" d="M25.481,218.236c9.427-7.616,20.904-4.191,32.062-4.08c19.124,0.19,38.251,0.479,57.373,0.788
		c38.235,0.617,76.446,2.182,114.669,3.215c38.122,1.03,76.133,0.776,114.255,0.203c37.178-0.558,74.136,1.954,111.036,6.199
		c6.354,0.731,6.496,9.412,0,9.999c-4.804,0.434-9.609,0.739-14.415,0.954c-0.688,0.623-1.532,1.103-2.564,1.33
		c-17.668,3.899-36.209,3.196-54.236,4.39c-17.452,1.156-34.838,2.489-52.337,2.661c-36.244,0.357-72.548-1.666-108.702-4.015
		c-36.192-2.352-72.432-5.373-108.72-5.482c-17.379-0.052-34.832,0.074-52.201,0.602c-11.627,0.354-23.82,2.984-34.463-3.119
		C22.79,229.33,21.069,221.799,25.481,218.236z"/>
</g>
<path style="fill:#10537E;" d="M403.45,265.922c11.509,8.833,19.304,24.723,27.905,36.34c5.297,7.154,11.958,13.645,14.91,22.314
	c2.286,6.711,1.802,16.095,1.339,23.29c-0.248,3.854,0.065,5.978-3.829,7.622c-5.274,2.226-15.365,0.3-21.136,0.3
	c-20.747,0-41.242,2.755-62.043,1.558c-4.866-0.28-5.444-0.11-6.253-5.451c-1.548-10.22-0.767-21.007-1.255-31.316
	c-0.699-14.742-5.479-30.178-3.681-45.027c0.78-6.44,3.589-8.375,9.669-9.889c5.565-1.386,11.491-1.915,17.217-2.611
	c5.541-0.673,10.663-0.145,16.168-0.193C396.594,262.823,400.902,261.051,403.45,265.922z"/>
<g>
	<path style="fill:#E4EDF1;" d="M381.114,356.827c-0.754-8.62-3.295-21.324-5.31-31.037c-1.232-5.941-1.312-14.908-6.373-19.096
		c-2.633-2.179-15.104-5.301-17.821-1.708c-2.071,2.738,1.246,14.744,1.698,18.213c1.004,7.697,2.273,14.931,4.053,22.467
		c0.969,4.103,0.978,7.672,4.015,10.109C367.211,360.458,374.274,354.259,381.114,356.827z"/>
	<path style="fill:#E4EDF1;" d="M400.333,356.827c0.015-7.908,2.674-17.031,4.285-24.805c0.791-3.82,1.993-15.364,4.846-17.794
		c3.015-2.569,13.716-0.924,14.775,2.591c1.169,3.884-3.25,11.669-3.925,15.596c-0.794,4.627-0.69,4.18,3.267,6.347
		c6.791,3.719,15.123,4.414,21.866,7.262c-2.171,10.014-8.625,9.945-18.002,10.284C419.063,356.611,408.44,354.425,400.333,356.827z
		"/>
	<path style="fill:#E4EDF1;" d="M71.517,358.215c42.778-0.039,85.495,2.098,128.288,2.26c21.399,0.081,42.668-0.371,64.036-1.511
		c19.556-1.044,40.627-4.149,59.797,0.698c4.298,1.087,4.474,7.89,0,8.875c-19.298,4.252-40.08,3.727-59.797,5.015
		c-21.351,1.395-42.651,1.454-64.036,1.354c-42.787-0.2-85.512-2.143-128.288-1.806C61.938,373.176,61.923,358.224,71.517,358.215z"
		/>
</g>
<path style="fill:#CAD6DD;" d="M71.517,363.978c21.162-2.733,44.353,0.776,65.665,1.548c20.519,0.743,41.04,1.493,61.572,1.669
	c20.104,0.172,40.221-0.074,60.312-0.775c10.598-0.37,21.157-0.613,31.762-0.636c9.376-0.021,21.214,1.852,30.066-1.359
	c1.918-0.696,3.269,2.447,1.4,3.323c-6.331,2.97-12.712,2.812-19.621,3.055c-11.201,0.394-22.406,0.574-33.601,1.126
	c-22.05,1.085-44.141,1.518-66.217,1.51c-21.898-0.008-43.788-0.702-65.673-1.394c-21.819-0.69-44.94,1.313-66.525-1.704
	C66.7,369.786,68.276,364.396,71.517,363.978z"/>
<path style="fill:#10537E;" d="M310.987,266.442c6.453,9.263,7.025,23.416,6.359,34.346c-0.743,12.206,0.171,25.603-2.973,37.515
	c-5.042,19.102-28.936,16.547-44.896,17.485c-34.226,2.012-68.581,0.632-102.781-1.053c-23.789-1.172-48.125,0.641-71.755-2.092
	c-11.358-1.313-14.574-7.083-16.035-18.189c-2.003-15.228-1.348-31.511-0.649-46.827c0.25-5.488-0.62-15.294,2.09-20.21
	c2.46-4.463,7.777-4.363,12.512-4.631c22.648-1.283,45.514,0.099,68.257,0.018c26.842-0.096,53.674,1.869,80.492,0.494
	c11.723-0.601,23.66-0.895,35.411-0.377c7.207,0.317,14.427,0.665,21.642,0.937C303.889,264.056,308.545,266.09,310.987,266.442z"/>
<g>
	<path style="fill:#EB3840;" d="M473.126,386.33c-3.687-1.564-8.725-1.289-12.594-0.55c-7.105,1.356-8.236,12.277-9.063,18.093
		c-0.431,3.032-3.302,15.029,0.563,17.129c0.764,0.415,2.414-0.345,3.339-0.41c2.33-0.163,4.569,0.532,6.854,0.829
		c5.085,0.661,11.235,1.771,16.309,1.437c-0.051-5-2.88-10.106-3.156-15.349C474.968,399.682,472.951,391.374,473.126,386.33z"/>
	<path style="fill:#EB3840;" d="M38.743,392.314c5.103,0.141,12.236-1.662,16.631,1.313c8.84,5.984,5.504,21.993,4.877,30.75
		c-0.139,1.945,0.309,3.486-1.224,4.387c-1.59,0.935-6.387-0.392-8.037-0.493c-3.29-0.201-7.254,0.439-10.435-0.597
		c-4.311-1.404-3.416-7.004-3.457-11.237C37.026,408.84,35.628,399.719,38.743,392.314z"/>
</g>
<g>
	<path style="fill:#FFC585;" d="M133.654,151.514c3.089-39.604,25.873-77.176,57.185-101.171
		c8.66-6.636,16.365-12.472,27.063-15.174c9.383-2.37,18.492-2.013,28.056-2.822c20.662-1.748,46.839,1.085,63.929,13.562
		c34.065,24.869,55.369,62.55,64.398,103.696c4.085,18.614-21.501,17.673-33.919,18.443c-28.571,1.771-57.691-0.528-86.35-0.432
		c-28.717,0.096-56.984,0.38-85.499-2.716c-8.474-0.92-17.164-0.075-25.556-1.391C134.418,162.168,136.074,157.674,133.654,151.514z
		"/>
	<path style="fill:#FFC585;" d="M179.574,22.705c-13.441-3.781-26.965,5.675-38.411,11.598
		c-15.669,8.108-31.136,19.202-42.433,32.874c-10.268,12.428-15.572,27.457-18.272,43.167c-1.395,8.115-3.155,17.948-0.913,26.244
		c-0.137,0.645-0.224,1.31-0.201,2.015c0.051,1.505,0.922,3.869,1.8,6.123c0.012,3.757,0.541,7.402,1.821,10.825
		c1.743,4.662,7.278,7.342,11.842,6.616c0.484,0.74,0.946,1.482,1.368,2.23c3.019,5.356,11.718,1.772,9.969-4.203
		c-0.547-1.867-2.657-5.3-4.392-8.551c0.048-0.768,0.056-1.539,0.002-2.326c2.037-3.319,3.402-6.851,4.522-10.487
		c1.497-1.026,2.83-2.005,3.485-2.84c3.573-4.558,3.826-8.82,3.393-14.47c-0.587-7.672,3.983-11.952,8.394-18.231
		c9.68-13.783,20.729-26.556,32.226-38.851c5.652-6.044,11.594-11.807,18.471-16.456c5.034-3.403,9.818-6.117,12.89-11.613
		C188.068,31.119,185.436,24.354,179.574,22.705z"/>
</g>
<g>
	<path style="fill:#F9B169;" d="M360.969,150.422c-4.297-4.817-9.838-7.363-15.28-10.655c-6.17-3.732-12.016-8.029-17.987-12.067
		c-12.891-8.718-26.351-16.262-40.335-23.085c-13.397-6.536-27.415-11.984-40.461-19.215c-12.629-7-20.087-16.473-30.184-26.182
		c-19.232-18.494-38.139-0.035-50.957,16.551c-13.585,17.579-26.162,42.26-28.523,65.649c-2.14,6.013-3.135,12.349,1.103,17.254
		c7.066,8.179,26.955,5.174,36.344,5.181c32.205,0.022,64.2-1.129,96.391-2c15.395-0.416,30.752-0.518,46.141,0.165
		c13.063,0.58,28.019,3.66,40.75-0.233C363.036,160.236,364.393,154.261,360.969,150.422z"/>
	<path style="fill:#F9B169;" d="M127.563,88.083c-0.552-1.744-1.335-3.187-2.257-4.396c-0.199-6.016-8.247-10.996-13.423-7.073
		c-3.675,2.785-6.414,6.695-8.558,11.119c-0.518-2.535-3.738-4.624-6.152-3.486c-2.767-0.51-5.879,0.705-7.872,2.46
		c-7.692,6.775-9.078,20.626-10.114,30.095c-0.545,4.975-1.078,11.239-0.422,17.176c-0.63,5.582-0.183,11.126,2.742,16.332
		c1.687,3.002,4.847,3.951,7.9,3.411c0.648,0.931,1.41,1.803,2.353,2.571c3.032,2.471,7.274,3.667,10.857,1.401
		c1.61-1.018,3.045-2.158,4.408-3.348c7.332-1.321,11.786-11.187,14.622-21.068c0.12-0.233,0.241-0.461,0.36-0.694
		c0.843-1.643,1.126-3.214,1.041-4.664c1.153-4.83,1.957-9.263,2.573-12.201C127.375,107.343,130.247,96.555,127.563,88.083z"/>
</g>
<path style="fill:#5CBF4B;" d="M136.968,97.366c-1.771,0-3.116,0.652-4.071,1.629c-2.706-0.455-5.561,0.486-7.134,3.505
	c-1.566,3.005-3.151,6.123-4.662,9.322c-0.263,0.386-0.527,0.773-0.79,1.159c-0.567,0.237-1.115,0.579-1.618,1.059
	c-2.582,2.464-2.8,5.122-2.098,8.43c-1.782,4.856-3.186,9.826-3.896,14.835c-0.91,0.017-1.825,0.057-2.763,0.168
	c-7.075,0.836-11.097,8.521-5.889,14.214c3.215,3.513,6.861,6.068,10.937,8.485c5.081,3.014,13.294-0.757,12.65-7.259
	c-0.59-5.95,5.363-11.904,6.337-17.988c0.399-2.493-1.043-5.357-3.192-6.578c1.321-4.186,3.006-8.297,4.791-12.218
	c0.467-0.743,0.897-1.503,1.308-2.27c0.73-0.526,1.353-1.187,1.841-2.111c0.539-1.02,0.946-2.147,1.307-3.284
	C144.432,105.781,143.435,97.366,136.968,97.366z"/>
<path style="fill:#AD514A;" d="M173.989,58.795c0.065-6.194-5.865-10.048-11.558-8.805c-2.449,0.535-4.587,1.609-6.496,3.012
	c-2.842,0.535-5.536,2.306-7.344,4.556c-2.702,3.363-3.858,7.391-3.824,11.691c0,0.013,0.002,0.026,0.002,0.039
	c-0.513,1.334-0.897,2.663-1.065,3.95c-3.298-0.506-6.528,0.941-8.52,3.949c-1.953,2.947-1.904,6.621-0.397,9.541
	c-1.889,2.43-2.109,6.044,0.428,8.438c0.017,0.016,0.034,0.031,0.05,0.047c0.383,0.36,0.795,0.645,1.221,0.887
	c-0.004,0.015-0.008,0.031-0.013,0.046c4.597,2.596,10.422-0.165,13.767-3.54c1.928-1.945,4.302-4.484,5.033-7.141
	c0.252-0.914,0.259-1.904,0.229-2.837c-0.308-2.228-0.381-2.786-0.221-1.676c0.062,0.518,0.077,0.553,0.049,0.103
	c0.091-0.838-0.033-2.136-0.218-3.067C164.954,76.638,173.878,69.368,173.989,58.795z"/>
<path style="fill:#EB3840;" d="M198.451,33.444c-1.14-2.743-3.776-4.21-6.715-4.118c-1.932,0.061-3.405,0.848-4.805,1.879
	c-1.3,0.194-2.582,0.768-3.706,1.645c-3.884,3.032-11.904,8.878-9.905,14.686c0.71,2.063,2.899,3.683,5.167,2.934
	c0.984-0.325,1.764-0.696,2.479-1.125c0.874,0.158,1.757,0.13,2.563-0.209c3.076-1.298,5.661-3.192,8.458-4.993
	C195.799,41.686,200.739,38.946,198.451,33.444z"/>
<g>
	<path style="fill:#FFD45C;" d="M222.094,13.797c-0.23-1.231-0.506-2.456-0.832-3.676c-0.985-3.675-4.744-6.084-8.464-5.525
		c-3.465,0.521-7.082,3.707-6.688,7.576c0.032,0.328,0.048,0.658,0.079,0.987c-0.396,0.949-0.619,1.994-0.567,3.141
		c0.164,3.657,0.212,7.472,1.43,10.955c0.777,2.223,2.251,3.768,3.991,4.688c4.611,4.421,13.446,1.944,13.815-5.747
		C225.066,21.916,223.827,17.692,222.094,13.797z"/>
	<path style="fill:#FFD45C;" d="M247.829,14.317l-1.294-1.673c-0.369-0.398-0.774-0.737-1.211-1.02
		c-0.533-0.634-1.14-1.196-1.816-1.553c-3.31-1.749-8.171-1.029-9.993,2.62c-0.308,0.616-0.594,1.264-0.849,1.925
		c-0.159,0.227-0.352,0.431-0.489,0.672c-0.827,1.442-1.305,3.331-1.305,4.995c0,1.963,0.665,3.356,1.52,5.036
		c0.024-0.014,0.05-0.029,0.074-0.043c0.182,0.306,0.365,0.612,0.591,0.905c2.448,3.169,6.852,4.22,10.465,2.433
		c0.007-0.003,0.014-0.006,0.02-0.01c0.165-0.082,0.337-0.136,0.498-0.23c0.081-0.047,0.162-0.095,0.243-0.142
		c-0.081,0.035-0.162,0.069-0.243,0.103c2.734-1.441,4.637-4.005,5.066-7.198C249.451,18.558,248.916,16.619,247.829,14.317z"/>
</g>
<g>
	<path style="fill:#7C8B96;" d="M144.109,183.53c-0.204-2.744-0.231-5.494-0.242-8.243c0.187-7.015-7.076-9.182-11.843-6.598
		c-3.127,0.428-6.239,3.277-5.923,6.626c-0.202,2.089-0.28,4.18-0.346,6.274c-0.069,0.821-0.109,1.646-0.08,2.482
		c0.057,1.717,0.606,3.114,1.456,4.19c0.003,0.092,0.01,0.183,0.013,0.275c-0.005,1.671,0.774,2.993,1.898,3.913
		c0.287,0.652,0.613,1.277,1.014,1.848c3.682,5.251,12.225,4.927,14.092-1.842C145.005,189.343,144.342,186.664,144.109,183.53z"/>
	<path style="fill:#7C8B96;" d="M320.3,183.578h0.113c-0.076-0.658-0.084-1.295-0.123-1.939c0.02-1.77,0.034-3.54,0.076-5.31
		c0.111-4.757-4.125-8.803-8.803-8.803c-0.147,0-0.274,0.035-0.418,0.041c-1.318-0.295-2.71-0.296-4.089,0.083
		c-1.436,0.394-2.592,1.099-3.522,2.006c-3.119,1.206-5.409,4.119-5.384,7.674c0.031,4.319,0.053,8.463,1.932,12.443
		c0.681,1.444,1.656,2.386,2.76,2.957c0.422,10.859,17.595,10.779,17.363-0.317c0.015-2.655,0.024-5.311,0.045-7.966
		C320.273,184.156,320.29,183.867,320.3,183.578z"/>
</g>
<path style="fill:#CF242C;" d="M424.724,244.321c-13.162-4.766-31.319-0.922-45.182-0.531c-15.905,0.449-31.807,0.543-47.717,0.499
	c-32.738-0.091-65.474-0.61-98.211-0.853c-32.67-0.242-65.348-0.517-97.997-1.806c-16.46-0.65-32.923-1.516-49.399-1.518
	c-9.638-0.002-19.212,1.383-28.843,1.568c-5.563,0.107-18.232-4.468-22.869-1.069c-4.552,3.337-2.008,15.308-2.237,20.401
	c-0.746,16.604-0.554,32.982-0.243,49.578c0.367,19.568-0.239,38.953,1.536,58.452c0.492,5.406,0.329,11.112,1.377,16.42
	c1.01,5.116,13.214,9.006,15.91,4.19c6.573-11.74,3.232-26.941,2.544-39.822c-0.793-14.816-1.341-29.628-1.892-44.453
	c-0.484-12.996-1.739-25.95-2.238-38.936c-0.168-4.394-0.246-8.822-0.977-13.067c9.74,1.342,19.852,0.36,29.674,0.647
	c17.17,0.503,34.337,1.349,51.492,2.2c33.346,1.652,66.703,2.084,100.083,2.365c32.765,0.275,65.529,0.801,98.295,0.962
	c15.924,0.078,31.844,0.073,47.764-0.33c7.898-0.2,15.797-0.532,23.697-0.668c8.405-0.145,17.441,1.104,25.434-1.846
	C430.766,254.472,430.836,246.534,424.724,244.321z"/>
<path style="fill:#FFD45C;" d="M61.647,402.02c2.415,7.071-0.442,16.06-0.531,23.427c-0.064,5.25,0.299,5.47,4.947,7.713
	c5.805,2.803,4.938,1.856,8.027-4.236c3.313-6.536,7.587-14.049,13.797-18.314c12.938-8.886,36.746-9.964,50.482-2.97
	c8.068,4.108,15.726,9.022,19.923,17.292c3.564,7.023,4.894,15.258,6.473,22.903c0.619,2.994-0.36,8.501,0.762,11.245
	c1.315,3.215,0.264,1.924,3.739,2.703c3.372,0.756,8.972-0.456,12.519-0.591c7.15-0.271,14.285-0.719,21.473-0.495
	c16.512,0.516,33.098,1.429,49.619,1.59c8.129,0.079,16.281,0.466,24.368,0.048c13.365-0.692,27.312,0.048,40.761,0.416
	c3.139,0.086,12.258,1.794,15.075,0.542c4.109-1.825,3.463-4.697,4.388-9.029c3.039-14.234,4.728-28.721,14.878-39.853
	c14.91-16.351,47.45-21.348,60.463-0.395c1.135,1.828,2.999,7.217,4.512,8.297c2.143,1.529,7.512,0.343,10.051-0.01
	c6.501-0.904,21.298,0.32,23.886-6.255c2.109-5.359,0.208-13.218,1.916-19.099c1.361-4.687,3.336-10.293,7.946-12.605
	c4.629-2.321,7.541,0.898,9.73-4.146c1.96-4.515,1.748-14.339,1.088-19.14c-7.599,0.185-16.838,3.75-24.351,5.766
	c-28.215,7.57-56.057,16.471-83.791,25.727c-16.789,5.603-34.1,9.048-50.424,15.915c-3.884,1.634-13.538,7.455-17.671,6.562
	c-6.309-1.363-0.555-12.582,0.484-16.166c1.848-6.372,0.247-4.569-6.652-3.107c-23.867,5.056-48.606,6.865-72.744,10.026
	c-12.049,1.578-29.416,8.55-41.304,4.457c1.208-7.442,11.85-14.306,9.801-23.324c-1.888-8.31-22.504-1.475-29.229-0.365
	c-19.202,3.169-38.335,4.39-57.615,7.028c-12.166,1.665-26.694,1.641-38.299,5.424C59.706,399.954,60.49,399.473,61.647,402.02z"/>
<path style="fill:#FFC585;" d="M272.054,341.992c-0.09-0.791-0.237-1.627-0.446-2.511c-3.228-13.633-17.902-23.169-31.426-22.267
	c-7.283,0.486-14.539,2.935-20.791,6.667c-3.098,1.849-6.046,4.039-8.537,6.66c-1.281,1.347-3.504,6.196-4.886,6.852
	c-6.082,2.884-6.763,12.658,0.018,15.072c0.067,0.133,0.124,0.266,0.195,0.398c1.071,1.979,2.993,2.082,4.469,1.199
	c10.53,3.115,21.342,3.255,32.242,2.51C254.451,355.78,273.765,357.091,272.054,341.992z"/>
<path style="fill:#EB3840;" d="M154.57,341.616c2.165-8.288,1.624-17.763-0.34-25.418c-1.666-6.498-8.771-7.24-12.981-3.952
	c-6.497-1.957-14.425-2.776-18.072,3.772c-2.452,4.402-1.815,9.976-0.698,15.198c-0.873,4.607-0.959,9.621-0.042,13.757
	c1.649,7.429,8.921,12.111,15.967,8.746c3.703,2.771,8.509,2.206,11.616-2.091c0.01-0.014,0.018-0.029,0.028-0.044
	c3.651-1.253,6.345-4.665,4.679-9.399C154.661,341.997,154.631,341.805,154.57,341.616z"/>
<path style="fill:#CF242C;" d="M138.166,330.72c-0.432-5.516-1.136-11.668-4.054-16.471c-2.629-4.326-9.48-2.532-9.529,2.581
	c-0.054,5.602,0.306,11.165,0.098,16.796c-0.244,6.579,0.436,13.056,0.282,19.687c3.803-0.959,8.901-0.885,12.96-0.887
	C137.891,344.848,138.762,338.336,138.166,330.72z"/>
<g>
	<path style="fill:#5CBF4B;" d="M203.588,342.398c-0.908-2.404-2.426-4.297-5.009-5.009c-2.621-0.722-4.83,0.16-6.85,1.749
		c-0.235,0.133-0.469,0.27-0.702,0.451c-1.071,0.828-1.788,1.866-2.193,3.18c-0.507,1.639-0.217,3.862,0.372,5.532
		c0.96,2.719,2.966,4.695,5.908,5.09c2.743,0.369,5.69-0.902,7.081-3.393C203.406,347.827,204.508,344.834,203.588,342.398z"/>
	<path style="fill:#5CBF4B;" d="M203.459,318.331c-3.834,0-7.507,3.371-7.329,7.329c0.178,3.971,3.22,7.329,7.329,7.329
		c3.834,0,7.507-3.371,7.329-7.329C210.611,321.689,207.568,318.331,203.459,318.331z"/>
</g>
<path style="fill:#AD514A;" d="M227.963,310.643c-1.468-2.509-4.057-3.849-6.909-3.963c-1.535-0.062-3.678,0.471-4.932,1.335
	c-2.818,1.939-4.785,5.476-3.652,8.975c0.432,1.335,1.182,2.529,2.144,3.494c-0.032,0.004-0.066,0.009-0.099,0.013
	c1.175,0.933,2.22,1.875,3.756,2.225c1.436,0.327,3.02,0.409,4.442-0.018c2.175-0.654,4.125-1.946,5.251-3.983
	C229.357,316.2,229.435,313.158,227.963,310.643z"/>
<path style="fill:#EB3840;" d="M243.449,306.241c-3.237-2.501-8.051-1.632-10.137,1.936c-1.938,3.311-0.665,7.416,2.475,9.44
	c3.535,2.279,9.336,0.171,10.135-4.123C246.456,310.622,245.858,308.101,243.449,306.241z"/>
<path d="M100.631,440.082c-5.821,6.953-9.478,20.147-3.697,27.16c0.237,0.536,0.463,1.074,0.755,1.598
	c6.005,10.761,20.972,12.208,30.522,5.522c11.02-7.716,11.506-24.015,3.771-34.231C123.854,429.396,109.055,430.019,100.631,440.082
	z M109.064,470.867c-0.789-0.27-1.534-0.606-2.234-0.997c0.018-0.395-0.119-0.8-0.527-1.144c-8.208-6.939-6.628-18.142,0.66-25.282
	c9.993-9.79,22.378-0.343,22.925,11.647C130.4,466.314,119.895,474.568,109.064,470.867z"/>
<path d="M367.632,440.082c-5.821,6.953-9.478,20.147-3.697,27.16c0.237,0.536,0.463,1.074,0.755,1.598
	c6.005,10.761,20.972,12.208,30.522,5.522c11.02-7.716,11.506-24.015,3.771-34.231C390.855,429.396,376.056,430.019,367.632,440.082
	z M376.065,470.867c-0.789-0.27-1.534-0.606-2.234-0.997c0.018-0.395-0.119-0.8-0.526-1.144c-8.208-6.939-6.628-18.142,0.66-25.282
	c9.992-9.79,22.378-0.343,22.925,11.647C397.401,466.314,386.897,474.568,376.065,470.867z"/>
<path d="M404.206,259.374c-5.409-2.691-11.871-1.339-17.612-0.939c-1.738,0.121-3.463,0.25-5.182,0.385
	c-6.209,0.318-12.441,1.119-18.567,1.763c-11.201,1.179-16.419,3.935-18.192,15.754c-2.673,17.814,1.999,36.945,4.007,54.637
	c0.939,8.282-1.084,23.731,7.288,28.84c4.612,2.816,10.823,1.962,15.933,1.691c8.627-0.457,17.29-0.321,25.929-0.575
	c9.154-0.27,18.296-0.811,27.447-1.125c5.424-0.186,11.509,0.776,16.79-0.679c10.688-2.945,9.121-16.759,8.547-25.439
	c-0.899-13.583-7.83-23.012-15.618-33.767c-6.37-8.794-12.675-17.641-18.707-26.671
	C413.005,268.367,409.712,262.113,404.206,259.374z M363.722,353.35c-7.458-2.347-5.972-14.208-6.703-20.362
	c-1.04-8.751-2.323-17.471-3.396-26.217c-0.026-0.212-0.053-0.426-0.079-0.638c2.815-0.004,5.493,0.118,8.167,1.792
	c5.007,3.134,6.176,9.804,7.392,15.43c2.144,9.91,1.203,20.605,5.539,29.917C370.817,353.761,366.697,354.286,363.722,353.35z
	 M428.762,351.227c-7.696,0.066-15.411,0.678-23.103,0.953c-0.634,0.022-1.268,0.032-1.902,0.053
	c1.394-3.296,1.59-7.309,2.124-10.792c1.235-8.049,3.608-15.862,4.518-23.942c3.215-0.1,6.399-0.064,9.603,0.111
	c-2.961,7.028-7.476,16.125-2.413,22.231c4.47,5.391,15.614,7.561,22.94,8.085C438.209,351.453,434.197,351.181,428.762,351.227z
	 M442.541,340.958c-5.76-1.803-13.771-1.321-18.6-4.86c-5.38-3.943,1.466-15.282,3.345-20.427c0.549-1.502-0.621-3.422-2.137-3.763
	c-5.935-1.335-11.887-1.289-17.95-1.249c-2.041,0.013-3.273,1.598-3.486,3.486c-1.373,12.186-6.561,25.645-5.528,38.242
	c-5.215,0.132-10.43,0.237-15.647,0.318c-0.019-0.278-0.064-0.563-0.156-0.859c-4.359-14.014-3.872-29.363-10.208-42.79
	c-4.476-9.485-11.09-10.126-19.245-7.869c-0.684-5.604-1.271-11.251-1.172-16.874c0.084-4.679-0.282-10.087,3.122-13.605
	c2.884-2.981,6.845-2.623,10.839-3.099c5.297-0.631,10.658-1.339,16.037-1.883c0.255,0,0.507-0.01,0.761-0.008
	c6.56,0.038,15.143-1.666,20.321,3.152c4.949,4.606,8.642,12.161,12.479,17.612c4.908,6.972,9.936,13.857,14.983,20.728
	C437.879,317.525,444.027,327.708,442.541,340.958z"/>
<path d="M313.709,348.391c1.728-2.775,3.108-6.15,4.051-10.292c2.922-12.822,3.671-26.575,3.528-39.655
	c-0.111-10.138,0.753-24.539-6.004-33c-5.549-6.949-14.729-7.567-22.965-7.844c-13.815-0.465-27.712-0.1-41.537,0.723
	c-39.003-2.353-78.604,0.163-117.228,0.841c-10.834,0.19-21.477-0.258-32.279-0.673c-7.662-0.294-18.036-0.735-23.857,5.357
	c-5.307,5.555-5.29,14.822-5.298,21.924c-0.014,13.535,0.727,26.853,2.495,40.286c0.958,7.274,0.253,16.87,3.495,23.623
	c0.563,1.173,1.264,2.169,2.051,3.046c-8.351-0.186-16.568,1.105-20.842,6.733c-3.311,4.359-1.152,10.075,3.025,13.095
	c3.979,2.878,8.987,2.474,13.651,2.543c9.479,0.141,18.951,0.61,28.433,0.678c39.152,0.28,78.243,2.913,117.395,1.838
	c18.892-0.519,37.805-1.709,56.707-1.618c13.95,0.067,31.539,2.495,44.897-2.53c8.251-3.103,13.025-13.531,5.838-20.284
	C325.397,349.545,319.74,348.344,313.709,348.391z M93.094,267.037c7.149-0.59,14.348,0.505,21.49,0.674
	c11.638,0.275,23.341-0.289,34.97-0.694c26.673-0.928,53.349-2.371,80.046-1.827c25.579,0.522,50.986,2.955,76.506,4.203
	c7.618,5.962,5.79,22.377,5.772,30.928c-0.023,10.912-0.799,22.013-2.731,32.766c-1.83,10.183-5.043,16.893-16.342,18.059
	c-6.279,0.648-12.652,0.876-19.025,0.959c4.549-9.055,0.547-23.679-5.961-30.363c-4.505-4.627-10.45-7.158-16.723-8.231
	c-0.541-6.098-9.358-10.104-14.609-9.685c-3.691,0.295-6.327,2.225-7.458,4.865c-2.999-2.16-7.256-3.205-10.317-2.745
	c-6.155,0.925-8.745,5.318-9.223,10.402c-4.483-1.732-9.752-2.194-13.372,0.142c-6.565,4.237-3.519,10.813-0.201,16.075
	c-4.908,2.181-9.664,5.715-10.194,11.255c-0.312,3.252,1.053,5.911,3.21,7.891c-0.851-0.012-1.702-0.016-2.553-0.031
	c-9.615-0.166-19.212-0.435-28.808-0.66c1.46-6.889,1.114-14.586,1.669-21.494c0.43-5.364,1.923-14.306-2.333-18.682
	c-3.924-4.035-11.33-4.673-18.717-4.338c0.642-3.855,0.271-8.085-0.27-11.938c3.215-1.249,6.403-2.579,9.491-4.111
	c2.918-1.447,6.167-2.7,7.117-6.061c0.49-1.734-1.201-3.505-2.966-2.965c-6.111,1.869-11.834,5.8-17.857,8.195
	c-1.627,0.647-2.531,2.008-2.157,3.798c0.896,4.276,1.669,8.957,2.84,13.328c-4.782,0.396-9.3,1.032-12.552,1.233
	c-1.876,0.116-3.599,1.531-3.547,3.546c0.33,12.878,0.957,26.34,3.087,39.155c-0.51,0.007-1.02,0.006-1.53,0.014
	c-7.843,0.123-29.986,2.635-34.082-5.539c-1.257-2.509-0.765-6.452-1.04-9.227c-0.572-5.785-1.607-11.522-2.279-17.296
	c-1.135-9.762-1.524-19.472-1.58-29.293C80.808,278.825,79.998,268.117,93.094,267.037z M199.487,350.411
	c-2.931-1.741-7.585-3.111-6.612-7.027c0.635-2.551,4.497-4.327,7.277-5.355C198.741,342.136,198.259,346.566,199.487,350.411z
	 M202.429,322.128c2.284-0.333,5.2,0.995,7.49,2.223c-1.524,1.262-2.987,2.592-4.292,4.073c-0.84,0.953-1.647,2.048-2.4,3.232
	C201.09,328.727,196.815,322.947,202.429,322.128z M212.269,332.225c6.346-6.368,15.461-10.071,24.253-11.394
	c8.129-1.222,17.868-0.666,24.466,4.808c9.352,7.76,4.229,16.999,5.939,26.513c-3.226,0.005-6.445-0.003-9.641,0.009
	c-17.155,0.061-34.332-0.051-51.5-0.247C206.243,344.378,205.935,338.581,212.269,332.225z M222.389,312.24
	c2.211,0.344,3.934,1.656,5.714,2.833c-4.172,1.175-8.253,2.834-12.018,4.985C215.157,315.632,216.886,311.384,222.389,312.24z
	 M232.833,313.962c0.253-2.697,1.852-4.477,5.092-4.25c1.74,0.122,3.445,0.783,4.816,1.864c0.497,0.391,0.893,0.843,1.245,1.321
	c-2.529-0.028-5.046,0.128-7.478,0.447C235.288,313.504,234.06,313.721,232.833,313.962z M125.562,314.775
	c3.118-0.258,6.237-0.504,9.363-0.619c3.637-0.134,13.441-1.432,16.43,1.233c3.205,2.859,1.175,12.423,0.808,16.329
	c-0.6,6.379-0.817,12.798-1.66,19.149c-8.133-0.165-16.266-0.265-24.411-0.22C127.483,338.868,126.231,326.602,125.562,314.775z
	 M318.719,366.254c-1.986,0.4-3.987,0.694-6.005,0.882c-14.633,1.787-29.477,0.884-44.18,1.306
	c-33.203,0.953-66.336,3.23-99.564,1.741c-31.806-1.425-63.627-1.022-95.431-2.116c-5.403-0.186-11.34-3.351-4.156-5.801
	c3.595-1.226,7.547-1.482,11.29-1.875c4.687-0.492,9.333-1.23,13.985-1.846c1.045,0.132,2.082,0.246,3.095,0.356
	c13.45,1.462,26.979,0.33,40.466,0.421c15.41,0.103,30.816,1.025,46.224,1.352c28.846,0.613,57.841,1.076,86.689,0.53
	c10.685-0.202,22.239-2.583,33.306-3.072c4.343-0.192,13.161-1.456,16.455,1.811C324.33,363.353,323.44,365.672,318.719,366.254z"/>
<path d="M501.955,432.672c-4.112-8.977-13.282-11.914-22.402-13.034c2.88-5.602,2.265-12.709,2.024-18.855
	c-0.363-9.329-0.435-18.542-0.143-27.883c0.547-17.471,4.602-37.814-0.028-54.938c-4.537-16.779-20.207-29.821-30.16-43.444
	c-4.961-6.791-9.77-19.48-17.069-26.446c8.947-0.195,18.826-1.106,24.44-7.262c7.462-8.183,6.926-25.262,2.207-34.594
	c-5.632-11.136-18.036-12.503-29.164-13.849c-35.831-4.334-71.618-2.049-107.466-1.283c-0.265-0.014-0.531-0.02-0.795-0.034
	c0.284-3.383-0.308-6.939-0.52-10.278c-0.17-2.688-0.329-5.375-0.505-8.06c11.674-0.289,23.345-0.783,35.024-1.657
	c9.567-0.716,18.997-1.583,23.321-11.425c4.673-10.636-0.877-22.727-5.32-32.466c-11.841-25.951-25.118-53.068-45.63-73.379
	c-19.601-19.408-47.455-29.023-75.562-29.483c-0.781-4.611,1.085-9.579,0.245-14.274c-1.083-6.047-5.981-9.353-12.021-9.029
	c-6.677,0.358-11.458,4.568-13.732,10.568c-3.231-8.008-9.574-12.659-18.495-11.347c-8.178,1.203-11.966,7.511-10.405,15.427
	c0.774,3.93,2.553,7.824,4.301,11.434c-19.848-15.144-51.073-7.528-71.398,3.219c-23.359,12.351-39.994,32.171-51.794,55.42
	c-9.608,18.931-20.02,45.758-9.279,66.375c5.391,10.348,15.531,16.086,26.519,18.969c6.864,1.801,15.346,3.27,23.29,2.66
	c-0.169,2.965-0.558,5.917-0.91,8.924c-0.313,2.674-0.703,5.579-0.226,8.24c-1.939-0.015-3.879-0.008-5.817-0.036
	c-19.044-0.277-38.076-2.044-57.13-1.26c-13.805,0.568-32.209,0.674-42.189,11.799c-7.711,8.597-9.51,24.117-3.159,34.042
	c3.416,5.34,8.498,7.565,14.083,8.5c-2.611,22.283-1.167,45.498-1.198,67.815c-0.035,25.616,1.023,51.226,1.771,76.827
	c0.314,10.733-2.781,25.842,0.239,37.003c-8.421,2.564-15.046,7.849-16.829,17.371c-2.104,11.236,2.081,21.583,13.257,25.221
	c11.706,3.81,29.264,7.021,41.354,3.584c6.69,26.415,33.853,42.692,61.187,39.942c26.584-2.674,42.363-22.827,45.887-45.56
	c8.686,3.721,19.077,3.058,28.364,2.863c15.279-0.32,30.585-0.176,45.87-0.337c16.177-0.17,32.355-0.117,48.532-0.092
	c7.366,0.011,14.743-0.091,22.106,0.073c5.07,0.113,9.793,0.641,14.185-1.115c4.728,28.885,33.296,47.061,62.058,44.167
	c26.335-2.649,42.058-22.454,45.775-44.925c14.633,4.046,34.617,4.466,47.678-1.361
	C498.468,459.995,508.061,446.003,501.955,432.672z M439.973,281.107c8.67,12.559,23.718,25.641,27.5,40.696
	c2.844,11.32,1.719,24.327,0.782,36.735c-32.781,10.528-65.949,19.755-99.015,29.336c-16.693,4.837-33.423,9.563-49.989,14.821
	c-2.928,0.929-21.219,8.948-22.957,7.66c0.845,0.626,8.051-13.358,8.805-15.446c0.802-2.225-1.258-4.293-3.343-4.387
	c-20.167-0.911-39.971,3.269-59.723,6.753c-10.468,1.846-20.993,3.341-31.467,5.16c-8.867,1.54-20.511,5.632-30.043,4.797
	c3.471-6.634,10.821-13.427,9.387-20.751c-1.663-8.483-13.528-5.269-19.381-4.558c-36.433,4.422-72.436,5.87-108.162,15.389
	c-0.819-1.805-1.86-3.468-3.218-4.906c-5.091-5.388-12.708-5.223-19.362-2.865c-0.084-7.955-0.247-15.914-0.525-23.909
	c-0.743-21.331-1.265-42.638-1.603-63.98c-0.297-18.79,0.673-38.395-2.599-57.051c2.41,0.029,4.804,0,7.099,0.034
	c20.501,0.303,41.009,1.473,61.511,1.945c42.745,0.983,85.485,1.287,128.239,1.537c42.332,0.248,84.652,1.486,126.986,1.463
	c21.005-0.012,42.012-0.338,62.999-1.236c1.553,5.176,4.956,9.683,7.471,14.442C432.698,269.087,435.918,275.233,439.973,281.107z
	 M467.943,418.661c0.004,0.064,0.019,0.12,0.025,0.183c-4.801-0.198-9.605-0.35-14.407-0.579c0.129-2.065-0.066-4.209-0.012-6.219
	c0.115-4.24,0.309-8.575,1.156-12.74c1.688-8.317,5.71-12.175,12.807-12.866c0.069,3.724,0.198,7.447,0.446,11.175
	C468.429,404.674,467.5,411.698,467.943,418.661z M56.641,424.964c-4.89-0.892-10.217-1.447-15.492-1.385
	c-1.473-2.251-1.339-5.488-1.317-9.651c0.037-6.579,0.028-13.136-0.016-19.691c6.964-0.801,14.221-1.119,16.674,7.057
	C58.807,409.016,55.943,417.164,56.641,424.964z M236.659,17.012c0.754-2.685,3.682-8.002,7.462-6.314
	c1.686,0.752,1.007,4.189,0.885,6.024c-0.174,2.601-0.468,5.183-0.301,7.757c-3.019,0.173-6.027,0.475-9.022,0.859
	C235.883,22.554,235.893,19.741,236.659,17.012z M213.481,8.111c9.809,0.228,8.391,11.188,9.893,19.367
	c-3.532,0.812-7.013,1.784-10.435,2.897C211.523,21.749,201.631,7.836,213.481,8.111z M306.161,51.926
	c21.748,13.643,35.385,37.579,46.694,59.889c5.107,10.074,11.489,20.91,14.673,31.806c1.913,6.553,2.729,12.114-5.031,13.784
	c-6.303,1.356-13.486,1.208-19.882,1.659c-32.051,2.26-64.406,1.335-96.514,1.092c-16.276-0.123-33.112-1.038-49.848-1.028
	c-0.088-0.005-0.178-0.01-0.268-0.015c-11.475-0.68-22.964-1.407-34.457-0.82c-5.797,0.296-18.77,3.195-21.949-2.663
	c-2.774-5.111,0.809-14.687,2.252-19.762c2.34-8.228,5.47-16.232,8.805-24.1c7.046-16.625,14.567-32.425,27.604-45.33
	C210.425,34.579,267.521,27.685,306.161,51.926z M316.216,190.745c-4.286-0.159-8.577-0.281-12.879-0.31
	c-0.481-0.003-0.962-0.004-1.443-0.007c0.213-0.305,0.392-0.629,0.479-0.985c0.919-3.766-0.461-8.544-0.519-12.433
	c-0.02-1.34-0.033-2.662-0.067-3.976c5.156-0.026,10.31-0.094,15.464-0.193c-0.172,2.643-0.328,5.286-0.495,7.931
	C316.549,184.038,315.989,187.456,316.216,190.745z M296.075,190.398c-39.863-0.238-79.749-0.248-119.608,0.09
	c-9.327,0.079-18.66,0.212-27.994,0.314c0.007-3.893-0.897-7.959-0.996-11.839c-0.058-2.296-0.096-4.595-0.39-6.838
	c6.599,0.27,13.549-0.729,19.478-0.852c33.739-0.697,68.321,4.366,102.069,1.598c8.816,0.103,17.623,0.17,26.427,0.169
	C293.502,179.156,292.495,186.395,296.075,190.398z M127.027,172.896c0.993-0.225,1.973-0.48,2.925-0.796
	c3.601,0.368,7.243,0.308,10.887,0.03c-0.091,3.449-0.212,6.89-0.418,10.37c-0.167,2.824-0.296,5.746,0.451,8.376
	c-4.396,0.035-8.792,0.058-13.188,0.055c-0.463-3.996-0.75-7.765-0.632-11.934C127.109,176.968,127.155,174.918,127.027,172.896z
	 M152.262,78.829c-2.962,4.849-5.644,9.919-8.063,15.195c-2.051-1.092-4.548-1.895-7.127-2.367c-1.437-4.494-2.647-9.872,0.07-12.92
	C140.799,74.632,147.387,77.539,152.262,78.829z M155.476,56.167c2.666-1.323,5.702-1.818,8.615-1.098
	c1.788,0.442,3.202,1.489,4.577,2.575c-3.91,3.999-7.505,8.251-10.781,12.756c-2.269-1.878-5.145-3.203-8.236-3.963
	C149.319,62.136,150.573,58.601,155.476,56.167z M197.765,36.502c-4.527,2.229-8.879,4.746-12.995,7.57
	c-2.691,1.847-5.263,3.79-7.721,5.825c-1.177-1.248-2.643-2.321-4.2-3.214c3.857-6.187,10.054-10.83,17.635-11.212
	C193.083,35.34,195.47,35.791,197.765,36.502z M80.851,140.261c-4.586-18.582,5.376-40.576,14.228-56.414
	c10.31-18.446,24.574-33.673,43.385-43.686c10.522-5.6,22.426-9.537,34.372-10.304c1.337-0.086,2.673-0.121,4.008-0.131
	c-4.865,3.019-10.177,8.464-11.703,14.193c-5.541-0.89-11.363,0.264-16.161,3.177c-5.968,3.623-10.913,12.159-9.498,18.968
	c-4.531,0.787-8.691,2.888-11.327,6.504c-4.406,6.046-3.424,13.286,0.294,18.956c-0.644,0.122-1.269,0.269-1.855,0.461
	c-6.411,2.108-6.74,6.461-8.352,11.827c-1.276,4.248-2.126,3.001-5.86,4.703c-2.612,1.189-4.424,2.733-5.744,5.311
	c-1.173,2.29-1.598,4.566-1.109,7.135c0.501,2.633,3.886,5.957,3.835,8.294c-0.07,3.215-6.408,4.335-9.364,6.997
	c-3.447,3.104-4.853,7.35-3.51,11.866c1.699,5.717,5.137,9.21,9.397,11.187C94.281,157.787,84.033,153.161,80.851,140.261z
	 M117.584,152.648c-1.941-0.499-10.222-4.368-9.557-7.264c0.288-1.256,2.435-1.514,3.247-2.214c4.789-4.128,10.698-5.312,10.3-13.1
	c-0.17-3.344-4.35-7.077-4.196-9.753c0.207-3.61,6.353-4.1,8.549-6.812c2.715-3.354,0.619-6.682,1.968-9.777
	c1.913-4.385,8.046-2.902,13.03-2.307c-6.639,15.076-13.834,30.989-14.827,47.467c-0.104,1.742-0.089,3.53,0.069,5.303
	C123.369,153.648,120.586,153.419,117.584,152.648z M22.624,221.891c-0.068-7.91,4.17-13.073,11.637-15.15
	c16.101-4.477,34.397-3.377,50.934-2.914c34.503,0.966,68.91,0.171,103.418-0.399c39.571-0.655,79.163-1.089,118.738-1.459
	c33.82-0.315,68.078,2.569,101.923,1.099c11.278,0.463,23.201,1.326,32.895,5.191c4.431,1.767,5.856,4.139,6.385,8.93
	c0.341,3.089,1.169,11.413-1.353,13.933c-2.432,2.43-9.634,1.807-12.685,1.997c-9.515,0.59-19.041,1.012-28.569,1.346
	c-18.406,0.647-36.826,0.9-55.243,0.943c-36.192,0.086-72.379-0.634-108.57-0.77c-69.551-0.262-139.105-0.113-208.608-3.078
	C26.434,231.259,22.691,229.71,22.624,221.891z M63.128,459.637c-0.383,0.049-0.776,0.12-1.188,0.251
	c-8.647,2.753-18.753,0.095-27.446-1.426c-8.071-1.412-18.098-5.494-11.358-15.852c7.437-11.425,32.045-3.041,42.478-1.084
	C65.304,442.91,62.602,459.704,63.128,459.637z M136.202,495.456c-20.587,8.66-48.269-0.11-57.817-20.852
	c-6.015-13.066-3.636-28.465,2.457-41.066c3.962-8.193,9.29-14.567,16.009-19.08c13.662-5.042,29.888-4.297,41.938,3.277
	c13.575,8.533,20.386,24.792,20.131,40.454C158.668,473.76,151.079,489.198,136.202,495.456z M403.204,495.456
	c-20.586,8.66-48.269-0.11-57.817-20.852c-6.015-13.066-3.636-28.465,2.457-41.066c3.962-8.193,9.29-14.567,16.009-19.08
	c13.662-5.042,29.888-4.297,41.938,3.277c13.575,8.533,20.386,24.792,20.131,40.454C425.669,473.76,418.08,489.198,403.204,495.456z
	 M425.763,417.433c-2.511-2.982-5.346-5.76-8.567-8.234c-11.649-8.949-27.203-12.778-41.703-10.401
	c-10.475,1.717-18.759,6.865-25.076,14.122c-11.677,10.221-19.021,26.824-20.13,42.256c-11.382-2.08-24.389-0.561-35.763-0.544
	c-15.512,0.024-31.022,0.014-46.533,0.216c-25.131,0.327-50.45,0.509-75.488,2.859c0.388-18.066-6.802-36.596-22.308-48.507
	c-11.649-8.949-27.203-12.778-41.703-10.401c-10.475,1.717-18.759,6.865-25.076,14.122c-5.191,4.544-9.522,10.354-12.837,16.758
	c-0.729-0.804-1.648-1.469-2.794-1.866c-1.034-0.358-2.154-0.702-3.314-1.035c0.244-7.44,1.368-17.232-0.66-25.289
	c28.629-2.703,56.602-9.073,85.401-11.063c6.579-0.455,13.181-0.953,19.739-1.663c3.099-0.336,9.337-2.73,11.895-1.229
	c4.564,2.679-7.059,16.645-8.282,21.428c-0.449,1.758,0.566,3.694,2.366,4.167c7.424,1.954,14.583-0.054,21.951-1.433
	c12.161-2.277,24.386-4.231,36.61-6.137c20.84-3.25,41.538-8.352,62.695-8.244c-4.111,7.15-11.134,18.998-1.238,20.344
	c6.217,0.845,16.519-5.388,22.408-7.323c10.387-3.413,20.85-6.592,31.329-9.709c39.643-11.792,79.501-22.882,119.078-34.894
	c-0.142,2.437-0.247,4.836-0.274,7.168c-0.034,3.099-0.042,6.192-0.024,9.283c-7.329-2.039-14.174,1.544-17.855,9.371
	c-2.199,4.674-3.213,9.87-3.787,14.973c-0.362,3.23-1.078,7.419-0.825,11.159C438.666,417.104,431.892,416.415,425.763,417.433z
	 M488.484,446.222c-3.464,6.039-10.928,7.802-17.223,8.537c-10.444,1.22-21.414-0.252-31.747,1.714
	c0.022-9.357-1.979-18.793-6.13-27.331c8.376,0.623,17.304,0.12,24.94,0.537c8.222,0.449,17.473-0.471,25.252,2.679
	C489.847,434.899,492.081,439.95,488.484,446.222z"/>
<path d="M211.77,111.903c3.676,0,6.569-3.278,6.517-6.704c0.225-2.137-0.717-4.44-2.651-5.664c-3.24-2.051-7.692-0.788-9.472,2.598
	c-1.095,2.081-1.213,4.481,0,6.555C207.319,110.662,209.481,111.903,211.77,111.903z"/>
<path d="M226.784,81.589c2.68,1.568,6.695,1.24,8.852-1.142c0.164-0.182,0.33-0.363,0.494-0.545c2.457-2.714,2.47-6.512,0-9.24
	c-0.164-0.182-0.33-0.364-0.494-0.545c-1.963-2.169-5.396-2.601-7.98-1.511c-2.562,1.081-4.62,3.778-4.49,6.676
	C223.28,77.829,224.539,80.275,226.784,81.589z"/>
<path d="M248.132,127.947c2.524,0,4.908-1.369,6.183-3.547c1.397-2.387,1.087-4.828,0-7.229c-0.049-0.109-0.098-0.219-0.148-0.328
	c-0.984-2.175-3.772-3.462-6.035-3.462c-2.262,0-5.05,1.286-6.035,3.462c-0.05,0.11-0.099,0.219-0.148,0.328
	c-1.087,2.401-1.397,4.842,0,7.229C243.224,126.578,245.608,127.947,248.132,127.947z"/>
<path d="M262.206,85.2c-1.215,1.129-1.917,3.337-1.304,4.936c0.406,1.06,0.769,2.147,1.638,2.944
	c0.094,0.073,0.189,0.146,0.283,0.218c-0.093-0.063-0.061-0.023,0.13,0.148c2.684,2.472,6.67,1.943,8.642-1.114
	c0.926-1.435,1.069-3.265,0.624-4.887c-1.187-4.32-6.522-5.487-9.679-2.555C262.43,84.994,262.318,85.097,262.206,85.2z"/>
<path d="M292.235,106.833c1.025,2.593,4.271,2.598,5.298,0c0.082-0.208,0.164-0.416,0.247-0.624
	c0.733-1.854-1.103-3.802-2.896-3.802c-1.799,0-3.626,1.952-2.896,3.802C292.07,106.416,292.152,106.624,292.235,106.833z"/>
<path d="M273.262,126.982c0.146,0.346,0.292,0.692,0.438,1.037c0.404,0.796,1.172,1.575,1.959,2.006
	c1.861,1.017,3.92,0.639,5.709-0.297c3.363-1.76,2.117-7.201-1.439-7.611c-0.831-0.788-1.92-1.212-3.258-1.032
	c-2.006,0.269-3.601,1.991-3.59,4.065c0,0.097,0.044,0.603,0.076,0.959C273.051,125.499,273.083,125.771,273.262,126.982z"/>
<path d="M304.594,128.258c-0.261,0.621-0.522,1.241-0.783,1.862c-0.613,1.458,0.107,3.597,1.221,4.62
	c0.928,0.853,2.071,1.391,3.357,1.391c1.217,0,2.497-0.53,3.357-1.391c1.079-1.08,1.855-3.114,1.221-4.62
	c-0.261-0.621-0.522-1.241-0.783-1.862c-0.658-1.565-1.922-2.974-3.796-2.89C306.493,125.453,305.3,126.578,304.594,128.258z"/>
<path d="M300.078,79.145c8.983,0,8.998-13.96,0-13.96C291.095,65.184,291.08,79.145,300.078,79.145z"/>
<path d="M257.69,69.548c2.833-0.908,5.248-3.573,4.882-6.734c-0.195-1.679-0.554-3.093-1.795-4.333
	c-1.063-1.063-2.806-1.863-4.333-1.795c-3.096,0.139-5.49,2.244-6.008,5.192c-0.042,0.098-0.076,0.182-0.123,0.292
	c-0.092,0.552-0.166,1.107-0.221,1.664c0.009,1.582,0.643,3.06,1.764,4.171C253.327,69.465,255.67,70.196,257.69,69.548z"/>
<path d="M215.91,134.499c0,3.414,2.716,5.895,5.764,6.177c0.496,0.154,1.01,0.242,1.525,0.219c2.463-0.11,4.375-1.609,5.165-3.933
	c0.203-0.596,0.287-1.302,0.317-1.925c0.029-0.619-0.385-2.804-0.192-1.176c0.144,1.18,0.1,0.876-0.133-0.914
	c-0.059-0.289-0.168-0.562-0.328-0.819c-0.541-1.28-1.417-2.419-2.714-3.026c-2.076-0.971-4.244-1.208-6.309,0
	C217.104,130.215,215.91,132.296,215.91,134.499z"/>
<path d="M174.701,130.162c-0.035,0.106-0.069,0.212-0.104,0.318c-1.476,4.559,2.469,9.247,7.044,9.247
	c4.574,0,8.519-4.692,7.044-9.247c-0.035-0.106-0.069-0.212-0.104-0.318c-0.944-2.914-3.705-5.429-6.941-5.284
	C178.365,125.024,175.715,127.031,174.701,130.162z"/>
<path d="M195.148,89.177c5.849,0,5.859-9.09,0-9.09C189.299,80.086,189.288,89.177,195.148,89.177z"/>
<g>
</g>
<g>
</g>
<g>
</g>
<g>
</g>
<g>
</g>
<g>
</g>
<g>
</g>
<g>
</g>
<g>
</g>
<g>
</g>
<g>
</g>
<g>
</g>
<g>
</g>
<g>
</g>
<g>
</g>
</svg>
