<svg id="Layer_1" enable-background="new 0 0 512 512" viewBox="0 0 512 512" xmlns="http://www.w3.org/2000/svg" xmlns:xlink="http://www.w3.org/1999/xlink"><linearGradient id="SVGID_1_" gradientUnits="userSpaceOnUse" x1="415.919" x2="134.048" y1="118.594" y2="400.466"><stop offset="0" stop-color="#ef3e3d"/><stop offset="1" stop-color="#ffc828"/></linearGradient><path clip-rule="evenodd" d="m338.051 336.757c10.436 8.317 19.082 18.79 25.262 30.748 6.755 13.07 10.571 27.873 10.571 43.529 0 26.223-10.63 49.965-27.816 67.151-17.186 17.185-40.928 27.815-67.151 27.815s-49.965-10.63-67.151-27.816-27.816-40.928-27.816-67.151c0-15.655 3.816-30.458 10.572-43.529 6.181-11.958 14.826-22.431 25.263-30.749v-271.622c0-16.272 6.65-31.058 17.363-41.771 10.712-10.712 25.497-17.362 41.769-17.362s31.058 6.65 41.771 17.363 17.363 25.499 17.363 41.771zm-144.335-235.956h-45.6c-5.523 0-10 4.477-10 10s4.477 10 10 10h45.6c5.523 0 10-4.477 10-10s-4.477-10-10-10zm0 62.4h-45.6c-5.523 0-10 4.477-10 10s4.477 10 10 10h45.6c5.523 0 10-4.477 10-10s-4.477-10-10-10zm0 62.399h-45.6c-5.523 0-10 4.477-10 10s4.477 10 10 10h45.6c5.523 0 10-4.477 10-10 0-5.522-4.477-10-10-10zm0 62.4h-45.6c-5.523 0-10 4.477-10 10s4.477 10 10 10h45.6c5.523 0 10-4.477 10-10 0-5.522-4.477-10-10-10zm112.071 76.739v-275.089c0-7.4-3.02-14.12-7.885-18.985s-11.585-7.885-18.985-7.885h-.001c-7.4 0-14.119 3.02-18.985 7.885-4.865 4.865-7.885 11.586-7.885 18.985v275.089c-7.132 4.143-13.215 9.878-17.757 16.714-5.643 8.493-8.931 18.665-8.931 29.579 0 14.788 5.996 28.178 15.688 37.871s23.082 15.688 37.871 15.688c14.788 0 28.178-5.995 37.871-15.688s15.688-23.082 15.688-37.871c0-10.914-3.288-21.086-8.931-29.579-4.542-6.836-10.625-12.571-17.758-16.714zm1.117 27.73c-3.505-5.275-8.445-9.501-14.255-12.109-3.985-1.316-6.862-5.07-6.862-9.497v-138.463h-13.741v138.463h-.037c-.002 3.885-2.291 7.577-6.096 9.18-6.125 2.575-11.333 6.931-14.984 12.426-3.52 5.298-5.571 11.68-5.571 18.564 0 9.268 3.756 17.658 9.828 23.73s14.462 9.828 23.73 9.828 17.658-3.756 23.73-9.828 9.828-14.462 9.828-23.73c.001-6.885-2.05-13.266-5.57-18.564z" fill="url(#SVGID_1_)" fill-rule="evenodd"/></svg>