<svg id="_6_BMW_M1_Procar" height="512" viewBox="0 0 512 512" width="512" xmlns="http://www.w3.org/2000/svg"><path d="m109.79 184.42-48-24c-.56-.28-1.17-.42-1.79-.42h-7.91l-10.24 10-17.85-10h-20c-1.7 0-3.21 1.07-3.77 2.68-.56 1.6-.05 3.39 1.28 4.45l40 32c.71.57 1.6.88 2.5.88.17 0 .33 0 .5-.03l64-8c1.75-.22 3.15-1.56 3.45-3.29.3-1.74-.58-3.46-2.15-4.25z" fill="#f05a66"/><path d="m52.09 160h-28.09l37.71 67.89c1.41 2.54 4.09 4.11 6.99 4.11h43.29l-53.6-68.91c-1.52-1.95-3.85-3.09-6.31-3.09z" fill="#dee4e4"/><path d="m503.02 304 8.41-21.03c.99-2.46.69-5.26-.8-7.46s-3.97-3.51-6.62-3.51h-448.01c-4.42 0-8 3.58-8 8l-5.66 5.66c-1.5 1.5-2.34 3.54-2.34 5.66v20.69c0 3.81 2.69 7.1 6.43 7.84l80 16c.52.1 1.04.16 1.57.16h376c2.65 0 5.14-1.32 6.62-3.51s1.79-4.99.8-7.46l-8.41-21.03z" fill="#dee4e4"/><path d="m507.58 248.84-16-8c-.79-.4-1.64-.66-2.52-.77l-118.53-15.8-86.7-47.29c-1.18-.64-2.49-.98-3.83-.98h-80c-.72 0-1.44.1-2.14.29l-114.15 31.71-13.71 8.83-22 7.17v16l16 8-16 16v16h464v-24c0-3.03-1.71-5.8-4.42-7.16z" fill="#f05a66"/><path d="m64 240h-16v24h16c4.42 0 8-3.58 8-8v-8c0-4.42-3.58-8-8-8z" fill="#b83757"/><path d="m83.71 208-29.85 8.29c-3.46.96-5.86 4.11-5.86 7.71h134.34l17.66-16z" fill="#b83757"/><g fill="#464a51"><path d="m203.51 193.17-24 24c-2.52 2.52-.74 6.83 2.83 6.83h48.13c2.97 0 4.91-3.13 3.58-5.79l-12-24c-.68-1.36-2.06-2.21-3.58-2.21h-12.13c-1.06 0-2.08.42-2.83 1.17z"/><path d="m274.88 192h-33.35c-2.97 0-4.91 3.13-3.58 5.79l12 24c.68 1.36 2.06 2.21 3.58 2.21h66.53c4.17 0 5.56-5.58 1.88-7.53l-45.18-24c-.58-.31-1.22-.47-1.88-.47z"/><circle cx="144" cy="304" r="48"/><circle cx="424" cy="304" r="48"/></g><circle cx="144" cy="304" fill="#dee4e4" r="24"/><circle cx="424" cy="304" fill="#dee4e4" r="24"/></svg>