<svg xmlns="http://www.w3.org/2000/svg" version="1.1" xmlns:xlink="http://www.w3.org/1999/xlink" width="512" height="512" x="0" y="0" viewBox="0 0 450 450" style="enable-background:new 0 0 512 512" xml:space="preserve" class=""><g><path d="M314.7 295.3c-9 28.5-37.9 49.7-85.9 63-2-2-4.5-3.4-5.9-4.1-37.4-18.4-60.2-43.6-69.6-77.3-.4-1.2-1.1-2.4-1.9-3.3-1.5-1.4-2.9-3.2-4.5-5.1-4.2-5.1-8.6-10.3-14.7-11.4-1-.2-1.9-.3-2.7-.3-9.8 0-13.6 9.9-15.9 16.2-.4 1.3-1 2.6-1.4 3.6-11.3-14.8-20.7-28.2-22-48.1-.1-2.4-1.9-4.3-4.1-4.9-2.4-.4-4.7.6-5.8 2.7-10.4 19.7-9 38.2-6.4 56-9.9-14-14.1-39.6-12.9-77.3.1-2.5-1.6-4.7-4-5.3-2.4-.5-4.9.6-6 2.8-15.7 31.8-11.7 61.2-4.8 91.5-12.1-17.2-20.2-35.9-25.1-57.6-9.2-41 5-71.7 18.5-90.1 22-30 58.3-50 97.2-53.5 32.9-2.9 59.1 3.9 80.1 20.8 17.9 14.5 27.4 33.5 28.9 58.4l.1 1.4c.4 7.1.9 14.6 2.3 21.9 1.8 9 6.6 15.5 13.5 17.7 6.2 2 13.1 0 19-5.5 2.4-2.2 5-4.9 7.7-7.9 8.9 12.1 38.9 55.8 26.3 95.7z" fill="#ff4500" opacity="1" data-original="#000000"></path><path d="M422 264.8c-12.4 37.9-30.4 68-54.7 92.3-6.4 6.4-14.5 11.3-22.9 16.4-3.9 2.3-7.9 4.8-11.6 7.3-.2.1-.6.4-1 .5-1.7.9-4.5 2.2-5.3 5.5-2.7 11.5-10.6 13-24.2 14.5l-.9.1c-1.4.1-2.8.4-3.4.5-2.5.5-4.2 2.6-4.2 5.2v32.6l-22.2.2c0-1.8-.1-3.7-.1-5.6-.2-12.8-.4-28.6-13.3-37.1-12.7-8.4-22.9-15.9-25.8-28.9 51.3-14.4 82.4-37.9 92.5-70 15.1-47.9-22.3-97.8-29.6-106.9 4-5.5 7.6-11.6 10.2-18.3.5-1.3 1-2.6 1.5-3.8 1.5.5 2.9 1.2 4.3 1.9 4 1.9 8.4 4.1 16.9 4.1 8.6 0 13-2.2 16.9-4.1 3.4-1.8 6.2-3.1 12.3-3.1s8.8 1.4 12.3 3.1c4 1.9 8.4 4.1 16.9 4.1s13.1-2.1 17-4.1c2-1 3.8-1.8 6.1-2.4.6 1 1.2 2 1.9 2.9 18.4 28 21.8 58.5 10.4 93.1zM409.5 97.1c-1.5-3.2-4.1-6.2-7.1-9.5-1.5-1.8-3.1-3.5-4.6-5.5-1.1-1.4-1.4-3.3-.9-4.9.5-1.7 1.9-3 3.6-3.4l31.2-8.5c-6.1-2.7-12.9-5.5-19.6-8.1-10.6-4.2-21.5-8.6-29.7-13-1.3-.7-2.2-1.9-2.6-3.3-.4-1.3-.2-2.8.5-4.1l.1-.1c.4-.6 1.1-2.2 2.3-3.7 5-6.7 4.5-9.4 1.5-12.7-5.5-6-9.4-6.9-15.2-3.3-9.6 6.1-19.5 4.5-27.2-4.2-1.7-1.9-3.4-2.9-4.7-2.8-1.5.1-2.8 1.7-3.4 2.6-7.1 10.3-15 8.6-22 5.6-2.9-1.2-4.3-1.5-4.9-1.5-.2.5-.4 1.9-.4 4.6.4 10.3-4 16.5-13.7 19.4-3.4 1-5.1 1.7-6 2.1.5 1.1 1.9 3.1 3.8 5.8 4.2 6 13.1 18.4 3.4 32.8-1.4 2.1-2.4 4.7-2.6 6 1.1.9 3.9 1.8 4.9 1.6 6.4-1.6 12.7-4 19.2-6.5 2.6-1 5.2-2 7.9-3 1.7-.6 3.6-.4 5 .8 1.4 1.1 2.2 2.8 2.1 4.7-.1.6-.1 1.5-.1 2.4 0 2.7-.1 6.4-1.1 10-1.8 6-3.5 12.1-5.3 18-4.2 14.5-8.5 29.4-13.5 44 2.1.7 3.9 1.6 5.5 2.4 3.4 1.7 6.2 3.1 12.3 3.1s8.8-1.3 12.3-3.1c4-1.9 8.4-4.1 16.9-4.1s13 2.2 16.9 4.1c3.4 1.7 6.2 3.1 12.3 3.1s8.8-1.3 12.3-3.1c1.5-.8 3.2-1.6 5.1-2.3-2.2-3.9-4.4-7.8-6.5-11.7l-1.9-3.6c-1.6-2.9-2.8-6-4.1-9.3-.6-1.6-1.3-3.2-2-4.9-.8-1.8-.5-3.8.7-5.4 1.2-1.5 3.1-2.3 5-1.9 1.7.3 3.2.5 4.5.8 2.7.4 5 .9 7.4 1.2 3.7.5 6.4.3 7.6-.9 1-1 1.4-3.1 1.1-6.1-.6-6.3-2.7-13.2-6.3-20.6zm-42.3-28.5c-.1.4-.2.7-.4 1-.1.4-.3.6-.4.9-.2.3-.4.5-.6.8-1.1 1.1-2.4 1.6-3.8 1.6s-2.7-.5-3.7-1.6c-1-1-1.6-2.4-1.6-3.7 0-.4 0-.7.1-1.1s.2-.7.3-1c.1-.4.3-.6.5-.9s.4-.5.7-.8c1-1 2.4-1.6 3.7-1.6 1.4 0 2.7.5 3.8 1.6.3.3.4.5.6.8s.4.6.4.9c.1.4.3.6.4 1s.1.7.1 1.1c0 .3 0 .6-.1 1z" fill="#ff4500" opacity="1" data-original="#000000"></path></g></svg>