<?xml version="1.0" encoding="iso-8859-1"?>
<!-- Generator: Adobe Illustrator 19.0.0, SVG Export Plug-In . SVG Version: 6.00 Build 0)  -->
<svg version="1.1" id="Capa_1" xmlns="http://www.w3.org/2000/svg" xmlns:xlink="http://www.w3.org/1999/xlink" x="0px" y="0px"
	 viewBox="0 0 512 512" style="enable-background:new 0 0 512 512;" xml:space="preserve">
<path style="fill:#D1DCED;" d="M331.303,500.116l-54.12-22.808c-3.23-1.361-6.561-2.388-9.941-3.099V339.223
	c0-17.536,2.237-35.001,6.658-51.971l3.543-13.601c0-0.166-43.641-0.48-43.641-0.48l3.696,14.361
	c4.32,16.785,6.505,34.049,6.505,51.381v135.48c-3.102,0.702-6.16,1.663-9.131,2.915l-54.12,22.808
	c-2.214,0.933-1.547,4.233,0.856,4.233h148.84C332.85,504.349,333.517,501.049,331.303,500.116z"/>
<path style="fill:#E5EBF6;" d="M343.101,7.651H168.953c-4.315,0-8.167,2.687-9.656,6.737c-2.038,5.543-5.088,14.236-8.397,25.053
	c-1.517,4.959-3.089,10.365-4.642,16.119s-3.089,11.856-4.534,18.206c-8.032,35.297-13.271,78.291-3.274,112.032
	c17.143,57.857,68.116,82.636,97.004,92.271c13.358,4.455,27.787,4.455,41.146,0c28.888-9.635,79.861-34.414,97.004-92.271
	c17.518-59.123-11.746-146.659-20.847-171.41C351.268,10.338,347.416,7.651,343.101,7.651z"/>
<path style="fill:#D1DCED;" d="M352.757,14.388c-1.489-4.05-5.342-6.737-9.656-6.737h-41.427c0,0,43.995,108.684,23.414,178.147
	c-16.434,55.466-63.959,80.53-93.312,90.996c1.257,0.448,2.492,0.879,3.678,1.275c13.358,4.455,27.787,4.455,41.146,0
	c28.888-9.635,79.862-34.414,97.004-92.271C391.122,126.675,361.858,39.139,352.757,14.388z"/>
<path style="fill:#96223B;" d="M133.682,159.737c0.807,9.072,2.332,17.842,4.768,26.061c17.141,57.852,68.108,82.632,96.997,92.268
	c13.359,4.456,27.801,4.456,41.16,0c28.889-9.637,79.856-34.416,96.997-92.268c2.435-8.219,3.961-16.99,4.768-26.061H133.682z"/>
<path style="fill:#841935;" d="M374.666,181.925c0.182-0.708,0.363-1.417,0.532-2.132c0.079-0.335,0.153-0.673,0.23-1.009
	c0.16-0.7,0.317-1.401,0.465-2.107c0.067-0.32,0.131-0.642,0.196-0.963c0.15-0.742,0.295-1.486,0.433-2.234
	c0.052-0.284,0.103-0.568,0.153-0.853c0.144-0.814,0.282-1.632,0.412-2.453c0.035-0.221,0.07-0.441,0.104-0.662
	c0.142-0.926,0.276-1.856,0.401-2.79c0.016-0.122,0.034-0.243,0.05-0.365c0.287-2.186,0.53-4.394,0.728-6.62h-48.52
	c-0.807,9.072-2.329,17.843-4.764,26.061c-16.434,55.466-63.959,80.53-93.312,90.996c0,0,0,0,0.001,0
	c0.541,0.193,1.076,0.381,1.608,0.566c0.678,0.235,1.356,0.47,2.012,0.689c0.017,0.006,0.036,0.012,0.053,0.018
	c13.357,4.455,27.798,4.455,41.155,0c0.526-0.176,1.075-0.367,1.616-0.553c0.386-0.133,0.761-0.257,1.154-0.395
	c0.524-0.184,1.068-0.384,1.603-0.577c0.43-0.155,0.85-0.302,1.287-0.463c0.486-0.179,0.99-0.375,1.485-0.562
	c0.505-0.191,1.002-0.374,1.516-0.574c0.427-0.166,0.869-0.347,1.301-0.518c0.597-0.237,1.189-0.467,1.797-0.716
	c0.602-0.246,1.218-0.51,1.829-0.767c0.453-0.191,0.898-0.371,1.355-0.568c0.553-0.238,1.118-0.493,1.677-0.74
	c0.53-0.234,1.054-0.459,1.59-0.702c0.575-0.26,1.16-0.539,1.741-0.809c0.53-0.247,1.055-0.484,1.59-0.739
	c0.533-0.254,1.075-0.527,1.612-0.79c0.594-0.29,1.183-0.572,1.781-0.873c0.358-0.18,0.722-0.375,1.082-0.559
	c0.783-0.401,1.565-0.798,2.355-1.217c0.544-0.289,1.094-0.597,1.641-0.895c0.611-0.332,1.219-0.656,1.833-0.999
	c0.517-0.289,1.037-0.598,1.555-0.895c0.649-0.373,1.297-0.736,1.948-1.122c0.347-0.205,0.695-0.425,1.043-0.634
	c0.825-0.496,1.65-0.99,2.477-1.507c0.314-0.196,0.628-0.407,0.942-0.607c0.861-0.547,1.722-1.092,2.583-1.663
	c0.339-0.225,0.678-0.465,1.017-0.693c0.836-0.562,1.671-1.123,2.505-1.708c0.32-0.225,0.638-0.464,0.958-0.693
	c0.851-0.607,1.702-1.212,2.55-1.843c0.217-0.161,0.431-0.334,0.647-0.496c2.112-1.59,4.213-3.246,6.286-4.992
	c0.082-0.069,0.163-0.144,0.246-0.214c1.059-0.896,2.113-1.807,3.158-2.745c0.179-0.161,0.354-0.332,0.533-0.494
	c0.945-0.857,1.886-1.721,2.817-2.613c0.153-0.147,0.302-0.303,0.455-0.451c0.951-0.92,1.897-1.849,2.83-2.807
	c0.054-0.055,0.106-0.115,0.16-0.17c1.027-1.058,2.045-2.136,3.049-3.242c0.123-0.135,0.241-0.279,0.364-0.416
	c0.93-1.034,1.853-2.079,2.76-3.154c0.088-0.105,0.172-0.216,0.26-0.321c0.935-1.116,1.861-2.249,2.767-3.41
	c0.089-0.115,0.174-0.236,0.263-0.351c2.877-3.712,5.608-7.65,8.142-11.84c0.127-0.209,0.244-0.43,0.37-0.641
	c1.602-2.686,3.134-5.462,4.567-8.352c0.123-0.247,0.233-0.507,0.355-0.755c2.172-4.455,4.141-9.142,5.846-14.097
	c0.6-1.744,1.169-3.52,1.704-5.327c0.291-0.982,0.567-1.972,0.832-2.97C374.516,182.529,374.589,182.226,374.666,181.925z"/>
<path d="M359.938,11.749C357.355,4.722,350.589,0,343.1,0H168.953c-7.487,0-14.253,4.721-16.837,11.748
	c-2.008,5.462-5.107,14.274-8.466,25.242c-1.238,4.04,1.034,8.319,5.074,9.556c4.038,1.238,8.318-1.034,9.556-5.074
	c3.258-10.636,6.257-19.163,8.198-24.444c0.38-1.033,1.375-1.727,2.476-1.727h174.148c1.101,0,2.096,0.693,2.476,1.727
	c7.525,20.465,28.236,82.234,25.685,135.057h-25.2c-4.226,0-7.651,3.425-7.651,7.651s3.425,7.651,7.651,7.651h23.715
	c-0.616,4.207-1.409,8.221-2.365,12.029c-0.059,0.233-0.117,0.467-0.177,0.699c-0.307,1.189-0.626,2.363-0.965,3.509
	c-6.005,20.267-16.48,36.242-28.677,48.793c-0.107,0.11-0.211,0.227-0.319,0.337c-0.683,0.698-1.379,1.369-2.072,2.046
	c-0.35,0.342-0.694,0.696-1.046,1.033c-0.638,0.609-1.287,1.193-1.933,1.784c-0.417,0.382-0.828,0.777-1.248,1.152
	c-0.455,0.406-0.917,0.792-1.375,1.19c-0.619,0.538-1.235,1.085-1.859,1.608c-0.184,0.154-0.371,0.298-0.556,0.451
	c-12.87,10.67-26.699,18.191-38.797,23.385c-0.066,0.028-0.129,0.053-0.195,0.081c-1.976,0.845-3.907,1.632-5.777,2.357
	c-2.898,1.124-5.656,2.108-8.229,2.967c-0.099,0.033-0.199,0.06-0.298,0.093c-0.001,0-0.002,0-0.004,0.001
	c-8.721,2.856-18.097,3.552-27.132,2.089c-0.006-0.001-0.011-0.002-0.017-0.003c-0.745-0.121-1.488-0.256-2.229-0.407
	c-0.11-0.022-0.218-0.05-0.328-0.073c-0.636-0.133-1.272-0.272-1.903-0.427c-0.264-0.065-0.525-0.141-0.789-0.21
	c-0.476-0.124-0.952-0.244-1.424-0.38c-0.671-0.194-1.338-0.403-2.001-0.622c-0.064-0.021-0.128-0.038-0.192-0.06
	c-0.019-0.006-0.039-0.013-0.058-0.02l-0.336-0.115c-0.002-0.001-0.004-0.001-0.006-0.002c-0.533-0.179-1.076-0.366-1.625-0.556
	c-0.204-0.071-0.398-0.134-0.604-0.207c-0.554-0.194-1.128-0.405-1.697-0.61c-0.353-0.128-0.695-0.247-1.053-0.379
	c-0.319-0.118-0.651-0.247-0.973-0.368c-0.623-0.234-1.243-0.464-1.88-0.711c-0.063-0.025-0.129-0.052-0.193-0.077
	c-2.842-1.106-5.815-2.343-8.884-3.73c-0.064-0.029-0.13-0.061-0.194-0.09c-0.983-0.446-1.974-0.904-2.975-1.38
	c-0.002-0.001-0.004-0.002-0.007-0.003c-6.391-3.043-13.111-6.718-19.808-11.135c-0.029-0.019-0.059-0.04-0.088-0.06
	c-5.553-3.668-11.089-7.845-16.408-12.596c-0.487-0.435-0.966-0.893-1.449-1.338c-0.577-0.531-1.159-1.052-1.731-1.598
	c-0.816-0.778-1.619-1.583-2.421-2.39c-0.231-0.232-0.467-0.453-0.697-0.688c-12.335-12.601-22.939-28.686-28.997-49.132
	c-0.009-0.029-0.016-0.06-0.025-0.089c-0.316-1.072-0.613-2.169-0.901-3.278c-0.082-0.315-0.163-0.632-0.242-0.95
	c-0.266-1.064-0.521-2.141-0.76-3.238c-0.066-0.304-0.128-0.613-0.192-0.92c-0.183-0.872-0.357-1.756-0.523-2.647
	c-0.105-0.562-0.208-1.126-0.306-1.696c-0.092-0.529-0.175-1.066-0.261-1.601c-0.096-0.603-0.193-1.205-0.282-1.817h168.169
	c4.226,0,7.651-3.425,7.651-7.651s-3.425-7.651-7.651-7.651H140.863c-1.022-21.887,1.761-47.797,8.32-76.622
	c0.937-4.12-1.642-8.22-5.763-9.158c-4.12-0.938-8.22,1.642-9.158,5.763c-7.713,33.895-10.433,63.436-8.205,88.284
	c0.002,0.021,0,0.041,0.002,0.062c0.014,0.162,0.033,0.321,0.048,0.483c0.179,1.93,0.387,3.831,0.627,5.703
	c0.083,0.652,0.168,1.301,0.258,1.946c0.136,0.967,0.272,1.934,0.425,2.886c0.216,1.36,0.454,2.699,0.704,4.025
	c0.124,0.652,0.25,1.301,0.382,1.945c0.313,1.539,0.645,3.056,1.003,4.545c0.084,0.348,0.174,0.691,0.26,1.036
	c0.422,1.694,0.865,3.364,1.347,4.988c15.861,53.528,58.812,80.186,89.587,92.78c0.301,0.123,0.59,0.234,0.889,0.355
	c0.793,0.32,1.587,0.641,2.362,0.942c0.216,0.084,0.422,0.159,0.637,0.241c0.844,0.325,1.686,0.647,2.506,0.95
	c0.315,0.116,0.615,0.221,0.927,0.334c0.206,0.075,0.41,0.148,0.614,0.221l1.452,5.644c4.157,16.151,6.264,32.797,6.264,49.474
	v129.69c-1.5,0.499-2.989,1.038-4.452,1.654l-54.12,22.808c-4.374,1.843-6.772,6.38-5.832,11.033
	c0.94,4.652,4.912,7.902,9.659,7.902h148.841c4.747,0,8.718-3.25,9.658-7.902c0.94-4.653-1.458-9.19-5.832-11.032l-54.12-22.808
	c-1.727-0.728-3.485-1.361-5.262-1.925v-129.11c0-16.876,2.157-33.712,6.412-50.042l1.329-5.103
	c4.766-1.693,9.987-3.748,15.49-6.246c0.062-0.028,0.125-0.059,0.187-0.087c2.249-1.024,4.541-2.117,6.866-3.29
	c0.158-0.08,0.32-0.167,0.478-0.248c3.432-1.744,6.929-3.647,10.453-5.739c0.01-0.006,0.02-0.012,0.03-0.018
	c25.798-15.322,52.914-40.349,64.804-80.478c0.301-1.016,0.587-2.041,0.862-3.072c0.063-0.236,0.121-0.478,0.182-0.715
	c0.207-0.794,0.409-1.591,0.601-2.393c0.083-0.349,0.161-0.704,0.242-1.055c0.16-0.694,0.317-1.389,0.466-2.088
	c0.093-0.438,0.182-0.882,0.271-1.324c0.121-0.601,0.241-1.202,0.355-1.807c0.103-0.548,0.203-1.1,0.3-1.654
	c0.082-0.466,0.162-0.933,0.239-1.401c0.116-0.696,0.228-1.396,0.335-2.101c0.036-0.241,0.071-0.483,0.106-0.724
	c0.441-3.003,0.812-6.074,1.092-9.223c0.013-0.147,0.011-0.294,0.016-0.44C390.93,102.331,368.075,33.878,359.938,11.749z
	 M246.364,288.386c0.475,0.063,0.949,0.126,1.425,0.179c0.388,0.044,0.777,0.079,1.166,0.116c0.525,0.051,1.05,0.104,1.577,0.144
	c0.236,0.018,0.472,0.027,0.707,0.042c1.392,0.091,2.786,0.146,4.181,0.157c0.08,0.001,0.159,0.004,0.239,0.005
	c0.123,0.001,0.245,0.007,0.368,0.007c0.501,0,1.003-0.02,1.504-0.03c0.275-0.006,0.551-0.008,0.826-0.016
	c0.591-0.019,1.182-0.049,1.772-0.082c0.305-0.017,0.611-0.034,0.916-0.055c0.581-0.04,1.161-0.087,1.741-0.141
	c0.31-0.029,0.62-0.06,0.929-0.093c0.581-0.061,1.16-0.126,1.739-0.201c0.089-0.012,0.179-0.019,0.268-0.031
	c-4.07,16.627-6.132,33.713-6.132,50.835v126.264c-2.643-0.153-5.293-0.135-7.937,0.055V338.913c0-17.049-2.045-34.067-6.081-50.627
	C245.836,288.324,246.101,288.351,246.364,288.386z M303.491,496.698h-94.929l29.281-12.34c2.639-1.112,5.368-1.957,8.144-2.562
	c0.548-0.121,1.097-0.227,1.646-0.327c0.332-0.06,0.664-0.121,0.997-0.174c0.364-0.059,0.728-0.107,1.092-0.157
	c0.507-0.068,1.014-0.136,1.523-0.188c0.144-0.015,0.288-0.025,0.432-0.039c4.273-0.394,8.592-0.199,12.82,0.571
	c0.313,0.058,0.627,0.107,0.939,0.172c2.993,0.609,5.935,1.507,8.774,2.704L303.491,496.698z"/>
<g>
</g>
<g>
</g>
<g>
</g>
<g>
</g>
<g>
</g>
<g>
</g>
<g>
</g>
<g>
</g>
<g>
</g>
<g>
</g>
<g>
</g>
<g>
</g>
<g>
</g>
<g>
</g>
<g>
</g>
</svg>
